<svg xmlns="http://www.w3.org/2000/svg" xmlns:xlink="http://www.w3.org/1999/xlink" viewBox="0 0 322.676 319.215"><defs><style>.cls-1{fill:none;}.cls-2{clip-path:url(#clip-path);}.cls-3{fill:#cdcecd;}.cls-4{fill:#2f3f4e;}.cls-5{fill:#1ea482;}.cls-6{fill:#007eab;}.cls-7{fill:#57646f;}.cls-8{fill:#ff7600;}</style><clipPath id="clip-path"><circle class="cls-1" cx="163.652" cy="164.495" r="144.028"/></clipPath></defs><g id="Practitioner_2_color" data-name="Practitioner 2 color"><g class="cls-2"><circle class="cls-3" cx="163.652" cy="164.495" r="144.028"/><path class="cls-4" d="M88.675,58.709s-3.312,15.179,3.312,22.355l9.719-20.975Z"/><path class="cls-5" d="M332.813,318.955s-7.5-89.14-23.582-95.572-90.1-26.8-90.1-26.8-2.785-2.276-2.56-5.426,2.474-43.417,6.3-50.616S260.8,21.164,172.116,22.68C95.352,23.992,86.6,80.418,85.636,95.561a10.452,10.452,0,0,0,1.647,6.323c1.609,2.507,3.743,6.166,3.743,7.948,0,2.861-3.962,9.024-3.3,14.526s5.5,55.9,11,58.763,30.592,8.8,30.592,8.8,5.723,1.459,5.062,10.7c0,0-48.315,7.168-77.045,17.018a37.867,37.867,0,0,0-20.055,16.008c-6.176,10.072-29.4,56.416-29.073,79.86Z"/><path class="cls-6" d="M105.4,85.229l6.135,21.394-13.786,38.11s12.228,8.414,17.072,2.461c1.895-2.328-2.562,19.245,2.659,36.2l-5.643,4.046c-5.593-1.55-10.908-3.181-13.1-4.323-5.5-2.861-10.344-53.261-11-58.763s3.3-11.665,3.3-14.526c0-1.781-2.133-5.44-3.743-7.947a10.525,10.525,0,0,1-1.643-6.379c.893-13.769,8.2-61.121,66.311-71.018C151.63,24.593,106.829,39.336,105.4,85.229Z"/><path class="cls-4" d="M99.6,166.088s2.677,4.785,13.028,4.877,16.072-5.742,16.072-5.742-9.534,3.222-16.344,2.871A66.116,66.116,0,0,1,99.6,166.088Z"/><ellipse class="cls-4" cx="132.944" cy="112.117" rx="2.462" ry="2.783"/><ellipse class="cls-4" cx="101.65" cy="111.363" rx="2.462" ry="2.783"/><path class="cls-4" d="M148.56,106.191c1.4-1.238-5.757-10.315-12.473-10.155s-10.874,1.6-9.915,5.076,6.077-.6,11.514,1.241S145.762,108.669,148.56,106.191Z"/><path class="cls-4" d="M101.463,100.366c.522,1.278-1.061,2.611-4.409,3.465s-4.427,3.995-6.448,2.213,2.948-5.633,4.2-6.283S100.244,97.384,101.463,100.366Z"/><path class="cls-7" d="M134.383,202.627l-7.344,1.167C131.614,203.039,134.383,202.627,134.383,202.627Z"/><path class="cls-8" d="M37.283,235.653a37.867,37.867,0,0,1,20.055-16.008c21.847-7.49,55-13.425,69.638-15.841,0,.008-7.838,21.31,16.959,25.258,29.947,4.767,71.041-21.415,82.128-30.555,18.783,5.225,70.1,19.651,83.168,24.876,16.079,6.432,23.582,95.572,23.582,95.572L8.21,315.513C7.885,292.069,31.107,245.725,37.283,235.653Z"/><path class="cls-7" d="M126.977,203.8l.062-.009-.063.01Z"/><path class="cls-4" d="M143.935,229.062c-24.8-3.948-16.962-25.25-16.959-25.258l.063-.01,7.344-1.167s-6.505,12.609,12.464,17.009c24.534,5.693,58.005-17.251,70.019-26.325a8.149,8.149,0,0,0,2.261,3.274s2.6.716,6.936,1.922C214.976,207.647,173.882,233.829,143.935,229.062Z"/><circle class="cls-1" cx="163.652" cy="164.495" r="144.028"/></g><path class="cls-4" d="M84.338,176.594s-3.3,24.431,25.531,23.771,31.474.88,51.283-7.484,40.5-22.45,35.876-50.842-4.4-46.66,8.143-44.239c0,0,12.986,4.4,10.125,20.028s-8.364,13.866-8.364,13.866l1.769,11.438,14.318,1.637,15.136-43.362V51.91S214.415,14.6,185.583,10.972C158.174,7.52,76.692,37.2,76.692,37.2s5.666,31.493,26.575,31.768c33.454.44,37.771-10.344,54.1-8.144S178.76,80.632,178.98,86.355s3.961,34.555,3.961,34.555l-8.363,33.674-27.732,10.785L133.86,152.6s-13.37-7.154-24.513-1.486S96,162.288,96,162.288l-4.056-3.981-2.166-15.818ZM99.6,168.553a23.843,23.843,0,0,1,17.5-9.074c10.882,0,20.9,10.856,20.9,10.856l-3.726,10.371c-22.848-5.834-34.676,0-34.676,0Z"/><path class="cls-4" d="M153.343,269.119a3.06,3.06,0,1,0-3.06,3.058A3.059,3.059,0,0,0,153.343,269.119Z"/><path class="cls-4" d="M153.343,248.723a3.06,3.06,0,1,0-3.06,3.059A3.059,3.059,0,0,0,153.343,248.723Z"/></g></svg>