<svg xmlns="http://www.w3.org/2000/svg" xmlns:xlink="http://www.w3.org/1999/xlink" viewBox="0 0 322.676 319.215"><defs><style>.cls-1,.cls-2,.cls-7{fill:none;}.cls-2{stroke:#303f4e;stroke-width:0.3px;}.cls-3{clip-path:url(#clip-path);}.cls-4{fill:#cdcecd;}.cls-5{fill:#007eab;}.cls-6{fill:#2f3f4e;}.cls-7{stroke:#fff;stroke-miterlimit:10;}.cls-8{fill:#d1d5d8;}.cls-9{fill:#ff7600;}.cls-10{fill:url(#Grid_1_pica_Lines);}</style><clipPath id="clip-path"><circle class="cls-1" cx="163.652" cy="166.28" r="144.028"/></clipPath><pattern id="Grid_1_pica_Lines" data-name="Grid 1 pica Lines" width="72" height="72" patternUnits="userSpaceOnUse" viewBox="0 0 72 72"><rect class="cls-1" width="72" height="72"/><line class="cls-2" x1="6" y1="71.75" x2="6" y2="144.25"/><line class="cls-2" x1="30" y1="71.75" x2="30" y2="144.25"/><line class="cls-2" x1="54" y1="71.75" x2="54" y2="144.25"/><line class="cls-2" x1="18" y1="71.75" x2="18" y2="144.25"/><line class="cls-2" x1="42" y1="71.75" x2="42" y2="144.25"/><line class="cls-2" x1="66" y1="71.75" x2="66" y2="144.25"/><line class="cls-2" x1="71.75" y1="66" x2="144.25" y2="66"/><line class="cls-2" x1="71.75" y1="42" x2="144.25" y2="42"/><line class="cls-2" x1="71.75" y1="18" x2="144.25" y2="18"/><line class="cls-2" x1="71.75" y1="54" x2="144.25" y2="54"/><line class="cls-2" x1="71.75" y1="30" x2="144.25" y2="30"/><line class="cls-2" x1="71.75" y1="6" x2="144.25" y2="6"/><line class="cls-2" x1="6" y1="-0.25" x2="6" y2="72.25"/><line class="cls-2" x1="30" y1="-0.25" x2="30" y2="72.25"/><line class="cls-2" x1="54" y1="-0.25" x2="54" y2="72.25"/><line class="cls-2" x1="-0.25" y1="66" x2="72.25" y2="66"/><line class="cls-2" x1="-0.25" y1="42" x2="72.25" y2="42"/><line class="cls-2" x1="-0.25" y1="18" x2="72.25" y2="18"/><line class="cls-2" x1="-0.25" y1="54" x2="72.25" y2="54"/><line class="cls-2" x1="-0.25" y1="30" x2="72.25" y2="30"/><line class="cls-2" x1="-0.25" y1="6" x2="72.25" y2="6"/><line class="cls-2" x1="18" y1="-0.25" x2="18" y2="72.25"/><line class="cls-2" x1="42" y1="-0.25" x2="42" y2="72.25"/><line class="cls-2" x1="66" y1="-0.25" x2="66" y2="72.25"/><line class="cls-2" x1="-72.25" y1="66" x2="0.25" y2="66"/><line class="cls-2" x1="-72.25" y1="42" x2="0.25" y2="42"/><line class="cls-2" x1="-72.25" y1="18" x2="0.25" y2="18"/><line class="cls-2" x1="-72.25" y1="54" x2="0.25" y2="54"/><line class="cls-2" x1="-72.25" y1="30" x2="0.25" y2="30"/><line class="cls-2" x1="-72.25" y1="6" x2="0.25" y2="6"/><line class="cls-2" x1="6" y1="-72.25" x2="6" y2="0.25"/><line class="cls-2" x1="30" y1="-72.25" x2="30" y2="0.25"/><line class="cls-2" x1="54" y1="-72.25" x2="54" y2="0.25"/><line class="cls-2" x1="18" y1="-72.25" x2="18" y2="0.25"/><line class="cls-2" x1="42" y1="-72.25" x2="42" y2="0.25"/><line class="cls-2" x1="66" y1="-72.25" x2="66" y2="0.25"/></pattern></defs><g id="Practitioner_2_color" data-name="Practitioner 2 color"><g class="cls-3"><circle class="cls-4" cx="163.652" cy="166.28" r="144.028"/><path class="cls-5" d="M112.959,212.4s20.137,2.659,19.42-12.025-10.824-47.431-10.824-47.431S83.948,90.985,133.375,51.586,237.243,61.973,236.169,100.3c0,0,.725,3.67.015,5.58s-4.088,11.6-4.381,16.157,1.322,12.045,0,18.067-16.451,48.179-16.451,48.179l-14.689,5.141a3.726,3.726,0,0,0-2.056,3.819c.293,2.791,1.955,15.163,1.955,15.163s3.8,12.1,55.934,14.524c26.1,1.212,40.716,27.51,41.787,39.294s6.428,42.315,6.428,42.315H20.5L32.822,253.9s4.82-25.71,26.781-30.531S112.959,212.4,112.959,212.4Z"/><path class="cls-6" d="M216.015,100.861l10.7,48.4-10.582,1.852-4.051,19.146-5.761,2.591,5.761,4.11v12.46h0l3.268-1.144s15.13-42.156,16.452-48.179-.294-13.513,0-18.067,3.672-14.248,4.381-16.157-.015-5.58-.015-5.58c.564-20.142-14.209-43.442-35.526-55.3l-1.261,1.783C220.921,69.989,216.015,100.861,216.015,100.861Z"/><line class="cls-7" x1="185.18" y1="113.737" x2="149.066" y2="113.737"/><circle class="cls-8" cx="140.066" cy="141.992" r="3.987"/><path class="cls-6" d="M135.119,148.082,121.1,154.431l-12.3-31.478L99.1,99.366l62.393-24.159s41.844-11.473,64.388-6.783l5.1,9.053s-51.42,1.344-69.11,22.269c0,0-9.131,26.822-7.609,33.479l-8.751.191s2.626-27.583-9.434-25.681S117.5,132.123,135.119,148.082Z"/><path class="cls-7" d="M185.18,109.14s-4.836,24.127,14.2,24.131c14.721,0,14.162-24.131,14.162-24.131S195.29,105.863,185.18,109.14Z"/><path class="cls-7" d="M224.674,110.183s-2.682,23.237,9.384,24.429,12.959-20.875,12.959-20.875S235.912,107.932,224.674,110.183Z"/><path class="cls-7" d="M212.872,117.208s4.379-1.578,11.655,1.624"/><path class="cls-6" d="M180.766,101.873a.593.593,0,0,1-.154-1.141c5.616-2.219,20.8-7.5,25.411-1.842C210.808,104.764,188.157,102.69,180.766,101.873Z"/><path class="cls-6" d="M227.1,101.5c.021.817,5.19.93,8.095,1.447s8.4,5.576,9.344,4.769-2.944-8.066-7.344-8.24S227.032,98.758,227.1,101.5Z"/><ellipse class="cls-6" cx="202.652" cy="116.584" rx="2.284" ry="2.847"/><ellipse class="cls-6" cx="237.367" cy="119.964" rx="2.284" ry="2.847"/><path class="cls-9" d="M112.959,212.4s-31.4,6.148-53.356,10.968S32.822,253.9,32.822,253.9L20.5,314.536H304.711s-5.356-36.531-6.428-48.315-11.309-38.152-41.787-39.294c-16.527-.619-46.508-6.548-51.63-10.491l-22.505,73.979L132.2,203.392C128.526,212.8,112.959,212.4,112.959,212.4Z"/><path class="cls-10" d="M112.959,212.4s-31.4,6.148-53.356,10.968S32.822,253.9,32.822,253.9L20.5,314.536H304.711s-5.356-36.531-6.428-48.315-11.309-38.152-41.787-39.294c-16.527-.619-46.508-6.548-51.63-10.491l-22.505,73.979L132.2,203.392C128.526,212.8,112.959,212.4,112.959,212.4Z"/><path class="cls-6" d="M165.041,192.694s34.046-2.467,50.31-4.414l-14.688,5.141a3.707,3.707,0,0,0-2.056,3.819Z"/><path class="cls-6" d="M221.913,163.872l-4.4-1.738-2.352,1.746-2.983-2.733-19.523-2.964s14.162,18.184,27.134,11.324A35.269,35.269,0,0,0,221.913,163.872Z"/><circle class="cls-1" cx="163.652" cy="166.28" r="144.028"/></g><path class="cls-6" d="M81,95.705c-2.851-4.777-1.223-11.217,3.66-14.48-5.519-4.549-7.923-11.765-6.045-18.149s7.959-11.673,15.3-13.3a17.653,17.653,0,0,1,5.58-18.689c5.505-4.746,14.068-6.61,21.527-4.685,3.824-8.642,14.694-13.647,25.307-14.466,4.9-.378,10.365.166,13.761,3.278,5.609-2.844,11.532-5.531,17.993-6.176S191.705,10.181,195.5,14.8a5.285,5.285,0,0,0,1.953,1.8c1.291.524,2.771-.055,4.1-.5a20.994,20.994,0,0,1,17.051,1.86c4.888,2.989,7.915,8.16,7.811,13.345,6.158-.776,12.728,1.659,16.374,6.069a13.558,13.558,0,0,1,1.392,15.417,7.15,7.15,0,0,1,6.443,2.032,12.768,12.768,0,0,1,2.982,5.67c1.67,5.711,1.6,12.614-3.5,16.46a4.39,4.39,0,0,1,3.85,5.058c-.376,2.243-2.128,4.095-3.85,5.789a16.689,16.689,0,0,1-5.47,4c-2.751,1.072-5.908.863-8.912,1.13-3.178.282-6.289,1.119-9.485,1.112-6.077-.013-11.993-3.386-14.445-8.236a24.272,24.272,0,0,1-13.027,6.859c-5.092.813-10.755-.441-14.268-3.773-3.317,6.776-14,9.844-21.348,6.134-2.491,3.166-7.313,4.79-11.623,3.913-2.862-.582-5.856-2.14-8.514-1.069a8.8,8.8,0,0,0-2.889,2.287,22.867,22.867,0,0,1-9.8,6.369c-3.919,1.141-8.645.7-11.637-1.8-1.912,3.966-7.11,6.5-12.01,5.863a11.956,11.956,0,0,1-6.815-3.342c-1.621-1.619-1.923-4.512-4.007-5.44-1.962-.874-5.8.04-8.258-.887A12.921,12.921,0,0,1,81,95.705Z"/></g></svg>