<svg xmlns="http://www.w3.org/2000/svg" xmlns:xlink="http://www.w3.org/1999/xlink" viewBox="0 0 322.676 319.215"><defs><style>.cls-1,.cls-11,.cls-2{fill:none;}.cls-2{stroke:#303f4e;stroke-width:0.3px;}.cls-3{clip-path:url(#clip-path);}.cls-4{fill:#cdcecd;}.cls-5{fill:#007eab;}.cls-6{fill:url(#Grid_1_pica_Lines);}.cls-7{fill:#2f3f4e;}.cls-8{fill:#ff7600;}.cls-9{fill:#f4ba16;}.cls-10{fill:#aab0b6;}.cls-11{stroke:#cdcecd;stroke-miterlimit:10;}</style><clipPath id="clip-path"><circle class="cls-1" cx="165.077" cy="165.236" r="144.028"/></clipPath><pattern id="Grid_1_pica_Lines" data-name="Grid 1 pica Lines" width="72" height="72" patternUnits="userSpaceOnUse" viewBox="0 0 72 72"><rect class="cls-1" width="72" height="72"/><line class="cls-2" x1="6" y1="71.75" x2="6" y2="144.25"/><line class="cls-2" x1="30" y1="71.75" x2="30" y2="144.25"/><line class="cls-2" x1="54" y1="71.75" x2="54" y2="144.25"/><line class="cls-2" x1="18" y1="71.75" x2="18" y2="144.25"/><line class="cls-2" x1="42" y1="71.75" x2="42" y2="144.25"/><line class="cls-2" x1="66" y1="71.75" x2="66" y2="144.25"/><line class="cls-2" x1="71.75" y1="66" x2="144.25" y2="66"/><line class="cls-2" x1="71.75" y1="42" x2="144.25" y2="42"/><line class="cls-2" x1="71.75" y1="18" x2="144.25" y2="18"/><line class="cls-2" x1="71.75" y1="54" x2="144.25" y2="54"/><line class="cls-2" x1="71.75" y1="30" x2="144.25" y2="30"/><line class="cls-2" x1="71.75" y1="6" x2="144.25" y2="6"/><line class="cls-2" x1="6" y1="-0.25" x2="6" y2="72.25"/><line class="cls-2" x1="30" y1="-0.25" x2="30" y2="72.25"/><line class="cls-2" x1="54" y1="-0.25" x2="54" y2="72.25"/><line class="cls-2" x1="-0.25" y1="66" x2="72.25" y2="66"/><line class="cls-2" x1="-0.25" y1="42" x2="72.25" y2="42"/><line class="cls-2" x1="-0.25" y1="18" x2="72.25" y2="18"/><line class="cls-2" x1="-0.25" y1="54" x2="72.25" y2="54"/><line class="cls-2" x1="-0.25" y1="30" x2="72.25" y2="30"/><line class="cls-2" x1="-0.25" y1="6" x2="72.25" y2="6"/><line class="cls-2" x1="18" y1="-0.25" x2="18" y2="72.25"/><line class="cls-2" x1="42" y1="-0.25" x2="42" y2="72.25"/><line class="cls-2" x1="66" y1="-0.25" x2="66" y2="72.25"/><line class="cls-2" x1="-72.25" y1="66" x2="0.25" y2="66"/><line class="cls-2" x1="-72.25" y1="42" x2="0.25" y2="42"/><line class="cls-2" x1="-72.25" y1="18" x2="0.25" y2="18"/><line class="cls-2" x1="-72.25" y1="54" x2="0.25" y2="54"/><line class="cls-2" x1="-72.25" y1="30" x2="0.25" y2="30"/><line class="cls-2" x1="-72.25" y1="6" x2="0.25" y2="6"/><line class="cls-2" x1="6" y1="-72.25" x2="6" y2="0.25"/><line class="cls-2" x1="30" y1="-72.25" x2="30" y2="0.25"/><line class="cls-2" x1="54" y1="-72.25" x2="54" y2="0.25"/><line class="cls-2" x1="18" y1="-72.25" x2="18" y2="0.25"/><line class="cls-2" x1="42" y1="-72.25" x2="42" y2="0.25"/><line class="cls-2" x1="66" y1="-72.25" x2="66" y2="0.25"/></pattern></defs><g id="Engineer_1_color" data-name="Engineer 1 color"><g class="cls-3"><circle class="cls-4" cx="165.077" cy="165.236" r="144.028"/><path class="cls-5" d="M149.844,231.813l-69.176,10.7s-43.027,28.707-42.091,68.928H308.894s4.677-60.509-29.931-67.992L231.94,229.5S203.119,242.622,149.844,231.813Z"/><path class="cls-6" d="M149.844,231.813l-69.176,10.7s-43.027,28.707-42.091,68.928H308.894s4.677-60.509-29.931-67.992L231.94,229.5S203.119,242.622,149.844,231.813Z"/><path class="cls-7" d="M233.641,67.625c-.209-1.672-.454-3.339-.7-5.005a1.528,1.528,0,0,0,.586-.745c1.414-3.7-3.963-5.061-6.374-5.833a119.829,119.829,0,0,0-12.256-3.37,52.211,52.211,0,0,0-12.132-1.208,58.726,58.726,0,0,0-11.83,2.013,25.251,25.251,0,0,1-11.519.442c-3.754-.82-7.322-2.285-10.993-3.392-7.225-2.178-14.423-1.719-21.8-.692-8.089,1.125-16.508,2.747-24.447-.033a1.242,1.242,0,0,0-1.545.507,26.8,26.8,0,0,0-19,15.482,26.956,26.956,0,0,0,0,20.558,26.07,26.07,0,0,0,1.465,3c.637,1.107,1.462,2.1,2.073,3.222,1.286,2.358-.756,4.165-2.328,5.733a40.6,40.6,0,0,0-4.448,5.242,28.33,28.33,0,0,0-5.244,12.639,18.384,18.384,0,0,0,.325,6.656,17.492,17.492,0,0,0,1.147,3.208,19.191,19.191,0,0,1,1.509,3.364c.529,2.159-.873,4.078-2.145,5.681a27.952,27.952,0,0,0-3.551,4.974,17.359,17.359,0,0,0,5.5,21.207,8.647,8.647,0,0,0-1.539,6.612,10.5,10.5,0,0,0,5.64,7.5c6.152,3.309,13.865,2.234,20.135-.141,6.66-2.524,12.623-6.484,18.881-9.818a54.69,54.69,0,0,1,10-4.306,56.065,56.065,0,0,1,12.233-2.036c8.365-.577,16.79-.151,25.1-1.477a48.7,48.7,0,0,0,19.434-7.661c11.37-7.62,19.668-19.377,24.175-32.209C235.616,101.724,235.73,84.3,233.641,67.625Z"/><path class="cls-8" d="M227.781,177.272S253.1,84.788,240.91,65.77c-13.018-20.309-59.364-28.535-84.359-29.056S118.537,65.77,118.537,65.77s-4.686,25-4.686,30.2,2.343,21.35,2.343,21.35l18.128,75.131a15.654,15.654,0,0,0,11.877,12.5c1.33.306,2.795.612,4.4.909,0,0-.166,2.249-.753,25.956a70.88,70.88,0,0,0,50.089,15.167c29.875-2.757,32.007-17.485,32.007-17.485S225.064,209.9,227.781,177.272Z"/><path class="cls-9" d="M142.876,151.974H132.805a2.01,2.01,0,0,1-1.991-2.285l5.294-38.3a209.115,209.115,0,0,0-3-31.429c-2.858-15.511,6.543-37.031,6.543-37.031v-1a90.721,90.721,0,0,0-21.112,23.841s-3.211,17.129-4.316,25.979c-.122,2.532-.192,4.739-.277,6.525.435,6.548,2.25,19.049,2.25,19.049l18.066,74.787a15.7,15.7,0,0,0,11.249,12.333l3.434.953-5.319-15.51a.289.289,0,0,1,.055-.282h0a7.032,7.032,0,0,0-1.522-10.526l-.8-.509Z"/><path class="cls-10" d="M113.85,95.972c0,.624.035,1.409.094,2.3.085-1.786.155-3.993.277-6.525A39.752,39.752,0,0,0,113.85,95.972Z"/><ellipse class="cls-7" cx="123.872" cy="117.147" rx="2.671" ry="3.329"/><ellipse class="cls-7" cx="155.662" cy="117.167" rx="2.686" ry="3.349"/><path class="cls-7" d="M136.687,166.715s11.065,9,26.313-2.749c0,0-3.2,10.787-17.161,10.853C138.9,174.851,136.687,166.715,136.687,166.715Z"/><path class="cls-8" d="M210.476,124.571s8.091-15.838,21.432-10.753-2.053,61.526-25.142,51.777"/><path class="cls-7" d="M115.3,60.9a6.746,6.746,0,0,0,.494,4.026c1.619,3.046,6.115,3.009,9.226,1.517s5.8-3.993,9.181-4.664c7.133-1.413,14.139,5.808,21.1,3.721,2.975-.892,5.23-3.343,8.079-4.582,5.279-2.294,11.4-.029,16.382,2.845s9.889,6.469,15.622,6.982c9.51.851,18.015-7.019,27.561-6.791,4.83.116,10.761,1.913,13.713-1.912,1.823-2.362,1.286-5.921-.483-8.322s-5.07-3.077-7.183-5.183c-14.956-14.908-28.961-10.3-43.928-13.875-11.146-2.661-22.393-5.335-33.849-5.616-3.75-.093-7.622.1-11.023,1.683a28.8,28.8,0,0,0-7.241,5.478C126.03,42.705,116.6,50.781,115.3,60.9Z"/><path class="cls-7" d="M182.335,75.4a1.489,1.489,0,0,0,0,2.976A1.489,1.489,0,0,0,182.335,75.4Z"/><path class="cls-7" d="M194.888,75.4a1.489,1.489,0,0,0,0,2.976A1.489,1.489,0,0,0,194.888,75.4Z"/><path class="cls-7" d="M204.931,74.9a1.489,1.489,0,0,0,0,2.976A1.489,1.489,0,0,0,204.931,74.9Z"/><path class="cls-7" d="M216.48,74.9a1.489,1.489,0,0,0,0,2.976A1.489,1.489,0,0,0,216.48,74.9Z"/><path class="cls-7" d="M226.021,74.4a1.489,1.489,0,0,0,0,2.977A1.489,1.489,0,0,0,226.021,74.4Z"/><path class="cls-7" d="M234.557,74.4a1.489,1.489,0,0,0,0,2.977A1.489,1.489,0,0,0,234.557,74.4Z"/><path class="cls-7" d="M188.863,83.939a1.489,1.489,0,0,0,0,2.977A1.489,1.489,0,0,0,188.863,83.939Z"/><path class="cls-7" d="M199.408,82.935a1.489,1.489,0,0,0,0,2.976A1.489,1.489,0,0,0,199.408,82.935Z"/><path class="cls-7" d="M209.45,81.931a1.489,1.489,0,0,0,0,2.976A1.489,1.489,0,0,0,209.45,81.931Z"/><path class="cls-7" d="M221.5,82.433a1.489,1.489,0,0,0,0,2.976A1.489,1.489,0,0,0,221.5,82.433Z"/><path class="cls-7" d="M231.042,82.433a1.489,1.489,0,0,0,0,2.976A1.489,1.489,0,0,0,231.042,82.433Z"/><path class="cls-7" d="M205.433,90.467a1.489,1.489,0,0,0,0,2.977A1.489,1.489,0,0,0,205.433,90.467Z"/><path class="cls-7" d="M215.476,90.467a1.489,1.489,0,0,0,0,2.977A1.489,1.489,0,0,0,215.476,90.467Z"/><path class="cls-7" d="M226.523,90.467a1.489,1.489,0,0,0,0,2.977A1.489,1.489,0,0,0,226.523,90.467Z"/><path class="cls-7" d="M237.57,90.467a1.489,1.489,0,0,0,0,2.977A1.489,1.489,0,0,0,237.57,90.467Z"/><path class="cls-7" d="M205.433,145.708s12.181,8.048,19.15,0,5.408-27.966,5.408-27.966,2.96-.292,3.129,5.108-.223,27.577-11.309,28.156S205.433,145.708,205.433,145.708Z"/><rect class="cls-4" x="214.043" y="154.781" width="3.246" height="26.528"/><line class="cls-11" x1="215.666" y1="154.781" x2="215.666" y2="144.934"/><circle class="cls-7" cx="215.48" cy="144.934" r="2.808"/><path class="cls-7" d="M148.943,95.011s21.769-5.2,30.1,12.068c0,0-19.252-12.8-30.1-6.4Z"/><path class="cls-7" d="M126.543,98.273v5.758l-11.806,2.228S108.384,102.674,126.543,98.273Z"/><polygon class="cls-7" points="150.597 205.857 210.529 182.987 150.376 212.005 150.597 205.857"/></g></g></svg>