<svg xmlns="http://www.w3.org/2000/svg" xmlns:xlink="http://www.w3.org/1999/xlink" viewBox="0 0 322.676 319.215"><defs><style>.cls-1,.cls-7{fill:none;}.cls-2{clip-path:url(#clip-path);}.cls-3{fill:#cdcecd;}.cls-4{fill:#2f3f4e;}.cls-5{fill:#1ea482;}.cls-6{fill:#f4ba16;}.cls-7{stroke:#f2b933;stroke-miterlimit:10;}.cls-8{fill:#007eab;}.cls-9{fill:#fff;}</style><clipPath id="clip-path"><path class="cls-1" d="M307.68,164.166a144.028,144.028,0,0,1-288.056,0C19.624,84.621,84.108.137,163.652.137S307.68,84.621,307.68,164.166Z"/></clipPath></defs><g id="Exec_color" data-name="Exec color"><g class="cls-2"><circle class="cls-3" cx="163.652" cy="164.166" r="144.028"/><path class="cls-4" d="M212.12,25.037c6.179.638,12.4,2.48,17.04,6.314s7.391,9.915,5.873,15.495c9.412,1.1,16.244,11.2,13.2,19.52-.529,1.444-1.3,3-.7,4.422.513,1.215,1.868,1.9,3.072,2.581,11.262,6.349,16.027,20.956,10.444,32.01,10.656,8.558,13.181,24.552,5.616,35.572-1.831,2.666-4.242,5.253-4.431,8.407-.162,2.7,1.361,5.206,2.36,7.75,3.2,8.138-.185,18.847-8.938,21.911-1.911.669-4.029.986-5.637,2.153-1.9,1.375-2.693,3.636-3.866,5.582a17,17,0,0,1-9.738,7.35,11.368,11.368,0,0,1-2.768,6.949c-9.147,11.758-29.527,11.762-42,3s-18.232-23.537-20.525-37.867c-.439-2.745-.8-5.577-2.221-8.019-1.61-2.766-4.4-4.736-6.9-6.865-16.553-14.109-21.221-37.006-18.341-57.66,1.877-13.462,6.99-25.832,11.243-38.714,2.865-8.675,3.542-18.022,6.848-26.545,2.839-7.323,7.268-11.615,15.709-13.095C192.457,12.657,199.172,23.7,212.12,25.037Z"/><path class="cls-5" d="M112.959,210.289s12.178-6.447,11.462-21.132-2.866-38.324-2.866-38.324S83.948,88.871,133.375,49.472,237.243,59.859,236.169,98.183c0,0,.725,3.671.015,5.58s-4.088,11.6-4.381,16.157,1.322,12.045,0,18.067c-1.013,4.613-11.232,34.241-15.958,47.854a9.1,9.1,0,0,1-9.554,6.062l-5.628-.6a3.726,3.726,0,0,0-2.056,3.819c.293,2.791,1.955,15.163,1.955,15.163s3.8,12.1,55.934,14.524c26.1,1.212,40.716,27.511,41.787,39.294s6.428,42.315,6.428,42.315H20.5l12.32-54.634s4.82-25.71,26.781-30.531S112.959,210.289,112.959,210.289Z"/><path class="cls-6" d="M216.015,98.747l9.076,41.055a7.2,7.2,0,0,1-5.789,8.647l-3.168.554-4.051,19.146-5.761,2.591,5.761,4.11-2.6,16.823s6.263-.574,7.871-5.507c3.947-12.1,13.13-42.156,14.452-48.179s-.294-13.513,0-18.067,3.672-14.247,4.381-16.157-.015-5.58-.015-5.58c.564-20.142-14.209-43.442-35.526-55.305l-1.261,1.783C220.921,67.875,216.015,98.747,216.015,98.747Z"/><path class="cls-4" d="M180.766,99.759a.593.593,0,0,1-.154-1.141c5.616-2.219,20.8-7.5,25.411-1.842C210.808,102.65,188.157,100.576,180.766,99.759Z"/><path class="cls-4" d="M227.1,99.39c.021.817,5.19.93,8.095,1.447s8.4,5.576,9.344,4.769-2.944-8.066-7.344-8.24S227.032,96.644,227.1,99.39Z"/><ellipse class="cls-4" cx="202.652" cy="114.47" rx="2.284" ry="2.847"/><path class="cls-7" d="M124.5,208.206s19.1,37.863,47.577,37,29.857-30.685,29.857-30.685"/><ellipse class="cls-4" cx="231.366" cy="117.85" rx="2.284" ry="2.847"/><path class="cls-4" d="M194.8,155.439s10.1,9.756,17.951,9.578,11.42-3.792,11.42-3.792l-6.227-5.786-3.468,1.968-4.991-2.843Z"/><polygon class="cls-8" points="150.776 270.297 199.382 270.297 188.416 310.619 168.563 310.619 150.776 270.297"/><path class="cls-4" d="M112.959,210.289l40.9,96.133H20.5s-2.572-76.514,39.1-85.165S112.959,210.289,112.959,210.289Z"/><polygon class="cls-9" points="112.959 210.289 125.42 199.79 180.236 310.619 200.562 210.289 224.166 221.205 202.652 310.619 153.86 306.422 112.959 210.289"/><path class="cls-4" d="M182.7,23.812c-4.414-1.6-9.335-.966-13.894-2.089-6.543-1.612-12.162-6.786-18.9-6.721-5.619.054-10.583,3.79-16.151,4.545-4.047.549-8.119-.511-12.193-.8-16.472-1.179-32.645,12.23-34.539,28.635C70.431,56.2,60.551,76.161,63.6,94.7a81.876,81.876,0,0,0-9.346,45.576c.247,2.8.8,5.889,3.033,7.6,1.06.815,2.465,1.287,3.126,2.449.985,1.729-.206,3.823-1.148,5.575-5.71,10.624-1.26,25.482,9.351,31.217,2.5,1.35,5.369,2.339,7.045,4.63,1.2,1.64,1.6,3.722,2.542,5.525,2.78,5.345,9.58,7.174,15.6,7.143s12.149-1.342,18.008.06c3.386.81,6.514,2.5,9.9,3.315,10.923,2.642,23.188-5.782,24.641-16.926,7.85,1.636,15.936-3.729,19.519-10.9s3.471-15.65,2.111-23.552c7.358-1.325,11.8-9.892,10.494-17.253s-6.976-13.289-13.387-17.135c1.064-5.831,2.132-11.78,1.324-17.652s-3.824-11.759-9.075-14.508c6.5-2.012,10.852-8.422,12.352-15.055s.646-13.543-.215-20.289c5.659,3.07,12.431,4.978,18.54,2.945C204.71,51.915,194.9,28.239,182.7,23.812Z"/><path class="cls-4" d="M224.166,221.205l-21.514,89.414,102.059-4.2-6.428-42.315s-3.166-32.776-41.787-39.294S224.166,221.205,224.166,221.205Z"/><circle class="cls-6" cx="172.079" cy="245.204" r="4.058"/></g></g></svg>