<svg xmlns="http://www.w3.org/2000/svg" xmlns:xlink="http://www.w3.org/1999/xlink" viewBox="0 0 322.676 319.215"><defs><style>.cls-1{fill:none;}.cls-2{clip-path:url(#clip-path);}.cls-3{fill:#cdcecd;}.cls-4{fill:#007eab;}.cls-5{fill:#1ea482;}.cls-6{fill:#2f3f4e;}.cls-7{fill:#57646f;}.cls-8{fill:#f4ba16;}.cls-9{fill:#ff7600;}</style><clipPath id="clip-path"><circle class="cls-1" cx="163.652" cy="164.495" r="144.028"/></clipPath></defs><g id="finance_color" data-name="finance color"><g class="cls-2"><circle class="cls-3" cx="163.652" cy="164.495" r="144.028"/><path class="cls-4" d="M-5.509,318.955s7.5-89.14,23.582-95.572,90.1-26.8,90.1-26.8,2.785-2.276,2.56-5.426-2.474-43.417-6.3-50.616S66.505,21.164,155.188,22.68c76.764,1.312,85.515,57.738,86.48,72.881a10.451,10.451,0,0,1-1.646,6.323c-1.61,2.507-3.744,6.166-3.744,7.948,0,2.861,3.962,9.024,3.3,14.526s-5.5,55.9-11,58.763-30.592,8.8-30.592,8.8-5.722,1.459-5.062,10.7c0,0,48.315,7.168,77.046,17.018a37.869,37.869,0,0,1,20.054,16.008c6.176,10.072,29.4,56.416,29.073,79.86Z"/><path class="cls-5" d="M221.909,85.229l-6.135,21.394,10.363,28.646a6.139,6.139,0,0,1-5.417,8.2,11.492,11.492,0,0,0-8.232,3.724c15.721,14.453,2.984,40.25,2.984,40.25,5.594-1.55,10.908-3.181,13.1-4.323,5.5-2.861,10.344-53.261,11-58.763s-3.3-11.665-3.3-14.526c0-1.783,2.136-5.445,3.746-7.953a10.467,10.467,0,0,0,1.642-6.342c-.883-13.728-8.161-61.144-66.313-71.049C175.675,24.593,220.475,39.336,221.909,85.229Z"/><ellipse class="cls-6" cx="194.361" cy="112.117" rx="2.462" ry="2.783"/><ellipse class="cls-6" cx="225.654" cy="111.363" rx="2.462" ry="2.783"/><path class="cls-6" d="M178.744,106.191c-1.4-1.238,5.757-10.315,12.473-10.155s10.874,1.6,9.915,5.076-6.077-.6-11.514,1.241S181.542,108.669,178.744,106.191Z"/><path class="cls-6" d="M225.841,100.366c-.522,1.278,1.061,2.611,4.409,3.465s4.427,3.995,6.449,2.213-2.949-5.633-4.205-6.283S227.06,97.384,225.841,100.366Z"/><path class="cls-7" d="M192.921,202.627l7.344,1.167C195.691,203.039,192.921,202.627,192.921,202.627Z"/><path class="cls-8" d="M290.021,235.653a37.869,37.869,0,0,0-20.054-16.008c-21.848-7.49-55-13.425-69.639-15.841,0,.008-15.688,32.7-15.688,32.7s-72.311-28.857-83.4-38c-18.783,5.225-70.1,19.651-83.168,24.876C2,229.815-5.509,318.955-5.509,318.955l324.6-3.442C319.42,292.069,296.2,245.725,290.021,235.653Z"/><path class="cls-7" d="M200.328,203.8l-.063-.009.063.01Z"/><circle class="cls-1" cx="163.652" cy="164.495" r="144.028"/></g><path class="cls-6" d="M225.969,159.608s-3.328,1.929-10.026,1.837a98.335,98.335,0,0,1-15.207-1.837s3.932,10.639,15.463,10.3S225.969,159.608,225.969,159.608Z"/><path class="cls-8" d="M162.632,101.8c-.046,2.923-7.285,22.243-7.285,22.243h-9.379S139.444,92.231,121.5,99.571s0,33.438,0,33.438l-17.063,7.534S86.432,105.28,87.247,83.26,98.385,59.8,98.385,59.8l32.721,4.3C149.02,66.45,162.913,83.729,162.632,101.8Z"/><path class="cls-9" d="M192.876,199.978s35.076,10.783,17.915,62.677l-17.915-31.338L184.64,236.5A59.037,59.037,0,0,0,192.876,199.978Z"/><path class="cls-9" d="M184.64,236.5l-11.587-1.053-13.169,32.39s-49.39-36.335-58.643-69.334l9.5-7.348Z"/></g></svg>