<?xml version="1.0" encoding="utf-8"?>
<!-- Generator: Adobe Illustrator 25.3.1, SVG Export Plug-In . SVG Version: 6.00 Build 0)  -->
<svg version="1.1" id="Layer_1" xmlns="http://www.w3.org/2000/svg" xmlns:xlink="http://www.w3.org/1999/xlink" x="0px" y="0px"
	 viewBox="0 0 300 300" style="enable-background:new 0 0 300 300;" xml:space="preserve">
<style type="text/css">
	.st0{clip-path:url(#SVGID_2_);fill:#CFCFD3;}
	.st1{clip-path:url(#SVGID_2_);fill:#2F3F4E;}
	.st2{clip-path:url(#SVGID_2_);fill:#92949E;}
	.st3{clip-path:url(#SVGID_2_);fill:#B8BABC;}
	.st4{clip-path:url(#SVGID_2_);fill:#6D717D;}
	.st5{clip-path:url(#SVGID_2_);fill:none;stroke:#FFFFFF;stroke-width:0.527;stroke-miterlimit:10;}
	.st6{clip-path:url(#SVGID_4_);fill:#2F3F4E;}
	.st7{clip-path:url(#SVGID_4_);fill:#1CA482;}
</style>
<g>
	<defs>
		<path id="SVGID_1_" d="M10.7,159.3c0,76.8,62.2,139,139,139c76.8,0,139-62.2,139-139c0-76.8-76-157.9-152.8-157.9
			C59.1,1.4,10.7,82.6,10.7,159.3"/>
	</defs>
	<clipPath id="SVGID_2_">
		<use xlink:href="#SVGID_1_"  style="overflow:visible;"/>
	</clipPath>
	<path class="st0" d="M288.7,159.3c0,76.8-62.2,139-139,139c-76.8,0-139-62.2-139-139c0-76.8,62.2-139,139-139
		C226.5,20.3,288.7,82.6,288.7,159.3"/>
	<path class="st1" d="M116.2,209.6c0,0-68.9,5.9-76.9,49.3c0,0,46.9,59.5,116.4,59c69.6-0.5,111.9-59.5,111.9-59.5
		s-12.8-49.7-72.4-57.1C195.2,201.2,162.6,233.2,116.2,209.6"/>
	<path class="st2" d="M183.3,129.7c1-7.2,1.5-15.1,1.4-24c0-1.5-0.1-2.9-0.1-4.3c0.1-1.4,0.2-2.2,0.2-2.2l-0.3,0.4
		C179,14.9,96.9,47.3,96.9,47.3s-14,17.5-14,35.1c0,17.5-12.3,89.5,33.3,110.5c0,0,1.1,0.1,3,0c1.4,11.5-3,16.6-3,16.6
		c40,32.2,79-8.4,79-8.4C184.9,186.8,183,154.2,183.3,129.7"/>
	<path class="st1" d="M91.2,79.3c-2,0.3-4.2,0-5.8-1.1c-3.6-2.4-3.6-7.5-3.3-11.8c0.3-3.9,0.6-7.9,0.9-11.8c0.2-2.2,0.4-4.7,2-6.3
		c2.6-2.6,7.7-1.9,9.4-5.1c0.5-1,0.6-2.2,0.8-3.3c0.9-4.1,4.8-7.2,8.9-8.2c4.1-1,8.5-0.3,12.6,0.8c1.6-3.7,6.1-5.4,10.2-5.4
		c4.1,0,8.1,1.2,12.1,1.2c5.1,0,10.1-1.9,15.1-3c5-1.1,10.7-1.2,14.8,1.9c1.1,0.8,2.1,1.9,3.4,2.5c2,0.9,4.5,0.4,6.5,1.3
		c3.9,1.7,4.4,7.5,7.9,9.9c1.3,0.9,2.8,1.2,4.2,1.8c2.8,1.3,5,3.6,7,5.9C203.7,55,210,62.4,209.5,71c-0.3,4.8-2.6,9.2-3.7,13.9
		c-1.2,5.3-0.8,10.9-3.1,15.8c-2.1,4.4-6.4,7.8-7.1,12.6c-0.4,3.2,0.8,6.6-0.8,9.4c-1.3,2.3-4.1,3.3-6.7,3.9
		c-3.2,0.7-7.5,0.7-8.9-2.3c-0.9-2,0-4.3,0.2-6.6c0.5-4.5-2.4-9.2-6.7-10.8c-2.5-1-5.3-0.9-8-1.4c-2.7-0.5-5.5-1.8-6.6-4.3
		c-1.3-3.2,0.3-8-2.7-9.6c-0.9-0.5-2-0.5-3.1-0.4c-3.2,0.1-6.6,0-9.1-1.9c-6.6-4.9-2.1-16.8-7.9-22.6c-3.1-3.1-7.9-3.3-11.8-5.2
		c-3-1.5-5.4-4-6.7-7c-0.4-0.8-0.7-1.7-1.4-2.2c-0.4-0.3-0.9-0.4-1.4-0.4c-3.8-0.5-7.8,1.6-9.7,5c-1.1,2-1.5,4.2-1.8,6.5
		c-0.5,3.3-0.4,7.8-2.3,10.7C98.2,77.1,94.6,78.7,91.2,79.3"/>
	<path class="st3" d="M105.2,44.7l8.3-1.9C110.4,43.4,107.6,44,105.2,44.7"/>
	<path class="st3" d="M113.5,42.8"/>
	<path class="st4" d="M91.6,140.7l4.4-30.1l-0.4-17.5l17.9-50.3l-8.3,1.9c-5.1,1.4-8.3,2.6-8.3,2.6s-14,17.5-14,35.1
		c0,17.5-12.3,89.5,33.3,110.5l-2.4-9.1l1.6-4.5l-3.7-3.5l-9.2-35.1H91.6z"/>
	<polygon class="st1" points="104.8,165 106.7,162.7 108.5,163.4 110.5,162 132.1,160.6 110.7,171.9 103.8,167.5 	"/>
	<path class="st5" d="M171.4,141.3c1.8,2.2,2.9,5.1,2.9,8.2c0,7-5.7,12.7-12.7,12.7c-7,0-12.7-5.7-12.7-12.7c0-7,5.7-12.7,12.7-12.7
		c1.6,0,3.1,0.3,4.5,0.8"/>
	<path class="st1" d="M119.2,193l0.3,5c0,0,36.3-5.7,44-25.1C163.5,172.8,147.5,188.6,119.2,193"/>
	<path class="st1" d="M160.8,138.9c0,0,13,3.8,18.4-14.7l2.5,2.2C181.7,126.5,174.2,148.7,160.8,138.9"/>
	<path class="st1" d="M113.8,113.7c0,0.8-0.7,1.5-1.5,1.5c-0.8,0-1.5-0.7-1.5-1.5c0-0.8,0.7-1.5,1.5-1.5
		C113.2,112.1,113.8,112.8,113.8,113.7"/>
	<path class="st1" d="M90.6,115.2c0,0.8-0.7,1.5-1.5,1.5c-0.8,0-1.5-0.7-1.5-1.5c0-0.8,0.7-1.5,1.5-1.5
		C89.9,113.7,90.6,114.3,90.6,115.2"/>
	<path class="st1" d="M106.8,102.4c0,0,12.2-3.9,23.2,1.2l-23.2,1.4V102.4z"/>
	<path class="st1" d="M88,99.4v3.7h-9.2c0,0-0.5-2.7,0.5-2.7C80.1,100.4,88,99.4,88,99.4"/>
</g>
<g>
	<defs>
		<rect id="SVGID_3_" x="-8.9" y="-2.7" width="311.4" height="308"/>
	</defs>
	<clipPath id="SVGID_4_">
		<use xlink:href="#SVGID_3_"  style="overflow:visible;"/>
	</clipPath>
	<path class="st6" d="M151.5,29.1c0.7-3.3,3.6-6,6.9-6.6c-3.5-5.4-0.4-13.5,5.4-16.3c5.8-2.8,13.2-1,18.1,3.1
		c4.3-4.7,11.5-6.4,17.4-4.3c6,2.2,10.3,8.1,10.6,14.4c6.2-1.9,13.4,2.3,15.7,8.4c2.3,6.1,0.1,13.4-4.5,18
		c4.1,4.6,6.9,10.9,5.5,16.9c-1.5,6-8.6,10.5-14.1,7.9c-0.6,6.3-6.9,11.5-13.2,10.8c-6.3-0.6-11.4-7-10.7-13.3
		C179.7,71,169,64.3,167.8,55c-4.7,2.9-11.5,1.6-14.8-2.8c-2.6-3.5-2.3-7.4-1.1-11.3c0.8-2.6,1.3-2.5,1-5
		C152.6,33.4,150.8,32,151.5,29.1"/>
	<path class="st7" d="M147.8,29.2c0,0,48.6,13.7,56.5,46.6l4.3-4.4c0,0,0.4-26.3-16.7-37s-39.5-10.6-39.5-10.6L147.8,29.2z"/>
	<path class="st6" d="M89.2,42.8c0.5-1,0.6-2.2,0.8-3.4c0.9-4.2,4.9-7.3,9.1-8.4c4.2-1,8.6-0.3,12.8,0.8c1.6-3.8,6.2-5.5,10.3-5.5
		c4.1,0,8.2,1.2,12.3,1.2c5.2,0,10.3-1.9,15.4-3c5.1-1.1,10.9-1.2,15.1,1.9c1.1,0.9,2.1,1.9,3.4,2.5c2.1,0.9,4.6,0.4,6.7,1.4
		c4,1.8,4.4,7.6,8.1,10.1c1.3,0.9,2.8,1.2,4.2,1.9c2.9,1.3,5.1,3.7,7.2,6c6,6.5,12.3,14,11.8,22.8c-0.3,4.9-2.7,9.4-3.8,14.2
		c-1.2,5.3-0.8,11.1-3.2,16.1c-2.2,4.4-6.5,7.9-7.2,12.8c-0.4,3.2,0.8,6.8-0.8,9.6c-1.3,2.4-4.2,3.3-6.8,3.9
		c-3.3,0.8-7.6,0.7-9.1-2.3c-0.9-2.1,0-4.4,0.2-6.7c0.5-4.6-2.4-9.4-6.8-11c-2.6-1-5.5-0.9-8.2-1.4c-2.7-0.5-5.6-1.8-6.7-4.4
		c-1.3-3.3,0.3-8.1-2.8-9.8c-0.9-0.5-2.1-0.5-3.1-0.5c-3.2,0.1-6.7,0-9.3-1.9c-6.7-4.9-2.2-17.1-8.1-23c-3.1-3.1-8.1-3.3-12-5.3
		c-3-1.5-5.5-4.1-6.8-7.1c-0.4-0.8-0.7-1.7-1.4-2.2c-0.4-0.3-1.1-0.8-1.4-0.4C97.4,63.4,87.4,46.1,89.2,42.8"/>
</g>
</svg>
