<?xml version="1.0" encoding="utf-8"?>
<!-- Generator: Adobe Illustrator 25.4.1, SVG Export Plug-In . SVG Version: 6.00 Build 0)  -->
<svg version="1.1" id="Layer_1" xmlns="http://www.w3.org/2000/svg" xmlns:xlink="http://www.w3.org/1999/xlink" x="0px" y="0px"
	 viewBox="0 0 540.72 300" style="enable-background:new 0 0 540.72 300;" xml:space="preserve">
<style type="text/css">
	.st0{fill:#FFFFFF;}
	.st1{clip-path:url(#SVGID_00000155133097887305503680000016114954739216416176_);fill:#1FA380;}
	.st2{clip-path:url(#SVGID_00000155133097887305503680000016114954739216416176_);fill:#AD46F2;}
	.st3{clip-path:url(#SVGID_00000155133097887305503680000016114954739216416176_);fill:#0080AB;}
	.st4{clip-path:url(#SVGID_00000155133097887305503680000016114954739216416176_);fill:#FFFFFF;}
</style>
<rect class="st0" width="540.72" height="300"/>
<g>
	<defs>
		<rect id="SVGID_1_" x="119.04" y="0" width="300" height="300"/>
	</defs>
	<clipPath id="SVGID_00000026155493839734782840000008864904352139624123_">
		<use xlink:href="#SVGID_1_"  style="overflow:visible;"/>
	</clipPath>
	<path style="clip-path:url(#SVGID_00000026155493839734782840000008864904352139624123_);fill:#1FA380;" d="M268.95,300
		c-55.52-0.04-103.97-30.23-129.88-75.07l29.69-45.79l57.31-4.36c8.57,14.83,24.59,24.83,42.95,24.84s34.39-9.96,42.98-24.78
		l86.93,50.26C372.96,269.91,324.47,300.04,268.95,300"/>
	<path style="clip-path:url(#SVGID_00000026155493839734782840000008864904352139624123_);fill:#AD46F2;" d="M398.92,225.09
		l-57.45-5.65l-29.47-44.61c4.22-7.3,6.66-15.76,6.66-24.8c0.02-27.4-22.18-49.63-49.58-49.64L269.14,0
		c82.84,0.05,149.95,67.26,149.9,150.1C419.03,177.43,411.7,203.04,398.92,225.09"/>
	<path style="clip-path:url(#SVGID_00000026155493839734782840000008864904352139624123_);fill:#0080AB;" d="M139.07,224.93
		c-12.75-22.07-20.05-47.69-20.03-75.02C119.1,67.07,186.3-0.05,269.14,0l23.72,51.25l-23.78,49.14
		c-27.4-0.02-49.62,22.18-49.64,49.58c-0.01,9.04,2.42,17.5,6.63,24.81l-57.31,4.36L139.07,224.93z"/>
	<path style="clip-path:url(#SVGID_00000026155493839734782840000008864904352139624123_);fill:#FFFFFF;" d="M216.28,123.28l0-5
		c0.35-0.35,0.66-0.61,0.94-0.79c0.27-0.18,0.59-0.27,0.95-0.27c0.45,0,0.79,0.15,0.99,0.43c0.21,0.29,0.31,0.76,0.31,1.41l0,4.22
		l1.16,0l0-4.38c0-0.89-0.17-1.56-0.5-2.02c-0.34-0.45-0.87-0.68-1.6-0.68c-0.48,0-0.91,0.11-1.27,0.33
		c-0.37,0.22-0.71,0.5-1.04,0.83l-0.04,0l-0.1-0.99l-0.97,0l0,6.9L216.28,123.28z M209.43,122.29c-0.25-0.13-0.46-0.31-0.63-0.54
		c-0.17-0.23-0.31-0.51-0.4-0.83c-0.09-0.32-0.14-0.68-0.14-1.08c0-0.4,0.05-0.76,0.14-1.09c0.1-0.33,0.23-0.61,0.41-0.84
		c0.18-0.24,0.39-0.42,0.63-0.55c0.25-0.13,0.52-0.19,0.81-0.19c0.29,0,0.56,0.06,0.81,0.19c0.25,0.13,0.46,0.31,0.63,0.55
		c0.17,0.24,0.31,0.52,0.4,0.85c0.09,0.33,0.14,0.69,0.14,1.09s-0.05,0.76-0.14,1.08c-0.1,0.32-0.23,0.6-0.41,0.83
		c-0.18,0.23-0.39,0.41-0.63,0.54c-0.25,0.13-0.52,0.19-0.81,0.19C209.95,122.48,209.68,122.42,209.43,122.29 M211.46,123.21
		c0.38-0.16,0.72-0.39,1.02-0.7c0.29-0.31,0.53-0.69,0.7-1.14c0.18-0.45,0.26-0.96,0.26-1.53c0-0.58-0.09-1.09-0.26-1.54
		c-0.17-0.45-0.41-0.83-0.7-1.14s-0.63-0.55-1.02-0.71c-0.38-0.16-0.79-0.24-1.21-0.24c-0.43,0-0.83,0.08-1.21,0.24
		c-0.38,0.16-0.72,0.4-1.02,0.71c-0.29,0.31-0.53,0.69-0.7,1.14c-0.18,0.45-0.26,0.96-0.26,1.54c0,0.57,0.09,1.08,0.26,1.53
		c0.17,0.45,0.41,0.83,0.7,1.14c0.29,0.31,0.63,0.54,1.02,0.7c0.38,0.16,0.79,0.24,1.21,0.24
		C210.67,123.45,211.07,123.37,211.46,123.21 M205.38,114.74c0.16-0.14,0.23-0.32,0.23-0.54c0-0.23-0.08-0.41-0.23-0.55
		c-0.16-0.14-0.35-0.21-0.58-0.21s-0.42,0.07-0.58,0.21c-0.16,0.14-0.23,0.32-0.23,0.55c0,0.22,0.08,0.4,0.23,0.54
		c0.16,0.14,0.35,0.21,0.58,0.21C205.03,114.95,205.23,114.88,205.38,114.74 M205.37,116.37l-1.16,0l0,6.9l1.16,0L205.37,116.37z
		 M202.38,123.37c0.22-0.05,0.43-0.11,0.62-0.18l-0.23-0.88c-0.11,0.05-0.24,0.09-0.38,0.13c-0.14,0.04-0.27,0.06-0.4,0.06
		c-0.4,0-0.67-0.12-0.83-0.35c-0.16-0.23-0.23-0.56-0.23-0.99l0-3.84l1.86,0l0-0.95l-1.86,0l0-1.93l-0.98,0l-0.14,1.93l-1.08,0.07
		l0,0.88l1.02,0l0,3.82c0,0.34,0.03,0.65,0.1,0.94c0.07,0.28,0.18,0.53,0.33,0.72c0.16,0.2,0.36,0.36,0.61,0.47
		c0.25,0.11,0.56,0.17,0.93,0.17C201.94,123.44,202.16,123.42,202.38,123.37 M193.79,122.24c-0.24-0.17-0.35-0.45-0.35-0.85
		c0-0.22,0.05-0.42,0.16-0.6c0.11-0.18,0.28-0.35,0.53-0.49s0.56-0.27,0.95-0.37c0.39-0.1,0.88-0.19,1.46-0.27l0,1.92
		c-0.33,0.3-0.64,0.53-0.94,0.69c-0.29,0.16-0.61,0.23-0.94,0.23C194.32,122.5,194.03,122.42,193.79,122.24 M195.54,123.15
		c0.38-0.19,0.73-0.43,1.07-0.7l0.04,0l0.1,0.82l0.97,0l0-4.23c0-0.86-0.19-1.55-0.57-2.07c-0.38-0.52-0.99-0.77-1.83-0.78
		c-0.56,0-1.07,0.1-1.53,0.29c-0.46,0.19-0.86,0.39-1.18,0.6l0.45,0.81c0.27-0.19,0.59-0.36,0.94-0.51
		c0.35-0.15,0.72-0.23,1.12-0.23c0.28,0,0.52,0.05,0.7,0.15c0.18,0.1,0.33,0.23,0.43,0.39c0.1,0.16,0.18,0.35,0.22,0.55
		c0.04,0.21,0.06,0.42,0.06,0.64c-1.48,0.16-2.55,0.44-3.23,0.84c-0.67,0.4-1.01,0.98-1.01,1.74c0,0.63,0.19,1.11,0.57,1.45
		c0.38,0.34,0.86,0.51,1.44,0.51C194.75,123.44,195.16,123.34,195.54,123.15 M190.45,123.2c0.38-0.16,0.72-0.37,1.04-0.65
		l-0.51-0.78c-0.22,0.19-0.46,0.35-0.73,0.49c-0.27,0.14-0.57,0.21-0.89,0.21c-0.31,0-0.6-0.06-0.87-0.19
		c-0.26-0.13-0.49-0.31-0.67-0.54c-0.18-0.23-0.33-0.51-0.43-0.83c-0.1-0.32-0.16-0.68-0.16-1.08c0-0.4,0.05-0.76,0.16-1.09
		c0.11-0.33,0.26-0.61,0.45-0.84c0.19-0.24,0.42-0.42,0.68-0.55c0.27-0.13,0.55-0.19,0.87-0.19c0.28,0,0.52,0.06,0.75,0.17
		c0.22,0.11,0.43,0.26,0.63,0.44l0.6-0.77c-0.25-0.22-0.53-0.41-0.85-0.57c-0.32-0.16-0.71-0.24-1.16-0.24
		c-0.44,0-0.87,0.08-1.27,0.24c-0.4,0.16-0.75,0.4-1.06,0.71c-0.3,0.31-0.54,0.69-0.73,1.14c-0.18,0.45-0.27,0.96-0.27,1.54
		c0,0.57,0.08,1.08,0.25,1.53c0.17,0.45,0.39,0.83,0.68,1.14c0.29,0.31,0.63,0.54,1.03,0.7c0.4,0.16,0.82,0.24,1.28,0.24
		C189.68,123.44,190.08,123.36,190.45,123.2 M180.85,122.27c-0.25-0.13-0.46-0.31-0.63-0.54c-0.17-0.23-0.31-0.51-0.4-0.83
		c-0.09-0.32-0.14-0.68-0.14-1.08c0-0.4,0.05-0.76,0.14-1.09c0.1-0.33,0.23-0.61,0.41-0.84c0.18-0.24,0.39-0.42,0.63-0.55
		c0.25-0.13,0.52-0.19,0.81-0.19c0.29,0,0.56,0.06,0.81,0.19c0.25,0.13,0.46,0.31,0.63,0.55c0.18,0.24,0.31,0.52,0.4,0.85
		c0.09,0.33,0.14,0.69,0.14,1.09c0,0.4-0.05,0.76-0.14,1.08c-0.09,0.32-0.23,0.6-0.41,0.83c-0.18,0.23-0.39,0.41-0.63,0.54
		c-0.25,0.13-0.52,0.19-0.81,0.19C181.37,122.46,181.1,122.4,180.85,122.27 M182.87,123.19c0.38-0.16,0.72-0.39,1.02-0.7
		c0.29-0.31,0.53-0.69,0.7-1.14c0.18-0.45,0.26-0.96,0.26-1.53c0-0.58-0.09-1.09-0.26-1.54c-0.17-0.45-0.41-0.83-0.7-1.14
		c-0.29-0.31-0.63-0.55-1.02-0.71c-0.38-0.16-0.79-0.24-1.21-0.24c-0.43,0-0.83,0.08-1.21,0.24c-0.38,0.16-0.72,0.4-1.02,0.71
		c-0.29,0.31-0.53,0.69-0.7,1.14c-0.18,0.45-0.26,0.96-0.26,1.54c0,0.57,0.09,1.08,0.26,1.53c0.18,0.45,0.41,0.83,0.7,1.14
		c0.29,0.31,0.63,0.54,1.02,0.7c0.38,0.16,0.79,0.24,1.21,0.24C182.09,123.43,182.49,123.35,182.87,123.19 M177.13,123.4
		c0.1-0.02,0.19-0.05,0.27-0.09l-0.16-0.88c-0.07,0.02-0.12,0.03-0.15,0.03l-0.11,0c-0.09,0-0.16-0.04-0.23-0.11
		c-0.07-0.08-0.1-0.21-0.1-0.4l0.01-8.81l-1.16,0l-0.01,8.72c0,0.51,0.09,0.9,0.28,1.17c0.19,0.26,0.51,0.4,0.95,0.4
		C176.89,123.43,177.02,123.42,177.13,123.4 M173.65,123.4c0.1-0.02,0.19-0.05,0.27-0.09l-0.16-0.88c-0.07,0.02-0.12,0.03-0.15,0.03
		l-0.11,0c-0.09,0-0.16-0.04-0.23-0.11c-0.07-0.08-0.1-0.21-0.1-0.4l0.01-8.81l-1.16,0l-0.01,8.72c0,0.51,0.09,0.9,0.28,1.17
		c0.19,0.26,0.51,0.4,0.95,0.4C173.41,123.43,173.54,123.42,173.65,123.4 M164.51,123.25l0.9-2.84l3.4,0l0.88,2.84l1.26,0
		l-3.15-9.32l-1.34,0l-3.16,9.32L164.51,123.25z M166.64,116.48c0.15-0.52,0.3-1.04,0.44-1.58l0.06,0c0.15,0.54,0.3,1.07,0.45,1.58
		c0.15,0.52,0.31,1.04,0.48,1.56l0.44,1.42l-2.8,0l0.44-1.42C166.32,117.52,166.48,117,166.64,116.48 M154.76,122.35
		c-0.22-0.08-0.42-0.2-0.58-0.35c-0.17-0.15-0.3-0.33-0.39-0.55c-0.09-0.21-0.14-0.45-0.14-0.7c0-0.36,0.11-0.68,0.33-0.97
		c0.22-0.29,0.5-0.57,0.83-0.83c0.33,0.51,0.71,1,1.13,1.47c0.42,0.47,0.86,0.9,1.31,1.3c-0.27,0.24-0.56,0.42-0.85,0.55
		c-0.29,0.13-0.6,0.2-0.92,0.2C155.22,122.48,154.99,122.44,154.76,122.35 M155.06,114.98c0.21-0.26,0.49-0.38,0.84-0.38
		c0.31,0,0.54,0.1,0.67,0.31c0.14,0.2,0.21,0.44,0.21,0.72c0,0.21-0.04,0.4-0.13,0.58c-0.09,0.18-0.2,0.34-0.35,0.5
		c-0.15,0.16-0.32,0.31-0.51,0.45c-0.19,0.15-0.4,0.29-0.6,0.43c-0.13-0.28-0.24-0.56-0.32-0.84c-0.08-0.27-0.12-0.54-0.12-0.8
		C154.75,115.55,154.85,115.23,155.06,114.98 M156.84,123.12c0.44-0.19,0.84-0.45,1.2-0.77c0.38,0.27,0.75,0.49,1.11,0.66
		c0.36,0.18,0.71,0.31,1.04,0.41l0.31-0.97c-0.26-0.08-0.53-0.19-0.82-0.34c-0.29-0.15-0.6-0.34-0.92-0.55
		c0.37-0.49,0.69-1.02,0.95-1.58c0.27-0.56,0.49-1.15,0.68-1.76l-1.09,0c-0.14,0.54-0.32,1.04-0.55,1.49s-0.48,0.88-0.76,1.26
		c-0.45-0.37-0.87-0.78-1.28-1.22c-0.41-0.45-0.77-0.91-1.07-1.39c0.26-0.19,0.51-0.38,0.76-0.57c0.25-0.19,0.48-0.4,0.68-0.62
		c0.2-0.22,0.36-0.46,0.48-0.72c0.12-0.26,0.19-0.53,0.19-0.84c0-0.55-0.16-0.99-0.48-1.34c-0.32-0.34-0.77-0.51-1.35-0.51
		c-0.32,0-0.62,0.06-0.88,0.17c-0.27,0.11-0.49,0.27-0.68,0.47c-0.19,0.2-0.34,0.43-0.44,0.7c-0.1,0.27-0.16,0.55-0.16,0.87
		c0,0.34,0.05,0.69,0.16,1.06c0.11,0.36,0.26,0.74,0.45,1.13c-0.24,0.16-0.47,0.33-0.69,0.52c-0.22,0.18-0.42,0.39-0.59,0.6
		c-0.17,0.22-0.31,0.45-0.41,0.71c-0.1,0.26-0.15,0.54-0.15,0.85c0,0.38,0.07,0.73,0.21,1.04c0.14,0.32,0.33,0.59,0.58,0.82
		c0.25,0.23,0.55,0.41,0.89,0.53c0.35,0.13,0.73,0.19,1.16,0.19C155.9,123.41,156.4,123.32,156.84,123.12"/>
	<path style="clip-path:url(#SVGID_00000026155493839734782840000008864904352139624123_);fill:#FFFFFF;" d="M206.91,109.19
		c0.26-0.12,0.5-0.29,0.71-0.5c0.21-0.21,0.39-0.47,0.54-0.76c0.15-0.29,0.29-0.61,0.41-0.95l2.6-7.47l-1.14,0l-1.24,3.82
		c-0.1,0.3-0.19,0.62-0.28,0.97c-0.1,0.34-0.19,0.67-0.3,0.98l-0.06,0c-0.1-0.32-0.22-0.65-0.33-0.99
		c-0.12-0.34-0.23-0.66-0.33-0.96l-1.4-3.82l-1.21,0l2.77,6.92l-0.16,0.51c-0.14,0.43-0.34,0.78-0.59,1.06
		c-0.25,0.28-0.58,0.42-0.97,0.42c-0.09,0-0.18-0.01-0.27-0.04c-0.09-0.02-0.18-0.05-0.26-0.06l-0.23,0.92
		c0.11,0.05,0.24,0.08,0.37,0.11c0.13,0.02,0.28,0.04,0.44,0.04C206.33,109.38,206.64,109.31,206.91,109.19 M204.05,106.5
		c0.22-0.05,0.43-0.11,0.62-0.18l-0.23-0.88c-0.11,0.05-0.24,0.09-0.38,0.13c-0.14,0.04-0.28,0.06-0.4,0.06
		c-0.4,0-0.67-0.12-0.83-0.35c-0.16-0.23-0.23-0.56-0.23-0.99l0-3.84l1.86,0l0-0.95l-1.86,0l0-1.93l-0.98,0l-0.14,1.93l-1.08,0.07
		l0,0.88l1.02,0l0,3.82c0,0.34,0.03,0.65,0.1,0.94c0.07,0.28,0.18,0.53,0.33,0.72c0.16,0.2,0.36,0.36,0.61,0.47
		c0.25,0.11,0.56,0.17,0.93,0.17C203.6,106.57,203.82,106.55,204.05,106.5 M199.04,97.86c0.16-0.14,0.23-0.32,0.23-0.54
		c0-0.23-0.08-0.41-0.23-0.55c-0.16-0.14-0.35-0.21-0.58-0.21s-0.42,0.07-0.58,0.21c-0.16,0.14-0.23,0.32-0.23,0.55
		c0,0.22,0.08,0.4,0.23,0.54c0.16,0.14,0.35,0.21,0.58,0.21C198.69,98.08,198.88,98.01,199.04,97.86 M199.03,99.5l-1.16,0l0,6.9
		l1.16,0L199.03,99.5z M196.01,106.54c0.1-0.02,0.19-0.05,0.27-0.09l-0.16-0.88c-0.07,0.02-0.12,0.03-0.15,0.03l-0.11,0
		c-0.09,0-0.16-0.04-0.23-0.11c-0.07-0.08-0.1-0.21-0.1-0.4l0.01-8.81l-1.16,0l-0.01,8.72c0,0.51,0.09,0.9,0.28,1.17
		c0.19,0.26,0.51,0.4,0.95,0.4C195.77,106.57,195.91,106.56,196.01,106.54 M192.2,97.86c0.16-0.14,0.23-0.32,0.23-0.54
		c0-0.23-0.08-0.41-0.23-0.55c-0.16-0.14-0.35-0.21-0.58-0.21s-0.42,0.07-0.58,0.21c-0.16,0.14-0.23,0.32-0.23,0.55
		c0,0.22,0.08,0.4,0.23,0.54c0.16,0.14,0.35,0.21,0.58,0.21C191.85,98.07,192.05,98,192.2,97.86 M192.19,99.49l-1.16,0l0,6.9l1.16,0
		L192.19,99.49z M185.38,105.42c-0.3-0.11-0.6-0.3-0.9-0.56l0-3.62c0.67-0.62,1.29-0.94,1.85-0.94c0.32,0,0.6,0.06,0.83,0.19
		c0.23,0.12,0.42,0.3,0.57,0.52c0.15,0.22,0.25,0.49,0.32,0.8c0.07,0.31,0.1,0.66,0.1,1.04c0,0.43-0.05,0.81-0.15,1.15
		s-0.24,0.63-0.41,0.86c-0.18,0.23-0.38,0.41-0.63,0.54c-0.24,0.13-0.5,0.19-0.79,0.19C185.94,105.58,185.68,105.53,185.38,105.42
		 M187.5,106.32c0.36-0.16,0.68-0.41,0.95-0.73c0.28-0.32,0.49-0.71,0.65-1.18c0.16-0.46,0.24-0.99,0.24-1.58
		c0-0.53-0.06-1.01-0.18-1.44c-0.12-0.43-0.29-0.8-0.52-1.11c-0.23-0.31-0.52-0.54-0.86-0.71c-0.34-0.17-0.73-0.25-1.18-0.25
		c-0.39,0-0.77,0.09-1.14,0.28c-0.37,0.18-0.71,0.41-1.02,0.69l0.03-1.25l0-2.76l-1.16,0l-0.01,10.11l0.94,0l0.1-0.71l0.04,0
		c0.3,0.28,0.63,0.49,0.97,0.65c0.35,0.16,0.68,0.23,1,0.24C186.76,106.56,187.14,106.48,187.5,106.32 M181.14,97.85
		c0.16-0.14,0.23-0.32,0.23-0.54c0-0.23-0.08-0.41-0.23-0.55c-0.16-0.14-0.35-0.21-0.58-0.21s-0.42,0.07-0.58,0.21
		c-0.16,0.14-0.23,0.32-0.23,0.55c0,0.22,0.08,0.4,0.23,0.54c0.16,0.14,0.35,0.21,0.58,0.21C180.79,98.07,180.98,97.99,181.14,97.85
		 M181.13,99.49l-1.16,0l0,6.9l1.16,0L181.13,99.49z M177.04,106.39c0.32-0.11,0.58-0.26,0.8-0.45c0.21-0.19,0.37-0.41,0.48-0.65
		c0.11-0.25,0.16-0.51,0.16-0.8c0-0.32-0.06-0.6-0.19-0.82c-0.13-0.23-0.29-0.42-0.49-0.58c-0.2-0.16-0.42-0.29-0.67-0.39
		c-0.25-0.1-0.5-0.2-0.75-0.3c-0.2-0.08-0.39-0.15-0.58-0.22c-0.18-0.07-0.35-0.15-0.49-0.24c-0.14-0.09-0.26-0.19-0.34-0.31
		c-0.09-0.12-0.13-0.26-0.13-0.42c0-0.26,0.1-0.5,0.31-0.7c0.2-0.2,0.52-0.3,0.96-0.3c0.3,0,0.58,0.06,0.84,0.17
		c0.26,0.11,0.5,0.26,0.74,0.44l0.55-0.74c-0.27-0.22-0.58-0.4-0.94-0.55c-0.36-0.15-0.77-0.23-1.2-0.23c-0.37,0-0.7,0.05-0.99,0.15
		c-0.29,0.1-0.54,0.24-0.75,0.41c-0.2,0.17-0.36,0.38-0.47,0.62c-0.11,0.24-0.16,0.5-0.16,0.77c0,0.29,0.06,0.55,0.18,0.75
		c0.12,0.21,0.28,0.39,0.48,0.55c0.19,0.16,0.41,0.29,0.66,0.4c0.25,0.11,0.49,0.21,0.74,0.29c0.19,0.08,0.38,0.15,0.57,0.23
		c0.19,0.08,0.36,0.16,0.5,0.26c0.15,0.1,0.27,0.22,0.36,0.35c0.09,0.13,0.14,0.29,0.14,0.47c0,0.3-0.11,0.56-0.34,0.77
		s-0.57,0.31-1.02,0.31c-0.42,0-0.78-0.08-1.1-0.23c-0.32-0.15-0.63-0.35-0.93-0.6l-0.58,0.78c0.33,0.28,0.72,0.5,1.16,0.68
		c0.44,0.18,0.91,0.27,1.41,0.27C176.36,106.56,176.72,106.5,177.04,106.39 M171.97,97.85c0.16-0.14,0.23-0.32,0.23-0.54
		c0-0.23-0.08-0.41-0.23-0.55c-0.16-0.14-0.35-0.21-0.58-0.21c-0.23,0-0.42,0.07-0.58,0.21c-0.16,0.14-0.23,0.32-0.23,0.55
		c0,0.22,0.08,0.4,0.23,0.54c0.16,0.14,0.35,0.21,0.58,0.21S171.82,97.99,171.97,97.85 M171.97,99.48l-1.16,0l0,6.9l1.16,0
		L171.97,99.48z M166.82,106.38l2.96-9.32l-1.21,0l-1.49,5.03c-0.16,0.56-0.31,1.07-0.44,1.55c-0.13,0.47-0.28,0.98-0.46,1.53
		l-0.06,0c-0.18-0.55-0.33-1.06-0.46-1.53c-0.13-0.47-0.28-0.99-0.45-1.55l-1.49-5.03l-1.26,0l2.98,9.32L166.82,106.38z"/>
	<path style="clip-path:url(#SVGID_00000026155493839734782840000008864904352139624123_);fill:#FFFFFF;" d="M206.28,87.02
		l0.01-9.14c1.01-1.08,1.93-1.62,2.74-1.62c0.69,0,1.2,0.22,1.53,0.67c0.33,0.44,0.49,1.21,0.49,2.29l0,7.8l3.06,0l0.01-9.14
		c1.01-1.08,1.93-1.62,2.74-1.62c0.67,0,1.18,0.22,1.5,0.67c0.33,0.44,0.49,1.21,0.49,2.29l0,7.8l3.09,0l0.01-8.2
		c0-1.67-0.33-2.95-0.98-3.85c-0.66-0.9-1.68-1.35-3.06-1.35c-0.83,0-1.59,0.22-2.26,0.66s-1.32,1-1.95,1.68
		c-0.3-0.75-0.74-1.32-1.32-1.73c-0.58-0.41-1.34-0.61-2.3-0.61c-0.82,0-1.55,0.2-2.2,0.61c-0.65,0.41-1.25,0.9-1.8,1.49l-0.11,0
		l-0.21-1.78l-2.53,0l-0.01,13.08L206.28,87.02z M197.14,87.01l0.01-7.99c0.41-0.99,0.9-1.69,1.47-2.09c0.57-0.4,1.11-0.6,1.63-0.6
		c0.28,0,0.52,0.02,0.72,0.05c0.2,0.04,0.41,0.09,0.64,0.16l0.53-2.66c-0.37-0.18-0.87-0.27-1.49-0.27c-0.69,0-1.37,0.23-2.02,0.68
		c-0.66,0.45-1.22,1.1-1.68,1.96l-0.11,0l-0.21-2.32l-2.53,0l-0.01,13.08L197.14,87.01z M183.36,83.64
		c-0.54-0.79-0.81-1.84-0.81-3.16c0-1.33,0.27-2.39,0.81-3.18c0.54-0.79,1.29-1.18,2.25-1.18s1.71,0.4,2.26,1.19
		c0.55,0.79,0.82,1.85,0.82,3.18c0,1.31-0.28,2.37-0.83,3.16s-1.31,1.18-2.26,1.18S183.9,84.43,183.36,83.64 M187.96,86.88
		c0.75-0.3,1.42-0.74,1.99-1.33c0.57-0.59,1.03-1.3,1.37-2.16c0.35-0.85,0.52-1.82,0.52-2.9c0-1.08-0.17-2.05-0.52-2.9
		c-0.35-0.85-0.8-1.57-1.37-2.16c-0.57-0.59-1.23-1.04-1.98-1.35c-0.75-0.31-1.54-0.47-2.36-0.47s-1.6,0.15-2.34,0.46
		c-0.75,0.31-1.41,0.76-1.99,1.34c-0.58,0.59-1.04,1.3-1.37,2.16c-0.34,0.85-0.51,1.82-0.51,2.9c0,1.08,0.17,2.05,0.5,2.9
		c0.34,0.85,0.79,1.57,1.37,2.16c0.58,0.59,1.24,1.03,1.98,1.33c0.75,0.3,1.53,0.45,2.34,0.45S187.21,87.18,187.96,86.88 M176.47,87
		l0.01-10.65l2.56,0l0-2.42l-2.56,0l0-1.41c0-1.47,0.55-2.21,1.65-2.21c0.48,0,0.96,0.11,1.44,0.32l0.59-2.29
		c-0.3-0.12-0.66-0.23-1.08-0.32s-0.86-0.13-1.32-0.13c-0.78,0-1.44,0.11-1.98,0.34c-0.54,0.23-0.99,0.55-1.35,0.97
		c-0.36,0.42-0.61,0.91-0.77,1.49c-0.16,0.58-0.24,1.2-0.24,1.88l0,1.36l-1.76,0.13l0,2.29l1.76,0L173.41,87L176.47,87z
		 M161.82,86.99l0.01-9.14c0.55-0.53,1.04-0.94,1.48-1.21c0.44-0.27,0.94-0.41,1.51-0.41c0.73,0,1.25,0.22,1.57,0.67
		c0.32,0.44,0.48,1.21,0.48,2.29l0,7.8l3.06,0l0.01-8.2c0-1.67-0.32-2.95-0.96-3.85c-0.64-0.9-1.66-1.35-3.06-1.35
		c-0.91,0-1.7,0.2-2.38,0.61c-0.68,0.41-1.32,0.9-1.91,1.46l-0.11,0l-0.21-1.76l-2.53,0l-0.01,13.08L161.82,86.99z M155.41,69.57
		l-3.09,0l-0.01,17.42l3.09,0L155.41,69.57z"/>
	<path style="clip-path:url(#SVGID_00000026155493839734782840000008864904352139624123_);fill:#FFFFFF;" d="M383.51,139.73l0-5
		c0.35-0.35,0.66-0.61,0.94-0.79c0.27-0.18,0.59-0.27,0.95-0.27c0.45,0,0.79,0.15,0.99,0.43c0.21,0.29,0.31,0.76,0.31,1.41l0,4.22
		l1.16,0l0-4.38c0-0.89-0.17-1.56-0.5-2.02c-0.34-0.45-0.87-0.68-1.6-0.68c-0.48,0-0.91,0.11-1.27,0.33
		c-0.37,0.22-0.71,0.5-1.04,0.83l-0.04,0l-0.1-0.99l-0.97,0l0,6.9L383.51,139.73z M376.66,138.74c-0.25-0.13-0.46-0.31-0.63-0.54
		c-0.18-0.23-0.31-0.51-0.4-0.83c-0.09-0.32-0.14-0.68-0.14-1.08c0-0.4,0.05-0.76,0.14-1.09c0.09-0.33,0.23-0.61,0.41-0.84
		c0.18-0.24,0.39-0.42,0.63-0.55c0.25-0.13,0.52-0.19,0.81-0.19c0.29,0,0.56,0.06,0.81,0.19c0.25,0.13,0.46,0.31,0.63,0.55
		c0.17,0.24,0.31,0.52,0.4,0.85c0.09,0.33,0.14,0.69,0.14,1.09c0,0.4-0.05,0.76-0.14,1.08c-0.1,0.32-0.23,0.6-0.41,0.83
		c-0.18,0.23-0.39,0.41-0.63,0.54c-0.25,0.13-0.52,0.19-0.81,0.19C377.18,138.93,376.91,138.87,376.66,138.74 M378.68,139.66
		c0.38-0.16,0.72-0.39,1.02-0.7c0.29-0.31,0.53-0.69,0.7-1.14c0.18-0.45,0.26-0.96,0.26-1.53c0-0.58-0.09-1.09-0.26-1.54
		c-0.18-0.45-0.41-0.83-0.7-1.14c-0.29-0.31-0.63-0.55-1.02-0.71c-0.38-0.16-0.79-0.24-1.21-0.24c-0.43,0-0.83,0.08-1.21,0.24
		c-0.38,0.16-0.72,0.4-1.02,0.71c-0.29,0.31-0.53,0.69-0.7,1.14c-0.18,0.45-0.26,0.96-0.26,1.54c0,0.57,0.09,1.08,0.26,1.53
		c0.17,0.45,0.41,0.83,0.7,1.14c0.29,0.31,0.63,0.54,1.02,0.7s0.79,0.24,1.21,0.24C377.9,139.9,378.3,139.82,378.68,139.66
		 M372.61,131.19c0.16-0.14,0.23-0.32,0.23-0.54c0-0.23-0.08-0.41-0.23-0.55c-0.16-0.14-0.35-0.21-0.58-0.21
		c-0.23,0-0.42,0.07-0.58,0.21c-0.16,0.14-0.23,0.32-0.23,0.55c0,0.22,0.08,0.4,0.23,0.54c0.16,0.14,0.35,0.21,0.58,0.21
		C372.26,131.4,372.45,131.33,372.61,131.19 M372.6,132.82l-1.16,0l0,6.9l1.16,0L372.6,132.82z M369.61,139.82
		c0.22-0.05,0.43-0.11,0.62-0.18l-0.23-0.88c-0.11,0.05-0.24,0.09-0.38,0.13s-0.27,0.06-0.4,0.06c-0.4,0-0.67-0.12-0.83-0.35
		c-0.16-0.23-0.23-0.56-0.23-0.99l0-3.84l1.86,0l0-0.95l-1.86,0l0-1.93l-0.98,0l-0.14,1.93l-1.08,0.07l0,0.88l1.02,0l0,3.82
		c0,0.34,0.03,0.65,0.1,0.94c0.07,0.28,0.18,0.53,0.33,0.72c0.16,0.2,0.36,0.36,0.61,0.47s0.56,0.17,0.93,0.17
		C369.16,139.89,369.38,139.87,369.61,139.82 M361.02,138.7c-0.24-0.17-0.35-0.45-0.35-0.85c0-0.22,0.05-0.42,0.16-0.6
		c0.11-0.18,0.28-0.35,0.53-0.49c0.24-0.14,0.56-0.26,0.95-0.37c0.39-0.1,0.88-0.19,1.46-0.27l0,1.92c-0.33,0.3-0.64,0.53-0.94,0.69
		c-0.29,0.16-0.61,0.23-0.94,0.23C361.55,138.95,361.26,138.87,361.02,138.7 M362.77,139.6c0.38-0.19,0.73-0.43,1.07-0.7l0.04,0
		l0.1,0.82l0.97,0l0-4.23c0-0.86-0.19-1.55-0.57-2.07c-0.38-0.52-0.99-0.77-1.83-0.78c-0.56,0-1.07,0.1-1.53,0.29
		c-0.46,0.19-0.86,0.4-1.18,0.6l0.45,0.81c0.27-0.19,0.59-0.36,0.94-0.51c0.35-0.15,0.72-0.23,1.12-0.23c0.28,0,0.52,0.05,0.7,0.15
		c0.18,0.1,0.33,0.23,0.43,0.39s0.18,0.35,0.22,0.55c0.04,0.21,0.06,0.42,0.06,0.64c-1.48,0.16-2.55,0.44-3.23,0.84
		c-0.67,0.4-1.01,0.98-1.01,1.74c0,0.63,0.19,1.11,0.57,1.45c0.38,0.34,0.86,0.51,1.44,0.51
		C361.98,139.89,362.39,139.79,362.77,139.6 M358.89,139.72l0-0.95l-3.75,0l3.64-5.32l0-0.63l-4.72,0l0,0.95l3.24,0l-3.64,5.32
		l0,0.63L358.89,139.72z M352.21,131.18c0.16-0.14,0.23-0.32,0.23-0.54c0-0.23-0.08-0.41-0.23-0.55c-0.16-0.14-0.35-0.21-0.58-0.21
		c-0.23,0-0.42,0.07-0.58,0.21c-0.16,0.14-0.23,0.32-0.23,0.55c0,0.22,0.08,0.4,0.23,0.54c0.16,0.14,0.35,0.21,0.58,0.21
		C351.86,131.39,352.05,131.32,352.21,131.18 M352.2,132.81l-1.16,0l0,6.9l1.16,0L352.2,132.81z M349.19,139.85
		c0.1-0.02,0.19-0.05,0.27-0.09l-0.16-0.88c-0.07,0.02-0.12,0.03-0.15,0.03l-0.11,0c-0.09,0-0.16-0.04-0.23-0.11
		c-0.07-0.08-0.1-0.21-0.1-0.4l0.01-8.81l-1.16,0l-0.01,8.72c0,0.51,0.09,0.9,0.28,1.17c0.19,0.27,0.51,0.4,0.95,0.4
		C348.95,139.88,349.08,139.87,349.19,139.85 M345.38,131.17c0.16-0.14,0.23-0.32,0.23-0.54c0-0.23-0.08-0.41-0.23-0.55
		c-0.16-0.14-0.35-0.21-0.58-0.21c-0.23,0-0.42,0.07-0.58,0.21c-0.16,0.14-0.23,0.32-0.23,0.55c0,0.22,0.08,0.4,0.23,0.54
		c0.16,0.14,0.35,0.21,0.58,0.21C345.03,131.38,345.22,131.31,345.38,131.17 M345.37,132.81l-1.16,0l0,6.9l1.16,0L345.37,132.81z
		 M342.37,139.8c0.22-0.05,0.43-0.11,0.62-0.18l-0.23-0.88c-0.11,0.05-0.24,0.09-0.38,0.13c-0.14,0.04-0.28,0.06-0.4,0.06
		c-0.4,0-0.67-0.12-0.83-0.35c-0.16-0.23-0.23-0.56-0.23-0.99l0-3.84l1.86,0l0-0.95l-1.86,0l0-1.93l-0.98,0l-0.14,1.93l-1.08,0.07
		l0,0.88l1.02,0l0,3.82c0,0.34,0.03,0.65,0.1,0.94c0.07,0.28,0.18,0.53,0.33,0.72c0.16,0.2,0.36,0.36,0.61,0.47
		c0.25,0.11,0.56,0.17,0.93,0.17C341.93,139.88,342.15,139.85,342.37,139.8 M335.26,139.67c0.41-0.14,0.76-0.36,1.06-0.68
		c0.3-0.32,0.53-0.73,0.7-1.24s0.26-1.14,0.26-1.89l0-5.47l-1.14,0l0,5.5c0,0.56-0.06,1.03-0.17,1.41
		c-0.11,0.38-0.27,0.68-0.47,0.91c-0.2,0.23-0.43,0.39-0.7,0.49c-0.27,0.1-0.55,0.15-0.87,0.15c-0.3,0-0.59-0.05-0.85-0.15
		c-0.27-0.1-0.5-0.26-0.69-0.49c-0.19-0.23-0.35-0.53-0.46-0.91s-0.17-0.85-0.17-1.41l0-5.5l-1.18,0l0,5.47
		c0,0.75,0.08,1.38,0.25,1.89c0.17,0.51,0.4,0.93,0.7,1.24c0.3,0.32,0.65,0.55,1.06,0.68c0.41,0.14,0.85,0.21,1.33,0.21
		C334.42,139.87,334.86,139.8,335.26,139.67"/>
	<path style="clip-path:url(#SVGID_00000026155493839734782840000008864904352139624123_);fill:#FFFFFF;" d="M399.74,111.04
		c0.59-0.55,1.27-0.82,2.05-0.82c0.91,0,1.58,0.29,2.01,0.87c0.43,0.58,0.65,1.37,0.65,2.38l-5.81,0
		C398.78,112.4,399.15,111.59,399.74,111.04 M404.52,121.17c0.76-0.27,1.46-0.6,2.08-1.01l-1.04-1.92c-0.48,0.3-0.96,0.54-1.45,0.7
		c-0.49,0.17-1.02,0.25-1.59,0.25c-1.07,0-1.94-0.32-2.62-0.95c-0.68-0.63-1.1-1.53-1.24-2.7l8.31,0.01
		c0.04-0.16,0.07-0.37,0.09-0.64c0.03-0.27,0.04-0.55,0.04-0.85c0-0.91-0.11-1.74-0.34-2.5c-0.23-0.76-0.57-1.42-1.02-1.97
		c-0.45-0.55-1.02-0.98-1.69-1.28c-0.67-0.3-1.46-0.45-2.34-0.45c-0.76,0-1.51,0.16-2.24,0.48c-0.73,0.32-1.37,0.77-1.93,1.36
		c-0.56,0.59-1.01,1.3-1.35,2.16c-0.34,0.85-0.51,1.81-0.51,2.88c0,1.08,0.16,2.05,0.49,2.89c0.33,0.84,0.78,1.56,1.37,2.15
		c0.59,0.59,1.27,1.04,2.05,1.35c0.78,0.31,1.62,0.47,2.53,0.47C402.96,121.57,403.76,121.43,404.52,121.17 M394.99,121.24l0-2.45
		l-6.37,0l6.16-9l0-1.62l-9.32-0.01l0,2.42l5.49,0l-6.19,9l0,1.65L394.99,121.24z M382.53,105.39c0.36-0.32,0.53-0.74,0.53-1.25
		c0-0.51-0.18-0.94-0.53-1.27c-0.35-0.33-0.81-0.49-1.36-0.49s-1,0.16-1.36,0.49c-0.36,0.33-0.53,0.75-0.53,1.26
		s0.18,0.93,0.53,1.25s0.81,0.48,1.36,0.48S382.18,105.71,382.53,105.39 M382.69,108.16l-3.06,0l-0.01,13.08l3.06,0L382.69,108.16z
		 M361.03,121.22l0.01-9.14c1.01-1.08,1.93-1.62,2.74-1.62c0.69,0,1.2,0.22,1.53,0.67c0.33,0.44,0.49,1.21,0.49,2.29l0,7.8l3.06,0
		l0.01-9.14c1.01-1.08,1.93-1.62,2.74-1.62c0.67,0,1.18,0.22,1.5,0.67c0.33,0.44,0.49,1.21,0.49,2.29l0,7.8l3.09,0l0.01-8.2
		c0-1.67-0.33-2.95-0.98-3.85c-0.66-0.9-1.68-1.35-3.06-1.35c-0.84,0-1.59,0.22-2.26,0.66c-0.68,0.44-1.32,1-1.95,1.68
		c-0.3-0.75-0.74-1.32-1.32-1.73c-0.58-0.41-1.34-0.61-2.3-0.61c-0.82,0-1.55,0.2-2.2,0.61c-0.65,0.41-1.25,0.9-1.8,1.49l-0.11,0
		l-0.21-1.78l-2.53,0l-0.01,13.08L361.03,121.22z M354.7,105.37c0.36-0.32,0.53-0.74,0.53-1.25s-0.18-0.94-0.53-1.27
		c-0.35-0.33-0.81-0.49-1.36-0.49s-1,0.16-1.36,0.49c-0.36,0.33-0.53,0.75-0.53,1.26c0,0.51,0.18,0.93,0.53,1.25
		c0.35,0.32,0.81,0.48,1.36,0.48C353.89,105.85,354.34,105.69,354.7,105.37 M354.86,108.14l-3.06,0l-0.01,13.08l3.06,0
		L354.86,108.14z M349.03,121.39c0.45-0.1,0.86-0.21,1.21-0.33l-0.53-2.26c-0.2,0.09-0.41,0.16-0.65,0.21
		c-0.24,0.05-0.48,0.08-0.71,0.08c-1.23,0-1.84-0.76-1.84-2.29l0-6.23l3.33,0l0-2.42l-3.33,0l0-3.57l-2.56,0l-0.38,3.57l-2.02,0.13
		l0,2.29l1.86,0l0,6.23c0,0.71,0.07,1.35,0.23,1.93s0.39,1.07,0.72,1.49c0.33,0.42,0.75,0.74,1.28,0.97
		c0.52,0.23,1.17,0.35,1.93,0.35C348.09,121.53,348.58,121.48,349.03,121.39 M333.78,118.75c-0.44-0.16-0.91-0.44-1.38-0.85l0-6.1
		c1-0.98,1.95-1.46,2.88-1.46c0.99,0,1.71,0.37,2.16,1.09c0.44,0.73,0.66,1.75,0.66,3.06c0,1.49-0.29,2.61-0.88,3.37
		c-0.59,0.75-1.31,1.13-2.18,1.13C334.64,118.99,334.23,118.91,333.78,118.75 M332.39,126.37l0-4.1l-0.08-2.18
		c0.53,0.46,1.08,0.82,1.65,1.07s1.14,0.37,1.7,0.37c0.73,0,1.43-0.16,2.1-0.48c0.67-0.32,1.27-0.78,1.79-1.37
		c0.52-0.59,0.93-1.33,1.24-2.21c0.31-0.88,0.47-1.88,0.47-3c0-1.01-0.11-1.93-0.34-2.74c-0.23-0.82-0.57-1.52-1.01-2.1
		c-0.44-0.59-0.98-1.03-1.61-1.35c-0.63-0.31-1.35-0.47-2.17-0.47c-0.73,0-1.43,0.17-2.1,0.5c-0.68,0.34-1.29,0.74-1.84,1.2l-0.11,0
		l-0.21-1.39l-2.53,0l-0.01,18.25L332.39,126.37z M317.35,118.37c-0.55-0.3-1.02-0.73-1.41-1.29c-0.39-0.56-0.69-1.23-0.9-2.02
		c-0.21-0.79-0.32-1.67-0.32-2.65c0-1.95,0.41-3.48,1.21-4.59s1.91-1.66,3.29-1.66c1.39,0,2.48,0.56,3.29,1.67s1.21,2.64,1.21,4.6
		c0,0.98-0.11,1.86-0.32,2.65c-0.21,0.79-0.52,1.46-0.91,2.02c-0.39,0.56-0.86,0.99-1.41,1.29c-0.55,0.3-1.17,0.45-1.86,0.45
		C318.52,118.82,317.9,118.67,317.35,118.37 M322.33,120.89c0.94-0.42,1.75-1.02,2.44-1.81c0.68-0.79,1.21-1.74,1.59-2.86
		c0.37-1.12,0.56-2.39,0.56-3.81c0-1.4-0.18-2.66-0.56-3.77c-0.37-1.11-0.9-2.05-1.58-2.81c-0.68-0.76-1.5-1.35-2.44-1.76
		c-0.94-0.41-1.98-0.61-3.12-0.61c-1.14,0-2.18,0.2-3.12,0.61c-0.94,0.41-1.75,0.99-2.42,1.76c-0.68,0.76-1.2,1.7-1.57,2.81
		c-0.37,1.11-0.56,2.37-0.56,3.77c0,1.42,0.18,2.69,0.56,3.81c0.37,1.12,0.9,2.07,1.57,2.86s1.48,1.39,2.42,1.81
		c0.94,0.42,1.98,0.63,3.12,0.63C320.35,121.51,321.39,121.31,322.33,120.89"/>
	<path style="clip-path:url(#SVGID_00000026155493839734782840000008864904352139624123_);fill:#FFFFFF;" d="M295.29,273.21
		c0.32-0.11,0.58-0.26,0.8-0.45c0.21-0.19,0.37-0.41,0.48-0.65c0.11-0.25,0.16-0.51,0.16-0.8c0-0.32-0.06-0.6-0.19-0.82
		c-0.13-0.23-0.29-0.42-0.49-0.58c-0.2-0.16-0.42-0.29-0.67-0.39c-0.25-0.1-0.5-0.2-0.75-0.3c-0.2-0.08-0.39-0.15-0.58-0.22
		c-0.18-0.07-0.35-0.15-0.49-0.24c-0.14-0.09-0.26-0.19-0.34-0.31c-0.09-0.12-0.13-0.26-0.13-0.42c0-0.26,0.1-0.5,0.31-0.7
		c0.2-0.2,0.52-0.3,0.96-0.3c0.3,0,0.58,0.06,0.84,0.17c0.26,0.11,0.5,0.26,0.74,0.44l0.55-0.74c-0.27-0.22-0.58-0.4-0.94-0.55
		c-0.36-0.15-0.77-0.23-1.2-0.23c-0.37,0-0.7,0.05-0.99,0.15c-0.29,0.1-0.54,0.24-0.75,0.41c-0.2,0.17-0.36,0.38-0.47,0.62
		c-0.11,0.24-0.16,0.5-0.16,0.77c0,0.29,0.06,0.55,0.18,0.75c0.12,0.21,0.28,0.39,0.48,0.55c0.19,0.16,0.41,0.29,0.66,0.4
		c0.25,0.11,0.49,0.21,0.74,0.29c0.19,0.08,0.38,0.15,0.57,0.23c0.19,0.08,0.36,0.16,0.5,0.26c0.15,0.1,0.27,0.22,0.36,0.35
		c0.09,0.13,0.14,0.29,0.14,0.47c0,0.3-0.11,0.56-0.34,0.77c-0.23,0.21-0.57,0.31-1.02,0.31c-0.42,0-0.78-0.08-1.1-0.23
		c-0.32-0.15-0.63-0.35-0.93-0.6l-0.58,0.78c0.33,0.27,0.72,0.5,1.16,0.68c0.44,0.18,0.91,0.27,1.41,0.27
		C294.61,273.38,294.97,273.32,295.29,273.21 M285.93,273.2l0-5c0.35-0.35,0.66-0.61,0.94-0.79c0.27-0.18,0.59-0.27,0.95-0.27
		c0.45,0,0.79,0.15,0.99,0.43c0.21,0.29,0.31,0.76,0.31,1.41l0,4.22l1.16,0l0-4.38c0-0.89-0.17-1.56-0.5-2.02
		c-0.34-0.45-0.87-0.68-1.6-0.68c-0.48,0-0.91,0.11-1.27,0.33c-0.37,0.22-0.71,0.5-1.04,0.83l-0.04,0l-0.1-0.99l-0.97,0l0,6.9
		L285.93,273.2z M279.08,272.21c-0.25-0.13-0.46-0.31-0.63-0.54c-0.17-0.23-0.31-0.51-0.4-0.83s-0.14-0.68-0.14-1.08
		c0-0.4,0.05-0.76,0.14-1.09c0.1-0.33,0.23-0.61,0.41-0.85c0.18-0.24,0.39-0.42,0.63-0.55c0.25-0.13,0.52-0.19,0.81-0.19
		s0.56,0.06,0.81,0.19c0.25,0.13,0.46,0.31,0.63,0.55c0.17,0.24,0.31,0.52,0.4,0.85s0.14,0.69,0.14,1.09c0,0.4-0.05,0.76-0.14,1.08
		s-0.23,0.6-0.41,0.83s-0.39,0.41-0.63,0.54c-0.25,0.13-0.52,0.19-0.81,0.19S279.33,272.34,279.08,272.21 M281.11,273.13
		c0.38-0.16,0.72-0.39,1.02-0.7c0.29-0.31,0.53-0.69,0.7-1.14s0.26-0.96,0.26-1.53c0-0.58-0.09-1.09-0.26-1.54s-0.41-0.83-0.7-1.14
		c-0.29-0.31-0.63-0.55-1.02-0.71s-0.79-0.24-1.21-0.24s-0.83,0.08-1.21,0.24s-0.72,0.4-1.02,0.71c-0.29,0.31-0.53,0.69-0.7,1.14
		c-0.18,0.45-0.26,0.96-0.26,1.54c0,0.57,0.09,1.08,0.26,1.53s0.41,0.83,0.7,1.14c0.29,0.31,0.63,0.54,1.02,0.7s0.79,0.24,1.21,0.24
		C280.32,273.37,280.72,273.29,281.11,273.13 M275.03,264.66c0.16-0.14,0.23-0.32,0.23-0.54c0-0.23-0.08-0.41-0.23-0.55
		c-0.16-0.14-0.35-0.21-0.58-0.21c-0.23,0-0.42,0.07-0.58,0.21c-0.16,0.14-0.23,0.32-0.23,0.55c0,0.22,0.08,0.4,0.23,0.54
		c0.16,0.14,0.35,0.21,0.58,0.21C274.69,264.87,274.88,264.8,275.03,264.66 M275.03,266.29l-1.16,0l0,6.9l1.16,0L275.03,266.29z
		 M272.03,273.28c0.22-0.05,0.43-0.11,0.62-0.18l-0.23-0.88c-0.11,0.05-0.24,0.09-0.38,0.13c-0.14,0.04-0.27,0.06-0.4,0.06
		c-0.4,0-0.67-0.12-0.83-0.35c-0.16-0.23-0.23-0.56-0.23-0.99l0-3.84l1.86,0l0-0.95l-1.86,0l0-1.93l-0.98,0l-0.14,1.93l-1.08,0.07
		l0,0.88l1.02,0l0,3.82c0,0.34,0.03,0.65,0.1,0.94c0.07,0.28,0.18,0.53,0.33,0.72c0.16,0.2,0.36,0.36,0.61,0.47
		c0.25,0.11,0.56,0.17,0.93,0.17C271.59,273.36,271.81,273.34,272.03,273.28 M263.44,272.16c-0.24-0.17-0.35-0.45-0.35-0.85
		c0-0.22,0.06-0.42,0.16-0.6c0.11-0.18,0.28-0.35,0.53-0.49c0.24-0.14,0.56-0.27,0.95-0.37c0.39-0.1,0.88-0.19,1.46-0.27l0,1.92
		c-0.33,0.3-0.64,0.53-0.94,0.69c-0.29,0.16-0.61,0.23-0.94,0.23C263.97,272.42,263.68,272.33,263.44,272.16 M265.19,273.07
		c0.38-0.19,0.73-0.43,1.07-0.7l0.04,0l0.1,0.82l0.97,0l0-4.23c0-0.86-0.19-1.55-0.57-2.07c-0.38-0.52-0.99-0.77-1.83-0.78
		c-0.56,0-1.07,0.1-1.53,0.29c-0.46,0.19-0.86,0.39-1.18,0.6l0.45,0.81c0.28-0.19,0.59-0.36,0.94-0.51
		c0.35-0.15,0.72-0.23,1.12-0.23c0.28,0,0.52,0.05,0.7,0.15c0.18,0.1,0.33,0.23,0.43,0.39c0.1,0.16,0.18,0.35,0.22,0.55
		c0.04,0.21,0.06,0.42,0.06,0.64c-1.48,0.16-2.55,0.44-3.23,0.84c-0.67,0.4-1.01,0.98-1.01,1.74c0,0.63,0.19,1.11,0.57,1.45
		c0.38,0.34,0.86,0.51,1.44,0.51C264.4,273.36,264.81,273.26,265.19,273.07 M259.1,273.18l0-4.43c0.24-0.59,0.51-1,0.83-1.24
		c0.32-0.24,0.62-0.35,0.92-0.35c0.14,0,0.26,0.01,0.36,0.03c0.09,0.02,0.2,0.05,0.31,0.09l0.23-1.02c-0.22-0.1-0.46-0.14-0.74-0.14
		c-0.4,0-0.76,0.13-1.1,0.38c-0.34,0.26-0.62,0.6-0.86,1.04H259l-0.1-1.25l-0.97,0l0,6.9L259.1,273.18z M251.89,268.26
		c0.12-0.27,0.27-0.49,0.45-0.67c0.18-0.18,0.38-0.32,0.6-0.42c0.22-0.09,0.46-0.14,0.7-0.14c0.54,0,0.96,0.18,1.26,0.55
		c0.3,0.37,0.45,0.9,0.45,1.6l-3.69,0C251.69,268.83,251.77,268.53,251.89,268.26 M255.09,273.14c0.37-0.14,0.71-0.31,1.01-0.5
		l-0.41-0.77c-0.26,0.16-0.52,0.29-0.8,0.39c-0.28,0.1-0.59,0.15-0.92,0.15c-0.66,0-1.2-0.22-1.61-0.65s-0.64-1.02-0.69-1.75l4.66,0
		c0.02-0.09,0.03-0.19,0.04-0.31c0-0.12,0.01-0.24,0.01-0.36c0-0.49-0.06-0.94-0.18-1.34c-0.12-0.4-0.3-0.74-0.53-1.02
		c-0.23-0.28-0.52-0.5-0.87-0.65c-0.35-0.15-0.74-0.23-1.17-0.23c-0.4,0-0.78,0.08-1.15,0.25c-0.37,0.17-0.7,0.4-0.99,0.72
		c-0.29,0.31-0.52,0.69-0.7,1.14c-0.18,0.45-0.26,0.96-0.26,1.53c0,0.57,0.08,1.08,0.25,1.52c0.17,0.44,0.4,0.82,0.7,1.13
		c0.3,0.31,0.65,0.54,1.05,0.71c0.4,0.17,0.84,0.25,1.3,0.25C254.3,273.35,254.72,273.28,255.09,273.14 M245.36,272.2
		c-0.29-0.11-0.6-0.3-0.91-0.56l0-3.62c0.34-0.3,0.66-0.53,0.96-0.7c0.3-0.16,0.59-0.24,0.89-0.24c0.32,0,0.6,0.06,0.83,0.19
		c0.23,0.12,0.42,0.3,0.57,0.52c0.15,0.22,0.25,0.49,0.32,0.8c0.07,0.31,0.1,0.66,0.1,1.04c0,0.43-0.05,0.81-0.15,1.15
		c-0.1,0.34-0.24,0.63-0.41,0.86c-0.18,0.23-0.38,0.41-0.63,0.54c-0.24,0.13-0.5,0.19-0.79,0.19
		C245.91,272.37,245.65,272.31,245.36,272.2 M244.45,276.09l0-2.33l-0.03-1.21c0.32,0.25,0.64,0.44,0.96,0.58
		c0.32,0.14,0.64,0.21,0.96,0.21c0.4,0,0.78-0.08,1.14-0.25c0.36-0.17,0.68-0.41,0.95-0.73c0.27-0.32,0.49-0.71,0.65-1.17
		c0.16-0.46,0.24-0.98,0.24-1.57c0-0.54-0.06-1.03-0.18-1.46c-0.12-0.43-0.29-0.8-0.52-1.11c-0.23-0.31-0.51-0.54-0.85-0.71
		c-0.34-0.17-0.73-0.25-1.18-0.25c-0.41,0-0.8,0.09-1.17,0.28c-0.37,0.19-0.72,0.42-1.03,0.68l-0.04,0l-0.1-0.8l-0.97,0l-0.01,9.82
		L244.45,276.09z M236.42,272.03c-0.34-0.18-0.62-0.44-0.87-0.77c-0.24-0.34-0.43-0.74-0.56-1.21c-0.13-0.47-0.2-1-0.2-1.58
		c0-0.58,0.07-1.1,0.2-1.56c0.13-0.46,0.32-0.86,0.56-1.18s0.53-0.57,0.87-0.75c0.34-0.17,0.71-0.26,1.13-0.26
		c0.42,0,0.79,0.09,1.13,0.26c0.34,0.18,0.62,0.42,0.87,0.75s0.43,0.71,0.56,1.18c0.13,0.46,0.2,0.98,0.2,1.56
		c0,0.59-0.07,1.12-0.2,1.58c-0.13,0.47-0.32,0.87-0.56,1.21c-0.24,0.34-0.53,0.59-0.87,0.77c-0.34,0.18-0.71,0.27-1.13,0.27
		C237.13,272.3,236.75,272.21,236.42,272.03 M239.16,273c0.49-0.23,0.91-0.55,1.26-0.97c0.36-0.42,0.63-0.93,0.82-1.53
		c0.19-0.6,0.29-1.28,0.29-2.02c0-0.74-0.1-1.4-0.29-2c-0.19-0.59-0.47-1.09-0.82-1.51c-0.35-0.41-0.78-0.73-1.26-0.95
		c-0.49-0.22-1.03-0.33-1.61-0.33c-0.59,0-1.12,0.11-1.61,0.33c-0.49,0.22-0.91,0.53-1.26,0.94c-0.35,0.41-0.62,0.91-0.82,1.51
		c-0.19,0.59-0.29,1.26-0.29,2.01c0,0.75,0.1,1.42,0.29,2.02c0.19,0.6,0.47,1.11,0.82,1.53c0.35,0.42,0.77,0.75,1.26,0.97
		c0.49,0.23,1.02,0.34,1.61,0.34C238.13,273.34,238.67,273.23,239.16,273 M224.33,272.27c-0.22-0.08-0.42-0.2-0.58-0.35
		c-0.17-0.15-0.3-0.33-0.39-0.55c-0.09-0.21-0.14-0.45-0.14-0.7c0-0.36,0.11-0.68,0.33-0.97s0.5-0.57,0.83-0.83
		c0.33,0.51,0.71,1,1.13,1.47c0.42,0.47,0.86,0.9,1.31,1.3c-0.27,0.24-0.56,0.42-0.85,0.55c-0.29,0.13-0.6,0.2-0.92,0.2
		C224.79,272.39,224.55,272.35,224.33,272.27 M224.62,264.89c0.21-0.26,0.49-0.38,0.84-0.38c0.31,0,0.54,0.1,0.67,0.31
		c0.14,0.2,0.21,0.44,0.21,0.72c0,0.21-0.04,0.4-0.13,0.58c-0.09,0.17-0.2,0.34-0.35,0.5c-0.15,0.16-0.32,0.31-0.51,0.45
		c-0.19,0.15-0.4,0.29-0.6,0.43c-0.13-0.28-0.24-0.56-0.32-0.84c-0.08-0.27-0.12-0.54-0.12-0.8
		C224.31,265.47,224.42,265.15,224.62,264.89 M226.4,273.04c0.44-0.19,0.84-0.45,1.2-0.77c0.38,0.27,0.75,0.49,1.11,0.66
		c0.36,0.18,0.71,0.31,1.04,0.41l0.31-0.97c-0.26-0.08-0.53-0.19-0.82-0.34c-0.29-0.15-0.6-0.34-0.92-0.55
		c0.37-0.49,0.69-1.02,0.95-1.58c0.27-0.56,0.49-1.15,0.68-1.76l-1.09,0c-0.14,0.54-0.32,1.04-0.55,1.49s-0.48,0.88-0.76,1.26
		c-0.45-0.37-0.87-0.78-1.28-1.22c-0.41-0.45-0.77-0.91-1.07-1.39c0.26-0.19,0.51-0.38,0.76-0.57c0.25-0.19,0.48-0.4,0.68-0.62
		c0.2-0.22,0.36-0.46,0.48-0.72c0.12-0.26,0.19-0.54,0.19-0.84c0-0.55-0.16-0.99-0.48-1.34c-0.32-0.34-0.77-0.51-1.35-0.51
		c-0.32,0-0.62,0.06-0.88,0.17c-0.27,0.11-0.49,0.27-0.68,0.47c-0.19,0.2-0.34,0.43-0.44,0.7c-0.1,0.27-0.16,0.55-0.16,0.87
		c0,0.34,0.05,0.69,0.16,1.06c0.11,0.36,0.26,0.74,0.45,1.13c-0.24,0.16-0.47,0.33-0.69,0.52c-0.22,0.18-0.42,0.39-0.59,0.6
		c-0.17,0.22-0.31,0.45-0.41,0.71c-0.1,0.26-0.15,0.54-0.15,0.85c0,0.38,0.07,0.73,0.21,1.04c0.14,0.32,0.33,0.59,0.58,0.82
		c0.25,0.23,0.55,0.41,0.89,0.53c0.35,0.13,0.73,0.19,1.16,0.19C225.47,273.33,225.96,273.23,226.4,273.04"/>
	<path style="clip-path:url(#SVGID_00000026155493839734782840000008864904352139624123_);fill:#FFFFFF;" d="M333.34,256.45
		c0.22-0.05,0.43-0.11,0.62-0.18l-0.23-0.88c-0.11,0.05-0.24,0.09-0.38,0.13s-0.28,0.06-0.4,0.06c-0.4,0-0.67-0.12-0.83-0.35
		c-0.16-0.23-0.23-0.56-0.23-0.99l0-3.84l1.86,0l0-0.95l-1.86,0l0-1.93l-0.98,0l-0.14,1.93l-1.08,0.07l0,0.88l1.02,0l0,3.82
		c0,0.34,0.03,0.65,0.1,0.94c0.07,0.28,0.18,0.53,0.33,0.72s0.36,0.36,0.61,0.47c0.25,0.11,0.56,0.17,0.93,0.17
		C332.9,256.53,333.12,256.5,333.34,256.45 M324.04,256.36l0-5c0.35-0.35,0.66-0.61,0.94-0.79c0.27-0.18,0.59-0.27,0.95-0.27
		c0.45,0,0.79,0.15,0.99,0.43c0.21,0.29,0.31,0.76,0.31,1.41l0,4.22l1.16,0l0-4.38c0-0.89-0.17-1.56-0.5-2.02
		c-0.34-0.45-0.87-0.68-1.6-0.68c-0.48,0-0.91,0.11-1.27,0.33c-0.37,0.22-0.71,0.5-1.04,0.83l-0.04,0l-0.1-0.99l-0.97,0l0,6.9
		L324.04,256.36z M316.83,251.44c0.12-0.26,0.27-0.49,0.45-0.67c0.18-0.18,0.38-0.32,0.6-0.42c0.22-0.09,0.46-0.14,0.7-0.14
		c0.54,0,0.96,0.18,1.26,0.55c0.3,0.37,0.45,0.9,0.45,1.6l-3.69,0C316.64,252,316.72,251.7,316.83,251.44 M320.04,256.31
		c0.37-0.14,0.71-0.31,1.01-0.5l-0.41-0.77c-0.26,0.16-0.52,0.29-0.8,0.39c-0.28,0.1-0.59,0.15-0.92,0.15
		c-0.66,0-1.2-0.22-1.61-0.65c-0.41-0.43-0.64-1.02-0.69-1.75l4.66,0c0.02-0.09,0.03-0.19,0.04-0.31c0-0.12,0.01-0.24,0.01-0.36
		c0-0.49-0.06-0.94-0.18-1.34c-0.12-0.4-0.3-0.74-0.53-1.02c-0.23-0.28-0.52-0.5-0.87-0.65c-0.35-0.15-0.74-0.23-1.17-0.23
		c-0.4,0-0.78,0.08-1.15,0.25c-0.37,0.17-0.7,0.4-0.99,0.72c-0.29,0.31-0.52,0.69-0.7,1.14c-0.18,0.45-0.26,0.96-0.26,1.53
		c0,0.57,0.08,1.08,0.25,1.52c0.17,0.44,0.4,0.82,0.7,1.13c0.3,0.31,0.65,0.55,1.05,0.71c0.4,0.17,0.84,0.25,1.3,0.25
		C319.24,256.52,319.67,256.45,320.04,256.31 M305.5,256.34l0-5c0.63-0.71,1.21-1.06,1.73-1.06c0.44,0,0.77,0.15,0.98,0.43
		c0.21,0.29,0.31,0.76,0.31,1.41l0,4.22l1.16,0l0-5c0.63-0.71,1.21-1.06,1.73-1.06c0.44,0,0.76,0.15,0.97,0.43
		c0.21,0.29,0.31,0.76,0.31,1.41l0,4.22l1.16,0l0-4.38c0-0.89-0.17-1.56-0.52-2.02c-0.35-0.45-0.87-0.68-1.58-0.68
		c-0.43,0-0.82,0.12-1.19,0.36c-0.37,0.24-0.73,0.56-1.09,0.96c-0.14-0.42-0.36-0.74-0.66-0.97c-0.3-0.23-0.71-0.35-1.24-0.35
		c-0.42,0-0.8,0.11-1.16,0.33c-0.36,0.22-0.68,0.5-0.99,0.83l-0.04,0l-0.1-0.99l-0.97,0l0,6.9L305.5,256.34z M298.3,251.42
		c0.12-0.26,0.27-0.49,0.45-0.67c0.18-0.18,0.38-0.32,0.6-0.42c0.22-0.09,0.46-0.14,0.7-0.14c0.54,0,0.96,0.18,1.26,0.55
		c0.3,0.37,0.45,0.9,0.45,1.6l-3.69,0C298.1,251.99,298.18,251.69,298.3,251.42 M301.5,256.3c0.37-0.14,0.71-0.31,1.01-0.5
		l-0.41-0.77c-0.26,0.16-0.52,0.29-0.8,0.39c-0.28,0.1-0.59,0.15-0.92,0.15c-0.66,0-1.2-0.22-1.61-0.65
		c-0.41-0.43-0.64-1.02-0.69-1.75l4.66,0c0.02-0.09,0.03-0.19,0.04-0.31c0-0.12,0.01-0.24,0.01-0.36c0-0.49-0.06-0.94-0.18-1.34
		s-0.3-0.74-0.53-1.02c-0.23-0.28-0.52-0.5-0.87-0.65c-0.35-0.15-0.74-0.23-1.17-0.23c-0.4,0-0.78,0.08-1.15,0.25
		s-0.7,0.4-0.99,0.72s-0.52,0.69-0.7,1.14c-0.18,0.45-0.26,0.96-0.26,1.53c0,0.57,0.08,1.08,0.25,1.52c0.17,0.44,0.4,0.82,0.7,1.13
		c0.3,0.31,0.65,0.55,1.05,0.71c0.4,0.17,0.84,0.25,1.3,0.25C300.71,256.51,301.13,256.44,301.5,256.3 M293.85,256.34l2.45-6.9
		l-1.15,0l-1.31,3.92c-0.1,0.34-0.21,0.68-0.31,1.02c-0.1,0.34-0.21,0.68-0.31,1.01l-0.06,0c-0.1-0.33-0.21-0.67-0.32-1.01
		c-0.11-0.34-0.22-0.68-0.32-1.02l-1.3-3.92l-1.21,0l2.48,6.91L293.85,256.34z M285.37,255.34c-0.25-0.13-0.46-0.31-0.63-0.54
		c-0.17-0.23-0.31-0.51-0.4-0.83c-0.09-0.32-0.14-0.68-0.14-1.08c0-0.4,0.05-0.76,0.14-1.09c0.1-0.33,0.23-0.61,0.41-0.84
		c0.18-0.24,0.39-0.42,0.63-0.55c0.25-0.13,0.52-0.19,0.81-0.19c0.29,0,0.56,0.06,0.81,0.19c0.25,0.13,0.46,0.31,0.63,0.55
		c0.18,0.24,0.31,0.52,0.4,0.85c0.09,0.33,0.14,0.69,0.14,1.09s-0.05,0.76-0.14,1.08c-0.09,0.32-0.23,0.6-0.41,0.83
		c-0.18,0.23-0.39,0.41-0.63,0.54c-0.25,0.13-0.52,0.19-0.81,0.19C285.89,255.54,285.62,255.47,285.37,255.34 M287.4,256.26
		c0.38-0.16,0.72-0.39,1.02-0.7c0.29-0.31,0.53-0.69,0.7-1.14c0.18-0.45,0.26-0.96,0.26-1.53c0-0.58-0.09-1.09-0.26-1.54
		c-0.17-0.45-0.41-0.83-0.7-1.14c-0.29-0.31-0.63-0.55-1.02-0.71s-0.79-0.24-1.21-0.24c-0.43,0-0.83,0.08-1.21,0.24
		c-0.38,0.16-0.72,0.4-1.02,0.71c-0.29,0.31-0.53,0.69-0.7,1.14c-0.18,0.45-0.26,0.96-0.26,1.54c0,0.57,0.09,1.08,0.26,1.53
		c0.18,0.45,0.41,0.83,0.7,1.14c0.29,0.31,0.63,0.54,1.02,0.7c0.38,0.16,0.79,0.24,1.21,0.24
		C286.61,256.5,287.01,256.42,287.4,256.26 M280.02,256.33l0-4.43c0.24-0.59,0.51-1,0.83-1.24c0.32-0.24,0.62-0.35,0.92-0.35
		c0.14,0,0.26,0.01,0.36,0.03c0.1,0.02,0.2,0.05,0.31,0.09l0.23-1.02c-0.22-0.09-0.46-0.14-0.74-0.14c-0.4,0-0.76,0.13-1.1,0.38
		c-0.34,0.26-0.62,0.6-0.86,1.04l-0.04,0l-0.1-1.25l-0.97,0l0,6.9L280.02,256.33z M273.19,255.35c-0.29-0.11-0.6-0.3-0.91-0.56
		l0-3.62c0.34-0.3,0.66-0.53,0.96-0.7c0.3-0.16,0.59-0.24,0.89-0.24c0.32,0,0.6,0.06,0.83,0.19c0.23,0.12,0.42,0.3,0.57,0.52
		c0.15,0.22,0.25,0.49,0.32,0.8c0.07,0.31,0.1,0.66,0.1,1.04c0,0.43-0.05,0.81-0.15,1.15s-0.24,0.63-0.41,0.86
		c-0.18,0.23-0.38,0.41-0.63,0.54c-0.24,0.13-0.5,0.19-0.79,0.19C273.74,255.51,273.48,255.46,273.19,255.35 M272.27,259.23l0-2.33
		l-0.03-1.21c0.32,0.25,0.64,0.44,0.96,0.58c0.32,0.14,0.64,0.21,0.96,0.21c0.4,0,0.78-0.08,1.14-0.25
		c0.36-0.16,0.68-0.41,0.95-0.73c0.27-0.32,0.49-0.71,0.65-1.17c0.16-0.46,0.24-0.98,0.24-1.57c0-0.54-0.06-1.03-0.18-1.46
		c-0.12-0.43-0.29-0.8-0.52-1.11c-0.23-0.31-0.51-0.54-0.85-0.71c-0.34-0.17-0.73-0.25-1.18-0.25c-0.41,0-0.8,0.09-1.17,0.28
		c-0.37,0.19-0.72,0.42-1.03,0.68l-0.04,0l-0.1-0.8l-0.97,0l-0.01,9.82L272.27,259.23z M260.64,256.31l0-5
		c0.63-0.71,1.21-1.06,1.73-1.06c0.44,0,0.77,0.15,0.98,0.43c0.21,0.29,0.31,0.76,0.31,1.41l0,4.22l1.16,0l0-5
		c0.63-0.71,1.21-1.06,1.73-1.06c0.44,0,0.76,0.15,0.97,0.43c0.21,0.29,0.31,0.76,0.31,1.41l0,4.22l1.16,0l0-4.38
		c0-0.89-0.17-1.56-0.52-2.02c-0.35-0.45-0.87-0.68-1.58-0.68c-0.43,0-0.82,0.12-1.19,0.36c-0.37,0.24-0.73,0.56-1.09,0.96
		c-0.14-0.42-0.36-0.74-0.66-0.97c-0.3-0.23-0.71-0.35-1.24-0.35c-0.42,0-0.8,0.11-1.16,0.33c-0.36,0.22-0.68,0.5-0.99,0.83l-0.04,0
		l-0.1-0.99l-0.97,0l0,6.9L260.64,256.31z M257.18,246.99l-1.18,0l-0.01,9.32l1.18,0L257.18,246.99z M250.26,256.32
		c0.32-0.11,0.58-0.26,0.8-0.45c0.21-0.19,0.37-0.41,0.48-0.65c0.11-0.25,0.16-0.51,0.16-0.8c0-0.32-0.06-0.6-0.19-0.82
		s-0.29-0.42-0.49-0.58c-0.2-0.16-0.42-0.29-0.67-0.39c-0.25-0.1-0.5-0.2-0.75-0.3c-0.2-0.08-0.39-0.15-0.58-0.22
		c-0.18-0.07-0.35-0.15-0.49-0.24c-0.14-0.09-0.26-0.19-0.34-0.31c-0.09-0.12-0.13-0.26-0.13-0.42c0-0.26,0.1-0.5,0.31-0.7
		c0.2-0.2,0.52-0.3,0.96-0.3c0.3,0,0.58,0.06,0.84,0.17c0.26,0.11,0.5,0.26,0.74,0.44l0.55-0.74c-0.27-0.22-0.58-0.4-0.94-0.55
		c-0.36-0.15-0.76-0.23-1.2-0.23c-0.37,0-0.7,0.05-0.99,0.15c-0.29,0.1-0.54,0.24-0.75,0.41c-0.2,0.18-0.36,0.38-0.47,0.62
		c-0.11,0.24-0.16,0.5-0.16,0.77c0,0.29,0.06,0.55,0.18,0.75c0.12,0.21,0.28,0.39,0.48,0.55c0.19,0.16,0.41,0.29,0.66,0.4
		c0.25,0.11,0.49,0.21,0.74,0.29c0.19,0.08,0.38,0.15,0.57,0.23c0.19,0.08,0.36,0.16,0.5,0.26c0.15,0.1,0.27,0.22,0.36,0.35
		c0.09,0.13,0.14,0.29,0.14,0.47c0,0.3-0.11,0.56-0.34,0.77c-0.23,0.21-0.57,0.31-1.02,0.31c-0.42,0-0.78-0.08-1.1-0.23
		c-0.32-0.15-0.63-0.35-0.93-0.6l-0.58,0.78c0.33,0.27,0.72,0.5,1.16,0.68c0.44,0.18,0.91,0.27,1.41,0.27
		C249.59,256.48,249.95,256.42,250.26,256.32 M243.06,256.13c0.36-0.23,0.69-0.53,1.02-0.91l0.04,0l0.1,1.08l0.97,0l0-6.9l-1.16,0
		l0,4.9c-0.33,0.41-0.64,0.7-0.91,0.89c-0.27,0.18-0.59,0.28-0.95,0.28c-0.45,0-0.78-0.14-0.99-0.43c-0.2-0.29-0.3-0.76-0.3-1.41
		l0-4.22l-1.18,0l0,4.38c0,0.89,0.17,1.56,0.5,2.02c0.34,0.45,0.87,0.68,1.61,0.68C242.29,256.47,242.71,256.36,243.06,256.13
		 M234.11,255.31c-0.25-0.13-0.46-0.31-0.63-0.54c-0.17-0.23-0.31-0.51-0.4-0.83c-0.09-0.32-0.14-0.68-0.14-1.08
		c0-0.4,0.05-0.76,0.14-1.09c0.1-0.33,0.23-0.61,0.41-0.84c0.18-0.24,0.39-0.42,0.63-0.55c0.25-0.13,0.52-0.19,0.81-0.19
		c0.29,0,0.56,0.06,0.81,0.19c0.25,0.13,0.46,0.31,0.63,0.55c0.18,0.24,0.31,0.52,0.4,0.85c0.09,0.33,0.14,0.69,0.14,1.09
		c0,0.4-0.05,0.76-0.14,1.08c-0.09,0.32-0.23,0.6-0.41,0.83c-0.18,0.23-0.39,0.41-0.63,0.54c-0.25,0.13-0.52,0.19-0.81,0.19
		C234.62,255.5,234.35,255.44,234.11,255.31 M236.13,256.23c0.38-0.16,0.72-0.39,1.02-0.7c0.29-0.31,0.53-0.69,0.7-1.14
		c0.18-0.45,0.26-0.96,0.26-1.53c0-0.58-0.09-1.09-0.26-1.54c-0.17-0.45-0.41-0.83-0.7-1.14c-0.29-0.31-0.63-0.55-1.02-0.71
		c-0.38-0.16-0.79-0.24-1.21-0.24c-0.43,0-0.83,0.08-1.21,0.24c-0.38,0.16-0.72,0.4-1.02,0.71c-0.29,0.31-0.53,0.69-0.7,1.14
		c-0.18,0.45-0.26,0.96-0.26,1.54c0,0.57,0.09,1.08,0.26,1.53c0.18,0.45,0.41,0.83,0.7,1.14c0.29,0.31,0.63,0.54,1.02,0.7
		c0.38,0.16,0.79,0.24,1.21,0.24C235.34,256.47,235.75,256.39,236.13,256.23 M227.92,256.12c0.36-0.23,0.69-0.53,1.02-0.91l0.04,0
		l0.1,1.08l0.97,0l0-6.9l-1.16,0l0,4.9c-0.33,0.41-0.64,0.7-0.91,0.89c-0.28,0.18-0.59,0.28-0.95,0.28c-0.45,0-0.78-0.14-0.99-0.43
		c-0.2-0.29-0.3-0.76-0.3-1.41l0-4.22l-1.18,0l0,4.38c0,0.89,0.17,1.56,0.5,2.02c0.34,0.45,0.87,0.68,1.61,0.68
		C227.15,256.46,227.56,256.35,227.92,256.12 M218.18,256.29l0-5c0.35-0.35,0.66-0.61,0.94-0.79c0.27-0.18,0.59-0.27,0.95-0.27
		c0.45,0,0.79,0.15,0.99,0.43c0.21,0.29,0.31,0.76,0.31,1.41l0,4.22l1.16,0l0-4.38c0-0.89-0.17-1.56-0.5-2.02
		c-0.34-0.45-0.87-0.68-1.6-0.68c-0.48,0-0.91,0.11-1.27,0.33c-0.37,0.22-0.71,0.5-1.04,0.83l-0.04,0l-0.1-0.99l-0.97,0l0,6.9
		L218.18,256.29z M214.84,247.75c0.16-0.14,0.23-0.32,0.23-0.54c0-0.23-0.08-0.41-0.23-0.55c-0.16-0.14-0.35-0.21-0.58-0.21
		c-0.23,0-0.42,0.07-0.58,0.21c-0.16,0.14-0.23,0.32-0.23,0.55c0,0.22,0.08,0.4,0.23,0.54s0.35,0.21,0.58,0.21
		C214.49,247.96,214.69,247.89,214.84,247.75 M214.83,249.38l-1.16,0l0,6.9l1.16,0L214.83,249.38z M211.84,256.38
		c0.22-0.05,0.43-0.11,0.62-0.18l-0.23-0.88c-0.11,0.05-0.24,0.09-0.38,0.13c-0.14,0.04-0.28,0.06-0.4,0.06
		c-0.4,0-0.67-0.12-0.83-0.35c-0.16-0.23-0.23-0.56-0.23-0.99l0-3.84l1.86,0l0-0.95l-1.86,0l0-1.93l-0.98,0l-0.14,1.93l-1.08,0.07
		l0,0.88l1.02,0l0,3.82c0,0.34,0.03,0.65,0.1,0.94c0.07,0.28,0.18,0.53,0.33,0.72c0.16,0.2,0.36,0.36,0.61,0.47
		c0.25,0.11,0.56,0.17,0.93,0.17C211.4,256.45,211.62,256.43,211.84,256.38 M202.54,256.28l0-5c0.35-0.35,0.66-0.61,0.94-0.79
		c0.27-0.18,0.59-0.27,0.95-0.27c0.45,0,0.79,0.15,0.99,0.43c0.21,0.29,0.31,0.76,0.31,1.41l0,4.22l1.16,0l0-4.38
		c0-0.89-0.17-1.56-0.5-2.02c-0.34-0.45-0.87-0.68-1.6-0.68c-0.48,0-0.91,0.11-1.27,0.33c-0.37,0.22-0.71,0.5-1.04,0.83l-0.04,0
		l-0.1-0.99l-0.97,0l0,6.9L202.54,256.28z M195.69,255.29c-0.25-0.13-0.46-0.31-0.63-0.54c-0.18-0.23-0.31-0.51-0.4-0.83
		c-0.09-0.32-0.14-0.68-0.14-1.08c0-0.4,0.05-0.76,0.14-1.09c0.09-0.33,0.23-0.61,0.41-0.84c0.18-0.24,0.39-0.42,0.63-0.55
		c0.25-0.13,0.52-0.19,0.81-0.19c0.29,0,0.56,0.06,0.81,0.19c0.25,0.13,0.46,0.31,0.63,0.55c0.17,0.24,0.31,0.52,0.4,0.85
		c0.09,0.33,0.14,0.69,0.14,1.09s-0.05,0.76-0.14,1.08c-0.1,0.32-0.23,0.6-0.41,0.83c-0.18,0.23-0.39,0.41-0.63,0.54
		c-0.25,0.13-0.52,0.19-0.81,0.19C196.21,255.48,195.94,255.41,195.69,255.29 M197.72,256.2c0.38-0.16,0.72-0.39,1.02-0.7
		c0.29-0.31,0.53-0.69,0.7-1.14c0.18-0.45,0.26-0.96,0.26-1.53c0-0.58-0.09-1.09-0.26-1.54c-0.18-0.45-0.41-0.83-0.7-1.14
		c-0.29-0.31-0.63-0.55-1.02-0.71c-0.38-0.16-0.79-0.24-1.21-0.24c-0.43,0-0.83,0.08-1.21,0.24c-0.38,0.16-0.72,0.4-1.02,0.71
		c-0.29,0.31-0.53,0.69-0.7,1.14c-0.18,0.45-0.26,0.96-0.26,1.54c0,0.57,0.09,1.08,0.26,1.53c0.17,0.45,0.41,0.83,0.7,1.14
		c0.29,0.31,0.63,0.54,1.02,0.7s0.79,0.24,1.21,0.24C196.93,256.44,197.33,256.36,197.72,256.2 M191.09,256.09
		c0.46-0.24,0.88-0.57,1.25-0.99l-0.65-0.74c-0.3,0.33-0.63,0.59-0.97,0.77c-0.34,0.18-0.74,0.28-1.19,0.28
		c-0.44,0-0.85-0.09-1.2-0.27c-0.36-0.18-0.66-0.44-0.9-0.77c-0.25-0.33-0.44-0.73-0.57-1.2c-0.14-0.47-0.21-1-0.2-1.58
		c0-0.58,0.07-1.1,0.21-1.56c0.14-0.46,0.33-0.86,0.59-1.19c0.26-0.33,0.56-0.58,0.92-0.75c0.36-0.17,0.76-0.26,1.21-0.26
		c0.4,0,0.75,0.08,1.07,0.24c0.31,0.16,0.59,0.38,0.84,0.64l0.64-0.77c-0.28-0.3-0.63-0.57-1.06-0.8c-0.43-0.23-0.93-0.35-1.5-0.35
		c-0.6,0-1.15,0.11-1.65,0.33c-0.5,0.22-0.94,0.54-1.31,0.96c-0.37,0.42-0.66,0.92-0.87,1.52c-0.21,0.6-0.31,1.27-0.31,2.02
		c0,0.76,0.1,1.44,0.3,2.04c0.2,0.6,0.49,1.11,0.85,1.52c0.36,0.41,0.79,0.73,1.29,0.95c0.49,0.22,1.03,0.33,1.62,0.33
		C190.09,256.44,190.63,256.32,191.09,256.09"/>
	<path style="clip-path:url(#SVGID_00000026155493839734782840000008864904352139624123_);fill:#FFFFFF;" d="M294.54,226.75
		c0.59-0.55,1.27-0.82,2.05-0.82c0.91,0,1.58,0.29,2.01,0.87c0.43,0.58,0.65,1.37,0.65,2.38l-5.81,0
		C293.59,228.11,293.95,227.3,294.54,226.75 M299.33,236.87c0.76-0.27,1.46-0.6,2.08-1.01l-1.04-1.92c-0.48,0.3-0.96,0.54-1.45,0.7
		s-1.02,0.25-1.58,0.25c-1.07,0-1.94-0.32-2.62-0.95s-1.1-1.53-1.24-2.7l8.31,0.01c0.04-0.16,0.07-0.37,0.09-0.64
		c0.03-0.27,0.04-0.55,0.04-0.85c0-0.91-0.11-1.74-0.34-2.5c-0.23-0.76-0.57-1.42-1.02-1.97c-0.45-0.55-1.02-0.98-1.69-1.28
		s-1.46-0.45-2.34-0.45c-0.76,0-1.51,0.16-2.24,0.48c-0.73,0.32-1.37,0.77-1.93,1.36c-0.56,0.59-1.01,1.3-1.35,2.16
		c-0.34,0.85-0.51,1.81-0.51,2.88c0,1.08,0.16,2.05,0.49,2.89c0.33,0.84,0.78,1.56,1.37,2.15s1.27,1.04,2.05,1.35
		s1.62,0.47,2.53,0.47C297.76,237.27,298.56,237.14,299.33,236.87 M289,237.12c0.45-0.1,0.86-0.21,1.21-0.33l-0.53-2.26
		c-0.2,0.09-0.41,0.16-0.65,0.21c-0.24,0.05-0.48,0.08-0.71,0.08c-1.23,0-1.84-0.76-1.84-2.29l0-6.23l3.33,0l0-2.42l-3.33,0l0-3.57
		l-2.56,0l-0.38,3.57l-2.02,0.13l0,2.29l1.86,0l0,6.23c0,0.71,0.07,1.35,0.23,1.93c0.15,0.58,0.39,1.07,0.72,1.49
		c0.33,0.42,0.75,0.74,1.28,0.97c0.52,0.23,1.17,0.35,1.93,0.35C288.07,237.27,288.55,237.22,289,237.12 M273.22,234.46
		c-0.35-0.27-0.53-0.69-0.53-1.28c0-0.32,0.08-0.62,0.24-0.91c0.16-0.28,0.43-0.54,0.8-0.76c0.37-0.22,0.86-0.42,1.47-0.6
		c0.6-0.18,1.35-0.32,2.24-0.42l0,2.93c-0.5,0.46-0.96,0.82-1.4,1.06s-0.92,0.37-1.45,0.37
		C274.03,234.86,273.58,234.73,273.22,234.46 M275.77,236.75c0.67-0.34,1.29-0.75,1.88-1.25l0.11,0l0.21,1.44l2.53,0l0-7.75
		c0-1.83-0.4-3.23-1.21-4.2c-0.81-0.97-2.03-1.45-3.66-1.45c-1.05,0-2.02,0.17-2.93,0.5c-0.91,0.34-1.72,0.74-2.45,1.2l1.12,2.05
		c0.59-0.35,1.19-0.66,1.8-0.9s1.24-0.37,1.88-0.37c0.44,0,0.82,0.07,1.12,0.2c0.3,0.13,0.55,0.32,0.73,0.56
		c0.19,0.24,0.32,0.52,0.4,0.83c0.08,0.31,0.13,0.63,0.15,0.97c-1.35,0.14-2.51,0.34-3.48,0.61s-1.77,0.59-2.4,0.98
		c-0.63,0.39-1.09,0.86-1.39,1.4c-0.29,0.54-0.44,1.16-0.44,1.85c0,1.15,0.35,2.08,1.06,2.78c0.71,0.7,1.64,1.05,2.8,1.05
		C274.38,237.26,275.1,237.09,275.77,236.75 M265.04,236.93l0.01-7.99c0.41-0.99,0.9-1.69,1.47-2.09c0.57-0.4,1.11-0.6,1.63-0.6
		c0.28,0,0.52,0.02,0.72,0.05c0.2,0.04,0.41,0.09,0.64,0.16l0.53-2.66c-0.37-0.18-0.87-0.27-1.49-0.27c-0.69,0-1.37,0.23-2.02,0.68
		c-0.66,0.45-1.22,1.1-1.68,1.96l-0.11,0l-0.21-2.32l-2.53,0l-0.01,13.08L265.04,236.93z M252.48,226.72
		c0.59-0.55,1.27-0.82,2.05-0.82c0.91,0,1.57,0.29,2.01,0.87c0.43,0.58,0.65,1.37,0.65,2.38l-5.81,0
		C251.53,228.08,251.89,227.27,252.48,226.72 M257.27,236.85c0.76-0.27,1.46-0.6,2.08-1.01l-1.04-1.92c-0.48,0.3-0.96,0.54-1.45,0.7
		c-0.49,0.17-1.02,0.25-1.58,0.25c-1.07,0-1.94-0.32-2.62-0.95c-0.68-0.63-1.1-1.53-1.24-2.7l8.31,0.01
		c0.04-0.16,0.07-0.37,0.09-0.64c0.03-0.27,0.04-0.55,0.04-0.85c0-0.91-0.12-1.74-0.34-2.5c-0.23-0.76-0.57-1.42-1.02-1.97
		c-0.45-0.55-1.02-0.98-1.69-1.28c-0.68-0.3-1.46-0.45-2.34-0.45c-0.76,0-1.51,0.16-2.24,0.48c-0.73,0.32-1.37,0.77-1.93,1.36
		c-0.56,0.59-1.01,1.3-1.35,2.16c-0.34,0.85-0.51,1.81-0.51,2.88c0,1.08,0.16,2.05,0.49,2.89c0.33,0.84,0.78,1.56,1.37,2.15
		s1.27,1.04,2.05,1.35c0.78,0.31,1.62,0.47,2.53,0.47C255.71,237.25,256.5,237.11,257.27,236.85 M239.5,234.46
		c-0.44-0.16-0.91-0.44-1.38-0.85l0-6.1c1-0.98,1.95-1.46,2.88-1.46c0.99,0,1.71,0.37,2.16,1.09s0.66,1.75,0.66,3.06
		c0,1.49-0.29,2.61-0.88,3.37c-0.59,0.75-1.31,1.13-2.18,1.13C240.36,234.7,239.95,234.62,239.5,234.46 M238.11,242.08l0-4.1
		l-0.08-2.18c0.53,0.46,1.08,0.82,1.65,1.07c0.57,0.25,1.14,0.37,1.7,0.37c0.73,0,1.43-0.16,2.1-0.48c0.67-0.32,1.27-0.78,1.79-1.37
		c0.52-0.59,0.93-1.33,1.24-2.21c0.31-0.88,0.47-1.88,0.47-3c0-1.01-0.11-1.93-0.34-2.74s-0.57-1.52-1.01-2.1
		c-0.44-0.59-0.98-1.03-1.61-1.35c-0.63-0.31-1.35-0.47-2.17-0.47c-0.73,0-1.43,0.17-2.1,0.5s-1.29,0.74-1.84,1.2l-0.11,0
		l-0.21-1.39l-2.53,0l-0.01,18.25L238.11,242.08z M223.07,234.08c-0.55-0.3-1.02-0.73-1.41-1.29c-0.39-0.56-0.69-1.23-0.9-2.02
		c-0.21-0.79-0.32-1.67-0.32-2.65c0-1.95,0.41-3.48,1.21-4.59c0.81-1.11,1.91-1.66,3.29-1.66c1.39,0,2.48,0.56,3.29,1.67
		c0.81,1.11,1.21,2.64,1.21,4.6c0,0.98-0.11,1.86-0.32,2.65c-0.21,0.79-0.52,1.46-0.91,2.02c-0.39,0.56-0.86,0.99-1.41,1.29
		c-0.55,0.3-1.17,0.45-1.86,0.45C224.24,234.53,223.62,234.38,223.07,234.08 M228.05,236.6c0.94-0.42,1.75-1.02,2.44-1.81
		s1.21-1.74,1.59-2.86c0.37-1.12,0.56-2.39,0.56-3.81c0-1.4-0.18-2.66-0.56-3.77c-0.37-1.11-0.9-2.05-1.58-2.81s-1.5-1.35-2.44-1.76
		s-1.98-0.61-3.12-0.61c-1.14,0-2.18,0.2-3.12,0.61s-1.75,0.99-2.42,1.76s-1.2,1.7-1.57,2.81c-0.37,1.11-0.56,2.37-0.56,3.77
		c0,1.42,0.18,2.69,0.56,3.81c0.37,1.12,0.9,2.07,1.57,2.86c0.67,0.79,1.48,1.39,2.42,1.81c0.94,0.42,1.98,0.63,3.12,0.63
		S227.11,237.02,228.05,236.6"/>
</g>
</svg>
