<?xml version="1.0" encoding="utf-8"?>
<!-- Generator: Adobe Illustrator 26.0.3, SVG Export Plug-In . SVG Version: 6.00 Build 0)  -->
<svg version="1.1" id="Layer_1" xmlns="http://www.w3.org/2000/svg" xmlns:xlink="http://www.w3.org/1999/xlink" x="0px" y="0px"
	 viewBox="0 0 226.44 226.44" style="enable-background:new 0 0 226.44 226.44;" xml:space="preserve">
<style type="text/css">
	.st0{clip-path:url(#SVGID_00000121276647135462133760000013130566236265162924_);fill:#1FA380;}
	.st1{clip-path:url(#SVGID_00000121276647135462133760000013130566236265162924_);fill:#AD46F2;}
	.st2{clip-path:url(#SVGID_00000121276647135462133760000013130566236265162924_);fill:#0080AB;}
	.st3{clip-path:url(#SVGID_00000121276647135462133760000013130566236265162924_);fill:#FFFFFF;}
</style>
<g>
	<defs>
		<rect id="SVGID_1_" width="226.19" height="226.19"/>
	</defs>
	<clipPath id="SVGID_00000042696090071810728920000004603223454712402876_">
		<use xlink:href="#SVGID_1_"  style="overflow:visible;"/>
	</clipPath>
	<path style="clip-path:url(#SVGID_00000042696090071810728920000004603223454712402876_);fill:#1FA380;" d="M113.1,226.19
		c-41.86,0-78.4-22.74-97.96-56.54l22.36-34.54l43.21-3.31c6.47,11.18,18.55,18.71,32.39,18.71s25.92-7.53,32.39-18.71l65.57,37.85
		C191.51,203.45,154.96,226.19,113.1,226.19"/>
	<path style="clip-path:url(#SVGID_00000042696090071810728920000004603223454712402876_);fill:#AD46F2;" d="M211.06,169.65
		l-43.32-4.23l-22.24-33.62c3.18-5.5,5.01-11.88,5.01-18.7c0-20.66-16.75-37.41-37.41-37.41V0c62.46,0,113.09,50.64,113.09,113.1
		C226.19,133.7,220.69,153.02,211.06,169.65"/>
	<path style="clip-path:url(#SVGID_00000042696090071810728920000004603223454712402876_);fill:#0080AB;" d="M15.14,169.65
		C5.51,153.02,0,133.7,0,113.1C0,50.64,50.64,0,113.1,0l17.91,38.63L113.1,75.69c-20.66,0-37.41,16.75-37.41,37.41
		c0,6.82,1.83,13.2,5.01,18.7l-43.21,3.31L15.14,169.65z"/>
	<path style="clip-path:url(#SVGID_00000042696090071810728920000004603223454712402876_);fill:#FFFFFF;" d="M73.3,92.98v-3.77
		c0.26-0.26,0.5-0.46,0.71-0.6c0.21-0.14,0.45-0.2,0.72-0.2c0.34,0,0.59,0.11,0.75,0.33c0.16,0.22,0.24,0.57,0.24,1.07v3.18h0.88
		v-3.3c0-0.67-0.13-1.18-0.38-1.52c-0.25-0.34-0.66-0.51-1.2-0.51c-0.36,0-0.68,0.08-0.96,0.25c-0.28,0.17-0.54,0.38-0.79,0.63
		h-0.03l-0.07-0.75h-0.73v5.21H73.3z M68.14,92.23c-0.19-0.1-0.34-0.23-0.48-0.41c-0.13-0.17-0.23-0.38-0.31-0.63
		c-0.07-0.24-0.11-0.51-0.11-0.81c0-0.3,0.04-0.57,0.11-0.82c0.07-0.25,0.17-0.46,0.31-0.64c0.13-0.18,0.29-0.32,0.48-0.41
		c0.19-0.1,0.39-0.14,0.61-0.14c0.22,0,0.43,0.05,0.61,0.14s0.34,0.23,0.48,0.41c0.13,0.18,0.23,0.39,0.31,0.64
		c0.07,0.25,0.11,0.52,0.11,0.82c0,0.3-0.04,0.57-0.11,0.81c-0.07,0.24-0.17,0.45-0.31,0.63c-0.13,0.18-0.29,0.31-0.48,0.41
		s-0.39,0.14-0.61,0.14C68.53,92.38,68.32,92.33,68.14,92.23 M69.66,92.92c0.29-0.12,0.54-0.3,0.77-0.53
		c0.22-0.23,0.4-0.52,0.53-0.86c0.13-0.34,0.2-0.72,0.2-1.15c0-0.44-0.07-0.82-0.2-1.16c-0.13-0.34-0.31-0.63-0.53-0.86
		c-0.22-0.24-0.48-0.41-0.77-0.54c-0.29-0.12-0.59-0.18-0.92-0.18c-0.32,0-0.63,0.06-0.92,0.18c-0.29,0.12-0.54,0.3-0.77,0.54
		c-0.22,0.24-0.4,0.52-0.53,0.86c-0.13,0.34-0.2,0.73-0.2,1.16c0,0.43,0.07,0.81,0.2,1.15c0.13,0.34,0.31,0.63,0.53,0.86
		c0.22,0.23,0.48,0.41,0.77,0.53c0.29,0.12,0.59,0.18,0.92,0.18C69.07,93.11,69.38,93.05,69.66,92.92 M65.08,86.54
		c0.12-0.11,0.18-0.24,0.18-0.41c0-0.17-0.06-0.31-0.18-0.41c-0.12-0.1-0.26-0.16-0.43-0.16s-0.32,0.05-0.43,0.16
		c-0.12,0.1-0.18,0.24-0.18,0.41c0,0.16,0.06,0.3,0.18,0.41c0.12,0.11,0.26,0.16,0.43,0.16S64.96,86.65,65.08,86.54 M65.08,87.77
		H64.2v5.21h0.88V87.77z M62.82,93.05c0.17-0.04,0.32-0.08,0.47-0.13l-0.17-0.66c-0.09,0.04-0.18,0.07-0.29,0.1
		c-0.11,0.03-0.21,0.04-0.3,0.04c-0.3,0-0.51-0.09-0.63-0.26c-0.12-0.17-0.18-0.42-0.18-0.74v-2.89h1.4v-0.72h-1.4v-1.46h-0.74
		l-0.11,1.46l-0.81,0.05v0.66h0.77v2.88c0,0.26,0.03,0.49,0.07,0.71c0.05,0.21,0.13,0.4,0.25,0.55c0.12,0.15,0.27,0.27,0.46,0.35
		c0.19,0.09,0.42,0.13,0.7,0.13C62.49,93.11,62.65,93.09,62.82,93.05 M56.35,92.21c-0.18-0.13-0.27-0.34-0.27-0.64
		c0-0.16,0.04-0.32,0.12-0.46c0.08-0.14,0.21-0.26,0.4-0.37c0.18-0.11,0.42-0.2,0.72-0.28c0.3-0.08,0.66-0.15,1.1-0.2v1.45
		c-0.25,0.23-0.49,0.4-0.71,0.52c-0.22,0.12-0.46,0.18-0.71,0.18C56.74,92.4,56.52,92.34,56.35,92.21 M57.66,92.89
		c0.29-0.15,0.55-0.32,0.8-0.53h0.03l0.07,0.62h0.73v-3.19c0-0.65-0.14-1.17-0.43-1.56c-0.29-0.39-0.75-0.58-1.38-0.58
		c-0.42,0-0.81,0.07-1.16,0.22c-0.35,0.15-0.65,0.3-0.89,0.46l0.34,0.61c0.21-0.14,0.44-0.27,0.71-0.39
		c0.26-0.11,0.55-0.17,0.85-0.17c0.21,0,0.39,0.04,0.53,0.11c0.14,0.07,0.25,0.17,0.33,0.29c0.08,0.12,0.13,0.26,0.17,0.42
		c0.03,0.16,0.05,0.32,0.05,0.48c-1.11,0.12-1.92,0.33-2.43,0.64c-0.51,0.3-0.76,0.74-0.76,1.31c0,0.47,0.14,0.84,0.43,1.09
		s0.65,0.39,1.09,0.39C57.07,93.11,57.38,93.03,57.66,92.89 M53.83,92.93c0.29-0.12,0.55-0.28,0.78-0.49l-0.39-0.59
		c-0.16,0.14-0.35,0.27-0.55,0.37c-0.2,0.1-0.43,0.16-0.67,0.16c-0.24,0-0.45-0.05-0.65-0.14c-0.2-0.1-0.37-0.23-0.51-0.41
		c-0.14-0.17-0.25-0.38-0.33-0.63c-0.08-0.24-0.12-0.51-0.12-0.81c0-0.3,0.04-0.57,0.12-0.82c0.08-0.25,0.19-0.46,0.34-0.64
		c0.14-0.18,0.31-0.32,0.51-0.41c0.2-0.1,0.42-0.14,0.65-0.14c0.21,0,0.39,0.04,0.56,0.13c0.17,0.09,0.33,0.2,0.48,0.33l0.45-0.58
		c-0.19-0.16-0.4-0.31-0.64-0.43c-0.24-0.12-0.54-0.18-0.88-0.18c-0.34,0-0.65,0.06-0.96,0.18c-0.3,0.12-0.57,0.3-0.8,0.54
		c-0.23,0.24-0.41,0.52-0.55,0.86c-0.14,0.34-0.2,0.73-0.2,1.16c0,0.43,0.06,0.81,0.19,1.15c0.13,0.34,0.3,0.63,0.51,0.86
		c0.22,0.23,0.48,0.41,0.78,0.53c0.3,0.12,0.62,0.18,0.96,0.18C53.24,93.11,53.54,93.05,53.83,92.93 M46.59,92.23
		c-0.19-0.1-0.34-0.23-0.48-0.41c-0.13-0.17-0.23-0.38-0.31-0.63c-0.07-0.24-0.11-0.51-0.11-0.81c0-0.3,0.04-0.57,0.11-0.82
		c0.07-0.25,0.17-0.46,0.31-0.64c0.13-0.18,0.29-0.32,0.48-0.41c0.19-0.1,0.39-0.14,0.61-0.14c0.22,0,0.43,0.05,0.61,0.14
		c0.19,0.1,0.34,0.23,0.48,0.41c0.13,0.18,0.23,0.39,0.31,0.64c0.07,0.25,0.11,0.52,0.11,0.82c0,0.3-0.04,0.57-0.11,0.81
		c-0.07,0.24-0.17,0.45-0.31,0.63C48.15,92,48,92.14,47.81,92.23c-0.19,0.1-0.39,0.14-0.61,0.14
		C46.98,92.38,46.77,92.33,46.59,92.23 M48.11,92.92c0.29-0.12,0.54-0.3,0.77-0.53c0.22-0.23,0.4-0.52,0.53-0.86
		c0.13-0.34,0.2-0.72,0.2-1.15c0-0.44-0.07-0.82-0.2-1.16c-0.13-0.34-0.31-0.63-0.53-0.86c-0.22-0.24-0.48-0.41-0.77-0.54
		c-0.29-0.12-0.59-0.18-0.92-0.18c-0.32,0-0.63,0.06-0.92,0.18c-0.29,0.12-0.54,0.3-0.77,0.54c-0.22,0.24-0.4,0.52-0.53,0.86
		c-0.13,0.34-0.2,0.73-0.2,1.16c0,0.43,0.07,0.81,0.2,1.15c0.13,0.34,0.31,0.63,0.53,0.86c0.22,0.23,0.48,0.41,0.77,0.53
		c0.29,0.12,0.59,0.18,0.92,0.18C47.52,93.11,47.83,93.05,48.11,92.92 M43.78,93.08c0.08-0.01,0.15-0.04,0.2-0.06l-0.12-0.66
		c-0.05,0.01-0.09,0.02-0.11,0.02h-0.08c-0.06,0-0.12-0.03-0.17-0.09c-0.05-0.06-0.07-0.16-0.07-0.3v-6.64h-0.88v6.58
		c0,0.39,0.07,0.68,0.21,0.88c0.14,0.2,0.38,0.3,0.72,0.3C43.6,93.11,43.7,93.1,43.78,93.08 M41.16,93.08
		c0.08-0.01,0.15-0.04,0.2-0.06l-0.12-0.66c-0.05,0.01-0.09,0.02-0.11,0.02h-0.08c-0.06,0-0.12-0.03-0.17-0.09
		c-0.05-0.06-0.07-0.16-0.07-0.3v-6.64h-0.88v6.58c0,0.39,0.07,0.68,0.21,0.88c0.14,0.2,0.38,0.3,0.72,0.3
		C40.98,93.11,41.08,93.1,41.16,93.08 M34.27,92.98l0.67-2.14h2.56l0.66,2.14h0.95l-2.38-7.03h-1.01l-2.38,7.03H34.27z M35.87,87.87
		c0.11-0.39,0.22-0.79,0.33-1.19h0.04c0.11,0.41,0.23,0.81,0.34,1.19c0.11,0.39,0.24,0.78,0.36,1.17l0.33,1.07h-2.11l0.33-1.07
		C35.63,88.65,35.75,88.26,35.87,87.87 M26.92,92.31c-0.17-0.06-0.31-0.15-0.44-0.26c-0.13-0.11-0.22-0.25-0.29-0.41
		c-0.07-0.16-0.11-0.34-0.11-0.53c0-0.27,0.08-0.52,0.25-0.73c0.17-0.22,0.38-0.43,0.63-0.63c0.25,0.39,0.53,0.76,0.85,1.11
		c0.32,0.35,0.65,0.68,0.99,0.98c-0.21,0.18-0.42,0.32-0.64,0.42c-0.22,0.1-0.45,0.15-0.7,0.15C27.27,92.4,27.09,92.37,26.92,92.31
		 M27.14,86.74c0.16-0.19,0.37-0.29,0.63-0.29c0.24,0,0.41,0.08,0.51,0.23c0.1,0.15,0.16,0.33,0.16,0.54c0,0.16-0.03,0.3-0.1,0.43
		c-0.06,0.13-0.15,0.26-0.26,0.37c-0.11,0.12-0.24,0.23-0.39,0.34c-0.15,0.11-0.3,0.22-0.46,0.33c-0.1-0.21-0.18-0.42-0.24-0.63
		c-0.06-0.21-0.09-0.41-0.09-0.6C26.9,87.18,26.98,86.94,27.14,86.74 M28.48,92.89c0.33-0.15,0.63-0.34,0.91-0.58
		c0.29,0.2,0.56,0.37,0.84,0.5c0.27,0.13,0.53,0.23,0.78,0.31l0.24-0.73c-0.19-0.06-0.4-0.14-0.62-0.26
		c-0.22-0.11-0.45-0.25-0.7-0.42c0.28-0.37,0.52-0.77,0.72-1.19c0.2-0.42,0.37-0.86,0.51-1.33h-0.82c-0.11,0.41-0.24,0.78-0.41,1.12
		s-0.36,0.66-0.57,0.95c-0.34-0.28-0.66-0.59-0.97-0.92c-0.31-0.34-0.58-0.69-0.81-1.05c0.19-0.14,0.38-0.29,0.57-0.43
		c0.19-0.15,0.36-0.3,0.51-0.47c0.15-0.17,0.27-0.35,0.36-0.54c0.09-0.19,0.14-0.4,0.14-0.63c0-0.41-0.12-0.75-0.36-1.01
		c-0.24-0.26-0.58-0.39-1.02-0.39c-0.24,0-0.46,0.04-0.66,0.13c-0.2,0.09-0.37,0.2-0.51,0.35c-0.14,0.15-0.25,0.33-0.33,0.52
		c-0.08,0.2-0.12,0.42-0.12,0.65c0,0.26,0.04,0.52,0.12,0.8c0.08,0.28,0.19,0.56,0.34,0.85c-0.18,0.12-0.35,0.25-0.52,0.39
		c-0.17,0.14-0.32,0.29-0.44,0.46c-0.13,0.16-0.23,0.34-0.31,0.54c-0.07,0.19-0.11,0.41-0.11,0.64c0,0.29,0.05,0.55,0.16,0.79
		c0.1,0.24,0.25,0.44,0.44,0.62c0.19,0.17,0.41,0.31,0.67,0.4c0.26,0.1,0.55,0.14,0.87,0.14C27.78,93.11,28.15,93.03,28.48,92.89"/>
	<path style="clip-path:url(#SVGID_00000042696090071810728920000004603223454712402876_);fill:#FFFFFF;" d="M66.23,82.36
		c0.2-0.09,0.38-0.22,0.54-0.38c0.16-0.16,0.29-0.35,0.41-0.57c0.11-0.22,0.22-0.46,0.31-0.72l1.96-5.63h-0.86l-0.93,2.88
		c-0.07,0.23-0.14,0.47-0.21,0.73c-0.07,0.26-0.15,0.5-0.22,0.74h-0.04c-0.08-0.24-0.16-0.49-0.25-0.74
		c-0.09-0.25-0.17-0.49-0.25-0.72l-1.06-2.88H64.7l2.09,5.22l-0.12,0.39c-0.11,0.32-0.26,0.59-0.44,0.8
		c-0.19,0.21-0.43,0.32-0.73,0.32c-0.06,0-0.13-0.01-0.2-0.03c-0.07-0.02-0.14-0.03-0.19-0.05l-0.17,0.7
		c0.09,0.04,0.18,0.06,0.28,0.08c0.1,0.02,0.21,0.03,0.33,0.03C65.79,82.5,66.03,82.45,66.23,82.36 M64.07,80.33
		c0.17-0.04,0.32-0.08,0.47-0.13l-0.17-0.66c-0.09,0.04-0.18,0.07-0.29,0.1c-0.11,0.03-0.21,0.04-0.3,0.04
		c-0.3,0-0.51-0.09-0.63-0.26c-0.12-0.17-0.18-0.42-0.18-0.74v-2.89h1.4v-0.72h-1.4V73.6h-0.74l-0.11,1.46l-0.81,0.05v0.66h0.77
		v2.88c0,0.26,0.02,0.49,0.07,0.71c0.05,0.21,0.13,0.4,0.25,0.55c0.12,0.15,0.27,0.27,0.46,0.35c0.19,0.09,0.42,0.13,0.7,0.13
		C63.73,80.39,63.9,80.37,64.07,80.33 M60.29,73.82c0.12-0.11,0.18-0.24,0.18-0.41c0-0.17-0.06-0.31-0.18-0.41
		c-0.12-0.1-0.26-0.16-0.43-0.16S59.54,72.9,59.42,73c-0.12,0.1-0.18,0.24-0.18,0.41c0,0.16,0.06,0.3,0.18,0.41
		c0.12,0.11,0.26,0.16,0.43,0.16S60.17,73.93,60.29,73.82 M60.28,75.05H59.4v5.21h0.88V75.05z M58.01,80.37
		c0.08-0.01,0.15-0.04,0.2-0.06l-0.12-0.66c-0.05,0.01-0.09,0.02-0.11,0.02H57.9c-0.06,0-0.12-0.03-0.17-0.09
		c-0.05-0.06-0.07-0.16-0.07-0.3v-6.64h-0.88v6.58c0,0.39,0.07,0.68,0.21,0.88c0.14,0.2,0.38,0.3,0.72,0.3
		C57.83,80.39,57.93,80.38,58.01,80.37 M55.14,73.82c0.12-0.11,0.18-0.24,0.18-0.41c0-0.17-0.06-0.31-0.18-0.41
		c-0.12-0.1-0.26-0.16-0.43-0.16S54.39,72.9,54.27,73c-0.12,0.1-0.18,0.24-0.18,0.41c0,0.16,0.06,0.3,0.18,0.41
		c0.12,0.11,0.26,0.16,0.43,0.16S55.02,73.93,55.14,73.82 M55.13,75.05h-0.88v5.21h0.88V75.05z M49.99,79.52
		c-0.22-0.08-0.45-0.22-0.68-0.42v-2.73c0.51-0.47,0.97-0.71,1.39-0.71c0.24,0,0.45,0.05,0.63,0.14c0.18,0.09,0.32,0.22,0.43,0.39
		c0.11,0.17,0.19,0.37,0.24,0.61c0.05,0.24,0.07,0.5,0.07,0.78c0,0.32-0.04,0.61-0.11,0.87c-0.07,0.26-0.18,0.47-0.31,0.65
		c-0.13,0.17-0.29,0.31-0.47,0.41c-0.18,0.1-0.38,0.14-0.59,0.14C50.42,79.65,50.22,79.61,49.99,79.52 M51.6,80.2
		c0.27-0.12,0.51-0.31,0.72-0.55c0.21-0.24,0.37-0.54,0.49-0.89c0.12-0.35,0.18-0.75,0.18-1.19c0-0.4-0.04-0.76-0.13-1.09
		c-0.09-0.32-0.22-0.6-0.4-0.84c-0.17-0.23-0.39-0.41-0.65-0.54c-0.26-0.12-0.55-0.19-0.89-0.19c-0.29,0-0.58,0.07-0.86,0.21
		c-0.28,0.14-0.54,0.31-0.77,0.52l0.02-0.94v-2.08h-0.88v7.63h0.71l0.07-0.54h0.03c0.23,0.21,0.47,0.37,0.73,0.49
		c0.26,0.12,0.51,0.18,0.76,0.18C51.04,80.39,51.32,80.32,51.6,80.2 M46.79,73.82c0.12-0.11,0.18-0.24,0.18-0.41
		c0-0.17-0.06-0.31-0.18-0.41c-0.12-0.1-0.26-0.16-0.43-0.16c-0.17,0-0.32,0.05-0.43,0.16c-0.12,0.1-0.18,0.24-0.18,0.41
		c0,0.16,0.06,0.3,0.18,0.41c0.12,0.11,0.26,0.16,0.43,0.16C46.53,73.98,46.67,73.93,46.79,73.82 M46.79,75.05h-0.88v5.21h0.88
		V75.05z M43.71,80.26c0.24-0.08,0.44-0.19,0.6-0.34c0.16-0.14,0.28-0.31,0.36-0.49c0.08-0.19,0.12-0.39,0.12-0.6
		c0-0.24-0.05-0.45-0.14-0.62c-0.1-0.17-0.22-0.32-0.37-0.43c-0.15-0.12-0.32-0.22-0.51-0.29c-0.19-0.08-0.38-0.15-0.56-0.22
		c-0.15-0.06-0.29-0.11-0.43-0.17c-0.14-0.05-0.26-0.11-0.37-0.18c-0.11-0.07-0.19-0.15-0.26-0.24c-0.06-0.09-0.1-0.19-0.1-0.32
		c0-0.2,0.08-0.37,0.23-0.52c0.15-0.15,0.39-0.22,0.72-0.22c0.23,0,0.44,0.04,0.63,0.13s0.38,0.2,0.56,0.33l0.42-0.56
		c-0.2-0.16-0.44-0.3-0.71-0.42c-0.28-0.11-0.58-0.17-0.91-0.17c-0.28,0-0.53,0.04-0.75,0.11c-0.22,0.07-0.41,0.18-0.56,0.31
		c-0.15,0.13-0.27,0.29-0.35,0.47c-0.08,0.18-0.12,0.38-0.12,0.58c0,0.22,0.05,0.41,0.14,0.57c0.09,0.16,0.21,0.29,0.36,0.41
		c0.15,0.12,0.31,0.22,0.5,0.3c0.19,0.08,0.37,0.16,0.56,0.22c0.14,0.06,0.29,0.11,0.43,0.17c0.14,0.06,0.27,0.12,0.38,0.2
		c0.11,0.07,0.2,0.16,0.27,0.26c0.07,0.1,0.11,0.22,0.11,0.35c0,0.23-0.09,0.42-0.26,0.58c-0.17,0.16-0.43,0.24-0.77,0.24
		c-0.31,0-0.59-0.06-0.83-0.17c-0.24-0.11-0.47-0.26-0.7-0.45l-0.44,0.59c0.25,0.21,0.54,0.38,0.88,0.51
		c0.34,0.14,0.69,0.2,1.06,0.2C43.19,80.39,43.47,80.35,43.71,80.26 M39.88,73.82c0.12-0.11,0.18-0.24,0.18-0.41
		c0-0.17-0.06-0.31-0.18-0.41c-0.12-0.1-0.26-0.16-0.43-0.16S39.13,72.9,39.02,73c-0.12,0.1-0.18,0.24-0.18,0.41
		c0,0.16,0.06,0.3,0.18,0.41c0.12,0.11,0.26,0.16,0.43,0.16S39.77,73.93,39.88,73.82 M39.88,75.05H39v5.21h0.88V75.05z M36,80.26
		l2.23-7.03h-0.91l-1.12,3.79c-0.12,0.42-0.23,0.81-0.33,1.17c-0.1,0.36-0.21,0.74-0.34,1.16h-0.04c-0.14-0.41-0.25-0.8-0.35-1.16
		c-0.1-0.36-0.21-0.75-0.34-1.17l-1.12-3.79h-0.95l2.25,7.03H36z"/>
	<path style="clip-path:url(#SVGID_00000042696090071810728920000004603223454712402876_);fill:#FFFFFF;" d="M65.74,65.64v-6.89
		c0.76-0.82,1.45-1.23,2.07-1.23c0.52,0,0.91,0.17,1.15,0.5c0.25,0.33,0.37,0.91,0.37,1.73v5.88h2.31v-6.89
		c0.76-0.82,1.45-1.23,2.07-1.23c0.51,0,0.89,0.17,1.13,0.5c0.25,0.33,0.37,0.91,0.37,1.73v5.88h2.33v-6.19
		c0-1.26-0.25-2.23-0.74-2.9c-0.5-0.68-1.27-1.01-2.31-1.01c-0.63,0-1.2,0.17-1.71,0.5c-0.51,0.33-1,0.76-1.47,1.27
		c-0.23-0.56-0.56-1-0.99-1.31c-0.44-0.31-1.01-0.46-1.74-0.46c-0.62,0-1.17,0.15-1.66,0.46c-0.49,0.31-0.94,0.68-1.36,1.12H65.5
		l-0.16-1.35h-1.91v9.86H65.74z M58.85,65.64v-6.02c0.31-0.75,0.68-1.28,1.1-1.58c0.43-0.3,0.84-0.45,1.23-0.45
		c0.21,0,0.39,0.01,0.54,0.04c0.15,0.03,0.31,0.07,0.48,0.12l0.4-2.01c-0.28-0.13-0.66-0.2-1.12-0.2c-0.52,0-1.03,0.17-1.53,0.51
		c-0.5,0.34-0.92,0.83-1.27,1.48h-0.08l-0.16-1.75h-1.91v9.86H58.85z M48.46,63.1c-0.41-0.6-0.61-1.39-0.61-2.38
		c0-1,0.2-1.8,0.61-2.4c0.41-0.6,0.97-0.89,1.7-0.89c0.72,0,1.29,0.3,1.71,0.89s0.62,1.4,0.62,2.4c0,0.99-0.21,1.78-0.62,2.38
		C51.45,63.7,50.88,64,50.16,64C49.43,64,48.87,63.7,48.46,63.1 M51.93,65.54c0.57-0.23,1.07-0.56,1.5-1
		c0.43-0.44,0.77-0.98,1.03-1.63c0.26-0.64,0.39-1.37,0.39-2.19c0-0.82-0.13-1.55-0.39-2.19c-0.26-0.64-0.61-1.18-1.03-1.63
		c-0.43-0.44-0.93-0.78-1.5-1.01c-0.57-0.23-1.16-0.35-1.78-0.35c-0.62,0-1.2,0.12-1.77,0.35c-0.56,0.23-1.06,0.57-1.5,1.01
		c-0.44,0.44-0.78,0.98-1.03,1.63c-0.25,0.64-0.38,1.37-0.38,2.19c0,0.82,0.13,1.55,0.38,2.19c0.25,0.64,0.6,1.18,1.03,1.63
		c0.44,0.44,0.93,0.78,1.5,1c0.56,0.23,1.15,0.34,1.77,0.34C50.77,65.88,51.36,65.77,51.93,65.54 M43.27,65.64v-8.03h1.93v-1.83
		h-1.93v-1.06c0-1.11,0.42-1.67,1.25-1.67c0.36,0,0.72,0.08,1.08,0.24l0.44-1.73c-0.23-0.09-0.5-0.17-0.81-0.24
		c-0.31-0.07-0.65-0.1-0.99-0.1c-0.59,0-1.09,0.09-1.5,0.26c-0.41,0.17-0.75,0.42-1.01,0.73c-0.27,0.31-0.46,0.69-0.58,1.12
		c-0.12,0.44-0.18,0.91-0.18,1.42v1.02l-1.33,0.1v1.73h1.33v8.03H43.27z M32.22,65.64v-6.89c0.42-0.4,0.79-0.71,1.11-0.91
		c0.33-0.21,0.71-0.31,1.13-0.31c0.55,0,0.94,0.17,1.18,0.5s0.36,0.91,0.36,1.73v5.88h2.31v-6.19c0-1.26-0.24-2.23-0.72-2.9
		c-0.48-0.68-1.25-1.01-2.31-1.01c-0.68,0-1.28,0.15-1.8,0.46c-0.52,0.31-0.99,0.68-1.44,1.1h-0.08l-0.16-1.33h-1.91v9.86H32.22z
		 M27.38,52.51h-2.33v13.13h2.33V52.51z"/>
	<path style="clip-path:url(#SVGID_00000042696090071810728920000004603223454712402876_);fill:#FFFFFF;" d="M211.62,83.66
		c0.44-0.42,0.96-0.62,1.55-0.62c0.68,0,1.19,0.22,1.52,0.65c0.33,0.44,0.49,1.03,0.49,1.8h-4.38
		C210.9,84.69,211.18,84.08,211.62,83.66 M215.23,91.29c0.58-0.2,1.1-0.46,1.57-0.76l-0.78-1.45c-0.36,0.23-0.73,0.41-1.09,0.53
		c-0.37,0.13-0.77,0.19-1.19,0.19c-0.8,0-1.46-0.24-1.98-0.71c-0.52-0.48-0.83-1.15-0.93-2.04h6.27c0.03-0.12,0.05-0.28,0.07-0.48
		c0.02-0.2,0.03-0.42,0.03-0.64c0-0.68-0.09-1.31-0.26-1.89c-0.17-0.58-0.43-1.07-0.77-1.49c-0.34-0.42-0.77-0.74-1.28-0.96
		c-0.51-0.23-1.1-0.34-1.77-0.34c-0.58,0-1.14,0.12-1.69,0.36c-0.55,0.24-1.03,0.58-1.46,1.02c-0.42,0.44-0.76,0.98-1.01,1.63
		c-0.25,0.64-0.38,1.37-0.38,2.17c0,0.82,0.12,1.54,0.37,2.18c0.25,0.64,0.59,1.17,1.03,1.62c0.44,0.44,0.96,0.78,1.55,1.01
		c0.59,0.23,1.23,0.35,1.91,0.35C214.05,91.6,214.66,91.49,215.23,91.29 M208.04,91.35v-1.85h-4.8l4.64-6.79v-1.23h-7.03v1.83h4.14
		l-4.66,6.79v1.25H208.04z M198.64,79.4c0.27-0.24,0.4-0.56,0.4-0.94s-0.13-0.71-0.4-0.95c-0.27-0.25-0.61-0.37-1.02-0.37
		c-0.42,0-0.76,0.12-1.02,0.37c-0.27,0.25-0.4,0.57-0.4,0.95s0.13,0.7,0.4,0.94c0.27,0.24,0.61,0.36,1.02,0.36
		C198.04,79.77,198.38,79.65,198.64,79.4 M198.76,81.49h-2.31v9.86h2.31V81.49z M182.44,91.35v-6.89c0.76-0.82,1.45-1.23,2.07-1.23
		c0.52,0,0.91,0.17,1.15,0.5c0.25,0.33,0.37,0.91,0.37,1.73v5.88h2.31v-6.89c0.76-0.82,1.45-1.23,2.07-1.23
		c0.51,0,0.89,0.17,1.13,0.5c0.25,0.33,0.37,0.91,0.37,1.73v5.88h2.33v-6.19c0-1.26-0.25-2.23-0.74-2.9
		c-0.5-0.68-1.27-1.01-2.31-1.01c-0.63,0-1.2,0.17-1.71,0.5c-0.51,0.33-1,0.76-1.47,1.27c-0.23-0.56-0.56-1-0.99-1.31
		c-0.44-0.31-1.01-0.46-1.74-0.46c-0.62,0-1.17,0.15-1.66,0.46c-0.49,0.31-0.94,0.68-1.36,1.12h-0.08l-0.16-1.35h-1.91v9.86H182.44z
		 M177.66,79.4c0.27-0.24,0.4-0.56,0.4-0.94s-0.13-0.71-0.4-0.95c-0.27-0.25-0.61-0.37-1.02-0.37c-0.42,0-0.76,0.12-1.02,0.37
		c-0.27,0.25-0.4,0.57-0.4,0.95s0.13,0.7,0.4,0.94c0.27,0.24,0.61,0.36,1.02,0.36C177.05,79.77,177.39,79.65,177.66,79.4
		 M177.78,81.49h-2.31v9.86h2.31V81.49z M173.39,91.48c0.34-0.07,0.65-0.16,0.91-0.25l-0.4-1.71c-0.15,0.07-0.31,0.12-0.49,0.16
		c-0.18,0.04-0.36,0.06-0.53,0.06c-0.92,0-1.39-0.58-1.39-1.73v-4.7H174v-1.83h-2.51V78.8h-1.93l-0.28,2.69l-1.53,0.1v1.73h1.41v4.7
		c0,0.54,0.06,1.02,0.17,1.46c0.11,0.44,0.29,0.81,0.54,1.12c0.25,0.31,0.57,0.56,0.96,0.73c0.39,0.17,0.88,0.26,1.46,0.26
		C172.68,91.6,173.05,91.56,173.39,91.48 M161.89,89.51c-0.33-0.12-0.68-0.33-1.04-0.64v-4.6c0.75-0.74,1.47-1.1,2.17-1.1
		c0.75,0,1.29,0.27,1.63,0.82c0.33,0.55,0.5,1.32,0.5,2.31c0,1.12-0.22,1.97-0.66,2.54c-0.44,0.57-0.99,0.85-1.65,0.85
		C162.54,89.69,162.23,89.63,161.89,89.51 M160.85,95.25v-3.09l-0.06-1.65c0.4,0.35,0.82,0.62,1.25,0.8s0.86,0.28,1.29,0.28
		c0.55,0,1.08-0.12,1.59-0.36s0.96-0.59,1.35-1.03c0.39-0.45,0.7-1,0.93-1.67c0.23-0.66,0.35-1.42,0.35-2.26
		c0-0.76-0.09-1.45-0.26-2.07c-0.17-0.62-0.43-1.14-0.76-1.59s-0.74-0.78-1.22-1.01c-0.48-0.23-1.02-0.35-1.64-0.35
		c-0.55,0-1.08,0.13-1.59,0.38c-0.51,0.25-0.97,0.56-1.39,0.9h-0.08l-0.16-1.04h-1.91v13.76H160.85z M149.5,89.23
		c-0.42-0.23-0.77-0.55-1.06-0.97c-0.29-0.42-0.52-0.93-0.68-1.53c-0.16-0.6-0.24-1.26-0.24-2c0-1.47,0.3-2.63,0.91-3.46
		c0.61-0.84,1.44-1.26,2.48-1.26c1.04,0,1.87,0.42,2.48,1.26s0.91,1.99,0.91,3.46c0,0.74-0.08,1.4-0.24,2
		c-0.16,0.6-0.39,1.1-0.68,1.53c-0.29,0.42-0.65,0.75-1.06,0.97c-0.42,0.23-0.88,0.34-1.41,0.34
		C150.39,89.57,149.92,89.45,149.5,89.23 M153.26,91.12c0.71-0.31,1.32-0.77,1.84-1.37s0.91-1.32,1.19-2.16s0.42-1.8,0.42-2.87
		c0-1.06-0.14-2-0.42-2.84s-0.68-1.54-1.19-2.12s-1.13-1.02-1.84-1.33c-0.71-0.31-1.49-0.46-2.35-0.46c-0.86,0-1.64,0.15-2.35,0.46
		c-0.71,0.31-1.32,0.75-1.83,1.33s-0.9,1.28-1.18,2.12c-0.28,0.84-0.42,1.78-0.42,2.84c0,1.07,0.14,2.03,0.42,2.87
		c0.28,0.84,0.68,1.56,1.18,2.16s1.12,1.05,1.83,1.37c0.71,0.31,1.49,0.47,2.35,0.47C151.76,91.6,152.55,91.44,153.26,91.12"/>
	<path style="clip-path:url(#SVGID_00000042696090071810728920000004603223454712402876_);fill:#FFFFFF;" d="M132.94,205.99
		c0.24-0.08,0.44-0.19,0.6-0.34c0.16-0.14,0.28-0.31,0.36-0.49c0.08-0.19,0.12-0.39,0.12-0.6c0-0.24-0.05-0.45-0.14-0.62
		s-0.22-0.32-0.37-0.43c-0.15-0.12-0.32-0.22-0.51-0.29c-0.19-0.08-0.38-0.15-0.56-0.22c-0.15-0.06-0.29-0.11-0.43-0.17
		c-0.14-0.05-0.26-0.11-0.37-0.18c-0.11-0.07-0.19-0.15-0.26-0.24s-0.1-0.19-0.1-0.32c0-0.2,0.08-0.37,0.23-0.52
		c0.15-0.15,0.39-0.22,0.72-0.22c0.23,0,0.44,0.04,0.63,0.13c0.19,0.09,0.38,0.2,0.56,0.33l0.42-0.56c-0.2-0.16-0.44-0.3-0.71-0.42
		c-0.28-0.11-0.58-0.17-0.91-0.17c-0.28,0-0.53,0.04-0.75,0.11c-0.22,0.07-0.41,0.18-0.56,0.31c-0.15,0.13-0.27,0.29-0.35,0.47
		c-0.08,0.18-0.12,0.38-0.12,0.58c0,0.22,0.05,0.41,0.14,0.57c0.09,0.16,0.21,0.29,0.36,0.41c0.15,0.12,0.31,0.22,0.5,0.3
		c0.19,0.08,0.37,0.16,0.56,0.22c0.14,0.06,0.29,0.11,0.43,0.17c0.14,0.06,0.27,0.12,0.38,0.2c0.11,0.07,0.2,0.16,0.27,0.26
		c0.07,0.1,0.11,0.22,0.11,0.35c0,0.23-0.09,0.42-0.26,0.58c-0.17,0.16-0.43,0.24-0.77,0.24c-0.31,0-0.59-0.06-0.83-0.17
		c-0.24-0.11-0.47-0.26-0.7-0.45l-0.44,0.59c0.25,0.21,0.54,0.38,0.88,0.51c0.34,0.14,0.69,0.2,1.06,0.2
		C132.43,206.11,132.7,206.07,132.94,205.99 M125.89,205.98v-3.77c0.26-0.26,0.5-0.46,0.71-0.6c0.21-0.14,0.45-0.2,0.72-0.2
		c0.34,0,0.59,0.11,0.75,0.33c0.16,0.22,0.24,0.57,0.24,1.07v3.18h0.88v-3.3c0-0.67-0.13-1.18-0.38-1.52
		c-0.25-0.34-0.66-0.51-1.2-0.51c-0.36,0-0.68,0.08-0.96,0.25c-0.28,0.17-0.54,0.38-0.79,0.63h-0.03l-0.07-0.75h-0.73v5.21H125.89z
		 M120.73,205.24c-0.19-0.1-0.34-0.23-0.48-0.41c-0.13-0.17-0.23-0.38-0.31-0.63c-0.07-0.24-0.11-0.51-0.11-0.81
		c0-0.3,0.04-0.57,0.11-0.82c0.07-0.25,0.17-0.46,0.31-0.64c0.13-0.18,0.29-0.32,0.48-0.41c0.19-0.1,0.39-0.14,0.61-0.14
		c0.22,0,0.43,0.05,0.61,0.14c0.19,0.1,0.34,0.23,0.48,0.41c0.13,0.18,0.23,0.39,0.31,0.64s0.11,0.52,0.11,0.82
		c0,0.3-0.04,0.57-0.11,0.81c-0.07,0.24-0.17,0.45-0.31,0.63c-0.13,0.17-0.29,0.31-0.48,0.41c-0.19,0.1-0.39,0.14-0.61,0.14
		C121.12,205.38,120.91,205.33,120.73,205.24 M122.25,205.93c0.29-0.12,0.54-0.3,0.77-0.53c0.22-0.23,0.4-0.52,0.53-0.86
		c0.13-0.34,0.2-0.72,0.2-1.15c0-0.44-0.07-0.82-0.2-1.16c-0.13-0.34-0.31-0.63-0.53-0.86s-0.48-0.41-0.77-0.54
		c-0.29-0.12-0.59-0.18-0.92-0.18c-0.32,0-0.63,0.06-0.92,0.18s-0.54,0.3-0.77,0.54s-0.4,0.52-0.53,0.86
		c-0.13,0.34-0.2,0.73-0.2,1.16c0,0.43,0.07,0.81,0.2,1.15c0.13,0.34,0.31,0.62,0.53,0.86c0.22,0.23,0.48,0.41,0.77,0.53
		s0.59,0.18,0.92,0.18C121.66,206.11,121.96,206.05,122.25,205.93 M117.67,199.54c0.12-0.11,0.18-0.24,0.18-0.41
		c0-0.17-0.06-0.31-0.18-0.41c-0.12-0.1-0.26-0.16-0.43-0.16s-0.32,0.05-0.43,0.16c-0.12,0.1-0.18,0.24-0.18,0.41
		c0,0.16,0.06,0.3,0.18,0.41c0.12,0.11,0.26,0.16,0.43,0.16S117.55,199.65,117.67,199.54 M117.66,200.77h-0.88v5.21h0.88V200.77z
		 M115.41,206.05c0.17-0.04,0.32-0.08,0.47-0.13l-0.17-0.66c-0.09,0.04-0.18,0.07-0.29,0.1c-0.11,0.03-0.21,0.04-0.3,0.04
		c-0.3,0-0.51-0.09-0.63-0.26c-0.12-0.17-0.18-0.42-0.18-0.74v-2.89h1.4v-0.72h-1.4v-1.46h-0.74l-0.11,1.46l-0.81,0.05v0.66h0.77
		v2.88c0,0.26,0.03,0.49,0.07,0.71c0.05,0.21,0.13,0.4,0.25,0.55c0.12,0.15,0.27,0.27,0.46,0.35c0.19,0.09,0.42,0.13,0.7,0.13
		C115.07,206.11,115.24,206.09,115.41,206.05 M108.93,205.21c-0.18-0.13-0.27-0.34-0.27-0.64c0-0.16,0.04-0.32,0.12-0.46
		c0.08-0.14,0.21-0.26,0.4-0.37c0.18-0.11,0.42-0.2,0.72-0.28c0.3-0.08,0.66-0.15,1.1-0.2v1.45c-0.25,0.23-0.49,0.4-0.71,0.52
		c-0.22,0.12-0.46,0.18-0.71,0.18C109.33,205.4,109.11,205.34,108.93,205.21 M110.25,205.89c0.29-0.15,0.55-0.32,0.8-0.53h0.03
		l0.07,0.62h0.73v-3.19c0-0.65-0.14-1.17-0.43-1.56c-0.29-0.39-0.75-0.58-1.38-0.58c-0.42,0-0.81,0.07-1.16,0.22
		c-0.35,0.15-0.65,0.3-0.89,0.46l0.34,0.61c0.21-0.14,0.44-0.27,0.71-0.39c0.26-0.11,0.55-0.17,0.85-0.17
		c0.21,0,0.39,0.04,0.53,0.11c0.14,0.07,0.25,0.17,0.33,0.29c0.08,0.12,0.13,0.26,0.17,0.42s0.05,0.32,0.05,0.48
		c-1.11,0.12-1.92,0.33-2.43,0.64c-0.51,0.3-0.76,0.74-0.76,1.31c0,0.47,0.14,0.84,0.43,1.09c0.29,0.26,0.65,0.39,1.09,0.39
		C109.66,206.11,109.97,206.04,110.25,205.89 M105.66,205.98v-3.34c0.18-0.44,0.39-0.75,0.63-0.93c0.24-0.18,0.47-0.27,0.69-0.27
		c0.11,0,0.2,0.01,0.27,0.02c0.07,0.01,0.15,0.04,0.24,0.06l0.17-0.77c-0.16-0.07-0.35-0.11-0.56-0.11c-0.3,0-0.58,0.1-0.83,0.29
		c-0.25,0.19-0.47,0.45-0.65,0.78h-0.03l-0.07-0.94h-0.73v5.21H105.66z M100.22,202.27c0.09-0.2,0.2-0.37,0.34-0.51
		c0.14-0.14,0.29-0.24,0.46-0.32c0.17-0.07,0.34-0.11,0.53-0.11c0.41,0,0.72,0.14,0.95,0.41c0.22,0.28,0.34,0.68,0.34,1.2h-2.79
		C100.07,202.7,100.13,202.47,100.22,202.27 M102.64,205.95c0.28-0.11,0.53-0.23,0.76-0.37l-0.31-0.58
		c-0.19,0.12-0.39,0.22-0.61,0.29c-0.21,0.07-0.44,0.11-0.69,0.11c-0.5,0-0.91-0.16-1.22-0.49s-0.48-0.77-0.52-1.32h3.51
		c0.01-0.06,0.02-0.14,0.03-0.23c0-0.09,0.01-0.18,0.01-0.27c0-0.37-0.05-0.71-0.14-1.01c-0.09-0.3-0.23-0.56-0.4-0.77
		c-0.18-0.21-0.39-0.38-0.65-0.49c-0.26-0.11-0.56-0.17-0.88-0.17c-0.3,0-0.59,0.06-0.87,0.19c-0.28,0.13-0.53,0.31-0.74,0.54
		c-0.22,0.24-0.39,0.52-0.52,0.86c-0.13,0.34-0.2,0.72-0.2,1.15c0,0.43,0.06,0.81,0.19,1.15c0.13,0.34,0.31,0.62,0.53,0.85
		c0.22,0.23,0.49,0.41,0.79,0.54c0.3,0.12,0.63,0.19,0.98,0.19C102.04,206.11,102.36,206.06,102.64,205.95 M95.3,205.25
		c-0.22-0.08-0.45-0.22-0.69-0.42v-2.73c0.26-0.23,0.5-0.4,0.72-0.52c0.22-0.12,0.45-0.18,0.67-0.18c0.24,0,0.45,0.05,0.63,0.14
		c0.17,0.09,0.32,0.22,0.43,0.39c0.11,0.17,0.19,0.37,0.24,0.61c0.05,0.24,0.07,0.5,0.07,0.78c0,0.32-0.04,0.61-0.11,0.87
		c-0.07,0.26-0.18,0.47-0.31,0.65c-0.13,0.17-0.29,0.31-0.47,0.41c-0.18,0.1-0.38,0.14-0.59,0.14
		C95.72,205.37,95.52,205.33,95.3,205.25 M94.61,208.18v-1.76l-0.02-0.91c0.24,0.19,0.48,0.33,0.72,0.44
		c0.24,0.11,0.48,0.16,0.72,0.16c0.3,0,0.59-0.06,0.86-0.19c0.27-0.13,0.51-0.31,0.72-0.55c0.21-0.24,0.37-0.54,0.49-0.88
		c0.12-0.35,0.18-0.74,0.18-1.18c0-0.41-0.04-0.77-0.13-1.1c-0.09-0.32-0.22-0.6-0.39-0.84c-0.17-0.23-0.39-0.41-0.64-0.54
		c-0.26-0.13-0.55-0.19-0.89-0.19c-0.31,0-0.6,0.07-0.88,0.21c-0.28,0.14-0.54,0.31-0.78,0.51h-0.03l-0.07-0.6h-0.73v7.4H94.61z
		 M88.56,205.12c-0.25-0.14-0.47-0.33-0.65-0.58c-0.18-0.25-0.32-0.56-0.42-0.91c-0.1-0.35-0.15-0.75-0.15-1.19
		c0-0.44,0.05-0.83,0.15-1.18c0.1-0.35,0.24-0.65,0.42-0.89c0.18-0.24,0.4-0.43,0.65-0.56c0.25-0.13,0.54-0.2,0.85-0.2
		c0.31,0,0.6,0.07,0.85,0.2c0.25,0.13,0.47,0.32,0.65,0.56s0.32,0.54,0.42,0.89c0.1,0.35,0.15,0.74,0.15,1.18
		c0,0.44-0.05,0.84-0.15,1.19c-0.1,0.35-0.24,0.66-0.42,0.91c-0.18,0.25-0.4,0.45-0.65,0.58c-0.25,0.14-0.54,0.2-0.85,0.2
		C89.09,205.33,88.81,205.26,88.56,205.12 M90.62,205.85c0.37-0.17,0.69-0.42,0.95-0.73c0.27-0.32,0.47-0.7,0.62-1.16
		c0.15-0.45,0.22-0.96,0.22-1.53c0-0.56-0.07-1.06-0.22-1.5c-0.15-0.45-0.35-0.82-0.62-1.14c-0.27-0.31-0.59-0.55-0.95-0.72
		c-0.37-0.17-0.77-0.25-1.22-0.25c-0.44,0-0.85,0.08-1.22,0.25c-0.37,0.16-0.68,0.4-0.95,0.71c-0.26,0.31-0.47,0.69-0.62,1.14
		c-0.15,0.45-0.22,0.95-0.22,1.52s0.07,1.07,0.22,1.53c0.15,0.45,0.35,0.84,0.62,1.16c0.26,0.32,0.58,0.56,0.95,0.73
		c0.37,0.17,0.77,0.26,1.22,0.26C89.85,206.11,90.26,206.02,90.62,205.85 M79.44,205.31c-0.17-0.06-0.31-0.15-0.44-0.26
		c-0.13-0.11-0.22-0.25-0.29-0.41c-0.07-0.16-0.11-0.34-0.11-0.53c0-0.27,0.08-0.52,0.25-0.73c0.17-0.22,0.38-0.43,0.63-0.63
		c0.25,0.39,0.53,0.76,0.85,1.11c0.32,0.35,0.65,0.68,0.99,0.98c-0.21,0.18-0.42,0.32-0.64,0.42c-0.22,0.1-0.45,0.15-0.7,0.15
		C79.79,205.4,79.61,205.37,79.44,205.31 M79.66,199.75c0.16-0.19,0.37-0.29,0.63-0.29c0.24,0,0.41,0.08,0.51,0.23
		s0.16,0.33,0.16,0.54c0,0.16-0.03,0.3-0.1,0.43c-0.06,0.13-0.15,0.26-0.26,0.37s-0.24,0.23-0.39,0.34
		c-0.15,0.11-0.3,0.22-0.46,0.33c-0.1-0.21-0.18-0.43-0.24-0.63c-0.06-0.21-0.09-0.41-0.09-0.6
		C79.43,200.18,79.5,199.94,79.66,199.75 M81.01,205.89c0.33-0.15,0.63-0.34,0.91-0.58c0.29,0.2,0.56,0.37,0.84,0.5
		c0.27,0.13,0.53,0.23,0.78,0.31l0.24-0.73c-0.19-0.06-0.4-0.14-0.62-0.26c-0.22-0.11-0.45-0.25-0.7-0.42
		c0.28-0.37,0.52-0.77,0.72-1.19c0.2-0.42,0.37-0.86,0.51-1.33h-0.82c-0.11,0.41-0.24,0.78-0.41,1.12
		c-0.17,0.34-0.36,0.66-0.57,0.95c-0.34-0.28-0.66-0.59-0.97-0.92c-0.31-0.34-0.58-0.69-0.81-1.05c0.19-0.14,0.38-0.29,0.57-0.43
		c0.19-0.15,0.36-0.3,0.51-0.47c0.15-0.17,0.27-0.35,0.36-0.54c0.09-0.19,0.14-0.4,0.14-0.63c0-0.41-0.12-0.75-0.36-1.01
		c-0.24-0.26-0.58-0.39-1.02-0.39c-0.24,0-0.46,0.04-0.66,0.13c-0.2,0.09-0.37,0.2-0.51,0.35c-0.14,0.15-0.25,0.33-0.33,0.52
		c-0.08,0.2-0.12,0.42-0.12,0.65c0,0.26,0.04,0.52,0.12,0.8c0.08,0.28,0.19,0.56,0.34,0.85c-0.18,0.12-0.35,0.25-0.52,0.39
		c-0.17,0.14-0.32,0.29-0.44,0.46c-0.13,0.16-0.23,0.34-0.31,0.54s-0.11,0.41-0.11,0.64c0,0.29,0.05,0.55,0.16,0.79
		c0.1,0.24,0.25,0.44,0.44,0.62c0.19,0.17,0.41,0.31,0.67,0.4c0.26,0.1,0.55,0.14,0.87,0.14C80.3,206.11,80.67,206.04,81.01,205.89"
		/>
	<path style="clip-path:url(#SVGID_00000042696090071810728920000004603223454712402876_);fill:#FFFFFF;" d="M161.63,193.33
		c0.17-0.04,0.32-0.08,0.47-0.13l-0.17-0.66c-0.09,0.04-0.18,0.07-0.29,0.1c-0.11,0.03-0.21,0.04-0.3,0.04
		c-0.3,0-0.51-0.09-0.63-0.26c-0.12-0.17-0.18-0.42-0.18-0.74v-2.89h1.4v-0.72h-1.4v-1.46h-0.74l-0.11,1.46l-0.81,0.05v0.66h0.77
		v2.88c0,0.26,0.02,0.49,0.07,0.71c0.05,0.21,0.13,0.4,0.25,0.55c0.12,0.15,0.27,0.27,0.46,0.35c0.19,0.09,0.42,0.13,0.7,0.13
		C161.29,193.39,161.46,193.37,161.63,193.33 M154.62,193.26v-3.77c0.26-0.26,0.5-0.46,0.71-0.6c0.21-0.14,0.45-0.2,0.72-0.2
		c0.34,0,0.59,0.11,0.75,0.33c0.16,0.22,0.24,0.57,0.24,1.07v3.18h0.88v-3.3c0-0.67-0.13-1.18-0.38-1.52
		c-0.25-0.34-0.66-0.51-1.2-0.51c-0.36,0-0.68,0.08-0.96,0.25c-0.28,0.17-0.54,0.38-0.79,0.63h-0.03l-0.07-0.75h-0.73v5.21H154.62z
		 M149.18,189.56c0.09-0.2,0.2-0.37,0.34-0.51c0.14-0.14,0.29-0.24,0.46-0.32c0.17-0.07,0.34-0.11,0.53-0.11
		c0.41,0,0.72,0.14,0.95,0.41c0.22,0.28,0.34,0.68,0.34,1.2H149C149.03,189.98,149.09,189.76,149.18,189.56 M151.59,193.23
		c0.28-0.11,0.53-0.23,0.76-0.37l-0.31-0.58c-0.19,0.12-0.39,0.22-0.61,0.29c-0.21,0.07-0.44,0.11-0.69,0.11
		c-0.5,0-0.91-0.16-1.22-0.49c-0.31-0.32-0.48-0.77-0.52-1.32h3.51c0.01-0.06,0.02-0.14,0.03-0.23c0-0.09,0.01-0.18,0.01-0.27
		c0-0.37-0.05-0.71-0.14-1.01c-0.09-0.3-0.23-0.56-0.4-0.77c-0.18-0.21-0.39-0.38-0.65-0.49c-0.26-0.11-0.56-0.17-0.88-0.17
		c-0.3,0-0.59,0.06-0.87,0.19s-0.53,0.31-0.74,0.54c-0.22,0.24-0.39,0.52-0.52,0.86c-0.13,0.34-0.2,0.72-0.2,1.15
		c0,0.43,0.06,0.81,0.19,1.15c0.13,0.34,0.31,0.62,0.53,0.85c0.22,0.23,0.49,0.41,0.79,0.54c0.3,0.13,0.63,0.19,0.98,0.19
		C151,193.39,151.32,193.34,151.59,193.23 M140.64,193.26v-3.77c0.48-0.54,0.91-0.8,1.31-0.8c0.34,0,0.58,0.11,0.74,0.33
		c0.16,0.22,0.24,0.57,0.24,1.07v3.18h0.88v-3.77c0.48-0.54,0.91-0.8,1.31-0.8c0.33,0,0.57,0.11,0.73,0.33
		c0.16,0.22,0.24,0.57,0.24,1.07v3.18h0.88v-3.3c0-0.67-0.13-1.18-0.39-1.52c-0.26-0.34-0.66-0.51-1.19-0.51
		c-0.32,0-0.62,0.09-0.89,0.27c-0.28,0.18-0.55,0.42-0.82,0.72c-0.11-0.31-0.27-0.56-0.5-0.73c-0.22-0.17-0.54-0.26-0.94-0.26
		c-0.31,0-0.61,0.08-0.87,0.25c-0.27,0.17-0.52,0.38-0.74,0.63h-0.03l-0.07-0.75h-0.73v5.21H140.64z M135.2,189.56
		c0.09-0.2,0.2-0.37,0.34-0.51c0.14-0.14,0.29-0.24,0.46-0.32s0.34-0.11,0.53-0.11c0.41,0,0.72,0.14,0.95,0.41
		c0.22,0.28,0.34,0.68,0.34,1.2h-2.78C135.05,189.98,135.11,189.76,135.2,189.56 M137.62,193.23c0.28-0.11,0.53-0.23,0.76-0.37
		l-0.31-0.58c-0.19,0.12-0.39,0.22-0.61,0.29c-0.21,0.07-0.44,0.11-0.69,0.11c-0.5,0-0.91-0.16-1.22-0.49
		c-0.31-0.32-0.48-0.77-0.52-1.32h3.51c0.01-0.06,0.02-0.14,0.03-0.23c0-0.09,0.01-0.18,0.01-0.27c0-0.37-0.05-0.71-0.14-1.01
		c-0.09-0.3-0.23-0.56-0.4-0.77c-0.17-0.21-0.39-0.38-0.65-0.49c-0.26-0.11-0.55-0.17-0.88-0.17c-0.3,0-0.59,0.06-0.87,0.19
		s-0.53,0.31-0.74,0.54c-0.22,0.24-0.39,0.52-0.52,0.86c-0.13,0.34-0.2,0.72-0.2,1.15c0,0.43,0.06,0.81,0.19,1.15
		c0.13,0.34,0.31,0.62,0.53,0.85c0.22,0.23,0.49,0.41,0.79,0.54c0.3,0.13,0.63,0.19,0.98,0.19
		C137.02,193.39,137.34,193.34,137.62,193.23 M131.85,193.26l1.84-5.21h-0.87l-0.99,2.96c-0.08,0.26-0.16,0.51-0.24,0.77
		c-0.08,0.26-0.16,0.51-0.24,0.76h-0.04c-0.08-0.25-0.16-0.5-0.24-0.76c-0.08-0.26-0.16-0.51-0.24-0.77l-0.99-2.96h-0.91l1.87,5.21
		H131.85z M125.46,192.52c-0.19-0.1-0.34-0.23-0.48-0.41c-0.13-0.17-0.23-0.38-0.31-0.63c-0.07-0.24-0.11-0.51-0.11-0.81
		c0-0.3,0.04-0.57,0.11-0.82c0.07-0.25,0.17-0.46,0.31-0.64c0.13-0.18,0.29-0.32,0.48-0.41c0.19-0.1,0.39-0.14,0.61-0.14
		c0.22,0,0.43,0.05,0.61,0.14c0.19,0.1,0.34,0.23,0.48,0.41c0.13,0.18,0.23,0.39,0.31,0.64c0.07,0.25,0.11,0.52,0.11,0.82
		c0,0.3-0.04,0.57-0.11,0.81c-0.07,0.24-0.17,0.45-0.31,0.63c-0.13,0.17-0.29,0.31-0.48,0.41c-0.19,0.1-0.39,0.14-0.61,0.14
		C125.85,192.66,125.65,192.61,125.46,192.52 M126.99,193.21c0.29-0.12,0.54-0.3,0.77-0.53c0.22-0.23,0.4-0.52,0.53-0.86
		c0.13-0.34,0.2-0.72,0.2-1.15c0-0.44-0.07-0.82-0.2-1.16c-0.13-0.34-0.31-0.63-0.53-0.86c-0.22-0.24-0.48-0.41-0.77-0.54
		s-0.59-0.18-0.92-0.18c-0.32,0-0.63,0.06-0.92,0.18c-0.29,0.12-0.54,0.3-0.77,0.54c-0.22,0.24-0.4,0.52-0.53,0.86
		c-0.13,0.34-0.2,0.73-0.2,1.16c0,0.43,0.07,0.81,0.2,1.15c0.13,0.34,0.31,0.63,0.53,0.86c0.22,0.23,0.48,0.41,0.77,0.53
		c0.29,0.12,0.59,0.18,0.92,0.18C126.39,193.39,126.7,193.33,126.99,193.21 M121.42,193.26v-3.34c0.18-0.44,0.39-0.75,0.63-0.93
		c0.24-0.18,0.47-0.27,0.69-0.27c0.11,0,0.2,0.01,0.27,0.02c0.07,0.01,0.15,0.04,0.24,0.06l0.17-0.77
		c-0.16-0.07-0.35-0.11-0.56-0.11c-0.3,0-0.58,0.1-0.83,0.29c-0.25,0.19-0.47,0.45-0.65,0.78h-0.03l-0.07-0.94h-0.73v5.21H121.42z
		 M116.27,192.53c-0.22-0.08-0.45-0.22-0.69-0.42v-2.73c0.26-0.23,0.5-0.4,0.72-0.52c0.22-0.12,0.45-0.18,0.67-0.18
		c0.24,0,0.45,0.05,0.63,0.14c0.17,0.09,0.32,0.22,0.43,0.39c0.11,0.17,0.19,0.37,0.24,0.61c0.05,0.24,0.07,0.5,0.07,0.78
		c0,0.32-0.04,0.61-0.11,0.87s-0.18,0.47-0.31,0.65c-0.13,0.18-0.29,0.31-0.47,0.41c-0.18,0.1-0.38,0.14-0.59,0.14
		C116.69,192.65,116.49,192.61,116.27,192.53 M115.59,195.46v-1.76l-0.02-0.91c0.24,0.19,0.48,0.33,0.72,0.44
		c0.24,0.11,0.48,0.16,0.72,0.16c0.3,0,0.59-0.06,0.86-0.19c0.27-0.12,0.51-0.31,0.72-0.55c0.21-0.24,0.37-0.54,0.49-0.88
		c0.12-0.35,0.18-0.74,0.18-1.18c0-0.41-0.04-0.77-0.13-1.1c-0.09-0.32-0.22-0.6-0.39-0.84c-0.17-0.23-0.39-0.41-0.64-0.54
		s-0.55-0.19-0.89-0.19c-0.31,0-0.6,0.07-0.88,0.21c-0.28,0.14-0.54,0.31-0.78,0.51h-0.03l-0.07-0.6h-0.73v7.4H115.59z
		 M106.81,193.26v-3.77c0.48-0.54,0.91-0.8,1.31-0.8c0.34,0,0.58,0.11,0.74,0.33c0.16,0.22,0.24,0.57,0.24,1.07v3.18h0.88v-3.77
		c0.48-0.54,0.91-0.8,1.31-0.8c0.33,0,0.57,0.11,0.73,0.33c0.16,0.22,0.24,0.57,0.24,1.07v3.18h0.88v-3.3
		c0-0.67-0.13-1.18-0.39-1.52c-0.26-0.34-0.66-0.51-1.19-0.51c-0.32,0-0.62,0.09-0.89,0.27c-0.28,0.18-0.55,0.42-0.82,0.72
		c-0.11-0.31-0.27-0.56-0.5-0.73c-0.22-0.17-0.54-0.26-0.94-0.26c-0.31,0-0.61,0.08-0.87,0.25c-0.27,0.17-0.52,0.38-0.74,0.63h-0.03
		l-0.07-0.75h-0.73v5.21H106.81z M104.2,186.23h-0.89v7.03h0.89V186.23z M98.99,193.27c0.24-0.08,0.44-0.19,0.6-0.34
		c0.16-0.14,0.28-0.31,0.36-0.49c0.08-0.19,0.12-0.39,0.12-0.6c0-0.24-0.05-0.45-0.14-0.62c-0.1-0.17-0.22-0.32-0.37-0.43
		c-0.15-0.12-0.32-0.22-0.51-0.29c-0.19-0.08-0.38-0.15-0.56-0.22c-0.15-0.06-0.29-0.11-0.43-0.17s-0.26-0.11-0.37-0.18
		c-0.11-0.07-0.19-0.15-0.26-0.24c-0.06-0.09-0.1-0.19-0.1-0.32c0-0.2,0.08-0.37,0.23-0.52c0.15-0.15,0.39-0.22,0.72-0.22
		c0.23,0,0.44,0.04,0.63,0.13s0.38,0.2,0.56,0.33l0.42-0.56c-0.2-0.16-0.44-0.3-0.71-0.42c-0.28-0.11-0.58-0.17-0.91-0.17
		c-0.28,0-0.53,0.04-0.75,0.11c-0.22,0.07-0.41,0.18-0.56,0.31c-0.15,0.13-0.27,0.29-0.35,0.47c-0.08,0.18-0.12,0.38-0.12,0.58
		c0,0.22,0.05,0.41,0.14,0.57c0.09,0.16,0.21,0.29,0.36,0.41c0.15,0.12,0.31,0.22,0.5,0.3c0.19,0.08,0.37,0.16,0.56,0.22
		c0.14,0.06,0.29,0.11,0.43,0.17c0.14,0.06,0.27,0.12,0.38,0.2c0.11,0.07,0.2,0.16,0.27,0.26c0.07,0.1,0.11,0.22,0.11,0.35
		c0,0.23-0.09,0.42-0.26,0.58c-0.17,0.16-0.43,0.24-0.77,0.24c-0.31,0-0.59-0.06-0.83-0.17c-0.24-0.11-0.47-0.26-0.7-0.45
		l-0.44,0.59c0.25,0.21,0.54,0.38,0.88,0.51c0.34,0.14,0.69,0.2,1.06,0.2C98.48,193.39,98.75,193.35,98.99,193.27 M93.56,193.13
		c0.27-0.17,0.52-0.4,0.77-0.69h0.03l0.07,0.81h0.73v-5.21h-0.88v3.7c-0.25,0.31-0.48,0.53-0.69,0.67
		c-0.21,0.14-0.45,0.21-0.72,0.21c-0.34,0-0.59-0.11-0.74-0.33c-0.15-0.22-0.23-0.57-0.23-1.07v-3.18h-0.89v3.3
		c0,0.67,0.13,1.18,0.38,1.52c0.25,0.34,0.66,0.51,1.22,0.51C92.97,193.39,93.29,193.3,93.56,193.13 M86.81,192.52
		c-0.19-0.1-0.34-0.23-0.48-0.41c-0.13-0.17-0.23-0.38-0.31-0.63c-0.07-0.24-0.11-0.51-0.11-0.81c0-0.3,0.04-0.57,0.11-0.82
		c0.07-0.25,0.17-0.46,0.31-0.64c0.13-0.18,0.29-0.32,0.48-0.41c0.19-0.1,0.39-0.14,0.61-0.14c0.22,0,0.43,0.05,0.61,0.14
		c0.19,0.1,0.34,0.23,0.48,0.41c0.13,0.18,0.23,0.39,0.31,0.64c0.07,0.25,0.11,0.52,0.11,0.82c0,0.3-0.04,0.57-0.11,0.81
		c-0.07,0.24-0.17,0.45-0.31,0.63c-0.13,0.17-0.29,0.31-0.48,0.41c-0.19,0.1-0.39,0.14-0.61,0.14
		C87.19,192.66,86.99,192.61,86.81,192.52 M88.33,193.21c0.29-0.12,0.54-0.3,0.77-0.53c0.22-0.23,0.4-0.52,0.53-0.86
		c0.13-0.34,0.2-0.72,0.2-1.15c0-0.44-0.07-0.82-0.2-1.16c-0.13-0.34-0.31-0.63-0.53-0.86c-0.22-0.24-0.48-0.41-0.77-0.54
		c-0.29-0.12-0.59-0.18-0.92-0.18c-0.32,0-0.63,0.06-0.92,0.18c-0.29,0.12-0.54,0.3-0.77,0.54c-0.22,0.24-0.4,0.52-0.53,0.86
		c-0.13,0.34-0.2,0.73-0.2,1.16c0,0.43,0.07,0.81,0.2,1.15c0.13,0.34,0.31,0.63,0.53,0.86c0.22,0.23,0.48,0.41,0.77,0.53
		c0.29,0.12,0.59,0.18,0.92,0.18C87.74,193.39,88.04,193.33,88.33,193.21 M82.14,193.13c0.27-0.17,0.52-0.4,0.77-0.69h0.03
		l0.07,0.81h0.73v-5.21h-0.88v3.7c-0.25,0.31-0.48,0.53-0.69,0.67c-0.21,0.14-0.45,0.21-0.72,0.21c-0.34,0-0.59-0.11-0.74-0.33
		c-0.15-0.22-0.23-0.57-0.23-1.07v-3.18H79.6v3.3c0,0.67,0.13,1.18,0.38,1.52c0.25,0.34,0.66,0.51,1.22,0.51
		C81.56,193.39,81.87,193.3,82.14,193.13 M74.8,193.26v-3.77c0.26-0.26,0.5-0.46,0.71-0.6c0.21-0.14,0.45-0.2,0.72-0.2
		c0.34,0,0.59,0.11,0.75,0.33c0.16,0.22,0.24,0.57,0.24,1.07v3.18h0.88v-3.3c0-0.67-0.13-1.18-0.38-1.52
		c-0.25-0.34-0.66-0.51-1.2-0.51c-0.36,0-0.68,0.08-0.96,0.25c-0.28,0.17-0.54,0.38-0.79,0.63h-0.03l-0.07-0.75h-0.73v5.21H74.8z
		 M72.28,186.82c0.12-0.11,0.18-0.24,0.18-0.41c0-0.17-0.06-0.31-0.18-0.41c-0.12-0.1-0.26-0.16-0.43-0.16
		c-0.17,0-0.32,0.05-0.43,0.16c-0.12,0.1-0.18,0.24-0.18,0.41c0,0.16,0.06,0.3,0.18,0.41c0.12,0.11,0.26,0.16,0.43,0.16
		C72.01,186.98,72.16,186.93,72.28,186.82 M72.27,188.06h-0.88v5.21h0.88V188.06z M70.02,193.33c0.17-0.04,0.32-0.08,0.47-0.13
		l-0.17-0.66c-0.09,0.04-0.18,0.07-0.29,0.1c-0.11,0.03-0.21,0.04-0.3,0.04c-0.3,0-0.51-0.09-0.63-0.26
		c-0.12-0.17-0.18-0.42-0.18-0.74v-2.89h1.4v-0.72h-1.4v-1.46h-0.74l-0.11,1.46l-0.81,0.05v0.66h0.77v2.88
		c0,0.26,0.02,0.49,0.07,0.71c0.05,0.21,0.13,0.4,0.25,0.55c0.12,0.15,0.27,0.27,0.46,0.35c0.19,0.09,0.42,0.13,0.7,0.13
		C69.68,193.39,69.85,193.37,70.02,193.33 M63.01,193.26v-3.77c0.26-0.26,0.5-0.46,0.71-0.6c0.21-0.14,0.45-0.2,0.72-0.2
		c0.34,0,0.59,0.11,0.75,0.33c0.16,0.22,0.24,0.57,0.24,1.07v3.18h0.88v-3.3c0-0.67-0.13-1.18-0.38-1.52
		c-0.25-0.34-0.66-0.51-1.2-0.51c-0.36,0-0.68,0.08-0.96,0.25c-0.28,0.17-0.54,0.38-0.79,0.63h-0.03l-0.07-0.75h-0.73v5.21H63.01z
		 M57.84,192.52c-0.19-0.1-0.34-0.23-0.48-0.41c-0.13-0.17-0.23-0.38-0.31-0.63c-0.07-0.24-0.11-0.51-0.11-0.81
		c0-0.3,0.04-0.57,0.11-0.82c0.07-0.25,0.17-0.46,0.31-0.64c0.13-0.18,0.29-0.32,0.48-0.41c0.19-0.1,0.39-0.14,0.61-0.14
		c0.22,0,0.42,0.05,0.61,0.14c0.19,0.1,0.34,0.23,0.48,0.41c0.13,0.18,0.23,0.39,0.31,0.64c0.07,0.25,0.11,0.52,0.11,0.82
		c0,0.3-0.04,0.57-0.11,0.81c-0.07,0.24-0.17,0.45-0.31,0.63c-0.13,0.17-0.29,0.31-0.48,0.41c-0.19,0.1-0.39,0.14-0.61,0.14
		C58.23,192.66,58.03,192.61,57.84,192.52 M59.37,193.21c0.29-0.12,0.54-0.3,0.77-0.53c0.22-0.23,0.4-0.52,0.53-0.86
		c0.13-0.34,0.2-0.72,0.2-1.15c0-0.44-0.07-0.82-0.2-1.16c-0.13-0.34-0.31-0.63-0.53-0.86c-0.22-0.24-0.48-0.41-0.77-0.54
		s-0.59-0.18-0.92-0.18s-0.63,0.06-0.92,0.18c-0.29,0.12-0.54,0.3-0.77,0.54c-0.22,0.24-0.4,0.52-0.53,0.86
		c-0.13,0.34-0.2,0.73-0.2,1.16c0,0.43,0.07,0.81,0.2,1.15c0.13,0.34,0.31,0.63,0.53,0.86c0.22,0.23,0.48,0.41,0.77,0.53
		c0.29,0.12,0.59,0.18,0.92,0.18S59.08,193.33,59.37,193.21 M54.37,193.12c0.35-0.18,0.66-0.43,0.94-0.75l-0.49-0.56
		c-0.23,0.25-0.47,0.44-0.73,0.58c-0.26,0.14-0.56,0.21-0.9,0.21c-0.34,0-0.64-0.07-0.91-0.2c-0.27-0.14-0.49-0.33-0.68-0.58
		c-0.19-0.25-0.33-0.55-0.43-0.91c-0.1-0.35-0.16-0.75-0.16-1.19c0-0.44,0.05-0.83,0.16-1.18c0.1-0.35,0.25-0.65,0.44-0.89
		s0.43-0.44,0.7-0.57c0.27-0.13,0.57-0.2,0.91-0.2c0.3,0,0.57,0.06,0.8,0.18c0.24,0.12,0.45,0.28,0.63,0.48l0.48-0.58
		c-0.21-0.23-0.47-0.43-0.8-0.61c-0.32-0.17-0.7-0.26-1.13-0.26c-0.45,0-0.86,0.08-1.24,0.25c-0.38,0.17-0.71,0.41-0.99,0.72
		c-0.28,0.31-0.5,0.7-0.65,1.15c-0.16,0.45-0.24,0.96-0.24,1.52c0,0.57,0.08,1.08,0.23,1.54c0.15,0.45,0.37,0.84,0.64,1.15
		c0.28,0.31,0.6,0.55,0.97,0.71c0.37,0.16,0.78,0.25,1.22,0.25C53.62,193.39,54.02,193.3,54.37,193.12"/>
	<path style="clip-path:url(#SVGID_00000042696090071810728920000004603223454712402876_);fill:#FFFFFF;" d="M132.36,170.95
		c0.44-0.42,0.96-0.62,1.55-0.62c0.68,0,1.19,0.22,1.52,0.65c0.33,0.44,0.49,1.03,0.49,1.8h-4.38
		C131.64,171.98,131.91,171.37,132.36,170.95 M135.97,178.58c0.58-0.2,1.1-0.46,1.57-0.76l-0.78-1.45
		c-0.36,0.23-0.73,0.41-1.09,0.53c-0.37,0.13-0.77,0.19-1.19,0.19c-0.8,0-1.46-0.24-1.98-0.71c-0.52-0.48-0.83-1.15-0.93-2.04h6.27
		c0.03-0.12,0.05-0.28,0.07-0.48c0.02-0.2,0.03-0.42,0.03-0.64c0-0.68-0.09-1.31-0.26-1.89c-0.17-0.58-0.43-1.07-0.77-1.49
		c-0.34-0.42-0.77-0.74-1.28-0.96c-0.51-0.23-1.1-0.34-1.77-0.34c-0.58,0-1.14,0.12-1.69,0.36c-0.55,0.24-1.03,0.58-1.46,1.02
		c-0.42,0.44-0.76,0.98-1.01,1.63c-0.25,0.64-0.38,1.37-0.38,2.17c0,0.82,0.12,1.54,0.37,2.18c0.25,0.64,0.59,1.17,1.03,1.62
		c0.44,0.44,0.96,0.78,1.55,1.01c0.59,0.23,1.23,0.35,1.91,0.35C134.79,178.89,135.39,178.78,135.97,178.58 M128.19,178.77
		c0.34-0.07,0.65-0.16,0.91-0.25l-0.4-1.71c-0.15,0.07-0.31,0.12-0.49,0.16s-0.36,0.06-0.53,0.06c-0.92,0-1.39-0.58-1.39-1.73v-4.7
		h2.51v-1.83h-2.51v-2.69h-1.93l-0.28,2.69l-1.53,0.1v1.73h1.41v4.7c0,0.54,0.06,1.02,0.17,1.46c0.11,0.44,0.29,0.81,0.54,1.12
		s0.57,0.56,0.96,0.73c0.39,0.17,0.88,0.26,1.46,0.26C127.48,178.89,127.85,178.85,128.19,178.77 M116.29,176.78
		c-0.27-0.2-0.4-0.52-0.4-0.96c0-0.24,0.06-0.47,0.18-0.68c0.12-0.21,0.32-0.4,0.6-0.57c0.28-0.17,0.65-0.32,1.1-0.45
		c0.46-0.13,1.02-0.24,1.69-0.32v2.21c-0.37,0.35-0.73,0.62-1.05,0.8c-0.33,0.19-0.69,0.28-1.09,0.28
		C116.9,177.08,116.56,176.98,116.29,176.78 M118.21,178.5c0.5-0.25,0.97-0.57,1.42-0.94h0.08l0.16,1.08h1.91v-5.84
		c0-1.38-0.3-2.43-0.91-3.16c-0.61-0.73-1.53-1.09-2.76-1.09c-0.79,0-1.53,0.13-2.21,0.38c-0.68,0.25-1.3,0.56-1.85,0.9l0.84,1.55
		c0.44-0.27,0.89-0.5,1.36-0.68s0.93-0.28,1.42-0.28c0.33,0,0.62,0.05,0.84,0.15c0.23,0.1,0.41,0.24,0.55,0.42
		c0.14,0.18,0.24,0.39,0.3,0.62s0.1,0.48,0.11,0.73c-1.02,0.11-1.89,0.26-2.62,0.46c-0.73,0.2-1.33,0.45-1.81,0.74
		c-0.48,0.29-0.82,0.65-1.04,1.05c-0.22,0.41-0.33,0.87-0.33,1.4c0,0.87,0.27,1.57,0.8,2.1c0.54,0.53,1.24,0.79,2.11,0.79
		C117.16,178.89,117.7,178.76,118.21,178.5 M110.12,178.64v-6.02c0.31-0.75,0.68-1.28,1.1-1.58c0.43-0.3,0.84-0.45,1.23-0.45
		c0.21,0,0.39,0.01,0.54,0.04s0.31,0.07,0.48,0.12l0.4-2.01c-0.28-0.13-0.66-0.2-1.12-0.2c-0.52,0-1.03,0.17-1.53,0.51
		c-0.5,0.34-0.92,0.83-1.27,1.48h-0.08l-0.16-1.75h-1.91v9.86H110.12z M100.65,170.95c0.44-0.42,0.96-0.62,1.55-0.62
		c0.68,0,1.19,0.22,1.52,0.65c0.33,0.44,0.49,1.03,0.49,1.8h-4.38C99.93,171.98,100.2,171.37,100.65,170.95 M104.26,178.58
		c0.58-0.2,1.1-0.46,1.57-0.76l-0.78-1.45c-0.36,0.23-0.73,0.41-1.09,0.53c-0.37,0.13-0.77,0.19-1.19,0.19
		c-0.8,0-1.46-0.24-1.98-0.71c-0.52-0.48-0.83-1.15-0.93-2.04h6.27c0.03-0.12,0.05-0.28,0.07-0.48s0.03-0.42,0.03-0.64
		c0-0.68-0.09-1.31-0.26-1.89c-0.17-0.58-0.43-1.07-0.77-1.49c-0.34-0.42-0.77-0.74-1.28-0.96c-0.51-0.23-1.1-0.34-1.77-0.34
		c-0.58,0-1.14,0.12-1.69,0.36c-0.55,0.24-1.03,0.58-1.46,1.02c-0.42,0.44-0.76,0.98-1.01,1.63c-0.25,0.64-0.38,1.37-0.38,2.17
		c0,0.82,0.12,1.54,0.37,2.18c0.25,0.64,0.59,1.17,1.03,1.62c0.44,0.44,0.96,0.78,1.55,1.01c0.59,0.23,1.23,0.35,1.91,0.35
		C103.08,178.89,103.68,178.78,104.26,178.58 M90.86,176.8c-0.33-0.12-0.68-0.33-1.04-0.64v-4.6c0.75-0.74,1.47-1.1,2.17-1.1
		c0.75,0,1.29,0.27,1.63,0.82s0.5,1.32,0.5,2.31c0,1.12-0.22,1.97-0.66,2.54c-0.44,0.57-0.99,0.85-1.65,0.85
		C91.51,176.98,91.2,176.92,90.86,176.8 M89.82,182.54v-3.09l-0.06-1.65c0.4,0.35,0.82,0.62,1.25,0.8c0.43,0.19,0.86,0.28,1.29,0.28
		c0.55,0,1.08-0.12,1.59-0.36c0.51-0.24,0.96-0.59,1.35-1.03c0.39-0.45,0.7-1,0.93-1.67c0.23-0.66,0.35-1.42,0.35-2.26
		c0-0.76-0.09-1.45-0.26-2.07c-0.17-0.62-0.43-1.14-0.76-1.59c-0.33-0.44-0.74-0.78-1.22-1.01c-0.48-0.23-1.02-0.35-1.64-0.35
		c-0.55,0-1.08,0.13-1.59,0.38c-0.51,0.25-0.97,0.56-1.39,0.9h-0.08l-0.16-1.04h-1.91v13.76H89.82z M78.47,176.52
		c-0.42-0.23-0.77-0.55-1.06-0.97c-0.29-0.42-0.52-0.93-0.68-1.53s-0.24-1.26-0.24-2c0-1.47,0.3-2.63,0.91-3.46
		c0.61-0.84,1.44-1.26,2.48-1.26c1.04,0,1.87,0.42,2.48,1.26s0.91,1.99,0.91,3.46c0,0.74-0.08,1.4-0.24,2
		c-0.16,0.6-0.39,1.1-0.68,1.53c-0.29,0.42-0.65,0.75-1.06,0.97c-0.42,0.23-0.88,0.34-1.41,0.34S78.89,176.74,78.47,176.52
		 M82.23,178.41c0.71-0.31,1.32-0.77,1.84-1.37c0.52-0.6,0.91-1.32,1.19-2.16c0.28-0.84,0.42-1.8,0.42-2.87c0-1.06-0.14-2-0.42-2.84
		s-0.68-1.54-1.19-2.12s-1.13-1.02-1.84-1.33c-0.71-0.31-1.49-0.46-2.35-0.46s-1.64,0.15-2.35,0.46s-1.32,0.75-1.83,1.33
		c-0.51,0.58-0.9,1.28-1.18,2.12c-0.28,0.84-0.42,1.78-0.42,2.84c0,1.07,0.14,2.03,0.42,2.87c0.28,0.84,0.68,1.56,1.18,2.16
		c0.51,0.6,1.12,1.05,1.83,1.37c0.71,0.31,1.49,0.47,2.35,0.47S81.52,178.73,82.23,178.41"/>
	<path style="clip-path:url(#SVGID_00000042696090071810728920000004603223454712402876_);fill:#FFFFFF;" d="M212.84,103.76
		c0.09-0.2,0.2-0.37,0.34-0.51c0.14-0.14,0.29-0.24,0.46-0.32c0.17-0.07,0.34-0.11,0.53-0.11c0.41,0,0.72,0.14,0.95,0.41
		s0.34,0.68,0.34,1.2h-2.78C212.69,104.19,212.75,103.96,212.84,103.76 M215.26,107.44c0.28-0.11,0.53-0.23,0.76-0.37l-0.31-0.58
		c-0.19,0.12-0.39,0.22-0.61,0.29c-0.21,0.07-0.44,0.11-0.69,0.11c-0.5,0-0.91-0.16-1.22-0.49s-0.48-0.77-0.52-1.32h3.51
		c0.01-0.06,0.02-0.14,0.03-0.23c0-0.09,0.01-0.18,0.01-0.27c0-0.37-0.05-0.71-0.14-1.01c-0.09-0.3-0.23-0.56-0.4-0.77
		c-0.17-0.21-0.39-0.38-0.65-0.49c-0.26-0.11-0.55-0.17-0.88-0.17c-0.3,0-0.59,0.06-0.87,0.19c-0.28,0.13-0.53,0.31-0.74,0.54
		c-0.22,0.24-0.39,0.52-0.52,0.86c-0.13,0.34-0.2,0.72-0.2,1.15s0.06,0.81,0.19,1.15c0.13,0.34,0.31,0.62,0.53,0.85
		c0.22,0.23,0.49,0.41,0.79,0.54c0.3,0.12,0.63,0.19,0.98,0.19C214.66,107.6,214.98,107.54,215.26,107.44 M207.83,109.01
		c-0.27-0.16-0.4-0.39-0.4-0.66c0-0.15,0.04-0.3,0.13-0.45c0.09-0.15,0.22-0.29,0.41-0.43c0.11,0.04,0.23,0.06,0.35,0.07
		c0.12,0.01,0.23,0.02,0.33,0.02h0.9c0.34,0,0.6,0.05,0.78,0.14c0.18,0.09,0.27,0.26,0.27,0.5c0,0.14-0.04,0.27-0.12,0.4
		c-0.08,0.13-0.19,0.24-0.33,0.34c-0.14,0.1-0.32,0.17-0.52,0.24c-0.2,0.06-0.43,0.09-0.68,0.09
		C208.47,109.26,208.1,109.17,207.83,109.01 M208.39,105.14c-0.13-0.06-0.25-0.14-0.35-0.25c-0.1-0.11-0.18-0.24-0.24-0.39
		c-0.06-0.15-0.09-0.33-0.09-0.52c0-0.39,0.11-0.68,0.32-0.89c0.21-0.21,0.47-0.32,0.78-0.32c0.31,0,0.57,0.11,0.78,0.32
		c0.21,0.21,0.32,0.51,0.32,0.89c0,0.19-0.03,0.37-0.09,0.52c-0.06,0.15-0.14,0.28-0.24,0.39c-0.1,0.11-0.22,0.19-0.35,0.25
		c-0.13,0.06-0.27,0.09-0.42,0.09S208.52,105.2,208.39,105.14 M209.91,109.72c0.32-0.1,0.6-0.23,0.83-0.39
		c0.23-0.16,0.4-0.36,0.52-0.57c0.12-0.22,0.18-0.45,0.18-0.69c0-0.44-0.15-0.75-0.46-0.95s-0.76-0.29-1.37-0.29h-1.01
		c-0.36,0-0.6-0.05-0.73-0.16c-0.13-0.11-0.19-0.24-0.19-0.41c0-0.14,0.03-0.26,0.1-0.36c0.06-0.1,0.14-0.18,0.24-0.26
		c0.12,0.06,0.25,0.1,0.39,0.13c0.14,0.03,0.27,0.05,0.4,0.05c0.26,0,0.51-0.04,0.74-0.13c0.23-0.09,0.43-0.2,0.61-0.36
		c0.17-0.15,0.31-0.34,0.41-0.57c0.1-0.22,0.15-0.48,0.15-0.76c0-0.22-0.04-0.43-0.12-0.61c-0.08-0.19-0.18-0.34-0.31-0.46h1.07
		v-0.67h-1.81c-0.1-0.04-0.21-0.07-0.34-0.09c-0.13-0.02-0.26-0.04-0.4-0.04c-0.26,0-0.52,0.04-0.76,0.13
		c-0.24,0.09-0.45,0.21-0.63,0.37c-0.18,0.16-0.32,0.36-0.42,0.58c-0.1,0.23-0.16,0.49-0.16,0.77c0,0.31,0.07,0.59,0.21,0.83
		c0.14,0.24,0.29,0.43,0.47,0.57v0.04c-0.14,0.09-0.26,0.22-0.39,0.39c-0.12,0.16-0.18,0.36-0.18,0.58c0,0.21,0.04,0.38,0.13,0.52
		c0.09,0.14,0.2,0.25,0.33,0.33v0.04c-0.24,0.16-0.42,0.35-0.56,0.55c-0.14,0.2-0.2,0.41-0.2,0.63c0,0.23,0.05,0.43,0.16,0.6
		c0.1,0.17,0.25,0.32,0.44,0.44c0.19,0.12,0.42,0.21,0.68,0.27c0.26,0.06,0.56,0.09,0.88,0.09
		C209.22,109.87,209.58,109.82,209.91,109.72 M202.57,106.7c-0.18-0.13-0.27-0.34-0.27-0.64c0-0.16,0.04-0.32,0.12-0.46
		c0.08-0.14,0.21-0.26,0.4-0.37c0.18-0.11,0.42-0.2,0.72-0.28c0.3-0.08,0.66-0.15,1.1-0.2v1.45c-0.25,0.23-0.49,0.4-0.71,0.52
		c-0.22,0.12-0.46,0.18-0.71,0.18C202.96,106.89,202.74,106.83,202.57,106.7 M203.88,107.38c0.29-0.15,0.55-0.32,0.8-0.53h0.03
		l0.07,0.62h0.73v-3.19c0-0.65-0.14-1.17-0.43-1.56c-0.29-0.39-0.75-0.58-1.38-0.58c-0.42,0-0.81,0.07-1.16,0.22
		c-0.35,0.15-0.65,0.3-0.89,0.46l0.34,0.61c0.21-0.14,0.44-0.27,0.71-0.39c0.26-0.11,0.55-0.17,0.85-0.17
		c0.21,0,0.39,0.04,0.53,0.11c0.14,0.07,0.25,0.17,0.33,0.29c0.08,0.12,0.13,0.26,0.17,0.42c0.03,0.16,0.05,0.32,0.05,0.48
		c-1.11,0.12-1.92,0.33-2.43,0.64c-0.51,0.3-0.76,0.74-0.76,1.31c0,0.47,0.14,0.84,0.43,1.09c0.29,0.26,0.65,0.39,1.09,0.39
		C203.29,107.6,203.6,107.52,203.88,107.38 M199.56,107.47c0.24-0.08,0.44-0.19,0.6-0.34c0.16-0.14,0.28-0.31,0.36-0.49
		c0.08-0.19,0.12-0.39,0.12-0.6c0-0.24-0.05-0.45-0.14-0.62c-0.1-0.17-0.22-0.32-0.37-0.43c-0.15-0.12-0.32-0.22-0.51-0.29
		c-0.19-0.08-0.38-0.15-0.56-0.22c-0.15-0.06-0.29-0.11-0.43-0.17c-0.14-0.05-0.26-0.11-0.37-0.18c-0.11-0.07-0.19-0.15-0.26-0.24
		c-0.06-0.09-0.1-0.19-0.1-0.32c0-0.2,0.08-0.37,0.23-0.52c0.15-0.15,0.39-0.22,0.72-0.22c0.23,0,0.44,0.04,0.63,0.13
		c0.19,0.09,0.38,0.2,0.56,0.33l0.42-0.56c-0.2-0.16-0.44-0.3-0.71-0.42c-0.27-0.11-0.58-0.17-0.91-0.17
		c-0.28,0-0.53,0.04-0.75,0.11c-0.22,0.07-0.41,0.18-0.56,0.31c-0.15,0.13-0.27,0.29-0.35,0.47c-0.08,0.18-0.12,0.38-0.12,0.58
		c0,0.22,0.05,0.41,0.14,0.57c0.09,0.16,0.21,0.29,0.36,0.41c0.15,0.12,0.31,0.22,0.5,0.3c0.19,0.08,0.37,0.16,0.56,0.22
		c0.14,0.06,0.29,0.11,0.43,0.17c0.14,0.06,0.27,0.12,0.38,0.2c0.11,0.07,0.2,0.16,0.27,0.26c0.07,0.1,0.11,0.22,0.11,0.35
		c0,0.23-0.09,0.42-0.26,0.58c-0.17,0.16-0.43,0.24-0.77,0.24c-0.31,0-0.59-0.06-0.83-0.17c-0.24-0.11-0.47-0.26-0.7-0.45
		l-0.44,0.59c0.25,0.21,0.54,0.38,0.88,0.51c0.34,0.14,0.69,0.2,1.06,0.2C199.05,107.6,199.32,107.56,199.56,107.47 M194.2,107.44
		c0.31-0.1,0.57-0.28,0.8-0.51c0.22-0.24,0.4-0.55,0.53-0.94c0.13-0.39,0.19-0.86,0.19-1.42v-4.12h-0.86v4.15
		c0,0.42-0.04,0.78-0.13,1.06c-0.09,0.29-0.2,0.51-0.35,0.69c-0.15,0.17-0.32,0.29-0.52,0.37c-0.2,0.07-0.42,0.11-0.65,0.11
		c-0.23,0-0.44-0.04-0.64-0.11c-0.2-0.07-0.37-0.2-0.52-0.37c-0.15-0.17-0.26-0.4-0.35-0.69c-0.09-0.29-0.13-0.64-0.13-1.06v-4.15
		h-0.89v4.12c0,0.56,0.06,1.04,0.19,1.42c0.13,0.39,0.31,0.7,0.53,0.94s0.49,0.41,0.8,0.51c0.31,0.1,0.64,0.16,1,0.16
		C193.56,107.6,193.89,107.55,194.2,107.44 M183.33,106.8c-0.17-0.06-0.31-0.15-0.44-0.26c-0.13-0.11-0.22-0.25-0.29-0.41
		c-0.07-0.16-0.11-0.34-0.11-0.53c0-0.27,0.08-0.52,0.25-0.73c0.17-0.22,0.38-0.43,0.63-0.63c0.25,0.39,0.53,0.76,0.85,1.11
		c0.32,0.35,0.65,0.68,0.99,0.98c-0.21,0.18-0.42,0.32-0.64,0.42c-0.22,0.1-0.45,0.15-0.7,0.15
		C183.68,106.89,183.5,106.86,183.33,106.8 M183.55,101.23c0.16-0.19,0.37-0.29,0.63-0.29c0.24,0,0.41,0.08,0.51,0.23
		c0.1,0.15,0.16,0.33,0.16,0.54c0,0.16-0.03,0.3-0.1,0.43c-0.06,0.13-0.15,0.26-0.26,0.37c-0.11,0.12-0.24,0.23-0.39,0.34
		c-0.15,0.11-0.3,0.22-0.46,0.33c-0.1-0.21-0.18-0.42-0.24-0.63c-0.06-0.21-0.09-0.41-0.09-0.6
		C183.32,101.67,183.4,101.43,183.55,101.23 M184.9,107.38c0.33-0.15,0.63-0.34,0.91-0.58c0.29,0.2,0.56,0.37,0.84,0.5
		c0.27,0.13,0.53,0.23,0.78,0.31l0.24-0.73c-0.19-0.06-0.4-0.14-0.62-0.26c-0.22-0.11-0.45-0.25-0.7-0.42
		c0.28-0.37,0.52-0.77,0.72-1.19c0.2-0.42,0.37-0.86,0.51-1.33h-0.82c-0.11,0.41-0.25,0.78-0.41,1.12
		c-0.17,0.34-0.36,0.66-0.57,0.95c-0.34-0.28-0.66-0.59-0.97-0.92c-0.31-0.34-0.58-0.69-0.81-1.05c0.19-0.14,0.38-0.29,0.57-0.43
		c0.19-0.15,0.36-0.3,0.51-0.47c0.15-0.17,0.27-0.35,0.36-0.54c0.09-0.19,0.14-0.4,0.14-0.63c0-0.41-0.12-0.75-0.36-1.01
		c-0.24-0.26-0.58-0.39-1.02-0.39c-0.24,0-0.46,0.04-0.66,0.13c-0.2,0.09-0.37,0.2-0.51,0.35c-0.14,0.15-0.25,0.33-0.33,0.52
		c-0.08,0.2-0.12,0.42-0.12,0.65c0,0.26,0.04,0.52,0.12,0.8c0.08,0.28,0.19,0.56,0.34,0.85c-0.18,0.12-0.35,0.25-0.52,0.39
		c-0.17,0.14-0.32,0.29-0.44,0.46c-0.13,0.16-0.23,0.34-0.31,0.54c-0.07,0.19-0.11,0.41-0.11,0.64c0,0.29,0.05,0.55,0.16,0.79
		c0.1,0.24,0.25,0.44,0.44,0.62c0.19,0.17,0.41,0.31,0.67,0.4c0.26,0.1,0.55,0.14,0.87,0.14
		C184.19,107.6,184.57,107.52,184.9,107.38 M177.94,107.47c0.24-0.08,0.44-0.19,0.6-0.34s0.28-0.31,0.36-0.49
		c0.08-0.19,0.12-0.39,0.12-0.6c0-0.24-0.05-0.45-0.14-0.62c-0.1-0.17-0.22-0.32-0.37-0.43c-0.15-0.12-0.32-0.22-0.51-0.29
		c-0.19-0.08-0.38-0.15-0.56-0.22c-0.15-0.06-0.29-0.11-0.43-0.17s-0.26-0.11-0.37-0.18c-0.11-0.07-0.19-0.15-0.26-0.24
		c-0.06-0.09-0.1-0.19-0.1-0.32c0-0.2,0.08-0.37,0.23-0.52c0.15-0.15,0.39-0.22,0.72-0.22c0.23,0,0.44,0.04,0.63,0.13
		s0.38,0.2,0.56,0.33l0.42-0.56c-0.2-0.16-0.44-0.3-0.71-0.42c-0.28-0.11-0.58-0.17-0.91-0.17c-0.28,0-0.53,0.04-0.75,0.11
		c-0.22,0.07-0.41,0.18-0.56,0.31c-0.15,0.13-0.27,0.29-0.35,0.47c-0.08,0.18-0.12,0.38-0.12,0.58c0,0.22,0.05,0.41,0.14,0.57
		c0.09,0.16,0.21,0.29,0.36,0.41c0.15,0.12,0.31,0.22,0.5,0.3c0.19,0.08,0.37,0.16,0.56,0.22c0.14,0.06,0.29,0.11,0.43,0.17
		c0.14,0.06,0.27,0.12,0.38,0.2c0.11,0.07,0.2,0.16,0.27,0.26c0.07,0.1,0.11,0.22,0.11,0.35c0,0.23-0.09,0.42-0.26,0.58
		c-0.17,0.16-0.43,0.24-0.77,0.24c-0.31,0-0.59-0.06-0.83-0.17c-0.24-0.11-0.47-0.26-0.7-0.45l-0.44,0.59
		c0.25,0.21,0.54,0.38,0.88,0.51c0.34,0.14,0.69,0.2,1.06,0.2C177.42,107.6,177.7,107.56,177.94,107.47 M171.2,103.76
		c0.09-0.2,0.2-0.37,0.34-0.51c0.14-0.14,0.29-0.24,0.46-0.32c0.17-0.07,0.34-0.11,0.53-0.11c0.41,0,0.72,0.14,0.95,0.41
		s0.34,0.68,0.34,1.2h-2.78C171.05,104.19,171.11,103.96,171.2,103.76 M173.61,107.44c0.28-0.11,0.53-0.23,0.76-0.37l-0.31-0.58
		c-0.19,0.12-0.39,0.22-0.61,0.29c-0.21,0.07-0.44,0.11-0.69,0.11c-0.5,0-0.91-0.16-1.22-0.49c-0.31-0.32-0.48-0.77-0.52-1.32h3.51
		c0.01-0.06,0.02-0.14,0.03-0.23c0-0.09,0.01-0.18,0.01-0.27c0-0.37-0.05-0.71-0.14-1.01c-0.09-0.3-0.23-0.56-0.4-0.77
		c-0.18-0.21-0.39-0.38-0.65-0.49c-0.26-0.11-0.56-0.17-0.88-0.17c-0.3,0-0.59,0.06-0.87,0.19c-0.28,0.13-0.53,0.31-0.74,0.54
		c-0.22,0.24-0.39,0.52-0.52,0.86c-0.13,0.34-0.2,0.72-0.2,1.15s0.06,0.81,0.19,1.15c0.13,0.34,0.31,0.62,0.53,0.85
		c0.22,0.23,0.49,0.41,0.79,0.54c0.3,0.12,0.63,0.19,0.98,0.19C173.02,107.6,173.34,107.54,173.61,107.44 M169.33,107.54
		c0.17-0.04,0.32-0.08,0.47-0.13l-0.17-0.66c-0.09,0.04-0.18,0.07-0.29,0.1c-0.11,0.03-0.21,0.04-0.3,0.04
		c-0.3,0-0.51-0.09-0.63-0.26c-0.12-0.17-0.18-0.42-0.18-0.74v-2.89h1.4v-0.72h-1.4v-1.46h-0.74l-0.11,1.46l-0.81,0.05v0.66h0.77
		v2.88c0,0.26,0.02,0.49,0.07,0.71c0.05,0.21,0.13,0.4,0.25,0.55c0.12,0.15,0.27,0.27,0.46,0.35c0.19,0.09,0.42,0.13,0.7,0.13
		C168.99,107.6,169.16,107.58,169.33,107.54 M162.85,106.7c-0.18-0.13-0.27-0.34-0.27-0.64c0-0.16,0.04-0.32,0.12-0.46
		c0.08-0.14,0.21-0.26,0.4-0.37c0.18-0.11,0.42-0.2,0.72-0.28c0.3-0.08,0.66-0.15,1.1-0.2v1.45c-0.25,0.23-0.49,0.4-0.71,0.52
		c-0.22,0.12-0.46,0.18-0.71,0.18C163.25,106.89,163.03,106.83,162.85,106.7 M164.17,107.38c0.29-0.15,0.55-0.32,0.8-0.53H165
		l0.07,0.62h0.73v-3.19c0-0.65-0.14-1.17-0.43-1.56c-0.29-0.39-0.75-0.58-1.38-0.58c-0.42,0-0.81,0.07-1.16,0.22
		c-0.35,0.15-0.65,0.3-0.89,0.46l0.34,0.61c0.21-0.14,0.44-0.27,0.71-0.39c0.26-0.11,0.55-0.17,0.85-0.17
		c0.21,0,0.39,0.04,0.53,0.11s0.25,0.17,0.33,0.29c0.08,0.12,0.13,0.26,0.17,0.42c0.03,0.16,0.05,0.32,0.05,0.48
		c-1.11,0.12-1.92,0.33-2.43,0.64c-0.51,0.3-0.76,0.74-0.76,1.31c0,0.47,0.14,0.84,0.43,1.09s0.65,0.39,1.09,0.39
		C163.57,107.6,163.88,107.52,164.17,107.38 M157.08,101.16h1.18c0.55,0,0.97,0.09,1.26,0.28c0.29,0.19,0.44,0.51,0.44,0.97
		c0,0.46-0.15,0.8-0.44,1.02c-0.29,0.22-0.71,0.34-1.26,0.34h-1.18V101.16z M157.08,107.47v-2.97h1.27l1.69,2.97h1.01l-1.79-3.06
		c0.49-0.12,0.87-0.35,1.16-0.67c0.29-0.33,0.43-0.77,0.43-1.32c0-0.36-0.06-0.67-0.18-0.92c-0.12-0.25-0.29-0.45-0.51-0.61
		c-0.22-0.16-0.48-0.27-0.78-0.34c-0.3-0.07-0.63-0.1-0.99-0.1h-2.2v7.03H157.08z"/>
</g>
</svg>
