<?xml version="1.0" encoding="utf-8"?>
<!-- Generator: Adobe Illustrator 26.5.0, SVG Export Plug-In . SVG Version: 6.00 Build 0)  -->
<svg version="1.1" id="Layer_1" xmlns="http://www.w3.org/2000/svg" xmlns:xlink="http://www.w3.org/1999/xlink" x="0px" y="0px"
	 viewBox="0 0 372 402" style="enable-background:new 0 0 372 402;" xml:space="preserve">
<style type="text/css">
	.st0{fill:#D31245;}
</style>
<g>
	<g>
		<path class="st0" d="M244.2,228.8c-4-7.8-18-1.7-25.1-8.2c-2-1.8-6.1-5.5-8.2-12c-2-6.1-5.1-11-10.2-15
			c-9.1-7.1-30.7-18-29.2-32.5c0.7-6.5,8.5-7.9,11.8-12.6c1.9-2.8,2.2-6.6,4.5-9.2c2.6-2.9-1.1-3-3.6-3.1c-5.4-0.2-9.5,5.7-14,8.1
			c-7.4,3.9-14,9.5-22.4,11.3c-2.4,0.5-14.9,4.4-6.8,6.4c5.6,1.4,11.8,1,16.4,5c5.9,5.1,10.7,11.6,16.7,16.7c3,2.6,6,5.1,8.4,8.3
			c2.8,3.6,2.5,7.8,4.5,11.7c2,3.7,6,0.3,8.5,2.4c8.1,6.7-3.2,10.1-6.1,13.2c-3.8,4.1-4.6,6.8-11.6,9.7c-3.1,1.3-23.1,3.7-25.6,5.5
			c-2.4,1.9-1.2,2.4-0.5,3.1c0.6,0.7,4.1,1.8,5.6,2c8.4,0.8,34.3,5.7,39.6-0.9c3.6-4.5,9-5,15-3.4c4.2,1.1,12.5,0.3,19.7-2.7
			C235.8,230.7,247.4,230.5,244.2,228.8z M239.4,261.1c0,0-0.4,0.2-0.9,0.5c-0.5,0.3-0.8,0.5-0.9,0.5c0,0,0.1-0.1,0,0
			c-8,4.5-12.2,11.4-11.3,22.7c1.1,15.7,12.6,94.9,12.6,94.9l22.1-7c0,0-2-12.9-4.6-28.6c7.5-2.2,15.1-5.4,22.5-9.5
			c7.4-4.1,14.1-8.9,19.9-14c12,10.5,21.8,19.1,21.8,19.1l17.6-15c0,0-61.1-51.9-73.7-61.1C255.5,257,247.5,256.7,239.4,261.1z
			 M269,316.8c-5.7,3.1-10.8,5-15.9,6.1c-2.8-17.4-5.2-33.2-5.6-35.2c-0.7-4.7-0.3-6.5,1.3-7.4c1.7-0.9,3.4-0.2,7,2.8
			c1.5,1.3,13.6,11.8,26.9,23.4C279.1,310.2,274.7,313.5,269,316.8z M176.1,382.8h22.8v-113h-22.8V382.8z M136.6,262.1
			c0-0.1-0.4-0.2-0.9-0.5c-0.5-0.3-0.8-0.5-0.9-0.5c0,0,0,0,0,0c-8.1-4.5-16.1-4.3-25.3,2.4c-12.7,9.3-73.8,61-73.8,61l17.6,15
			c0,0,9.8-8.5,21.8-19c5.9,5.2,12.5,9.9,20,14.1c7.4,4.1,15,7.2,22.4,9.5c-2.5,15.8-4.6,28.6-4.6,28.6l22,7
			c0,0,11.6-79.2,12.8-94.9C148.7,273.6,144.6,266.6,136.6,262.1z M126.7,287.7c-0.3,2-2.8,17.7-5.6,35.2c-5.1-1.1-10.2-3-16-6.2
			c-5.7-3.2-10-6.5-13.6-10.2c13.3-11.6,25.4-22.1,26.9-23.4c3.6-3,5.3-3.7,7-2.8C127,281.2,127.4,283,126.7,287.7z M56.8,287.6
			C44.3,270.6,35,251.2,30,230.1c1.4,0.3,3.2,0.8,6.1,1.7c9.6,3.1,27.6,9,40.6,3c8.3-3.8,22.6-7,28.1-9.2c5.2-2.1,16.3,2.7,3.2-5.8
			c0,0-0.1,0-0.1,0c-0.2-0.1-0.4-0.2-0.7-0.3c-0.4-0.2-0.9-0.3-1.3-0.4c-1.3-0.3-11.7,1.8-14,1.4c-0.7-0.2-1.4-0.4-2.1-0.8
			c-5.7-3.1,18.5-21.9,19.3-26.7c-6.9,0.7-12.7,5.1-18.9,7.9c-7.3,3.2-15.3,3.3-23.1,3.3c-8.9,0-15.9,7-23.7,10.2
			c-4.1,1.7-10.8,3.2-15.4,6.2c-0.3-1.9-0.6-3.9-0.9-5.9c0.1-3.4,0.5-7.5,1.3-12.1c1.8-10.3,5.9-18.1,15.2-30.4
			c0,0,9-10.8,14.2-14.3c2-1.4,4.3-3.4,6.4-2c2.3,1.4-0.6,10.3,5.5,11.8c3.7,0.9,0.4,7,1.7,10.6c1.4,3.8-15.3,18.3-10.9,20.1
			c2.4,1,13.5-4.6,19.3-6.4c5.2-1.6,10.6-1.8,16.3-7.1c5.8-5.4,11.6-8.4,11.6-8.4c4.7-4,9.3-8.1,14-12.1c4.5-3.9,8.9-8.1,13.3-12.2
			c2.8-2.6,15.3-9.5,16.4-11.9c5.8-12.6,21-19.9,32.2-27.9c2.1-1.5,4.3-4.5,5.6-6.2c1.3-1.8,2.6-4.4,3.4-5.2
			c1.5-1.7,1.8-2.9,3.4-3.7c0.7-0.3,3.2-0.3,4.3,0.9c3.7,3.9,8.7,7.3,8.8,11.4c0.3,6.3,18,11.9,22,16.8c1.7,2,2.6,3.9,3.3,5.9
			c-3.1-1.3-6.1-2.7-8.8-4.7c-1.8-1.3-6-0.9-8.1-1.3c-6.1-1.1-4.7,1.8-1.3,5.3c3.5,3.6,7.5,6.7,10.7,10.6c3.7,4.5,3.3,8.2,4.3,13.6
			c1.1,5.8,4.5,10.8,7.3,15.8c2.9,5.1,2.7,10.6,4.2,16.1c1.7,5.5,6.4,10.1,10.3,14.1c3.3,3.5,10.9,12,15,10.2
			c4.4-2,9.8,3.4,11.4,1.9c1.6-1.4-4.4-8.5-2.1-10.6c2.3-2.2,12.4,1.2,14.4,7.7c2.3,7.5,2.1,8.1,1.7,13.6c-0.2,3.5-1.7,6.5-4.1,8.9
			c-3,3-9.9,8-8.5,13c6.3-3.4,13.2-3.8,20.3-3.5c6.9,0.2,11.9-2.6,16.5-7.5c2-2.2,7.9-9,11.2-5.6c2,2.1-3.9,10.5,2.6,8.7
			c4.3-1.2,8.2-4.5,12.1-6.6c1.1-0.6,2-1.2,2.8-1.8c-5.1,21.4-14.5,41.2-27.3,58.3l4.7,3.9c22.8-29.2,36.4-65.9,36.4-105.8
			c0-95-77-172.1-172.1-172.1c-95,0-172.1,77-172.1,172.1c0,39.6,13.4,76,35.8,105L56.8,287.6z M188.3,33.4
			c85.3,0,155.2,64.7,162,147c-2.6,3.4-6.4,5.3-10.5,6.2c-14.5,3.1-18.9-9.5-30.9-17.4c-12.1-8-23.1-11-34.3-22.2
			c-4.5-4.5-5.6-12.1-10.1-16.8c-6-6.3-9.6-8.1-17.7-11.2c-14.2-5.5-26.3-9.6-38.1-19.3c-2-1.7-6.7-3.8-11-4.6
			c-1.9-0.3-2.7-0.1-3.3,0.7c-1.7,2.2-3.4,4.9-4.9,7.5c-0.4,0.7-1.9,2.8-3.1,3.9c-2.3,2.1-5.1,4.7-7.3,6
			c-11.8,7.2-27.4,13.4-34.2,25.5c-1.3,2.3-14.2,8.2-17.2,10.6c-4.7,3.8-9.3,7.6-14.1,11.2c-4.5,3.3-10.8,8.6-15.5,12.1
			c-2.5-0.9-5-1.8-7.4-2.2c-5.6-1.1-10.2-5.3-15-8.3c-6.1-3.8-5.7-4.3-7.6-5.4c-1.7-1-2.5-1.5-3.2-1.8c-4.5-2.6-4.8,0-11.2,4
			c-5.4,3.3-11.6,8.8-16.2,13.2c-3.7,3.4-7.5,7.1-11.3,11C31.6,99.4,102.1,33.4,188.3,33.4z"/>
	</g>
</g>
</svg>
