<svg xmlns="http://www.w3.org/2000/svg" width="65" height="65" viewBox="0 0 65 65">
    <g fill="none" fill-rule="evenodd">
        <g fill="#D31145">
            <g>
                <g>
                    <path d="M50.354 31.138c-1.705.36-2.23-1.118-3.648-2.054-1.423-.937-2.728-1.296-4.045-2.604-.529-.528-.664-1.429-1.19-1.98-.701-.746-1.128-.95-2.08-1.321-1.67-.648-3.103-1.128-4.491-2.27-.235-.19-.786-.444-1.301-.54-.22-.047-.319-.012-.393.072-.207.266-.396.587-.58.889-.051.083-.222.325-.36.456-.269.24-.604.552-.86.695-1.397.853-3.237 1.574-4.031 3.003-.147.262-1.67.972-2.022 1.246-.553.456-1.096.901-1.665 1.321-.532.397-1.269 1.009-1.824 1.417-.293-.107-.593-.203-.87-.25-.654-.134-1.204-.638-1.766-.973-.721-.457-.667-.504-.895-.638-.199-.107-.297-.179-.374-.214-.536-.314-.568 0-1.329.467-.634.385-1.365 1.032-1.91 1.548-.435.409-.878.841-1.332 1.285.651-9.82 8.958-17.573 19.114-17.573 10.054 0 18.294 7.61 19.089 17.284-.31.409-.75.627-1.237.734zM32.49 10.833c-11.212 0-20.301 9.056-20.301 20.225 0 4.655 1.58 8.925 4.23 12.344l.554-.457c-1.475-1.99-2.563-4.27-3.156-6.752.171.036.378.095.72.202 1.128.361 3.255 1.055 4.787.361.974-.456 2.67-.829 3.32-1.08.616-.252 1.917.311.382-.696h-.008c-.02-.012-.044-.024-.078-.036-.051-.024-.101-.036-.159-.048-.15-.036-1.381.203-1.654.168-.085-.024-.167-.049-.248-.096-.668-.36 2.183-2.578 2.277-3.132-.819.086-1.494.602-2.226.924-.86.373-1.804.385-2.726.396-1.054 0-1.874.817-2.8 1.19-.485.202-1.28.383-1.817.73-.04-.227-.074-.456-.104-.683.017-.397.06-.877.158-1.428.211-1.2.7-2.136 1.788-3.575 0 0 1.06-1.27 1.679-1.679.24-.169.5-.395.756-.24.27.169-.075 1.212.649 1.391.437.096.051.816.202 1.236.16.444-1.8 2.159-1.283 2.363.288.12 1.587-.539 2.276-.756.608-.191 1.255-.203 1.921-.828.686-.636 1.366-.996 1.366-.996.558-.468 1.1-.947 1.65-1.415.537-.468 1.05-.948 1.57-1.428.326-.31 1.799-1.126 1.93-1.403.685-1.475 2.473-2.34 3.803-3.275.244-.167.509-.528.66-.73.15-.205.31-.516.397-.614.169-.191.21-.334.4-.43.076-.038.376-.038.506.108.433.456 1.023.852 1.044 1.331.037.743 2.125 1.392 2.601 1.968.196.239.311.467.392.694-.364-.143-.723-.322-1.041-.55-.211-.156-.703-.12-.954-.156-.722-.134-.555.203-.156.61.409.433.884.793 1.257 1.261.43.528.391.96.507 1.595.128.673.532 1.26.863 1.86.336.598.313 1.235.5 1.883.201.646.754 1.188 1.212 1.668.39.406 1.28 1.404 1.766 1.187.516-.215 1.157.407 1.35.228.196-.169-.517-.997-.244-1.248.274-.253 1.46.143 1.705.9.276.888.247.96.204 1.594-.03.42-.196.757-.479 1.055-.352.349-1.168.936-1.007 1.526.748-.396 1.562-.432 2.398-.408.81.024 1.407-.313 1.949-.888.24-.253.929-1.056 1.32-.647.238.238-.457 1.222.306 1.019.508-.133.961-.528 1.422-.78.123-.072.237-.144.335-.215-.602 2.518-1.714 4.845-3.227 6.86l.556.456c2.688-3.43 4.302-7.749 4.302-12.439 0-11.17-9.092-20.225-20.302-20.225zm-7.244 32.17c-.032.213-.33 2.054-.656 4.087-.598-.133-1.193-.358-1.86-.726-.664-.369-1.168-.747-1.591-1.186 1.557-1.355 2.963-2.578 3.137-2.72.42-.357.625-.44.82-.333.192.106.233.332.15.878zm1.106-2.96s-.05-.035-.107-.062c-.054-.024-.094-.047-.099-.06.003.013.005.013.005.013-.953-.527-1.894-.502-2.977.288-1.495 1.076-8.693 7.143-8.693 7.143l2.077 1.76s1.154-1.005 2.569-2.226c.694.61 1.474 1.162 2.352 1.652.87.479 1.76.848 2.643 1.1l-.544 3.363 2.592.826s1.375-9.298 1.505-11.13c.099-1.328-.379-2.141-1.323-2.667zm4.72 14.124h2.728V40.884H31.07v13.283zm10.952-7.791c-.67.368-1.265.58-1.86.714-.321-2.033-.61-3.874-.65-4.087-.079-.546-.04-.76.156-.878.19-.107.4-.024.814.332.18.154 1.587 1.378 3.14 2.732-.426.428-.93.818-1.6 1.187zm-3.508-6.452c-.005.012-.048.036-.106.06-.054.026-.094.05-.094.05-.948.526-1.434 1.338-1.339 2.666.134 1.843 1.491 11.14 1.491 11.14l2.596-.826-.535-3.35c.883-.264 1.772-.633 2.65-1.112.87-.479 1.655-1.043 2.343-1.652 1.415 1.233 2.573 2.25 2.573 2.25l2.078-1.76s-7.19-6.09-8.682-7.166c-1.078-.79-2.024-.815-2.975-.3zm-2.391-4.816c-.23-.203-.72-.646-.97-1.402-.238-.716-.599-1.29-1.203-1.757-1.075-.84-3.62-2.109-3.445-3.822.08-.765 1.006-.922 1.385-1.484.23-.322.262-.765.534-1.066.305-.348-.124-.348-.423-.371-.64-.024-1.118.672-1.65.958-.872.455-1.656 1.103-2.638 1.317-.288.06-1.756.515-.799.756.656.166 1.39.119 1.933.586.698.597 1.265 1.365 1.966 1.963.355.3.701.586.99.957.333.432.29.923.537 1.366.238.43.708.047 1 .288.959.789-.374 1.172-.718 1.544-.45.491-.537.803-1.36 1.136-.364.146-2.726.432-3.014.649-.291.214-.138.286-.063.37.077.085.481.216.662.227.992.096 4.044.67 4.67-.107.427-.538 1.061-.6 1.765-.407.495.131 1.475.036 2.326-.312.492-.203 1.854-.215 1.472-.42-.47-.91-2.12-.202-2.957-.97z" transform="translate(-72.000000, -278.000000) translate(56.000000, 271.000000) translate(16.000000, 7.000000)"/>
                </g>
            </g>
        </g>
    </g>
</svg>
