<svg width="133" height="33" viewBox="0 0 133 33" fill="none" xmlns="http://www.w3.org/2000/svg">
<path d="M96.4559 4.85524C96.4559 4.60336 96.2471 4.39491 95.9947 4.39491H91.4952C91.2428 4.39491 91.0339 4.60336 91.0339 4.85524V12.4551C89.3629 11.4824 87.4309 10.9873 85.229 10.9873C81.9653 10.9873 79.2761 12.0643 77.1613 14.2096C75.0464 16.3202 74.0107 18.9259 74.0107 21.9919C74.0107 25.1014 75.0464 27.7071 77.1613 29.8177C79.2761 31.9283 81.9653 32.9966 85.229 32.9966C87.5875 32.9966 89.6414 32.432 91.3907 31.3289L95.8293 32.9705C96.1252 33.0834 96.4472 32.8576 96.4472 32.5362V4.85524H96.4559ZM89.3542 26.2479C88.2402 27.4031 86.8913 27.9763 85.2464 27.9763C83.5928 27.9763 82.209 27.4031 81.095 26.2479C79.981 25.0579 79.4414 23.6422 79.4414 21.9919C79.4414 20.3417 79.981 18.9259 81.095 17.7707C82.209 16.6242 83.5928 16.051 85.2464 16.051C86.9 16.051 88.2402 16.6242 89.3542 17.7707C90.4682 18.9259 91.0426 20.3417 91.0426 21.9919C91.0426 23.6422 90.4682 25.0666 89.3542 26.2479Z" fill="#1F2C9C"/>
<path d="M52.7841 14.2096C54.8989 12.0643 57.5881 10.9873 60.8518 10.9873C64.1154 10.9873 66.8047 12.0643 68.9195 14.2096C71.0344 16.3202 72.07 18.9259 72.07 21.9919C72.07 25.1014 71.0344 27.7071 68.9195 29.8177C66.8047 31.9283 64.1154 32.9966 60.8518 32.9966C57.5881 32.9966 54.8989 31.9196 52.7841 29.8177C50.6692 27.7071 49.6335 25.1014 49.6335 21.9919C49.6335 18.9259 50.6692 16.3202 52.7841 14.2096ZM60.8518 27.9763C62.5054 27.9763 63.8456 27.4031 64.9596 26.2479C66.0736 25.058 66.648 23.6422 66.648 21.9919C66.648 20.3417 66.0736 18.9259 64.9596 17.7707C63.8456 16.6242 62.4967 16.051 60.8518 16.051C59.1982 16.051 57.8144 16.6242 56.7004 17.7707C55.5864 18.9259 55.0468 20.3417 55.0468 21.9919C55.0468 23.6422 55.5864 25.058 56.7004 26.2479C57.8144 27.4031 59.1982 27.9763 60.8518 27.9763Z" fill="#1F2C9C"/>
<path d="M109.606 14.8784C111.75 14.8784 113.488 13.1441 113.488 11.0046C113.488 8.86521 111.75 7.13086 109.606 7.13086C107.463 7.13086 105.725 8.86521 105.725 11.0046C105.725 13.1441 107.463 14.8784 109.606 14.8784Z" fill="#FFAC06"/>
<path d="M101.53 3.22236C103.645 1.07701 106.334 0 109.598 0C112.861 0 115.55 1.07701 117.665 3.22236C119.78 5.33296 120.816 7.93864 120.816 11.0047C120.816 14.1141 119.78 16.7198 117.665 18.8304C115.55 20.941 112.861 22.0093 109.598 22.0093C106.334 22.0093 103.645 20.9323 101.53 18.8304C99.4149 16.7198 98.3793 14.1141 98.3793 11.0047C98.3793 7.93864 99.4149 5.33296 101.53 3.22236ZM109.598 16.989C111.251 16.989 112.591 16.4158 113.705 15.2606C114.819 14.0707 115.394 12.6549 115.394 11.0047C115.394 9.35439 114.819 7.93864 113.705 6.78345C112.591 5.63695 111.242 5.0637 109.598 5.0637C107.944 5.0637 106.56 5.63695 105.446 6.78345C104.332 7.93864 103.793 9.35439 103.793 11.0047C103.793 12.6549 104.332 14.0707 105.446 15.2606C106.56 16.4071 107.944 16.989 109.598 16.989Z" fill="#1F2C9C"/>
<path d="M22.4365 21.9919C22.4365 18.9259 21.4008 16.3202 19.286 14.2096C17.1711 12.0643 14.4819 10.9873 11.2182 10.9873C7.95459 10.9873 5.26534 12.0643 3.1505 14.2096C1.03566 16.3202 0 18.9259 0 21.9919C0 25.1014 1.03566 27.7071 3.1505 29.8177C5.26534 31.9283 7.95459 32.9966 11.2182 32.9966C13.5768 32.9966 15.6307 32.432 17.38 31.3289L21.8185 32.9705C22.1144 33.0834 22.4365 32.8576 22.4365 32.5362V21.9919ZM11.2182 27.9763C9.56465 27.9763 8.18086 27.4031 7.06687 26.2479C5.95288 25.0579 5.4133 23.6422 5.4133 21.9919C5.4133 20.3417 5.95288 18.9259 7.06687 17.7707C8.18086 16.6242 9.56465 16.051 11.2182 16.051C12.8718 16.051 14.2121 16.6242 15.3261 17.7707C16.4401 18.9259 17.0145 20.3417 17.0145 21.9919C17.0145 23.6422 16.4401 25.0579 15.3261 26.2479C14.2121 27.4031 12.8718 27.9763 11.2182 27.9763Z" fill="#1F2C9C"/>
<path d="M47.7188 21.9919C47.7188 18.9259 46.6832 16.3116 44.5683 14.2096C42.4535 12.0643 39.7642 10.9873 36.5006 10.9873C33.2369 10.9873 30.5477 12.0643 28.4329 14.2096C26.318 16.3202 25.2823 18.9259 25.2823 21.9919V32.5363C25.2823 32.7881 25.4912 32.9966 25.7436 32.9966H30.2344C30.4868 32.9966 30.6957 32.7881 30.6957 32.5363V21.9919C30.6957 20.3417 31.2352 18.9259 32.3492 17.7707C33.4632 16.6242 34.847 16.051 36.5006 16.051C38.1542 16.051 39.4944 16.6242 40.6084 17.7707C41.7224 18.9259 42.2968 20.3417 42.2968 21.9919V32.5363C42.2968 32.7881 42.5057 32.9966 42.7581 32.9966H47.2576C47.51 32.9966 47.7188 32.7881 47.7188 32.5363V21.9919C47.7188 22.0006 47.7188 21.9919 47.7188 21.9919Z" fill="#1F2C9C"/>
<path d="M132.539 17.5102C132.791 17.5102 133 17.3017 133 17.0498V12.9068C133 12.6549 132.791 12.4465 132.539 12.4465H128.248V4.85524C128.248 4.60336 128.039 4.39491 127.787 4.39491H123.192C122.939 4.39491 122.73 4.60336 122.73 4.85524V24.4065C122.748 29.1489 126.612 32.9966 131.364 32.9966C131.373 32.9966 131.381 32.9966 131.381 32.9966C131.381 32.9966 131.39 32.9966 131.399 32.9966C131.703 32.9966 132.182 32.9966 132.53 32.9966C132.782 32.9966 132.991 32.7881 132.991 32.5362V28.428C132.991 28.1761 132.782 27.9676 132.53 27.9676H131.364C129.641 27.9676 128.239 26.5692 128.239 24.8495V17.5015H132.539V17.5102Z" fill="#1F2C9C"/>
</svg>
