<?xml version="1.0" encoding="UTF-8"?> <svg xmlns="http://www.w3.org/2000/svg" xmlns:xlink="http://www.w3.org/1999/xlink" id="Layer_1" data-name="Layer 1" viewBox="0 0 331.88 63.77"><defs><style>.cls-1{fill:url(#linear-gradient);}.cls-2{fill:url(#linear-gradient-2);}.cls-3{fill:url(#linear-gradient-3);}.cls-4{fill:none;}.cls-5{clip-path:url(#clip-path);}.cls-6{mask:url(#mask);}.cls-7{fill:url(#linear-gradient-4);}.cls-8{clip-path:url(#clip-path-2);}.cls-9{fill:#3676bb;}.cls-10{clip-path:url(#clip-path-3);}.cls-11{mask:url(#mask-2);}.cls-12{fill:url(#linear-gradient-5);}.cls-13{clip-path:url(#clip-path-4);}.cls-14{mask:url(#mask-3);}.cls-15{fill:url(#linear-gradient-6);}</style><linearGradient id="linear-gradient" x1="-760.56" y1="631.3" x2="-758.7" y2="631.3" gradientTransform="matrix(0, 28.43, 28.43, 0, -17915.2, 21627.67)" gradientUnits="userSpaceOnUse"><stop offset="0" stop-color="#fff"></stop><stop offset="1" stop-color="#fff"></stop></linearGradient><linearGradient id="linear-gradient-2" x1="-727.67" y1="641.94" x2="-725.8" y2="641.94" gradientTransform="matrix(0, 12.66, 12.66, 0, -8080.25, 9209.42)" xlink:href="#linear-gradient"></linearGradient><linearGradient id="linear-gradient-3" x1="-750.91" y1="628.94" x2="-736.66" y2="628.94" gradientTransform="matrix(0, 28.43, 28.43, 0, -17609.98, 21563.91)" xlink:href="#linear-gradient"></linearGradient><clipPath id="clip-path"><path class="cls-4" d="M5.17,31.27a26.51,26.51,0,0,0,53,.48v-.48H44.36c0,.13,0,.26,0,.45a12.69,12.69,0,1,1-17.7-12.11,12.56,12.56,0,0,1,5-1V4.76A26.51,26.51,0,0,0,5.17,31.27"></path></clipPath><mask id="mask" x="-21.07" y="-21.48" width="105.49" height="105.49" maskUnits="userSpaceOnUse"><rect class="cls-1" x="-5.72" y="-6.13" width="74.78" height="74.78" transform="translate(-12.74 28.37) rotate(-40.9)"></rect></mask><linearGradient id="linear-gradient-4" x1="-760.56" y1="631.3" x2="-758.7" y2="631.3" gradientTransform="matrix(0, 28.43, 28.43, 0, -17915.2, 21627.67)" gradientUnits="userSpaceOnUse"><stop offset="0" stop-color="#5ebca5"></stop><stop offset="1" stop-color="#3676bb"></stop></linearGradient><clipPath id="clip-path-2"><rect class="cls-4" x="4.99" y="4.57" width="321.89" height="54.63"></rect></clipPath><clipPath id="clip-path-3"><polygon class="cls-4" points="35.17 4.75 35.17 18.57 44.35 18.57 44.35 27.76 58.17 27.76 58.17 4.75 35.17 4.75"></polygon></clipPath><mask id="mask-2" x="24.04" y="-6.38" width="45.26" height="45.26" maskUnits="userSpaceOnUse"><rect class="cls-2" x="30.54" y="0.12" width="32.27" height="32.27" transform="matrix(0.61, -0.79, 0.79, 0.61, 5.29, 43.26)"></rect></mask><linearGradient id="linear-gradient-5" x1="-727.67" y1="641.94" x2="-725.8" y2="641.94" gradientTransform="matrix(0, 12.66, 12.66, 0, -8080.25, 9209.42)" xlink:href="#linear-gradient-4"></linearGradient><clipPath id="clip-path-4"><path class="cls-4" d="M67.33,408.77c.06,111.85,90.78,202.46,202.61,202.41,110.36-.08,200.34-88.46,202.36-198.8v-3.63H366.75c0,1,0,2-.09,3.44a96.93,96.93,0,1,1-96.94-100.45V206.16c-111.84.06-202.45,90.78-202.39,202.61"></path></clipPath><mask id="mask-3" x="-133.19" y="5.72" width="805.95" height="805.95" maskUnits="userSpaceOnUse"><rect class="cls-3" x="-15.89" y="123.01" width="571.36" height="571.36" transform="translate(-201.71 276.39) rotate(-40.9)"></rect></mask><linearGradient id="linear-gradient-6" x1="-750.91" y1="628.94" x2="-736.66" y2="628.94" gradientTransform="matrix(0, 28.43, 28.43, 0, -17609.98, 21563.91)" xlink:href="#linear-gradient-4"></linearGradient></defs><g class="cls-5"><g class="cls-6"><rect class="cls-7" x="-5.72" y="-6.13" width="74.78" height="74.78" transform="translate(-12.74 28.37) rotate(-40.9)"></rect></g></g><g class="cls-8"><path class="cls-9" d="M107.13,37.71a1.41,1.41,0,0,1,.52-1,1.48,1.48,0,0,1,.92-.33h4a1.44,1.44,0,0,1,1,.38,1.11,1.11,0,0,1,.37,1,12.9,12.9,0,0,1-1,4.14,10.71,10.71,0,0,1-2.67,3.72,14.07,14.07,0,0,1-4.53,2.73,18.16,18.16,0,0,1-6.63,1,16.62,16.62,0,0,1-6.08-1,12.51,12.51,0,0,1-7.36-7.27,18,18,0,0,1-1.22-5.6c-.07-1.27-.1-2.68-.1-4.23s0-3,.1-4.23a17.83,17.83,0,0,1,1.22-5.59A12.51,12.51,0,0,1,93,14.17a16.44,16.44,0,0,1,6.09-1,18.13,18.13,0,0,1,6.63,1.08,14,14,0,0,1,4.53,2.72,10.58,10.58,0,0,1,2.66,3.75,13.21,13.21,0,0,1,1,4.11,1.13,1.13,0,0,1-.38,1,1.39,1.39,0,0,1-1,.38h-4a1.56,1.56,0,0,1-1-.33,1.37,1.37,0,0,1-.54-1,5.68,5.68,0,0,0-.7-2,5.9,5.9,0,0,0-1.5-1.72,7.78,7.78,0,0,0-2.39-1.24,10.86,10.86,0,0,0-3.39-.48,8.73,8.73,0,0,0-3.39.6,7.1,7.1,0,0,0-2.42,1.62,6.81,6.81,0,0,0-1.49,2.42,10,10,0,0,0-.63,3c-.06,1.27-.1,2.68-.1,4.23s0,3,.1,4.23a10.23,10.23,0,0,0,.63,3,6.69,6.69,0,0,0,1.49,2.39,7.1,7.1,0,0,0,2.42,1.62,8.73,8.73,0,0,0,3.39.6,10.86,10.86,0,0,0,3.39-.48,8.2,8.2,0,0,0,2.41-1.23,5.91,5.91,0,0,0,1.52-1.71,5.62,5.62,0,0,0,.72-2"></path><path class="cls-9" d="M143,42.61A1.37,1.37,0,0,1,144.29,44v3.58a1.27,1.27,0,0,1-.4,1,1.29,1.29,0,0,1-.94.41H121.12a1.38,1.38,0,0,1-1.35-1.36V15a1.37,1.37,0,0,1,1.35-1.36h4A1.4,1.4,0,0,1,126.49,15V42.61Z"></path><path class="cls-9" d="M169.91,27a7.93,7.93,0,0,0-2.31-5.62,7.92,7.92,0,0,0-5.62-2,7.83,7.83,0,0,0-5.6,2A7.93,7.93,0,0,0,154.06,27c-.07,1.27-.1,2.69-.1,4.26s0,3,.1,4.25a7.85,7.85,0,0,0,2.32,5.6,9,9,0,0,0,11.21,0,7.87,7.87,0,0,0,2.32-5.59c.06-1.27.1-2.69.1-4.25s0-3-.1-4.27m-22.58-.25a18.24,18.24,0,0,1,1.07-5.32,12.17,12.17,0,0,1,2.72-4.33,12.82,12.82,0,0,1,4.48-2.92,19.39,19.39,0,0,1,12.72,0,12.38,12.38,0,0,1,4.48,2.92,13,13,0,0,1,2.75,4.33,17.52,17.52,0,0,1,1.09,5.35c0,.63.06,1.34.08,2.11s0,1.57,0,2.4,0,1.62,0,2.39-.05,1.48-.08,2.12a18.24,18.24,0,0,1-1.07,5.31,12.3,12.3,0,0,1-2.72,4.34,12.73,12.73,0,0,1-4.51,2.89,19.68,19.68,0,0,1-12.73,0,12.56,12.56,0,0,1-4.49-2.89,12.28,12.28,0,0,1-2.71-4.34,17.93,17.93,0,0,1-1.08-5.31c0-.64-.05-1.35-.07-2.12s0-1.57,0-2.39,0-1.62,0-2.4,0-1.48.07-2.11"></path><path class="cls-9" d="M210.18,13.64a1.25,1.25,0,0,1,.95.4,1.33,1.33,0,0,1,.4,1V35.66a16.7,16.7,0,0,1-.9,5.64,11.57,11.57,0,0,1-2.69,4.33,11.91,11.91,0,0,1-4.5,2.82,20.46,20.46,0,0,1-12.48,0,12,12,0,0,1-4.46-2.8,11.22,11.22,0,0,1-2.66-4.36,17.19,17.19,0,0,1-.88-5.64V15a1.32,1.32,0,0,1,.39-1,1.25,1.25,0,0,1,.94-.4h4.07a1.26,1.26,0,0,1,.94.4,1.29,1.29,0,0,1,.4,1V35.39a10.11,10.11,0,0,0,.55,3.53,6,6,0,0,0,1.55,2.39,5.76,5.76,0,0,0,2.39,1.36,10.07,10.07,0,0,0,3,.43,10.24,10.24,0,0,0,3.06-.43,5.88,5.88,0,0,0,2.42-1.36,6.59,6.59,0,0,0,1.57-2.39,9.86,9.86,0,0,0,.57-3.53V15a1.29,1.29,0,0,1,.4-1,1.25,1.25,0,0,1,.94-.4Z"></path><path class="cls-9" d="M240.87,27.54a10.36,10.36,0,0,0-.63-3,6.81,6.81,0,0,0-1.54-2.41,7.14,7.14,0,0,0-2.57-1.62,10.72,10.72,0,0,0-3.69-.58h-6.67V42.61h6.93a9.87,9.87,0,0,0,3.53-.58,7.11,7.11,0,0,0,2.51-1.59A6.8,6.8,0,0,0,240.26,38a10.75,10.75,0,0,0,.62-3,71.4,71.4,0,0,0,0-7.46m-8.17-13.9a18.58,18.58,0,0,1,6.4,1,11.75,11.75,0,0,1,7.32,7.18,19.7,19.7,0,0,1,1.18,5.72,71.4,71.4,0,0,1,0,7.46,19.69,19.69,0,0,1-1.18,5.73,12.33,12.33,0,0,1-2.76,4.38,12,12,0,0,1-4.46,2.8,18.23,18.23,0,0,1-6.26,1H220.39a1.31,1.31,0,0,1-.95-.4,1.29,1.29,0,0,1-.4-1V15a1.33,1.33,0,0,1,.4-1,1.27,1.27,0,0,1,.95-.4Z"></path><path class="cls-9" d="M276.74,13.64a1.27,1.27,0,0,1,.95.4,1.33,1.33,0,0,1,.4,1v3.58a1.32,1.32,0,0,1-.4,1,1.27,1.27,0,0,1-.95.4H260.85v9.78h14.9a1.31,1.31,0,0,1,.95.4,1.33,1.33,0,0,1,.4,1v3.58a1.33,1.33,0,0,1-.4,1,1.31,1.31,0,0,1-.95.4h-14.9V47.55a1.37,1.37,0,0,1-1.34,1.36h-4a1.31,1.31,0,0,1-.95-.4,1.33,1.33,0,0,1-.4-1V15a1.31,1.31,0,0,1,.4-1,1.27,1.27,0,0,1,.95-.4Z"></path><path class="cls-9" d="M285.22,48.9a1.27,1.27,0,0,1-1-.4,1.31,1.31,0,0,1-.4-1V15a1.33,1.33,0,0,1,.39-.94,1.25,1.25,0,0,1,.94-.4h4.07a1.25,1.25,0,0,1,.94.4,1.33,1.33,0,0,1,.4,1V47.56a1.37,1.37,0,0,1-1.34,1.36Z"></path><path class="cls-9" d="M321,48.9a1.8,1.8,0,0,1-1.43-.5c-.3-.33-.52-.59-.65-.76L311,36.51l-7.88,11.13c-.13.17-.35.43-.64.76a1.82,1.82,0,0,1-1.43.5h-4.22a1.27,1.27,0,0,1-.95-.4,1.31,1.31,0,0,1-.4-1,1.21,1.21,0,0,1,.16-.56L307,30.91,296.08,15.54a1.25,1.25,0,0,1,.25-1.51,1.31,1.31,0,0,1,.95-.4h4.18a1.87,1.87,0,0,1,1.44.5c.29.34.51.59.64.76l7.55,10.66,7.48-10.64.65-.76a1.83,1.83,0,0,1,1.43-.49h4.18a1.25,1.25,0,0,1,.95.4,1.31,1.31,0,0,1,.4.95,1.33,1.33,0,0,1-.15.56L315,31.12,326.34,47a1.33,1.33,0,0,1,.15.56,1.31,1.31,0,0,1-.4,1,1.25,1.25,0,0,1-.95.4Z"></path></g><g class="cls-10"><g class="cls-11"><rect class="cls-12" x="30.54" y="0.12" width="32.27" height="32.27" transform="translate(5.29 43.26) rotate(-52.33)"></rect></g></g><g class="cls-13"><g class="cls-14"><rect class="cls-15" x="-15.89" y="123.01" width="571.36" height="571.36" transform="translate(-201.71 276.39) rotate(-40.9)"></rect></g></g></svg> 