<svg id="Layer_1" data-name="Layer 1" xmlns="http://www.w3.org/2000/svg" xmlns:xlink="http://www.w3.org/1999/xlink" viewBox="0 0 401.95 90"><defs><style>.cls-1{fill:url(#New_Gradient_Swatch_copy_6);}.cls-2{fill:url(#New_Gradient_Swatch_copy_6-2);}.cls-3{fill:url(#New_Gradient_Swatch_copy_6-3);}.cls-4{fill:url(#New_Gradient_Swatch_copy_6-4);}.cls-5{fill:#58595b;}</style><radialGradient id="New_Gradient_Swatch_copy_6" cx="59.13" cy="51.35" r="16.15" gradientUnits="userSpaceOnUse"><stop offset="0" stop-color="#26a9e0"/><stop offset="1" stop-color="#2b388f"/></radialGradient><radialGradient id="New_Gradient_Swatch_copy_6-2" cx="86.55" cy="58.02" r="16.53" xlink:href="#New_Gradient_Swatch_copy_6"/><radialGradient id="New_Gradient_Swatch_copy_6-3" cx="75.38" cy="39.02" r="53.3" xlink:href="#New_Gradient_Swatch_copy_6"/><radialGradient id="New_Gradient_Swatch_copy_6-4" cx="165.98" cy="51.7" r="20.23" xlink:href="#New_Gradient_Swatch_copy_6"/></defs><rect class="cls-1" x="55.23" y="28.85" width="7.79" height="45"/><path class="cls-2" d="M86.45,41.48C76.34,41.48,70,48.93,70,58s6.18,16.53,16.49,16.53,16.54-7.4,16.54-16.53S96.56,41.48,86.45,41.48Zm.07,25.87c-5.74,0-8.62-4.5-8.62-9.33s2.95-9.41,8.62-9.41c5.28,0,8.62,4.64,8.62,9.41S92.24,67.35,86.52,67.35Z"/><path class="cls-3" d="M133.89,58.34c0,4.83-3.28,8.88-8.11,8.88-5,0-7.66-3.67-7.66-8.5,0,0,.4-15.22.4-16.6A20.24,20.24,0,0,0,98.31,21.91a18.87,18.87,0,0,0-2.73.19c-.16-.33-.3-.65-.46-1A31.85,31.85,0,0,0,35.38,28,24,24,0,0,0,33,27.89c-16.29,0-23.95,12-23.89,23.75S16.23,74.88,33,74.88a23.72,23.72,0,0,0,17.12-6.7L44.3,62.33A16.61,16.61,0,0,1,33,66.9c-11.14,0-15.46-7.79-15.52-15.26S22.09,36,33,36c.55,0,1.11,0,1.66.08a15.33,15.33,0,0,1,8.48,3.5A23,23,0,0,1,42.66,35a24.29,24.29,0,0,1,.48-4.78,23.8,23.8,0,0,1,44.33-6.41q.25.48.48,1a23.3,23.3,0,0,1,2.09,7q.09.63.15,1.26a2.68,2.68,0,0,1,.3-.28A12.1,12.1,0,0,1,97.9,30h.41a12.17,12.17,0,0,1,12,9.94V58.79c0,9.85,5.55,15.58,13.14,15.58,4.44,0,7.47-1.55,10.75-4.77l.51,4.31h7V42.11h-7.79Z"/><path class="cls-4" d="M175.34,28.85V46.43c-1.86-3.29-7.08-5.1-10.43-5.1-9.26,0-16.15,5.67-16.15,16.61,0,10.43,7,16.61,16.35,16.61,3.86,0,7.79-1.27,10.23-5.08l.52,4.38h7.33v-45Zm-9.72,38.43c-5,0-9-3.79-9-9.34,0-5.72,4-9.26,9-9.26a9.3,9.3,0,0,1,0,18.6Z"/><path class="cls-5" d="M188.07,29.1h9.2V47.53L214.55,29.1h12.07L208.27,47.49l19.3,26.34h-12L201.77,54.3l-4.5,4.57v15h-9.2Z"/><path class="cls-5" d="M253.66,41.42a13.56,13.56,0,0,1,5.71,4.89A16.35,16.35,0,0,1,262,53.15a43.16,43.16,0,0,1,.28,6.57H238.2q.21,5,3.46,7a8.78,8.78,0,0,0,4.77,1.24,7.32,7.32,0,0,0,4.8-1.52A7.14,7.14,0,0,0,253,64.15h8.83a10.79,10.79,0,0,1-3.21,6q-4.44,4.82-12.44,4.82a18,18,0,0,1-11.65-4.07q-5.06-4.06-5-13.24,0-8.6,4.56-13.18a15.94,15.94,0,0,1,11.83-4.59A18.93,18.93,0,0,1,253.66,41.42Zm-12.94,7.47A9,9,0,0,0,238.41,54h14.9a7.16,7.16,0,0,0-2.3-5.22A7.58,7.58,0,0,0,245.88,47,6.85,6.85,0,0,0,240.72,48.89Z"/><path class="cls-5" d="M288.22,41.42a13.56,13.56,0,0,1,5.71,4.89,16.22,16.22,0,0,1,2.64,6.84,41.88,41.88,0,0,1,.28,6.57H272.76q.21,5,3.46,7A8.78,8.78,0,0,0,281,67.94a7.32,7.32,0,0,0,4.8-1.52,7.14,7.14,0,0,0,1.78-2.27h8.83a10.83,10.83,0,0,1-3.2,6c-3,3.21-7.11,4.82-12.45,4.82a18.06,18.06,0,0,1-11.65-4.07q-5-4.06-5.05-13.24,0-8.6,4.56-13.18a15.94,15.94,0,0,1,11.83-4.59A18.89,18.89,0,0,1,288.22,41.42Zm-12.94,7.47A9,9,0,0,0,273,54h14.9a7.2,7.2,0,0,0-2.31-5.22A7.58,7.58,0,0,0,280.44,47,6.85,6.85,0,0,0,275.28,48.89Z"/><path class="cls-5" d="M329,44.3q4.05,4.28,4,12.56,0,8.74-4,13.33A12.84,12.84,0,0,1,319,74.77a10.71,10.71,0,0,1-6.6-2,12.74,12.74,0,0,1-2.81-3.19V86.84H301V40.75h8.29v4.89a13.7,13.7,0,0,1,3-3.4,11,11,0,0,1,6.9-2.22A13.09,13.09,0,0,1,329,44.3Zm-6.63,6.22a6.17,6.17,0,0,0-5.72-2.94A6.5,6.5,0,0,0,310.16,52a16.62,16.62,0,0,0-.92,6q0,5.76,3.09,8.1a7.12,7.12,0,0,0,4.36,1.37,6.31,6.31,0,0,0,5.56-2.8,12.89,12.89,0,0,0,1.92-7.43A13,13,0,0,0,322.41,50.52Z"/><path class="cls-5" d="M360.74,41.42a13.59,13.59,0,0,1,5.72,4.89,16.34,16.34,0,0,1,2.63,6.84,41.64,41.64,0,0,1,.29,6.57H345.29q.19,5,3.46,7a8.77,8.77,0,0,0,4.76,1.24,6.73,6.73,0,0,0,6.59-3.79h8.83a10.92,10.92,0,0,1-3.21,6q-4.44,4.82-12.44,4.82a18,18,0,0,1-11.65-4.07q-5.06-4.06-5.05-13.24,0-8.6,4.55-13.18A16,16,0,0,1,353,39.87,18.89,18.89,0,0,1,360.74,41.42ZM347.8,48.89A9,9,0,0,0,345.5,54h14.9a7.24,7.24,0,0,0-2.3-5.22A7.58,7.58,0,0,0,353,47,6.89,6.89,0,0,0,347.8,48.89Z"/><path class="cls-5" d="M392.12,40l.75,0v8.86c-.55-.06-1-.1-1.46-.12l-1,0c-3.48,0-5.82,1.14-7,3.4a13.22,13.22,0,0,0-1,5.89V73.83h-8.71V40.75h8.25v5.77A18.14,18.14,0,0,1,385.4,42a9.5,9.5,0,0,1,6.32-2Z"/></svg>