<svg width="1555" height="658" xmlns="http://www.w3.org/2000/svg" xmlns:xlink="http://www.w3.org/1999/xlink" overflow="hidden"><defs><clipPath id="clip0"><rect x="2009" y="1782" width="1555" height="658"/></clipPath></defs><g clip-path="url(#clip0)" transform="translate(-2009 -1782)"><path d="M3304.55 2436.62C3289.93 2431.44 3276.2 2420.64 3270.13 2408.04 3264.73 2396.57 3265.85 2371.59 3265.63 2257.28L3265.63 1782.7 3327.51 1782.7C3327.51 1782.7 3505.72 1781.12 3513.37 1782.7 3540.15 1788.55 3564 1819.15 3564 1846.38 3564 1861.23 3554.1 1881.49 3541.95 1891.39 3523.72 1906.46 3519.45 1908.04 3466.57 1909.61L3390.06 1909.61 3390.06 2259.08C3390.06 2376.31 3391.19 2401.52 3386.01 2411.42 3381.06 2420.64 3369.13 2430.54 3357.66 2434.82 3344.61 2440.9 3319.18 2441.8 3304.55 2436.62ZM3133.77 2434.15C3126.79 2430.99 3117.56 2424.24 3113.29 2419.29 3096.86 2400.62 3097.54 2377.44 3097.54 2211.37 3097.54 2049.35 3097.09 2026.63 3111.26 2008.17 3114.86 2003.45 3123.19 1996.47 3129.49 1992.65 3139.84 1986.57 3143.89 1985.67 3161.44 1985.67 3179.67 1985.67 3182.82 1986.35 3193.85 1993.32 3210.27 2003.45 3219.72 2017.85 3222.65 2037.65 3224.22 2047.1 3224.45 2053.85 3224.45 2222.62 3224.45 2377.66 3224.67 2400.62 3208.7 2419.74 3192.27 2439.32 3158.74 2445.62 3133.77 2434.15ZM2874.77 2313.98C2900.2 2305.43 2923.37 2286.75 2935.53 2265.38 2949.25 2241.07 2953.08 2205.3 2944.75 2179.87 2922.25 2111.69 2840.57 2083.78 2781.84 2124.29 2755.06 2142.51 2739.08 2171.99 2736.83 2206.2 2733.68 2255.7 2764.06 2299.36 2812.44 2314.66 2827.07 2319.16 2860.59 2318.93 2874.77 2313.98ZM2807.49 2437.07C2746.29 2426.49 2695.43 2395.67 2659.43 2347.06 2630.18 2307.46 2616 2263.8 2616 2212.05 2616 2107.63 2680.35 2023.7 2783.86 1992.87 2804.79 1986.57 2853.62 1984.32 2878.82 1988.15 2963.65 2001.42 3034.76 2063.53 3060.41 2147.01 3073.46 2193.37 3073.91 2233.42 3060.41 2276.85 3036.33 2355.16 2976.03 2412.99 2897.72 2433.02 2872.52 2439.55 2832.47 2441.35 2807.49 2437.07ZM3224.22 1783.15 3195.42 1783.15C3195.42 1783.15 3156.27 1782.7 3148.62 1784.28 3121.84 1790.13 3097.99 1820.73 3097.99 1847.96 3097.99 1862.81 3102.26 1896.11 3148.62 1910.74 3148.84 1910.96 3195.42 1910.74 3195.42 1910.74L3224.22 1910.74 3224.22 1783.15Z" fill="#34A5DD" fill-rule="evenodd"/><path d="M2290.88 2311.04C2366.08 2304.75 2424.39 2267.87 2455.23 2206.94 2485.85 2146.23 2483.59 2060.78 2450.05 2000.3 2436.54 1975.79 2403.67 1944.09 2378.23 1931.04 2341.09 1911.71 2330.73 1908.56 2252.61 1908.78L2136.22 1907.66 2136.22 2312.17C2138.69 2314.19 2257.56 2313.74 2290.88 2311.04ZM2053.59 2436.51C2047.06 2434.04 2037.16 2427.29 2029.73 2419.65 2007.67 2397.39 2009.02 2417.85 2009.02 2115.42 2009.02 1827.39 2008.79 1835.03 2022.97 1815.02 2032.2 1802.2 2049.09 1791.41 2065.52 1787.81 2082.18 1784.22 2264.32 1783.99 2301.46 1787.59 2442.62 1800.85 2558.11 1898.89 2592.33 2034.7 2632.86 2194.8 2542.58 2362.53 2384.99 2420.55 2339.29 2437.19 2278.5 2438.76 2166.38 2439.43 2125.86 2438.98 2078.13 2442.36 2053.59 2436.51Z" fill="#34A5DD" fill-rule="evenodd"/></g></svg>