<?xml version="1.0" encoding="utf-8"?>
<!-- Generator: Adobe Illustrator 26.2.1, SVG Export Plug-In . SVG Version: 6.00 Build 0)  -->
<svg version="1.1" xmlns="http://www.w3.org/2000/svg" xmlns:xlink="http://www.w3.org/1999/xlink" x="0px" y="0px"
	 viewBox="0 0 680 180" style="enable-background:new 0 0 680 180;" xml:space="preserve">
<style type="text/css">
	.st0{fill:#482580;}
</style>
<g id="Logo-04">
</g>
<g id="Logo-03">
</g>
<g id="Logo-02">
	<g>
		<g>
			<path class="st0" d="M61.98,67.81c8.81-7.43,21.04-8.67,31.02-4.02L73.28,82.05c-2.84,2.63-4.06,6.58-3.2,10.36
				c0.86,3.78,3.67,6.81,7.37,7.95c3.7,1.14,7.73,0.23,10.57-2.41l19.74-18.29l15.66-14.51c-1.8-3.09-3.95-6.04-6.48-8.77
				c-18.57-20.04-49.87-21.23-69.91-2.66c-17.31,16.04-20.54,41.56-9.14,61.14l6.8-6.3c4.69-4.35,7.37-10.53,7.01-16.92
				C51.2,82.88,54.66,73.97,61.98,67.81z"/>
			<path class="st0" d="M100.36,111.28c-6.53,6.05-15.09,8.52-23.28,7.51c-6.44-0.8-12.9,1.26-17.66,5.67l-6.8,6.3
				c18.65,12.85,44.35,11.56,61.65-4.47c10.52-9.74,15.83-22.99,15.83-36.28h-20.46C109.65,97.8,106.53,105.56,100.36,111.28z"/>
			<path class="st0" d="M533.13,40.54c-27.32,0-49.46,22.15-49.46,49.46c0,27.32,22.15,49.46,49.46,49.46
				c27.32,0,49.46-22.15,49.46-49.46C582.6,62.68,560.45,40.54,533.13,40.54z M533.13,119c-16.01,0-29-12.98-29-29
				c0-16.01,12.98-29,29-29c16.01,0,29,12.98,29,29C562.13,106.01,549.15,119,533.13,119z"/>
			<rect x="368.92" y="40.54" class="st0" width="20.46" height="98.93"/>
			<path class="st0" d="M196.32,40.54c-27.32,0-49.46,22.15-49.46,49.46c0,0,0,0,0,0h0v49.46h20.46V90h0.01c0,0,0,0,0,0
				c0-16.01,12.98-29,29-29c16.01,0,29,12.98,29,29c0,0,0,0,0,0v49.46h20.46V90h0.01c0,0,0,0,0,0
				C245.78,62.68,223.64,40.54,196.32,40.54z"/>
			<path class="st0" d="M648.81,40.54c-27.32,0-49.46,22.15-49.46,49.46v49.46h20.47V90c0-16.01,12.98-29,29-29h0L648.81,40.54
				L648.81,40.54z"/>
			<polygon class="st0" points="300.43,119.61 270.61,40.54 248.75,40.54 286.05,139.46 303.54,139.46 307.91,139.46 314.81,139.46 
				352.11,40.54 330.24,40.54 			"/>
			<path class="st0" d="M436.52,60.46c5.48,0,9.93,4.33,9.93,9.66h20.47c0-16.34-13.61-29.58-30.4-29.58
				c-16.79,0-30.4,13.25-30.4,29.58c0,16.34,13.61,29.58,30.4,29.58c5.48,0,9.93,4.33,9.93,9.66s-4.44,9.66-9.93,9.66
				c-5.48,0-9.93-4.33-9.93-9.66h-20.47c0,16.34,13.61,29.58,30.4,29.58c16.79,0,30.4-13.25,30.4-29.58
				c0-16.34-13.61-29.58-30.4-29.58c-5.48,0-9.93-4.33-9.93-9.66C426.6,64.78,431.04,60.46,436.52,60.46z"/>
		</g>
	</g>
</g>
<g id="Logo-01">
</g>
<g id="HQ">
</g>
</svg>
