<?xml version="1.0" encoding="utf-8"?>
<!-- Generator: Adobe Illustrator 26.1.0, SVG Export Plug-In . SVG Version: 6.00 Build 0)  -->
<svg version="1.1" id="Layer_1" xmlns="http://www.w3.org/2000/svg" xmlns:xlink="http://www.w3.org/1999/xlink" x="0px" y="0px"
	 viewBox="0 0 383 192.5" style="enable-background:new 0 0 383 192.5;" xml:space="preserve">
<g>
	<rect x="30" y="151.9" width="62.2" height="8.9"/>
	<rect x="30" y="135" width="62.2" height="8.9"/>
	<rect x="47.8" y="118" width="26.7" height="8.9"/>
	<rect x="47.8" y="101" width="26.7" height="8.9"/>
	<rect x="47.8" y="84.1" width="26.7" height="8.9"/>
	<rect x="47.8" y="67.1" width="26.7" height="8.9"/>
	<rect x="30" y="50.1" width="62.2" height="8.9"/>
	<rect x="30" y="33.2" width="62.2" height="8.9"/>
	<path d="M101.1,143.9H196c1.6-2.8,2.8-5.8,3.6-8.9h-98.4v8.9H101.1z"/>
	<path d="M188.5,101h-69.6v8.9H196C194,106.6,191.5,103.6,188.5,101z"/>
	<path d="M118.9,84.1V93h69.6c3-2.5,5.5-5.5,7.4-8.9H118.9z"/>
	<path d="M196,50.1h-94.8V59h98.4C198.8,55.9,197.6,52.9,196,50.1z"/>
	<path d="M166.6,33.2h-65.5v8.9h88.4C183.2,36.3,175,33.2,166.6,33.2z"/>
	<rect x="118.9" y="67.1" width="26.7" height="8.9"/>
	<path d="M170.6,76h28.7c0.8-2.9,1.2-5.9,1.2-8.9h-29.9L170.6,76L170.6,76z"/>
	<rect x="118.9" y="118" width="26.7" height="8.9"/>
	<path d="M170.6,118v8.9h29.9c0-3-0.4-6-1.2-8.9H170.6z"/>
	<path d="M101.1,160.8l65.5,0.1c8.5,0,16.7-3.2,22.9-8.9h-88.4V160.8z"/>
	<polygon points="278.9,160.8 282,151.9 275.8,151.9 	"/>
	<polygon points="273,143.9 284.8,143.9 287.9,135 269.8,135 	"/>
	<polygon points="267,126.9 290.8,126.9 293.9,118 263.9,118 	"/>
	<polygon points="261,109.9 296.7,109.9 299.9,101 257.9,101 	"/>
	<polygon points="225.6,76 273.6,76 270.5,67.1 225.6,67.1 	"/>
	<polygon points="290.1,59 350,59 350,50.1 293.2,50.1 	"/>
	<polygon points="299.1,33.2 296,42.1 350,42.1 350,33.2 	"/>
	<rect x="207.8" y="151.9" width="44.4" height="8.9"/>
	<rect x="207.8" y="135" width="44.4" height="8.9"/>
	<rect x="225.6" y="118" width="26.7" height="8.9"/>
	<rect x="225.6" y="101" width="26.7" height="8.9"/>
	<polygon points="332.2,67.1 287.3,67.1 284.2,76 332.2,76 	"/>
	<polygon points="305.6,93 332.2,93 332.2,84.1 305.6,84.1 305.6,84.1 281.4,84.1 278.9,91.3 276.4,84.1 252.2,84.1 225.6,84.1 
		225.6,93 252.2,93 252.2,84.8 255.1,93 302.7,93 305.6,84.8 	"/>
	<rect x="305.6" y="101" width="26.7" height="8.9"/>
	<rect x="305.6" y="118" width="26.7" height="8.9"/>
	<rect x="305.6" y="135" width="44.4" height="8.9"/>
	<rect x="305.6" y="151.9" width="44.4" height="8.9"/>
	<polygon points="267.7,59 264.6,50.1 207.8,50.1 207.8,59 	"/>
	<polygon points="261.8,42.1 258.7,33.2 207.8,33.2 207.8,42.1 	"/>
</g>
</svg>
