<?xml version="1.0" encoding="UTF-8"?>
<svg width="125.74" height="40" version="1.1" viewBox="0 0 125.74 40" xmlns="http://www.w3.org/2000/svg">
<title>Kyndryl logo</title>
 <path d="M120,0V30h-3.518V0ZM48.854,9.537a5.575,5.575,0,0,0-5.9,4.993h-.172V10H39.26V30h3.519V17.544c0-3.368,1.793-4.911,4.8-4.911,3.442,0,4.981,1.706,4.981,5.09V30h3.518V17.264C56.074,12.489,53.374,9.537,48.854,9.537ZM27.323,29.462h-.115L21.1,10H17.454l6.465,20h3.237l-3.3,10H27.37l9.684-30H33.409Zm77.222,0h-.115L98.322,10H94.675l6.465,20h3.237l-3.3,10h3.511l9.684-30h-3.646ZM7.325,20l8.684-10H11.73l-8.1,9.652H3.519V0H0V30H3.519V20.185H6.862L13.624,30H17.7l-7-10Zm79.021-5.468h-.171V10H82.656V30h3.519V17.508c0-3.368,1.91-4.6,5.184-4.6a9.471,9.471,0,0,1,2.181.234v-3.4a5.152,5.152,0,0,0-1.669-.212A5.4,5.4,0,0,0,86.346,14.532ZM74.617,0h3.518V30H74.617V25.47h-.17c-.337,2.791-2.478,4.993-6.536,4.993-4.951,0-8.469-3.928-8.469-10.463S62.959,9.537,67.911,9.537c4.058,0,6.2,2.2,6.536,4.993h.17Zm0,17.358c0-3.368-2.542-4.726-5.695-4.726-3.324,0-5.81,2.068-5.81,7.368s2.486,7.368,5.81,7.368c3.153,0,5.695-1.358,5.695-4.726V17.358Zm46.956,10.529v.237h.639V30h.3V28.125h.639v-.237Zm3.52,0-.525,2.084h-.006l-.5-2.084h-.579L123.422,30h.283l.063-2.084h.006L124.293,30h.528l.551-2.084h.006L125.44,30h.3l-.069-2.112h-.577Z" fill="#ff462d"/>
</svg>
