<?xml version="1.0" encoding="utf-8"?>
<!-- Generator: Adobe Illustrator 24.0.1, SVG Export Plug-In . SVG Version: 6.00 Build 0)  -->
<svg version="1.1" id="Layer_1" xmlns="http://www.w3.org/2000/svg" xmlns:xlink="http://www.w3.org/1999/xlink" x="0px" y="0px"
	 viewBox="7.97761 265.04379 1281.68506 264.71506" enable-background="new 7.97761 265.04379 1281.68506 264.71506"
	 xml:space="preserve">
<g>
	<path fill="#3DB5E6" d="M406.03391,390.47296v54.68875c0,6.5029-5.32104,10.19818-10.64212,10.19818
		c-4.7298,0-8.86838-3.69534-8.86838-10.19818v-83.21558c0-7.68533,6.50348-10.19821,8.86838-10.19821
		c4.28653,0,6.79938,2.51282,9.31223,5.32043l32.51688,43.89871l33.7005-45.52502
		c4.87717-6.05896,16.84964-3.69412,16.84964,6.50412v83.21555c0,6.5029-4.13861,10.19818-8.86838,10.19818
		c-5.32108,0-9.45966-3.69534-9.45966-10.19818v-54.68875l-24.53561,31.03967c-5.32166,6.50287-11.9725,6.50287-16.85028,0
		L406.03391,390.47296z"/>
	<path fill="#3DB5E6" d="M571.43475,456.83823c-27.34442,1.1825-55.72327-16.9982-55.72327-53.21033
		c0-36.36133,28.37885-54.24487,55.72327-54.24487c25.86597,1.32922,52.91443,19.21393,52.91443,54.24487
		C624.34924,438.65759,597.30072,456.83823,571.43475,456.83823z M569.80847,368.59698
		c-16.55432,0-34.58643,11.6778-34.58643,35.03091c0,23.20517,18.0321,35.02969,34.58643,35.02969
		c16.99817,0,35.17828-11.82452,35.17828-35.02969C604.98676,380.27475,586.80664,368.59698,569.80847,368.59698z"/>
	<path fill="#3DB5E6" d="M673.12872,445.75232c0,12.85901-19.65839,13.30289-19.65839,0.2959v-83.95416
		c0-5.17368,3.99121-9.01694,8.86896-9.01694h39.31628c37.54315,0,45.22852,50.25482,13.8941,62.81793l19.65784,23.94501
		c7.68591,11.38184-7.68597,22.31863-16.55438,11.08591l-22.3186-31.92621h-23.20581V445.75232z M673.12872,402.00156h28.52686
		c19.21448,0,20.39697-31.0397,0-31.0397h-28.52686V402.00156z"/>
	<path fill="#3DB5E6" d="M764.62445,361.94614c0-4.87775,3.84332-10.19821,10.05084-10.19821h34.1438
		c19.21515,0,36.50806,12.85901,36.50806,37.54254c0,23.35312-17.29291,36.36014-36.50806,36.36014h-24.68414v19.51105
		c0,6.5029-4.13855,10.19818-9.45966,10.19818c-4.8772,0-10.05084-3.69531-10.05084-10.19818V361.94614z M784.13495,370.37128
		v36.80399h24.68414c9.90228,0,17.73682-8.72101,17.73682-17.88477c0-10.34616-7.83453-18.91922-17.73682-18.91922H784.13495z"/>
	<path fill="#3DB5E6" d="M872.23248,446.19617v-83.95413c0-5.32162,3.84326-9.16495,10.49408-9.16495
		c5.17371,0,9.01697,3.84326,9.01697,9.16495v32.22211h48.18469v-32.22211c0-5.32162,4.7298-9.16495,10.05023-9.16495
		c5.17371,0,9.16492,3.84326,9.16492,9.16495v83.95413c0,5.17245-3.99121,9.1637-9.16492,9.1637
		c-5.32043,0-10.05023-3.99124-10.05023-9.1637v-32.37009h-48.18469v32.37012c0,5.17245-3.84326,9.1637-9.01697,9.1637
		C876.07574,455.35986,872.23248,451.36868,872.23248,446.19617z"/>
	<path fill="#3DB5E6" d="M999.79419,455.35986c-5.17365,0-9.16486-3.99124-9.16486-9.1637v-83.95413
		c0-5.32162,3.99121-9.16495,9.16486-9.16495h53.0625c13.59753,0,13.30164,19.21518,0,19.21518h-42.5683v22.17188h37.24664
		c13.15491,0,13.15491,19.36194,0,19.36194h-37.24664v22.17068h45.08112c13.44971,0,14.48413,19.36313,0,19.36313h-55.57532
		V455.35986z"/>
	<path fill="#3DB5E6" d="M1162.3833,362.83264c0-13.15494,19.36316-14.18942,19.36316,0v53.50629
		c0,55.27936-89.12793,55.27936-89.12793,0v-53.50629c0-13.3017,19.36316-13.89349,19.36316,0v53.50629
		c0,29.11743,50.40161,30.89175,50.40161,0V362.83264z"/>
	<path fill="#3DB5E6" d="M1211.6084,375.24902c3.39941-28.67477,46.7063-33.84848,67.10388-18.18063
		c10.05029,8.12921-0.59058,20.98822-9.45959,14.48538c-10.93799-6.94678-35.76953-10.19821-38.87292,5.17249
		c-3.99121,24.24084,60.30505,10.34735,59.27051,49.66299c-1.03455,37.54379-55.42725,38.43036-75.82483,21.58008
		c-4.87781-3.99002-4.72986-10.49411-2.06909-14.48532c3.84216-3.84204,8.12927-5.17245,13.15381-1.03448
		c12.12036,8.27719,43.30811,14.48535,45.52502-6.50287C1268.51416,404.07059,1207.02661,417.22552,1211.6084,375.24902z"/>
</g>
<path fill="#3DB5E6" d="M269.27643,430.67615c-14.41016,57.89374-67.13429,99.0827-129.23151,99.0827
	c-62.37839,0-114.64866-43.62692-128.46829-101.75958c16.61738,0,32.15221,0.07593,39.36433,0.07593
	c3.40218,0,4.06289,0.05902,4.25974,0.04495c5.42664-0.26712,12.23108-2.0582,16.75793-13.06616l17.25004-45.12411
	l38.30993,92.23828C130.96298,469.52081,136.71303,469,140.14326,469h0.32341c6.69194,0,9.60211-2.345,12.14673-7.19525
	l43.2726-91.18326l14.76161,41.0943l0.89978,1.98969c3.12099,6.84656,5.36615,13.60925,13.08998,14.49298
	c1.59219,0.18216,20.08206-0.14084,45.0081-0.14084C269.64548,428.05762,269.64563,428.2175,269.27643,430.67615z"/>
<path fill="#D8292F" d="M273.50403,396.57855c0,0.68887,0,2.42145-0.01407,2.42145h-0.02814h-39.78549l-23.21149-64.83963
	c-2.06657-4.82211-5.17358-12.05112-14.22739-12.05112c-5.53912,0-10.54401,4.57465-13.3839,12.12415l-42.07764,97.46469
	l-40.50307-96.87347c-3.96456-8.60391-6.70594-12.65036-14.63506-12.65036c-5.3845,0-9.33498,1.98346-13.63694,12.17599
	l-24.04033,65.61249l-39.94078-0.04181c-0.02814-0.9982-0.04213-1.99615-0.04213-2.99435
	c0-72.93649,59.13084-131.88278,132.06731-131.88278S273.50403,323.64209,273.50403,396.57855z"/>
</svg>
