<?xml version="1.0" encoding="utf-8"?>
<!-- Generator: Adobe Illustrator 24.0.2, SVG Export Plug-In . SVG Version: 6.00 Build 0)  -->
<svg version="1.1" id="Layer_1" xmlns="http://www.w3.org/2000/svg" xmlns:xlink="http://www.w3.org/1999/xlink" x="0px" y="0px"
	 viewBox="0 0 549.6 91.31" style="enable-background:new 0 0 549.6 91.31;" xml:space="preserve">
<style type="text/css">
	.st0{fill:#242E45;}
	.st1{fill:#33B9C8;}
	.st2{fill:#FFFFFF;}
</style>
<g>
	<path class="st0" d="M73.89,0H0.84C0.38,0,0,0.38,0,0.84v89.63c0,0.46,0.38,0.84,0.84,0.84h16.58c0.46,0,0.84-0.38,0.84-0.84V6.82
		c0-0.81,1.04-1.15,1.52-0.5l3.64,4.9c3.29,4.43,8.48,7.04,13.99,7.04h32.15c1.92,0,3.48,1.56,3.48,3.48v68.72
		c0,0.46,0.38,0.84,0.84,0.84h16.58c0.46,0,0.84-0.38,0.84-0.84V17.42C91.31,7.8,83.51,0,73.89,0z"/>
	<path class="st0" d="M379.41,0h-56.47h0c-9.62,0-17.42,7.8-17.42,17.42v56.47c0,9.62,7.8,17.42,17.42,17.42h56.47
		c9.62,0,17.42-7.8,17.42-17.42V17.42C396.83,7.8,389.04,0,379.41,0z M378.57,69.56c0,1.92-1.56,3.48-3.48,3.48h-47.82
		c-1.92,0-3.48-1.56-3.48-3.48V6.82c0-0.81,1.04-1.15,1.52-0.5l3.64,4.9c3.29,4.43,8.48,7.04,13.99,7.04h32.15
		c1.92,0,3.48,1.56,3.48,3.48V69.56z"/>
	<path class="st0" d="M226.65,54.78c9.62,0,17.42-7.8,17.42-17.42V17.42c0-9.62-7.8-17.42-17.42-17.42h-56.46
		c-9.62,0-17.42,7.8-17.42,17.42v56.46c0,9.62,7.8,17.42,17.42,17.42h72.99c0.6,0,1-0.6,0.78-1.16l-6.5-16.23
		c-0.21-0.53-0.72-0.88-1.29-0.88h-61.65c-1.92,0-3.48-1.56-3.48-3.48V54.78H226.65z M171.03,43.34v-6.82V21.75
		c0-1.92,1.56-3.48,3.48-3.48h47.82c1.92,0,3.48,1.56,3.48,3.48v11.29c0,1.92-1.56,3.48-3.48,3.48h-32.15
		c-5.52,0-10.71,2.61-13.99,7.04l-3.64,4.9c-0.48,0.65-1.52,0.31-1.52-0.5V43.34z"/>
	<path class="st0" d="M532.18,36.52h-52.14c-1.92,0-3.48-1.56-3.48-3.48V6.82c0-0.81,1.04-1.15,1.52-0.5l3.64,4.9
		c3.29,4.43,8.48,7.04,13.99,7.04h43.89c0.57,0,1.08-0.35,1.29-0.88l6.5-16.23C547.62,0.6,547.21,0,546.61,0h-70.9
		c-9.62,0-17.42,7.8-17.42,17.42v19.94c0,9.62,7.8,17.42,17.42,17.42h52.14c1.92,0,3.48,1.56,3.48,3.48v11.29
		c0,1.92-1.56,3.48-3.48,3.48H466.2c-0.57,0-1.08,0.35-1.29,0.88l-6.46,16.23c-0.22,0.55,0.19,1.15,0.78,1.15h72.94
		c9.62,0,17.42-7.8,17.42-17.42V53.94C549.6,44.32,541.8,36.52,532.18,36.52z"/>
</g>
</svg>