<?xml version="1.0" encoding="utf-8"?>
<!-- Generator: Adobe Illustrator 24.1.2, SVG Export Plug-In . SVG Version: 6.00 Build 0)  -->
<svg version="1.1" id="Logo" xmlns="http://www.w3.org/2000/svg" xmlns:xlink="http://www.w3.org/1999/xlink" x="0px" y="0px"
	 viewBox="0 0 557.77 273.46" style="enable-background:new 0 0 557.77 273.46;" xml:space="preserve">
<style type="text/css">
	.st0{fill:none;}
	.st1{fill:#00B2D5;}
	.st2{fill:#101E2C;}
</style>
<g>
	<rect x="0" class="st0" width="557.77" height="273.46"/>
	<g>
		<polygon class="st1" points="494.88,99.65 494.88,88.03 484.82,82.22 461.39,95.75 461.39,68.69 451.33,62.88 441.27,68.69 
			441.27,95.75 417.83,82.22 407.77,88.03 407.77,99.65 431.2,113.18 407.77,126.71 407.77,138.32 417.83,144.13 441.27,130.61 
			441.27,157.66 451.33,163.47 461.39,157.66 461.39,130.61 484.82,144.13 494.88,138.32 494.88,126.71 471.45,113.18 		"/>
		<g>
			<path class="st2" d="M62.88,203.01v-5.34c4.75,5.49,14.09,8.9,24.77,8.9c13.05,0,20.91-5.04,20.91-14.39
				c0-7.12-4.6-10.38-17.06-12.9l-8.75-1.78c-12.31-2.52-18.24-6.67-18.24-15.87c0-11.27,8.9-17.5,23.73-17.5
				c8.9,0,16.61,2.22,21.36,6.08v5.19c-4.6-4.6-12.46-7.27-21.36-7.27c-11.86,0-19.28,4.6-19.28,13.2c0,6.67,4.45,9.79,15.42,12.01
				l8.75,1.78c15.42,3.11,19.87,8.45,19.87,16.91c0,12.16-9.2,18.54-25.21,18.54C77.27,210.58,67.93,207.76,62.88,203.01z"/>
			<path class="st2" d="M134.46,145.92h3.86l0.44,11.57c6.23-8.75,14.68-13.35,25.21-13.35c14.68,0,22.69,8.9,22.69,25.81v38.86
				h-4.45v-38.41c0-14.83-6.23-22.25-18.39-22.25c-11.12,0-19.72,6.23-24.92,16.02v44.64h-4.45V145.92z"/>
			<path class="st2" d="M208.8,177.36c0-19.28,13.94-33.22,33.22-33.22c19.28,0,33.22,13.94,33.22,33.22
				c0,19.28-13.94,33.22-33.22,33.22C222.74,210.58,208.8,196.64,208.8,177.36z M270.8,177.36c0-17.2-11.86-29.22-28.77-29.22
				c-16.91,0-28.77,12.01-28.77,29.22c0,17.2,11.86,29.22,28.77,29.22C258.93,206.57,270.8,194.56,270.8,177.36z"/>
			<path class="st2" d="M287.79,145.91h4.75l20.32,55.32l20.32-55.32h3.26l20.32,55.32l20.32-55.32h4.6l-23.14,62.88h-3.41
				l-20.47-55.32l-20.32,55.32h-3.41L287.79,145.91z"/>
		</g>
	</g>
</g>
</svg>
