<svg xmlns="http://www.w3.org/2000/svg" xmlns:xlink="http://www.w3.org/1999/xlink" x="0px" y="0px" viewBox="0 0 417.1 147.4" style="enable-background:new 0 0 417.1 147.4;" xml:space="preserve">
        <g>
          <g>
            <path fill="#FF00CE" d="M109.3,33.9c-0.3,0-0.6,0-0.8,0c0.5,2.7,0.8,5.4,0.8,8.2c0,14-7,26.3-17.6,33.7c4.5,4.6,10.7,7.4,17.6,7.4
              c13.6,0,24.7-11.1,24.7-24.7S123,33.9,109.3,33.9z"></path>
            <path fill="#0086FF" d="M108.5,33.9C104.7,15.1,88.1,1,68.2,1C54.7,1,42.8,7.5,35.3,17.5c-18.2,0-32.9,14.7-32.9,32.9
              s14.7,32.9,32.9,32.9c5.6,0,26.7,0,32.9,0c8.8,0,16.9-2.7,23.5-7.4c-4.4-4.5-7.1-10.5-7.1-17.3C84.7,45.2,95.3,34.4,108.5,33.9z"></path>
            <path fill="#1E1E9A" d="M109.3,42.1c0-2.8-0.3-5.6-0.8-8.2c-13.2,0.4-23.8,11.3-23.8,24.7c0,6.7,2.7,12.8,7.1,17.3
              C102.4,68.4,109.3,56.1,109.3,42.1z"></path>
          </g>
          <g>
            <g>
              <path d="M166,71.4l10.5-12.6c7.4,6,14.9,9.9,24.2,9.9c7.4,0,11.7-2.9,11.7-7.6v-0.2c0-4.5-2.8-7-16.3-10.3
                c-16.5-4.1-26.9-8.8-26.9-24.8v-0.2c0-14.7,11.7-24.5,28.4-24.5c11.9,0,21.8,3.7,30.1,10.3l-9.3,13.4c-7.3-5-14.1-8-21.1-8
                s-10.4,3-10.4,7.1v0.2c0,5.4,3.5,7,17.5,10.7c16.5,4.4,25.7,10.2,25.7,24.3v0.2c0,16.1-12.3,25.1-29.8,25.1
                C188,84.4,175.7,80.3,166,71.4z"></path>
              <path d="M236.5,21.2h17.6v8.9c4.3-5.9,10.1-10.1,19.4-10.1c14.5,0,28.3,11.4,28.3,32.1v0.2c0,20.7-13.6,32.1-28.3,32.1
                c-9.4,0-15.2-4.3-19.4-9.3v26.7h-17.6V21.2z M284.1,52.3v-0.2c0-10.3-7-17.2-15.2-17.2s-15.1,6.8-15.1,17.2v0.2
                c0,10.3,6.8,17.2,15.1,17.2S284.1,62.8,284.1,52.3z"></path>
              <path d="M306.6,52.6v-0.2c0-17.8,14.4-32.3,33.7-32.3c19.1,0,33.5,14.1,33.5,32.1v0.2c0,17.8-14.4,32.3-33.7,32.3
                C320.9,84.7,306.6,70.5,306.6,52.6z M356.4,52.6v-0.2c0-9.2-6.6-17.2-16.3-17.2c-10.1,0-16.1,7.6-16.1,16.9v0.2
                c0,9.2,6.6,17.2,16.3,17.2C350.4,69.5,356.4,61.8,356.4,52.6z"></path>
              <path d="M382.5,65.7V36.2h-7.4v-15h7.4V5.3h17.6v15.9h14.6v15.1h-14.6v26.5c0,4.1,1.9,6,5.7,6c3.1,0,6-0.7,8.7-2.2v14.1
                c-3.7,2.2-8,3.6-13.9,3.6C389.9,84.3,382.5,80,382.5,65.7z"></path>
            </g>
            <path d="M254.9,129c0,1.5-0.2,2.9-0.6,4.1c-0.4,1.2-1,2.2-1.7,3s-1.6,1.4-2.6,1.8c-1,0.4-2,0.6-3.1,0.6c-1.5,0-2.8-0.4-3.9-1.1
              c-1.1-0.7-1.9-1.7-2.5-3v3.8h-3.9v-26.1h4v11.7c0.6-1.4,1.5-2.4,2.7-3.1c1.2-0.7,2.5-1,3.9-1c1,0,2,0.2,3,0.6
              c0.9,0.4,1.8,0.9,2.5,1.7s1.3,1.7,1.7,2.9C254.6,126,254.9,127.4,254.9,129z M245.6,135.2c1.8,0,3.1-0.6,3.9-1.7
              c0.9-1.1,1.3-2.6,1.3-4.5s-0.5-3.4-1.4-4.5s-2.2-1.7-4-1.7c-0.9,0-1.7,0.2-2.4,0.5c-0.7,0.3-1.2,0.8-1.7,1.3c-0.4,0.6-0.8,1.2-1,2
              s-0.3,1.6-0.3,2.5c0,1.8,0.4,3.2,1.3,4.4C242.3,134.7,243.7,135.2,245.6,135.2z"></path>
            <path d="M275.2,119.9l-10.8,25.5h-4.1l3.2-7.4l-7.7-18.1h4.1l4.9,11.8l0.8,2.4l0.8-2.4l4.8-11.8H275.2z"></path>
            <path d="M293.4,120.4v17.9h-3.9v-24h4.8l10.4,17.5l1,2.2l-0.1-2.4v-17.3h3.9v24H305l-10.8-18.2l-1.1-2L293.4,120.4z"></path>
            <path d="M330.9,134.2c-0.8,1.2-1.8,2.3-3.2,3.1c-1.3,0.8-3,1.3-5.1,1.3c-1.6,0-3-0.2-4.2-0.7s-2.2-1.1-3-2c-0.8-0.8-1.4-1.8-1.8-3
              s-0.6-2.4-0.6-3.7s0.2-2.5,0.7-3.7c0.4-1.2,1.1-2.2,1.9-3.1c0.8-0.9,1.8-1.6,3-2.1s2.5-0.8,4-0.8s2.8,0.3,3.9,0.8s2,1.2,2.7,2
              s1.3,1.8,1.6,2.9c0.4,1.1,0.5,2.3,0.5,3.6v1.4H317c0.2,1.6,0.7,2.8,1.6,3.7s2.3,1.4,4,1.4c1.2,0,2.2-0.3,3-0.8s1.4-1.2,2-2.2
              L330.9,134.2z M322.6,122.8c-1.6,0-2.8,0.4-3.7,1.3c-0.9,0.9-1.5,2.1-1.7,3.6h10.4c-0.1-1.4-0.5-2.6-1.3-3.5
              C325.4,123.3,324.2,122.8,322.6,122.8z"></path>
            <path d="M346,134.7v3.2c-0.5,0.2-1,0.4-1.5,0.5s-1.1,0.2-1.8,0.2c-2,0-3.4-0.5-4.3-1.6c-0.9-1-1.3-2.6-1.3-4.6v-9.3h-4.2v-3.3h4.2
              v-4.7l3.7-2.2v6.9h5.2v3.3h-5.2v8.8c0,1.2,0.2,2,0.7,2.5s1.2,0.7,2.1,0.7c0.5,0,0.9,0,1.3-0.1C345.2,135,345.6,134.9,346,134.7z"></path>
            <path d="M348.4,138.3l9.3-24h4.6l9.3,24h-4.2l-1.9-5h-11.1l-1.8,5H348.4z M359.2,120.6l-3.6,9.7h8.9l-3.6-9.7L360,118L359.2,120.6
              z"></path>
            <path d="M392.7,129c0,1.5-0.2,2.9-0.6,4.1c-0.4,1.2-1,2.2-1.7,3s-1.6,1.4-2.6,1.8c-1,0.4-2,0.6-3.2,0.6c-1.5,0-2.8-0.4-3.9-1.1
              c-1.1-0.7-1.9-1.7-2.5-3v10.9h-4v-25.5h4v4c0.6-1.4,1.5-2.5,2.7-3.2s2.5-1.1,4-1.1c1,0,2,0.2,3,0.6c0.9,0.4,1.8,0.9,2.5,1.7
              s1.3,1.7,1.7,2.9C392.5,126,392.7,127.4,392.7,129z M383.3,135.2c1.8,0,3.1-0.6,3.9-1.7c0.9-1.1,1.3-2.6,1.3-4.5s-0.5-3.4-1.4-4.5
              s-2.2-1.7-4-1.7c-0.9,0-1.7,0.2-2.4,0.5c-0.7,0.3-1.2,0.8-1.7,1.3c-0.4,0.6-0.8,1.2-1,2s-0.3,1.6-0.3,2.5c0,1.8,0.4,3.2,1.3,4.4
              C380.1,134.7,381.4,135.2,383.3,135.2z"></path>
            <path d="M414.7,129c0,1.5-0.2,2.9-0.6,4.1c-0.4,1.2-1,2.2-1.7,3s-1.6,1.4-2.6,1.8c-1,0.4-2,0.6-3.2,0.6c-1.5,0-2.8-0.4-3.9-1.1
              c-1.1-0.7-1.9-1.7-2.5-3v10.9h-4v-25.5h4v4c0.6-1.4,1.5-2.5,2.7-3.2s2.5-1.1,4-1.1c1,0,2,0.2,3,0.6c0.9,0.4,1.8,0.9,2.5,1.7
              s1.3,1.7,1.7,2.9C414.5,126,414.7,127.4,414.7,129z M405.4,135.2c1.8,0,3.1-0.6,3.9-1.7c0.9-1.1,1.3-2.6,1.3-4.5s-0.5-3.4-1.4-4.5
              s-2.2-1.7-4-1.7c-0.9,0-1.7,0.2-2.4,0.5c-0.7,0.3-1.2,0.8-1.7,1.3s-0.8,1.2-1,2s-0.3,1.6-0.3,2.5c0,1.8,0.4,3.2,1.3,4.4
              C402.1,134.7,403.5,135.2,405.4,135.2z"></path>
          </g>
        </g>
        </svg>