<svg xmlns="http://www.w3.org/2000/svg" viewBox="0 0 495.99 98.46"><defs><style>.cls-1{fill:#253646;}.cls-2{fill:#1c64a5;}.cls-3{fill:#b1e001;}</style></defs><g id="Layer_2" data-name="Layer 2"><g id="Layer_1-2" data-name="Layer 1"><path class="cls-1" d="M163.78,48.74a22,22,0,0,0-6.1-1.82l-3.48-.58a18.67,18.67,0,0,1-5.77-1.67A3.77,3.77,0,0,1,146.36,41a4.89,4.89,0,0,1,2.87-4.75,18.08,18.08,0,0,1,7.87-1.41,25.77,25.77,0,0,1,5,.43,31.73,31.73,0,0,1,4.57,1.31h.58V30.67a25.61,25.61,0,0,0-4.39-1.13,31.65,31.65,0,0,0-5.48-.47,25.28,25.28,0,0,0-10.2,1.71,11.74,11.74,0,0,0-5.51,4.5,11.26,11.26,0,0,0-1.71,6,8.73,8.73,0,0,0,3,7.08q3,2.5,9.14,3.52l3.49.58a19.45,19.45,0,0,1,5.8,1.67,3.83,3.83,0,0,1,2.11,3.7,4.94,4.94,0,0,1-1.24,3.59,6.61,6.61,0,0,1-3,1.78,17,17,0,0,1-3.48.62c-1.14.07-2,.1-2.72.1a32.13,32.13,0,0,1-12.49-2.61H140v6.39a42.75,42.75,0,0,0,5.85,1.45,38.85,38.85,0,0,0,6.93.58q8.7,0,12.91-3t4.21-8.89a8.89,8.89,0,0,0-1.67-5.55A11.66,11.66,0,0,0,163.78,48.74Z"/><path class="cls-1" d="M193.89,63.58a13.38,13.38,0,0,1-3,.32c-2.62,0-4.53-.61-5.74-1.85s-1.81-3.23-1.81-6V35.46h11.32V29.65H183.37V18.91h-6.68V29.65H170.6v5.81h6.09V56.65a16,16,0,0,0,1.38,6.85,9.91,9.91,0,0,0,4.43,4.58,17.23,17.23,0,0,0,8.13,1.63,15.32,15.32,0,0,0,3.62-.4A13.91,13.91,0,0,0,197,68.4V62.74h-.58A12.4,12.4,0,0,1,193.89,63.58Z"/><path class="cls-1" d="M217.77,29.36c-1.26,0-2.82.1-4.68.29s-3.73.46-5.59.8a26.49,26.49,0,0,0-4.68,1.23l-.15.58a22.37,22.37,0,0,1,.4,3.56c.07,1.5.12,3,.15,4.57s0,2.81,0,3.77v25h6.68V40.39a40.8,40.8,0,0,0-.22-4.41c.85-.15,1.75-.3,2.76-.45a32.69,32.69,0,0,1,4.72-.36c.72,0,1.52,0,2.39.07s1.62.12,2.25.22h.58V29.65a16,16,0,0,0-1.81-.22C219.87,29.39,218.93,29.36,217.77,29.36Z"/><path class="cls-1" d="M257.57,58.39c0-1.55,0-2.81,0-3.78V45a22.4,22.4,0,0,0-1.3-8.35,11,11,0,0,0-3.67-4.9,14.37,14.37,0,0,0-5.44-2.36,32.79,32.79,0,0,0-6.71-.65,35.79,35.79,0,0,0-6.06.55A26.16,26.16,0,0,0,228.51,31v5.95h.58a23.48,23.48,0,0,1,4.68-1.6,24.18,24.18,0,0,1,5.77-.72,21.82,21.82,0,0,1,6.27.76,6.25,6.25,0,0,1,3.78,3c.84,1.52,1.27,3.83,1.27,6.93v1c-.7-.2-1.43-.39-2.22-.59a28.07,28.07,0,0,0-6.78-.69,26.6,26.6,0,0,0-9,1.38A12.29,12.29,0,0,0,227,50.55a11.29,11.29,0,0,0-2.07,7q0,6.31,4.24,9.4T241.86,70a41,41,0,0,0,5-.36c1.91-.25,3.84-.58,5.77-1A42.57,42.57,0,0,0,258,67.1l.14-.58a23.45,23.45,0,0,1-.4-3.56C257.64,61.46,257.59,59.94,257.57,58.39Zm-15.42,6.09q-5.24,0-8-1.63a5.71,5.71,0,0,1-2.76-5.33c0-2.61,1-4.43,2.86-5.44s4.83-1.53,8.75-1.53a29,29,0,0,1,5.44.55c.87.16,1.66.33,2.4.51v6.78c0,.63,0,1.23,0,1.81s.06,1.14.11,1.67.1.91.16,1.34a33.6,33.6,0,0,1-3.42.8A31.78,31.78,0,0,1,242.15,64.48Z"/><path class="cls-1" d="M285.33,63.58a13.4,13.4,0,0,1-3,.32c-2.61,0-4.52-.61-5.73-1.85s-1.81-3.23-1.81-6V35.46h11.31V29.65H274.81V18.91h-6.68V29.65H262v5.81h6.1V56.65a16,16,0,0,0,1.38,6.85,9.89,9.89,0,0,0,4.42,4.58,17.23,17.23,0,0,0,8.13,1.63,15.35,15.35,0,0,0,3.63-.4,14.37,14.37,0,0,0,2.76-.91V62.74h-.58A12.82,12.82,0,0,1,285.33,63.58Z"/><path class="cls-1" d="M324.48,58.39c0-1.55,0-2.81,0-3.78V45a22.38,22.38,0,0,0-1.31-8.35,11,11,0,0,0-3.66-4.9A14.37,14.37,0,0,0,314,29.43a32.89,32.89,0,0,0-6.72-.65,36,36,0,0,0-6.06.55A26.32,26.32,0,0,0,295.41,31v5.95H296a23.48,23.48,0,0,1,4.68-1.6,24.24,24.24,0,0,1,5.77-.72,21.85,21.85,0,0,1,6.28.76,6.21,6.21,0,0,1,3.77,3q1.27,2.28,1.27,6.93v1c-.69-.2-1.42-.39-2.21-.59a28.16,28.16,0,0,0-6.79-.69,26.54,26.54,0,0,0-9,1.38,12.37,12.37,0,0,0-5.88,4.13,11.29,11.29,0,0,0-2.07,7q0,6.31,4.25,9.4T308.76,70a41,41,0,0,0,5.05-.36c1.91-.25,3.83-.58,5.77-1a42.4,42.4,0,0,0,5.29-1.52l.15-.58a22.23,22.23,0,0,1-.4-3.56C324.55,61.46,324.5,59.94,324.48,58.39Zm-15.43,6.09q-5.22,0-8-1.63a5.71,5.71,0,0,1-2.76-5.33c0-2.61,1-4.43,2.87-5.44s4.83-1.53,8.75-1.53a29.08,29.08,0,0,1,5.44.55c.86.16,1.65.33,2.39.51v6.78c0,.63,0,1.23,0,1.81s.06,1.14.11,1.67.1.91.16,1.34a33.8,33.8,0,0,1-3.43.8A31.7,31.7,0,0,1,309.05,64.48Z"/><path class="cls-1" d="M356.22,48.74a21.94,21.94,0,0,0-6.09-1.82l-3.48-.58a18.59,18.59,0,0,1-5.77-1.67A3.77,3.77,0,0,1,338.81,41a4.89,4.89,0,0,1,2.86-4.75,18.16,18.16,0,0,1,7.88-1.41,25.84,25.84,0,0,1,5,.43,31.73,31.73,0,0,1,4.57,1.31h.58V30.67a25.61,25.61,0,0,0-4.39-1.13,31.65,31.65,0,0,0-5.48-.47,25.28,25.28,0,0,0-10.2,1.71,11.74,11.74,0,0,0-5.51,4.5,11.26,11.26,0,0,0-1.71,6,8.73,8.73,0,0,0,3,7.08q3,2.5,9.14,3.52l3.48.58a19.43,19.43,0,0,1,5.81,1.67,3.82,3.82,0,0,1,2.1,3.7,4.93,4.93,0,0,1-1.23,3.59,6.67,6.67,0,0,1-3,1.78,17,17,0,0,1-3.48.62c-1.14.07-2,.1-2.73.1a30.72,30.72,0,0,1-6.56-.72A30.05,30.05,0,0,1,333,61.29h-.58v6.39a42.59,42.59,0,0,0,5.84,1.45,39,39,0,0,0,6.93.58q8.71,0,12.92-3t4.21-8.89a9,9,0,0,0-1.67-5.55A11.62,11.62,0,0,0,356.22,48.74Z"/><path class="cls-1" d="M376.43,31.21a17.23,17.23,0,0,0-7.33,7,22.17,22.17,0,0,0-2.57,11,22.68,22.68,0,0,0,2.5,11,16.82,16.82,0,0,0,7.26,7,24.86,24.86,0,0,0,11.43,2.43,22.27,22.27,0,0,0,9-1.6v-6h-.58a18.27,18.27,0,0,1-3.67,1.24,21.11,21.11,0,0,1-4.75.5q-6.54,0-10.45-3.7t-3.92-11q0-7.32,3.92-11t10.45-3.66a21.79,21.79,0,0,1,4.75.47,14.71,14.71,0,0,1,3.67,1.27h.58V30.38a22.27,22.27,0,0,0-9-1.6A24.52,24.52,0,0,0,376.43,31.21Z"/><path class="cls-1" d="M433.62,58.39c0-1.55,0-2.81,0-3.78V45a22.38,22.38,0,0,0-1.31-8.35,11,11,0,0,0-3.66-4.9,14.37,14.37,0,0,0-5.44-2.36,32.86,32.86,0,0,0-6.71-.65,36,36,0,0,0-6.07.55A26.47,26.47,0,0,0,404.55,31v5.95h.58a23.84,23.84,0,0,1,4.69-1.6,24.1,24.1,0,0,1,5.76-.72,21.85,21.85,0,0,1,6.28.76,6.21,6.21,0,0,1,3.77,3q1.28,2.28,1.27,6.93v1c-.69-.2-1.42-.39-2.21-.59a28.13,28.13,0,0,0-6.78-.69,26.56,26.56,0,0,0-9,1.38A12.37,12.37,0,0,0,403,50.55a11.28,11.28,0,0,0-2.06,7q0,6.31,4.24,9.4T417.91,70a41,41,0,0,0,5-.36c1.91-.25,3.83-.58,5.77-1A43.08,43.08,0,0,0,434,67.1l.14-.58a23.45,23.45,0,0,1-.4-3.56C433.69,61.46,433.64,59.94,433.62,58.39ZM418.2,64.48q-5.24,0-8-1.63a5.7,5.7,0,0,1-2.75-5.33c0-2.61,1-4.43,2.86-5.44s4.83-1.53,8.75-1.53a29.08,29.08,0,0,1,5.44.55c.86.16,1.66.33,2.39.51v6.78c0,.63,0,1.23,0,1.81s.06,1.14.11,1.67.1.91.16,1.34a33.8,33.8,0,0,1-3.43.8A31.67,31.67,0,0,1,418.2,64.48Z"/><path class="cls-1" d="M444.18,14.56a23.3,23.3,0,0,1,.4,3.55c.07,1.5.12,3,.14,4.58s0,2.8,0,3.77V69.13h6.67V14h-7.11Z"/><path class="cls-1" d="M495.7,49.68a29.21,29.21,0,0,0-1.49-11,14.51,14.51,0,0,0-5.62-7.33q-3.91-2.61-10.31-2.61a17.9,17.9,0,0,0-9.61,2.54,17.22,17.22,0,0,0-6.39,7.15A24,24,0,0,0,460,49.24,26.94,26.94,0,0,0,461.3,58a15.9,15.9,0,0,0,4,6.42,17.65,17.65,0,0,0,6.82,4,31.12,31.12,0,0,0,9.62,1.34,30.6,30.6,0,0,0,6.74-.65,21.39,21.39,0,0,0,4.58-1.53v-6h-.58a18.46,18.46,0,0,1-4.14,1.6,24,24,0,0,1-6.31.72,21.48,21.48,0,0,1-7.88-1.34,10.7,10.7,0,0,1-5.4-4.53,14.42,14.42,0,0,1-1.85-6.32h28.7Zm-7-3.48h-21.8a15.86,15.86,0,0,1,1.48-5.88,9.66,9.66,0,0,1,4.21-4.43,12.48,12.48,0,0,1,5.66-1.3q5.24,0,7.84,2.79t2.61,8.24Z"/><path class="cls-2" d="M92.67,23.1a36,36,0,0,0-12-16,35.77,35.77,0,0,0-42.82,0,36.1,36.1,0,0,0-12,16A29,29,0,1,0,53,68.21L73.85,39.72a19.69,19.69,0,0,1,16-7.61A19.81,19.81,0,1,1,76.64,67a4.57,4.57,0,0,0-6.66.79h0A4.6,4.6,0,0,0,70.71,74a29,29,0,1,0,22-50.93Zm-26.11,11-21,28.72-.1.14a19.82,19.82,0,1,1-.86-23.32l3.22,4.4a4.59,4.59,0,0,0,7.38,0h0a4.59,4.59,0,0,0,0-5.46l-3.27-4.45-.09-.12a28.75,28.75,0,0,0-16.28-10.4,26.76,26.76,0,0,1,7.75-9.2,26.59,26.59,0,0,1,31.82,0,26.87,26.87,0,0,1,7.77,9.21A28.81,28.81,0,0,0,66.56,34.13Z"/><path class="cls-1" d="M354,80.16l5.67,14.45H358.2l-1.76-4.49h-6.58l-1.74,4.49h-1.46l5.81-14.45ZM356,89l-2.79-7.41L350.28,89Z"/><path class="cls-1" d="M361.86,84.17V86h0a3.1,3.1,0,0,1,1.3-1.53,3.84,3.84,0,0,1,2-.58,5.09,5.09,0,0,1,1.83.29,2.85,2.85,0,0,1,1.19.8,3,3,0,0,1,.62,1.26,6.69,6.69,0,0,1,.19,1.68v6.72h-1.28V88.1a6.17,6.17,0,0,0-.12-1.25,2.51,2.51,0,0,0-.43-1,2,2,0,0,0-.82-.67,3,3,0,0,0-1.28-.24,3.32,3.32,0,0,0-1.37.27,2.9,2.9,0,0,0-1,.75,3.68,3.68,0,0,0-.65,1.13,4.71,4.71,0,0,0-.25,1.43v6.09h-1.27V84.17Z"/><path class="cls-1" d="M378.05,91.72a3,3,0,0,0,1,1.19,4.08,4.08,0,0,0,1.5.64,8.5,8.5,0,0,0,1.86.19,5.15,5.15,0,0,0,1.24-.16,4.24,4.24,0,0,0,1.24-.52,3.12,3.12,0,0,0,1-.91,2.35,2.35,0,0,0,.38-1.34,2,2,0,0,0-.27-1.06,2.5,2.5,0,0,0-.71-.74,4,4,0,0,0-1-.5,8.72,8.72,0,0,0-1-.31l-3.21-.79a10.43,10.43,0,0,1-1.23-.41,3.45,3.45,0,0,1-1-.65,3,3,0,0,1-.72-1,3.41,3.41,0,0,1-.27-1.43,4.8,4.8,0,0,1,.2-1.24,3.33,3.33,0,0,1,.76-1.33,4.39,4.39,0,0,1,1.53-1.07,6.15,6.15,0,0,1,2.49-.43,7.23,7.23,0,0,1,2,.28,4.94,4.94,0,0,1,1.7.85,4.06,4.06,0,0,1,1.6,3.36h-1.37a3.49,3.49,0,0,0-.38-1.45,3.21,3.21,0,0,0-.87-1,4,4,0,0,0-1.23-.63A5.12,5.12,0,0,0,381.8,81a6.19,6.19,0,0,0-1.37.15,3.42,3.42,0,0,0-1.15.49,2.43,2.43,0,0,0-.8.88,2.79,2.79,0,0,0-.31,1.36,2,2,0,0,0,.18.88,1.74,1.74,0,0,0,.47.63,2.49,2.49,0,0,0,.7.43,5.16,5.16,0,0,0,.84.26l3.52.87a10.29,10.29,0,0,1,1.45.5,4.58,4.58,0,0,1,1.19.73,2.92,2.92,0,0,1,.81,1.06,3.49,3.49,0,0,1,.3,1.52,6.13,6.13,0,0,1-.05.64,3.5,3.5,0,0,1-.25.87,5,5,0,0,1-.54.92,3.43,3.43,0,0,1-1,.84,5.48,5.48,0,0,1-1.52.6,8.72,8.72,0,0,1-2.19.24,8.94,8.94,0,0,1-2.37-.3,4.89,4.89,0,0,1-1.86-.9,3.86,3.86,0,0,1-1.18-1.56,5,5,0,0,1-.36-2.28h1.38A4.15,4.15,0,0,0,378.05,91.72Z"/><path class="cls-1" d="M391.05,80.16v6.28h8.58V80.16H401V94.61h-1.37v-7h-8.58v7h-1.38V80.16Z"/><path class="cls-1" d="M405.26,80.16V94.61h-1.38V80.16Z"/><path class="cls-1" d="M423.58,83a4.08,4.08,0,0,0-1-1.1,4.86,4.86,0,0,0-1.32-.68,5,5,0,0,0-1.5-.23,5.15,5.15,0,0,0-2.47.55A4.75,4.75,0,0,0,415.59,83a6,6,0,0,0-1,2,8.57,8.57,0,0,0,0,4.64,6,6,0,0,0,1,2,5,5,0,0,0,1.69,1.45,5.27,5.27,0,0,0,2.47.54,4.45,4.45,0,0,0,1.82-.36,4.67,4.67,0,0,0,1.4-1,5.31,5.31,0,0,0,.95-1.47,6.34,6.34,0,0,0,.46-1.81h1.38a8.12,8.12,0,0,1-.63,2.41,6,6,0,0,1-1.25,1.82,5.37,5.37,0,0,1-1.82,1.15,6.29,6.29,0,0,1-2.31.41,6.85,6.85,0,0,1-3-.62,6,6,0,0,1-2.13-1.65,7,7,0,0,1-1.28-2.39,9.91,9.91,0,0,1,0-5.71,7.11,7.11,0,0,1,1.28-2.4,6,6,0,0,1,2.13-1.65,6.71,6.71,0,0,1,3-.62,6.8,6.8,0,0,1,2,.3,5.74,5.74,0,0,1,1.78.9,5.23,5.23,0,0,1,1.34,1.47,5,5,0,0,1,.68,2h-1.38A4.57,4.57,0,0,0,423.58,83Z"/><path class="cls-1" d="M434,84.31a4.55,4.55,0,0,1,1.54,1.19,5.31,5.31,0,0,1,1,1.75,7.32,7.32,0,0,1,0,4.28,5.31,5.31,0,0,1-1,1.75A4.4,4.4,0,0,1,434,94.46a4.93,4.93,0,0,1-2.12.44,4.85,4.85,0,0,1-2.11-.44,4.44,4.44,0,0,1-1.55-1.18,5.11,5.11,0,0,1-1-1.75,7.1,7.1,0,0,1,0-4.28,5.11,5.11,0,0,1,1-1.75,4.59,4.59,0,0,1,1.55-1.19,4.71,4.71,0,0,1,2.11-.45A4.79,4.79,0,0,1,434,84.31Zm-3.72,1a3.58,3.58,0,0,0-1.14,1,4.63,4.63,0,0,0-.69,1.43,5.89,5.89,0,0,0,0,3.26,4.63,4.63,0,0,0,.69,1.43,3.47,3.47,0,0,0,1.14,1,3.56,3.56,0,0,0,3.2,0,3.47,3.47,0,0,0,1.14-1,4.41,4.41,0,0,0,.69-1.43,5.89,5.89,0,0,0,0-3.26,4.41,4.41,0,0,0-.69-1.43,3.58,3.58,0,0,0-1.14-1,3.56,3.56,0,0,0-3.2,0Z"/><path class="cls-1" d="M439.76,84.17v1.76h.07a3.93,3.93,0,0,1,1.32-1.52,3.73,3.73,0,0,1,2.09-.55,3.56,3.56,0,0,1,1.88.51,2.49,2.49,0,0,1,1.12,1.54,3.2,3.2,0,0,1,1.38-1.54,3.88,3.88,0,0,1,1.94-.51c2.31,0,3.46,1.23,3.46,3.67v7.08h-1.27v-7a3.1,3.1,0,0,0-.55-2,2.33,2.33,0,0,0-1.92-.68,2.74,2.74,0,0,0-1.38.31,2.42,2.42,0,0,0-.87.84,3.5,3.5,0,0,0-.46,1.21,8,8,0,0,0-.13,1.4v5.91h-1.27V87.53a4.57,4.57,0,0,0-.11-1,2.34,2.34,0,0,0-.37-.83,1.71,1.71,0,0,0-.68-.56,2.28,2.28,0,0,0-1-.2,3.18,3.18,0,0,0-1.4.29,2.69,2.69,0,0,0-1,.81,3.62,3.62,0,0,0-.55,1.21,6.16,6.16,0,0,0-.19,1.53v5.83h-1.27V84.17Z"/><path class="cls-1" d="M456.48,84.17v2h0A3.43,3.43,0,0,1,458,84.46a4.36,4.36,0,0,1,2.28-.6,4.51,4.51,0,0,1,2.07.45,4.32,4.32,0,0,1,1.47,1.2,5.27,5.27,0,0,1,.87,1.76,8.17,8.17,0,0,1,0,4.24,5.27,5.27,0,0,1-.87,1.76,4.18,4.18,0,0,1-1.47,1.19,4.64,4.64,0,0,1-2.07.44,4.46,4.46,0,0,1-1.14-.15,4,4,0,0,1-1.05-.42,3.66,3.66,0,0,1-.86-.71,3,3,0,0,1-.58-1h0v5.83h-1.27V84.17Zm7,3.61a4.72,4.72,0,0,0-.61-1.43,3.56,3.56,0,0,0-1.06-1,3,3,0,0,0-1.56-.39,3.86,3.86,0,0,0-1.76.36,3.09,3.09,0,0,0-1.14,1,3.85,3.85,0,0,0-.59,1.42,7.84,7.84,0,0,0-.18,1.7,6.76,6.76,0,0,0,.2,1.61,4.09,4.09,0,0,0,.62,1.43,3.28,3.28,0,0,0,2.85,1.41,3,3,0,0,0,1.56-.39,3.44,3.44,0,0,0,1.06-1,4.72,4.72,0,0,0,.61-1.43,6.92,6.92,0,0,0,0-3.22Z"/><path class="cls-1" d="M467.05,85.79a3,3,0,0,1,.88-1.1,3.65,3.65,0,0,1,1.3-.62,6.18,6.18,0,0,1,1.66-.21,7.18,7.18,0,0,1,1.38.14,3.18,3.18,0,0,1,1.23.49,2.77,2.77,0,0,1,.89,1,3.68,3.68,0,0,1,.35,1.71v5.55a.67.67,0,0,0,.75.77,1,1,0,0,0,.4-.08v1.07l-.39.06a2.82,2.82,0,0,1-.44,0,1.92,1.92,0,0,1-.78-.13,1,1,0,0,1-.45-.37,1.39,1.39,0,0,1-.21-.58,4.18,4.18,0,0,1-.06-.74h0a8.8,8.8,0,0,1-.69.9,3.8,3.8,0,0,1-.79.66,3.61,3.61,0,0,1-1,.4,5.1,5.1,0,0,1-1.32.15,5,5,0,0,1-1.37-.18,3,3,0,0,1-1.11-.54,2.6,2.6,0,0,1-.75-1,3.22,3.22,0,0,1-.27-1.37,2.72,2.72,0,0,1,.48-1.71,3,3,0,0,1,1.29-.94,7.18,7.18,0,0,1,1.8-.46l2-.25c.27,0,.51-.06.71-.1a1.31,1.31,0,0,0,.51-.21,1,1,0,0,0,.31-.42,1.66,1.66,0,0,0,.11-.69,2.35,2.35,0,0,0-.21-1.06,1.64,1.64,0,0,0-.59-.66,2.39,2.39,0,0,0-.87-.33,5.9,5.9,0,0,0-1.06-.09,3.23,3.23,0,0,0-2,.57,2.24,2.24,0,0,0-.81,1.86h-1.28A4.12,4.12,0,0,1,467.05,85.79Zm6.37,3.11a.72.72,0,0,1-.46.33,4.68,4.68,0,0,1-.61.14c-.54.09-1.1.18-1.67.25a9.6,9.6,0,0,0-1.57.34,3,3,0,0,0-1.16.64,1.49,1.49,0,0,0-.46,1.18,2,2,0,0,0,.19.86,2.33,2.33,0,0,0,.52.65,2.28,2.28,0,0,0,.75.41,2.56,2.56,0,0,0,.87.14,4.36,4.36,0,0,0,1.4-.22,3.38,3.38,0,0,0,1.16-.65,3.12,3.12,0,0,0,.79-1,3.18,3.18,0,0,0,.29-1.38V88.9Z"/><path class="cls-1" d="M478.4,84.17V86h0a3.15,3.15,0,0,1,1.3-1.53,3.84,3.84,0,0,1,2-.58,5.09,5.09,0,0,1,1.83.29,2.85,2.85,0,0,1,1.19.8,3.12,3.12,0,0,1,.63,1.26,7.21,7.21,0,0,1,.18,1.68v6.72h-1.28V88.1a6.17,6.17,0,0,0-.12-1.25,2.65,2.65,0,0,0-.42-1,2.17,2.17,0,0,0-.82-.67,3.1,3.1,0,0,0-1.29-.24,3.32,3.32,0,0,0-1.37.27,3,3,0,0,0-1,.75,3.47,3.47,0,0,0-.64,1.13,4.71,4.71,0,0,0-.26,1.43v6.09h-1.27V84.17Z"/><path class="cls-1" d="M488.06,84.17l3.44,8.9,3.21-8.9H496l-4.53,12a11.61,11.61,0,0,1-.53,1.1,2.44,2.44,0,0,1-.54.69,1.8,1.8,0,0,1-.68.37,4,4,0,0,1-1,.11l-.59,0a1.43,1.43,0,0,1-.38-.07V97.28l.44.08c.14,0,.28,0,.43,0a1.71,1.71,0,0,0,.7-.13,1.58,1.58,0,0,0,.48-.33,1.8,1.8,0,0,0,.34-.52q.15-.3.3-.66l.45-1.18-4.17-10.4Z"/><path class="cls-3" d="M65.28,58.43a4.78,4.78,0,1,0,4.78,4.78A4.78,4.78,0,0,0,65.28,58.43Zm0,7.47A2.7,2.7,0,1,1,68,63.21,2.68,2.68,0,0,1,65.28,65.9Z"/></g></g></svg>