<?xml version="1.0" encoding="utf-8"?>
<!-- Generator: Adobe Illustrator 25.2.3, SVG Export Plug-In . SVG Version: 6.00 Build 0)  -->
<svg version="1.1" id="Layer_1" xmlns="http://www.w3.org/2000/svg" xmlns:xlink="http://www.w3.org/1999/xlink" x="0px" y="0px"
	 viewBox="0 0 1378.3 431" style="enable-background:new 0 0 1378.3 431;" xml:space="preserve">
<style type="text/css">
	.st0{fill:#2C9427;}
	.st1{fill:#FFFFFF;}
</style>
<title>Asset 1</title>
<g>
	<path d="M928.1,377.6c-3.6,0-5.1-2.2-5.4-5.1h-0.3c-1.3,3.9-4.7,5.9-9.1,5.9c-6.7,0-10.6-3.7-10.6-9.5c0-5.9,4.3-9.2,13.5-9.2h6.2
		v-3.1c0-4.5-2.4-6.9-7.5-6.9c-3.8,0-6.3,1.8-8,4.7l-2.9-2.8c1.7-3.4,5.5-6.2,11.2-6.2c7.6,0,12.1,4,12.1,10.6v17.4h3.6v4.3H928.1z
		 M922.3,368.4v-5.2h-6.5c-5.6,0-8.1,1.7-8.1,4.8v1.3c0,3.1,2.4,4.9,6.2,4.9C918.8,374.2,922.3,371.7,922.3,368.4z"/>
	<path d="M937.8,377.6V346h4.9v5.1h0.2c1.5-3.5,4.2-5.9,8.9-5.9c6.5,0,10.6,4.4,10.6,12v20.2h-4.9v-19.4c0-5.6-2.4-8.5-7.2-8.5
		c-3.9,0-7.7,2-7.7,6v21.9H937.8z"/>
	<path d="M985.4,377.6v-4.3h6v-34.1h-6v-4.3h17.1v4.3h-6v34.1h6v4.3H985.4z"/>
	<path d="M1011.9,334.9h17.6c7,0,11.4,4.3,11.4,11c0,6.4-4.1,8.6-6.9,9.1v0.4c3.1,0.2,8.4,2.8,8.4,9.9c0,7-4.7,12.4-11,12.4h-19.4
		V334.9z M1017.1,353.4h11.8c4,0,6.5-2.1,6.5-5.9v-2.1c0-3.8-2.4-5.9-6.5-5.9h-11.8V353.4z M1017.1,373.1h12.7
		c4.4,0,7.1-2.3,7.1-6.6v-2.1c0-4.3-2.7-6.6-7.1-6.6h-12.7V373.1z"/>
	<path d="M1051.8,334.9h6.8l12.2,23h0.3l12.3-23h6.6v42.7h-5v-36h-0.3l-3.6,7.2l-10.2,18.6l-10.2-18.6l-3.6-7.2h-0.3v36h-5V334.9z"
		/>
	<path d="M1113.8,356.5c0-14.3,6.4-22.3,17.2-22.3c7.1,0,12,3.4,14.7,9.4l-4.2,2.5c-1.7-4.4-5.3-7.3-10.5-7.3
		c-7.3,0-11.7,5.8-11.7,14.6v6.4c0,8.7,4.3,14.1,11.7,14.1c5.4,0,9.2-3.1,10.9-7.7l4.1,2.6c-2.7,6-7.9,9.7-15,9.7
		C1120.2,378.3,1113.8,370.7,1113.8,356.5z"/>
	<path d="M1151.1,361.8c0-10,5.8-16.5,14.3-16.5c8.4,0,14.3,6.5,14.3,16.5s-5.8,16.5-14.3,16.5
		C1156.9,378.3,1151.1,371.8,1151.1,361.8z M1174.4,364.1v-4.5c0-6.7-3.7-9.9-9-9.9s-9,3.2-9,9.9v4.5c0,6.7,3.7,9.9,9,9.9
		S1174.4,370.7,1174.4,364.1z"/>
	<path d="M1187.7,377.6V346h4.9v5.1h0.2c1.4-3.2,3.6-5.9,8.5-5.9c4.2,0,8,1.9,9.7,6.4h0.1c1.2-3.4,4.2-6.4,9.6-6.4
		c6.4,0,10.3,4.4,10.3,12v20.2h-4.9v-19.4c0-5.6-2.1-8.5-6.9-8.5c-3.9,0-7.4,2-7.4,6v21.9h-4.9v-19.4c0-5.6-2.1-8.5-6.8-8.5
		c-3.9,0-7.5,2-7.5,6v21.9H1187.7z"/>
	<path d="M1241.1,346h4.9v5.1h0.2c1.7-4,4.9-5.9,9.2-5.9c7.9,0,12.8,6.4,12.8,16.5s-5,16.5-12.8,16.5c-4.3,0-7.3-2-9.2-5.9h-0.2
		v17.4h-4.9V346z M1263,364.5v-5.4c0-5.6-3.4-9.4-8.9-9.4c-4.5,0-8.1,2.6-8.1,6.1v11.7c0,4.1,3.7,6.4,8.1,6.4
		C1259.6,373.9,1263,370.1,1263,364.5z"/>
	<path d="M1299.5,377.6c-3.6,0-5.1-2.2-5.4-5.1h-0.3c-1.3,3.9-4.7,5.9-9.1,5.9c-6.7,0-10.6-3.7-10.6-9.5c0-5.9,4.3-9.2,13.5-9.2h6.2
		v-3.1c0-4.5-2.4-6.9-7.5-6.9c-3.8,0-6.3,1.8-8,4.7l-2.9-2.8c1.7-3.4,5.5-6.2,11.2-6.2c7.6,0,12.1,4,12.1,10.6v17.4h3.6v4.3H1299.5z
		 M1293.7,368.4v-5.2h-6.5c-5.6,0-8.1,1.7-8.1,4.8v1.3c0,3.1,2.4,4.9,6.2,4.9C1290.2,374.2,1293.7,371.7,1293.7,368.4z"/>
	<path d="M1309.2,377.6V346h4.9v5.1h0.2c1.5-3.5,4.2-5.9,8.9-5.9c6.5,0,10.6,4.4,10.6,12v20.2h-4.9v-19.4c0-5.6-2.4-8.5-7.2-8.5
		c-3.9,0-7.7,2-7.7,6v21.9H1309.2z"/>
	<path d="M1362.9,346h4.8l-14.1,38.9c-1.4,3.8-2.7,4.9-7.3,4.9h-2.5v-4.3h5l2.4-6.7l-11.8-32.8h4.9l7.6,21.5l1.5,5.1h0.3l1.7-5.1
		L1362.9,346z"/>
</g>
<g id="Layer_2">
	<g id="Layer_4">
		<path class="st0" d="M822.3,218.7c0-37.4,16.1-65.2,44.1-77C836.3,60.9,758.5,3.3,667.3,3.3c-87.2,0-165.5,53.3-197.6,134.4
			c27.6,8,42.1,36.9,42.1,81.1c0,38.4-14.8,68.3-40.4,78.9c45.4,108.2,169.8,159.1,278,113.7c52.2-21.9,93.5-63.7,114.7-116.2
			C837.6,283.5,822.3,256.9,822.3,218.7z"/>
	</g>
	<g id="Layer_2-2">
		<path d="M78,295.3c-31.8-0.3-47.3-18.2-47.3-52.2v-66.8H10.3v-29.9h20.4v-31.2l42.9-4.9v36.1h33.1l-4.6,29.9H73.6v66.3
			c0,13.9,4.6,18.7,13.6,18.7c4.9,0,9.8-1.4,15.5-4.9l14.4,27.4C106.2,291.5,91,295.3,78,295.3z"/>
		<path d="M210.6,290.7l-1.9-18.2c-10.6,15.2-24.7,22.8-43.7,22.8c-26.9,0-40.2-17.4-40.2-45.3V146.5h42.9v98.1
			c0,14.7,4.9,19,13.9,19c8.9,0,17.1-6,23.4-16.8V146.5h42.9v144.3H210.6z"/>
		<path d="M357.8,144.5l-6.8,41.6c-4.6-1.1-8.1-1.9-13-1.9c-17.9,0-25.3,13.3-29.9,35.3V291h-42.9V146.7h37.5l3.5,28
			c6.5-20.1,20.7-32.1,37.2-32.1C348.3,142.5,353.1,143.1,357.8,144.5z"/>
		<path d="M505.8,218.9c0,44.6-21.5,76.6-57.3,76.6c-16,0-29.1-7.1-37.8-18.5l-2.2,13.9h-38V89.3l42.9-4.6v76.6
			c9-12,23-19.2,38-19.3C487.1,142,505.8,170.6,505.8,218.9z M461.3,218.9c0-36.7-9.8-45.3-23.1-45.3c-10.3,0-18.5,6.2-24.7,16.8v60
			c5.4,8.7,13.6,13.9,22.8,13.9C451,264.3,461.3,252.6,461.3,218.9z"/>
		<path class="st1" d="M667,219.2c0,46.1-26.6,76.5-70.5,76.5c-43.7,0-70.5-28.2-70.5-76.8c0-46.1,26.6-76.5,70.5-76.5
			C640.4,142.5,667,170.7,667,219.2z M570.4,219c0,32,8.7,45.3,26,45.3c17.4,0,26-13.8,26-45c0-32-8.7-45.3-26-45.3
			C579.1,173.9,570.4,187.8,570.4,219L570.4,219z"/>
		<path class="st1" d="M806.1,185.9v105.2h-42.9v-97.9c0-15.2-5.2-19.3-13.6-19.3c-9.5,0-17.4,6.8-24.9,18.7v98.5h-42.9v-144h37.4
			l3,17.1c12.2-14.4,26-21.7,43.9-21.7C791.2,142.5,806.1,158.5,806.1,185.9z"/>
		<path d="M970.4,219.2c0,46.1-26.6,76.5-70.5,76.5c-43.7,0-70.5-28.2-70.5-76.8c0-46.1,26.6-76.5,70.5-76.5
			C943.8,142.5,970.4,170.7,970.4,219.2z M873.9,219c0,32,8.7,45.3,26,45.3c17.4,0,26-13.8,26-45c0-32-8.7-45.3-26-45.3
			C882.6,173.9,873.9,187.8,873.9,219L873.9,219z"/>
		<path d="M1178.3,185.9v105.2h-42.9v-97.9c0-15.2-5.7-19.3-12.2-19.3c-9.2,0-15.8,6.8-22,18.7v98.5h-42.9v-97.9
			c0-15.2-5.7-19.3-12.2-19.3c-8.9,0-15.8,6.8-22,18.7v98.5h-42.9v-144h37.4l3,16.8c11.1-14.1,24.1-21.4,41.8-21.4
			c16,0,28.5,8.1,33.9,22.8c11.4-15.2,24.6-22.8,43.1-22.8C1162.8,142.5,1178.3,158.5,1178.3,185.9z"/>
		<path d="M1240.3,95.4c0,13.8-10.6,24.4-25.5,24.4s-25.2-10.6-25.2-24.4s10.3-24.4,25.2-24.4S1240.3,81.6,1240.3,95.4z M1193.7,291
			V146.9h42.9V291H1193.7z"/>
		<path d="M1368.4,159.9l-18.7,25.8c-8.9-7.3-17.4-10.6-27.1-10.6c-18.4,0-29,12.5-29,44.8c0,32,11.4,41.8,28.5,41.8
			c10.3,0,17.4-3.3,26.8-10.6l19.5,27.4c-13.3,10.6-28.8,17.1-48.5,17.1c-44.2,0-71.3-29.8-71.3-75.4c0-45.8,27.4-77.8,70.5-77.8
			C1339.1,142.3,1354.6,148.3,1368.4,159.9z"/>
	</g>
</g>
</svg>
