<svg id="Layer_1" data-name="Layer 1" xmlns="http://www.w3.org/2000/svg" viewBox="0 0 69 124.22"><defs><style>.cls-1{fill:#007eab;}.cls-2{fill:#ff7600;}.cls-3{fill:#f4ba16;}.cls-4{fill:#af45f4;}</style></defs><polygon class="cls-1" points="55.5 0.01 42.13 23.32 55.63 46.6 69 23.29 55.5 0.01"/><polygon class="cls-2" points="28.65 0.07 15.27 23.38 42.13 23.32 55.5 0.01 28.65 0.07"/><polygon class="cls-3" points="55.52 0 28.65 0.07 42.15 23.3 69 23.29 55.52 0"/><polygon class="cls-3" points="28.02 99.9 41.98 124.22 56.05 99.96 42.09 75.64 28.02 99.9"/><polygon class="cls-4" points="13.96 124.16 41.98 124.22 28.02 99.9 0 99.84 13.96 124.16"/><polygon class="cls-2" points="13.97 124.18 41.99 124.22 56.04 99.95 28.01 99.91 13.97 124.18"/></svg>