<svg xmlns="http://www.w3.org/2000/svg" viewBox="0 0 267.948 70.807"><defs><style>.cls-1{fill:#343d53;}.cls-2{fill:#1ea482;}</style></defs><g id="Edit"><path class="cls-1" d="M83.441,29.907V1.7h16.812V4.689H86.836v9.456H99.081v2.991H86.836V29.907Z"/><path class="cls-1" d="M105.991,4.162a1.968,1.968,0,0,1-1.515-.5,1.859,1.859,0,0,1-.465-1.313V1.819a1.866,1.866,0,0,1,.465-1.314,2.527,2.527,0,0,1,3.031,0,1.871,1.871,0,0,1,.465,1.314v.525a1.863,1.863,0,0,1-.465,1.313A1.972,1.972,0,0,1,105.991,4.162Zm-1.617,4.891h3.234V29.907h-3.234Z"/><path class="cls-1" d="M111.326,29.907V9.053h3.233V12.41h.162a6.784,6.784,0,0,1,2.162-2.8,6.115,6.115,0,0,1,3.739-1.041,6.542,6.542,0,0,1,5.112,2.082,8.475,8.475,0,0,1,1.879,5.88V29.907H124.38V17.068q0-5.631-4.729-5.63a7.254,7.254,0,0,0-1.879.243,5.446,5.446,0,0,0-1.636.729,3.591,3.591,0,0,0-1.152,1.235,3.517,3.517,0,0,0-.425,1.762v14.5Z"/><path class="cls-1" d="M143.335,30.393a12.41,12.41,0,0,1-4.952-.95,10.1,10.1,0,0,1-3.758-2.789,12.894,12.894,0,0,1-2.4-4.567,21.172,21.172,0,0,1-.849-6.284,20.976,20.976,0,0,1,.849-6.265,13.117,13.117,0,0,1,2.4-4.566,10,10,0,0,1,3.758-2.809,13.324,13.324,0,0,1,9.882,0,9.968,9.968,0,0,1,3.779,2.809,13.168,13.168,0,0,1,2.405,4.566A21.01,21.01,0,0,1,155.3,15.8a21.207,21.207,0,0,1-.848,6.284,12.944,12.944,0,0,1-2.405,4.567,10.065,10.065,0,0,1-3.779,2.789A12.447,12.447,0,0,1,143.335,30.393Zm0-2.992a8.545,8.545,0,0,0,3.354-.648,7.492,7.492,0,0,0,2.647-1.866,8.51,8.51,0,0,0,1.718-2.92,11.313,11.313,0,0,0,.606-3.812V13.45a11.313,11.313,0,0,0-.606-3.812,8.51,8.51,0,0,0-1.718-2.92,7.489,7.489,0,0,0-2.647-1.865,8.981,8.981,0,0,0-6.709,0,7.48,7.48,0,0,0-2.647,1.865,8.494,8.494,0,0,0-1.718,2.92,11.313,11.313,0,0,0-.606,3.812v4.705a11.313,11.313,0,0,0,.606,3.812,8.494,8.494,0,0,0,1.718,2.92,7.483,7.483,0,0,0,2.647,1.866A8.539,8.539,0,0,0,143.335,27.4Z"/><path class="cls-1" d="M158.449,9.053h3.234V12.41h.161a5.861,5.861,0,0,1,2.365-2.9,7.1,7.1,0,0,1,3.738-.94,7.935,7.935,0,0,1,3.516.768,7.649,7.649,0,0,1,2.688,2.183,10.024,10.024,0,0,1,1.7,3.435,16.223,16.223,0,0,1,.586,4.526,16.226,16.226,0,0,1-.586,4.527,10.024,10.024,0,0,1-1.7,3.435,7.647,7.647,0,0,1-2.688,2.182,7.922,7.922,0,0,1-3.516.769,6.316,6.316,0,0,1-6.1-3.842h-.161V37.99h-3.234Zm8.609,18.47a5.564,5.564,0,0,0,4.324-1.726,6.455,6.455,0,0,0,1.576-4.529V17.693a6.454,6.454,0,0,0-1.576-4.529,5.564,5.564,0,0,0-4.324-1.726,7.01,7.01,0,0,0-2.082.3,5.775,5.775,0,0,0-1.717.832,4,4,0,0,0-1.152,1.279,3.214,3.214,0,0,0-.424,1.605v7.8a3.772,3.772,0,0,0,.424,1.809,4.071,4.071,0,0,0,1.152,1.34,5.209,5.209,0,0,0,1.717.832A7.49,7.49,0,0,0,167.058,27.523Z"/><path class="cls-1" d="M187.006,30.393a9.748,9.748,0,0,1-4.87-1.112,11.071,11.071,0,0,1-3.375-2.971l2.3-1.859a9.05,9.05,0,0,0,2.707,2.364,7.05,7.05,0,0,0,3.476.829,5.147,5.147,0,0,0,3.213-.889,3.23,3.23,0,0,0,.364-4.587,4.809,4.809,0,0,0-2.85-1.192l-1.656-.243a13.859,13.859,0,0,1-2.668-.626,7.445,7.445,0,0,1-2.122-1.132,4.862,4.862,0,0,1-1.414-1.758,5.719,5.719,0,0,1-.5-2.506,6.024,6.024,0,0,1,.565-2.687,5.406,5.406,0,0,1,1.557-1.92A6.782,6.782,0,0,1,184.1,8.953a10.878,10.878,0,0,1,2.95-.385,9.2,9.2,0,0,1,4.264.89,9.575,9.575,0,0,1,3.011,2.464l-2.142,1.94a6.38,6.38,0,0,0-5.376-2.545,4.632,4.632,0,0,0-3.051.868,2.932,2.932,0,0,0-1.03,2.365,2.472,2.472,0,0,0,1.03,2.222,7.687,7.687,0,0,0,2.971,1.011l1.616.242a8.674,8.674,0,0,1,4.931,2,5.261,5.261,0,0,1,1.455,3.86,5.907,5.907,0,0,1-2.061,4.769A8.511,8.511,0,0,1,187.006,30.393Z"/><path class="cls-1" d="M83.441,70.322V42.113h16.812V45.1H86.836V54.56H99.081v2.991H86.836V70.322Z"/><path class="cls-1" d="M112.232,70.807a9.392,9.392,0,0,1-3.84-.768,8.288,8.288,0,0,1-2.97-2.2A10.375,10.375,0,0,1,103.5,64.4a15.055,15.055,0,0,1,0-8.992,10.33,10.33,0,0,1,1.92-3.456,8.279,8.279,0,0,1,2.97-2.2,9.409,9.409,0,0,1,3.84-.768,9.275,9.275,0,0,1,3.819.768,8.51,8.51,0,0,1,2.97,2.2,10.146,10.146,0,0,1,1.94,3.456,15.034,15.034,0,0,1,0,8.992,10.188,10.188,0,0,1-1.94,3.435,8.519,8.519,0,0,1-2.97,2.2A9.259,9.259,0,0,1,112.232,70.807Zm0-2.869a5.876,5.876,0,0,0,4.284-1.617,6.609,6.609,0,0,0,1.657-4.931V58.4a6.612,6.612,0,0,0-1.657-4.931,6.483,6.483,0,0,0-8.568,0,6.608,6.608,0,0,0-1.657,4.931v2.99a6.605,6.605,0,0,0,1.657,4.931A5.873,5.873,0,0,0,112.232,67.938Z"/><path class="cls-1" d="M137.894,66.966h-.161a10.12,10.12,0,0,1-.789,1.421,5.3,5.3,0,0,1-1.152,1.24,5.416,5.416,0,0,1-1.657.86,7.208,7.208,0,0,1-2.262.32,6.6,6.6,0,0,1-5.133-2.081,8.411,8.411,0,0,1-1.9-5.881V49.468h3.233V62.307q0,5.631,4.769,5.631a7.28,7.28,0,0,0,1.879-.243,5.209,5.209,0,0,0,1.617-.729,3.685,3.685,0,0,0,1.132-1.236,3.6,3.6,0,0,0,.424-1.8V49.468h3.234V70.322h-3.234Z"/><path class="cls-1" d="M145.654,70.322V49.468h3.234v3.357h.161a6.792,6.792,0,0,1,2.162-2.8,6.109,6.109,0,0,1,3.739-1.041,6.548,6.548,0,0,1,5.112,2.081,8.472,8.472,0,0,1,1.879,5.881V70.322h-3.233V57.483q0-5.629-4.728-5.631a7.256,7.256,0,0,0-1.88.244,5.421,5.421,0,0,0-1.636.729,3.6,3.6,0,0,0-1.152,1.235,3.515,3.515,0,0,0-.424,1.761v14.5Z"/><path class="cls-1" d="M180.007,66.966h-.162a6.366,6.366,0,0,1-6.1,3.841,7.922,7.922,0,0,1-3.516-.768,7.626,7.626,0,0,1-2.687-2.183,9.972,9.972,0,0,1-1.7-3.435,17.771,17.771,0,0,1,0-9.052,9.99,9.99,0,0,1,1.7-3.435,7.637,7.637,0,0,1,2.687-2.183,7.935,7.935,0,0,1,3.516-.768,7.1,7.1,0,0,1,3.739.941,5.858,5.858,0,0,1,2.364,2.9h.162V40.415h3.233V70.322h-3.233Zm-5.375.972a7.53,7.53,0,0,0,2.081-.284,5.211,5.211,0,0,0,1.717-.833,4.062,4.062,0,0,0,1.152-1.341,3.753,3.753,0,0,0,.425-1.807v-7.8a3.2,3.2,0,0,0-.425-1.605,4.009,4.009,0,0,0-1.152-1.279,5.8,5.8,0,0,0-1.717-.832,7.014,7.014,0,0,0-2.081-.306,5.564,5.564,0,0,0-4.325,1.728,6.454,6.454,0,0,0-1.576,4.528v3.574a6.459,6.459,0,0,0,1.576,4.53A5.566,5.566,0,0,0,174.632,67.938Z"/><path class="cls-1" d="M204.012,70.322a3.171,3.171,0,0,1-2.606-.97,4.808,4.808,0,0,1-.991-2.424h-.2a5.4,5.4,0,0,1-2.263,2.91,7.038,7.038,0,0,1-3.759.969,7.316,7.316,0,0,1-5.153-1.7A5.965,5.965,0,0,1,187.2,64.5a5.263,5.263,0,0,1,2.162-4.527q2.163-1.577,6.73-1.576h4.122V56.338A4.508,4.508,0,0,0,199,52.944a5.177,5.177,0,0,0-3.719-1.172,5.6,5.6,0,0,0-3.172.849,6.99,6.99,0,0,0-2.122,2.262l-1.94-1.818a7.384,7.384,0,0,1,2.708-2.89,8.526,8.526,0,0,1,4.688-1.192,8.618,8.618,0,0,1,5.9,1.855,6.526,6.526,0,0,1,2.1,5.162V67.452h2.385v2.87Zm-9.295-2.263a8.244,8.244,0,0,0,2.222-.283,5.418,5.418,0,0,0,1.738-.809,3.987,3.987,0,0,0,1.132-1.212,2.9,2.9,0,0,0,.4-1.495V60.825h-4.284a7.824,7.824,0,0,0-4.061.807,2.611,2.611,0,0,0-1.274,2.345v.848a2.823,2.823,0,0,0,1.112,2.385A4.84,4.84,0,0,0,194.717,68.059Z"/><path class="cls-1" d="M214.2,70.322a3.313,3.313,0,0,1-2.567-.947,3.528,3.528,0,0,1-.869-2.48V52.338h-3.435v-2.87h1.94a1.906,1.906,0,0,0,1.435-.424,2.2,2.2,0,0,0,.384-1.475v-3.88h2.909v5.779h4.567v2.87h-4.567V67.452h4.244v2.87Z"/><path class="cls-1" d="M225.256,44.578a1.972,1.972,0,0,1-1.515-.505,1.865,1.865,0,0,1-.465-1.314v-.525a1.866,1.866,0,0,1,.465-1.314,2.527,2.527,0,0,1,3.031,0,1.871,1.871,0,0,1,.465,1.314v.525a1.869,1.869,0,0,1-.465,1.314A1.976,1.976,0,0,1,225.256,44.578Zm-1.616,4.89h3.233V70.322H223.64Z"/><path class="cls-1" d="M239.7,70.807a9.391,9.391,0,0,1-3.839-.768,8.271,8.271,0,0,1-2.97-2.2,10.357,10.357,0,0,1-1.92-3.435,15.055,15.055,0,0,1,0-8.992,10.313,10.313,0,0,1,1.92-3.456,8.262,8.262,0,0,1,2.97-2.2,9.407,9.407,0,0,1,3.839-.768,9.269,9.269,0,0,1,3.819.768,8.5,8.5,0,0,1,2.971,2.2,10.162,10.162,0,0,1,1.94,3.456,15.055,15.055,0,0,1,0,8.992,10.205,10.205,0,0,1-1.94,3.435,8.514,8.514,0,0,1-2.971,2.2A9.253,9.253,0,0,1,239.7,70.807Zm0-2.869a5.876,5.876,0,0,0,4.284-1.617,6.605,6.605,0,0,0,1.657-4.931V58.4a6.608,6.608,0,0,0-1.657-4.931,6.482,6.482,0,0,0-8.567,0,6.608,6.608,0,0,0-1.657,4.931v2.99a6.605,6.605,0,0,0,1.657,4.931A5.871,5.871,0,0,0,239.7,67.938Z"/><path class="cls-1" d="M251.66,70.322V49.468h3.234v3.357h.161a6.8,6.8,0,0,1,2.162-2.8,6.109,6.109,0,0,1,3.739-1.041,6.548,6.548,0,0,1,5.112,2.081,8.472,8.472,0,0,1,1.88,5.881V70.322h-3.233V57.483q0-5.629-4.729-5.631a7.256,7.256,0,0,0-1.88.244,5.432,5.432,0,0,0-1.636.729,3.6,3.6,0,0,0-1.152,1.235,3.515,3.515,0,0,0-.424,1.761v14.5Z"/><polygon class="cls-2" points="26.503 70.322 0 55.507 0 25.046 26.503 39.86 26.503 70.322"/><polygon class="cls-2" points="35.565 70.322 62.068 55.507 62.068 25.046 35.565 39.86 35.565 70.322"/><polygon class="cls-2" points="31.03 1.698 4.547 17.419 31.03 32.222 57.513 17.419 31.03 1.698"/></g></svg>