<?xml version="1.0" encoding="UTF-8"?><svg id="Layer_2" xmlns="http://www.w3.org/2000/svg" xmlns:xlink="http://www.w3.org/1999/xlink" viewBox="0 0 345.11 141.8"><defs><style>.cls-1{fill:url(#linear-gradient);}.cls-2{fill:url(#linear-gradient-2);}</style><linearGradient id="linear-gradient" x1="256.84" y1="141.8" x2="256.84" y2="0" gradientUnits="userSpaceOnUse"><stop offset="0" stop-color="#af45f4"/><stop offset=".05" stop-color="#a548f0"/><stop offset=".14" stop-color="#8c50e5"/><stop offset=".26" stop-color="#635dd4"/><stop offset=".39" stop-color="#2b6fbd"/><stop offset=".48" stop-color="#007eab"/><stop offset=".95" stop-color="#1ea482"/></linearGradient><linearGradient id="linear-gradient-2" x1="315.68" y1="0" x2="315.68" y2="141.8" gradientUnits="userSpaceOnUse"><stop offset="0" stop-color="#f4ba16"/><stop offset=".56" stop-color="#ff7600"/><stop offset=".63" stop-color="#f96d00"/><stop offset=".74" stop-color="#eb5402"/><stop offset=".88" stop-color="#d52d05"/><stop offset="1" stop-color="#c00808"/></linearGradient></defs><g id="Layer_1-2"><g><path class="cls-1" d="M239.48,141.8c-2.32,0-4.66-.66-6.73-2.05-5.54-3.72-7.01-11.23-3.29-16.77l31.31-46.61c1.79-2.66,1.79-8.28,0-10.94l-31.31-46.61c-3.72-5.54-2.25-13.05,3.29-16.77s13.05-2.25,16.77,3.29l31.31,46.61c7.25,10.8,7.25,27.08,0,37.88l-31.31,46.61c-2.33,3.47-6.15,5.35-10.04,5.35Z"/><path class="cls-2" d="M333.04,141.8c-3.89,0-7.71-1.87-10.04-5.35l-31.31-46.61c-7.25-10.8-7.25-27.08,0-37.88l31.31-46.61c3.72-5.54,11.23-7.01,16.77-3.29,5.54,3.72,7.01,11.23,3.29,16.77l-31.31,46.61c-1.79,2.66-1.79,8.28,0,10.94l31.31,46.61c3.72,5.54,2.25,13.05-3.29,16.77-2.07,1.39-4.41,2.05-6.73,2.05Z"/></g><g><path d="M0,91.69V38.08H34.49v8.99H10.14v12.98H31.34v8.99H10.14v22.66H0Z"/><path d="M44.01,45.76c-2.05,0-3.52-.46-4.42-1.38-.9-.92-1.34-2.1-1.34-3.53v-1.54c0-1.43,.45-2.61,1.34-3.53,.9-.92,2.37-1.38,4.42-1.38s3.46,.46,4.38,1.38,1.38,2.1,1.38,3.53v1.54c0,1.43-.46,2.61-1.38,3.53s-2.38,1.38-4.38,1.38Zm-4.92,5.84h9.83v40.1h-9.83V51.6Z"/><path d="M55.69,91.69V51.6h9.83v6.68h.38c.82-2.15,2.11-3.96,3.88-5.42,1.77-1.46,4.21-2.19,7.34-2.19,4.15,0,7.32,1.36,9.52,4.07,2.2,2.71,3.3,6.58,3.3,11.6v25.35h-9.83v-24.35c0-2.87-.51-5.02-1.54-6.45-1.02-1.43-2.71-2.15-5.07-2.15-1.02,0-2.01,.14-2.96,.42-.95,.28-1.79,.69-2.53,1.23-.74,.54-1.34,1.2-1.81,2-.46,.79-.69,1.73-.69,2.8v26.5h-9.83Z"/><path d="M117.91,92.62c-3.53,0-6.73-.59-9.6-1.77-2.87-1.18-5.31-2.94-7.34-5.3-2.02-2.36-3.6-5.25-4.72-8.68-1.13-3.43-1.69-7.42-1.69-11.98s.56-8.49,1.69-11.94c1.13-3.46,2.7-6.36,4.72-8.72,2.02-2.35,4.47-4.12,7.34-5.3,2.87-1.18,6.07-1.77,9.6-1.77s6.73,.59,9.6,1.77c2.87,1.18,5.33,2.95,7.37,5.3,2.05,2.36,3.62,5.26,4.72,8.72,1.1,3.46,1.65,7.44,1.65,11.94s-.55,8.55-1.65,11.98c-1.1,3.43-2.68,6.32-4.72,8.68-2.05,2.36-4.51,4.12-7.37,5.3-2.87,1.18-6.07,1.77-9.6,1.77Zm0-8.99c3.84,0,6.9-1.28,9.18-3.84,2.28-2.56,3.42-6.15,3.42-10.75v-8.3c0-4.61-1.14-8.19-3.42-10.75-2.28-2.56-5.34-3.84-9.18-3.84s-6.9,1.28-9.18,3.84c-2.28,2.56-3.42,6.15-3.42,10.75v8.3c0,4.61,1.14,8.19,3.42,10.75,2.28,2.56,5.34,3.84,9.18,3.84Z"/><path d="M146.32,51.6h9.83v6.61h.31c.72-2.3,2.07-4.13,4.07-5.49,2-1.36,4.33-2.04,6.99-2.04,5.12,0,9.03,1.8,11.71,5.41,2.69,3.61,4.03,8.77,4.03,15.48s-1.34,11.96-4.03,15.59-6.59,5.45-11.71,5.45c-2.66,0-4.98-.69-6.95-2.07-1.97-1.38-3.34-3.23-4.11-5.53h-.31v22.04h-9.83V51.6Zm18.05,32.88c2.56,0,4.63-.85,6.22-2.54,1.59-1.69,2.38-3.97,2.38-6.84v-6.91c0-2.87-.79-5.16-2.38-6.88-1.59-1.71-3.66-2.57-6.22-2.57-2.36,0-4.31,.59-5.88,1.77-1.56,1.18-2.34,2.74-2.34,4.69v12.75c0,2.1,.78,3.71,2.34,4.84,1.56,1.13,3.52,1.69,5.88,1.69Z"/><path d="M202.47,92.62c-3.84,0-7.07-.65-9.68-1.96-2.61-1.31-4.92-3.11-6.91-5.42l5.99-5.84c1.48,1.69,3.11,3.02,4.88,3.99,1.77,.97,3.8,1.46,6.11,1.46s4.06-.41,5.11-1.23c1.05-.82,1.58-1.95,1.58-3.38,0-1.18-.37-2.11-1.11-2.8-.74-.69-2.01-1.17-3.8-1.42l-3.99-.54c-4.35-.56-7.67-1.81-9.95-3.73-2.28-1.92-3.42-4.72-3.42-8.41,0-1.95,.36-3.7,1.08-5.26,.72-1.56,1.74-2.89,3.07-3.99,1.33-1.1,2.93-1.95,4.8-2.53,1.87-.59,3.96-.88,6.26-.88,1.95,0,3.67,.14,5.19,.42,1.51,.28,2.88,.69,4.11,1.23,1.23,.54,2.35,1.2,3.38,2,1.02,.79,2.02,1.68,3,2.65l-5.76,5.76c-1.18-1.23-2.59-2.25-4.22-3.07-1.64-.82-3.43-1.23-5.38-1.23-2.15,0-3.7,.38-4.65,1.15-.95,.77-1.42,1.77-1.42,3,0,1.33,.4,2.34,1.19,3.03,.79,.69,2.14,1.19,4.03,1.5l4.07,.54c8.65,1.23,12.98,5.17,12.98,11.83,0,1.95-.4,3.73-1.19,5.34-.79,1.61-1.91,3-3.34,4.15-1.43,1.15-3.16,2.05-5.19,2.69-2.02,.64-4.29,.96-6.8,.96Z"/></g></g></svg>