<?xml version="1.0" encoding="utf-8"?>
<!-- Generator: Adobe Illustrator 26.2.1, SVG Export Plug-In . SVG Version: 6.00 Build 0)  -->
<svg version="1.1" id="a" xmlns="http://www.w3.org/2000/svg" xmlns:xlink="http://www.w3.org/1999/xlink" x="0px" y="0px"
	 viewBox="0 0 200 86.6" style="enable-background:new 0 0 200 86.6;" xml:space="preserve">
<style type="text/css">
	.st0{fill:#4D5966;}
	.st1{fill:#AF45F4;}
	.st2{fill:#1EA482;}
	.st3{fill:#007EAB;}
	.st4{fill:#F4BA16;}
	.st5{fill:#FF7600;}
	.st6{fill:#FFFFFF;}
</style>
<polygon class="st0" points="137.9,19 150.9,41.6 152.5,38.8 141.1,19 "/>
<polygon class="st1" points="178.5,38.8 194.8,10.6 191.5,10.6 178.5,33.1 "/>
<polygon class="st2" points="152.5,38.8 155.7,44.4 150.9,52.8 144.4,52.8 "/>
<polygon class="st2" points="162.2,27.5 165.5,27.5 167.1,30.3 165.5,33.1 "/>
<polygon class="st2" points="163.9,24.7 160.6,19 157.4,19 162.2,27.5 "/>
<polygon class="st3" points="154.1,2.1 147.6,2.1 146,5 149.2,5 157.4,19 160.6,19 163.9,24.7 162.2,27.5 165.5,27.5 168.8,27.5 "/>
<polygon class="st4" points="133,10.6 136.2,10.6 134.6,13.4 "/>
<polygon class="st5" points="194.8,78.2 173.6,41.6 172,44.4 191.5,78.2 "/>
<polygon class="st4" points="183.4,64.1 185,61.3 186.6,64.1 "/>
<polygon class="st4" points="185,66.9 186.6,64.1 188.3,66.9 "/>
<polygon class="st4" points="186.6,69.7 188.3,66.9 189.9,69.7 "/>
<polygon class="st1" points="180.1,47.2 178.5,50 176.9,47.2 "/>
<polygon class="st4" points="181.8,50 180.1,52.8 178.5,50 "/>
<g>
	<polygon class="st3" points="175.3,44.4 178.5,44.4 178.5,33.1 173.6,41.6 	"/>
	<polygon class="st3" points="178.5,44.4 175.3,44.4 176.9,47.2 180.1,47.2 	"/>
</g>
<polygon class="st1" points="168.8,27.5 165.5,27.5 167.1,30.3 "/>
<polygon class="st4" points="167.1,58.5 162.2,66.9 159,66.9 165.5,55.7 "/>
<polygon class="st3" points="163.9,64.1 165.5,66.9 162.2,66.9 "/>
<polygon class="st5" points="165.5,61.3 167.1,64.1 163.9,64.1 "/>
<polygon class="st0" points="167.1,24.7 168.8,27.5 165.5,27.5 "/>
<polygon class="st4" points="136.2,10.6 137.9,13.4 134.6,13.4 "/>
<polygon class="st4" points="134.6,7.8 136.2,10.6 133,10.6 "/>
<polygon class="st0" points="170.4,64.1 168.8,61.3 167.1,58.5 165.5,61.3 167.1,64.1 165.5,66.9 168.8,66.9 172,66.9 "/>
<polygon class="st2" points="172,66.9 165.5,66.9 159,66.9 154.1,75.4 149.2,83.8 155.7,83.8 160.6,75.4 167.1,75.4 173.6,75.4 
	175.3,72.6 "/>
<polygon class="st3" points="155.7,44.4 157.4,47.2 139.5,78.2 136.2,78.2 "/>
<polygon class="st4" points="136.2,10.6 157.4,47.2 159,44.4 139.5,10.6 "/>
<polygon class="st4" points="196.4,7.8 198,10.6 178.5,44.4 178.5,38.8 "/>
<polygon class="st3" points="185,27.5 186.6,24.7 183.4,24.7 "/>
<polygon class="st5" points="196.4,13.4 198,10.6 194.8,10.6 "/>
<polygon class="st5" points="188.3,27.5 186.6,24.7 185,27.5 "/>
<polygon class="st0" points="181.8,50 180.1,47.2 178.5,50 "/>
<polygon class="st3" points="155.7,83.8 165.5,83.8 160.6,75.4 "/>
<polygon class="st2" points="194.8,5 193.1,2.1 180.1,2.1 167.1,24.7 168.8,27.5 181.8,5 "/>
<polygon class="st3" points="196.4,81 198,83.8 196.4,86.6 180.1,86.6 173.6,75.4 175.3,72.6 181.8,83.8 194.8,83.8 "/>
<g>
	<polygon id="b" class="st6" points="181.8,83.8 194.8,83.8 196.4,81 194.8,78.2 191.5,78.2 191.5,78.2 172,44.4 191.5,10.6 
		194.8,10.6 196.4,7.8 194.8,5 181.8,5 165.5,33.1 149.2,5 149.2,5 136.2,5 134.6,7.8 136.2,10.6 139.5,10.6 139.5,10.6 159,44.4 
		139.5,78.2 139.5,78.2 136.2,78.2 134.6,81 136.2,83.8 149.2,83.8 165.5,55.7 181.8,83.8 	"/>
	<g>
		<path class="st6" d="M1,57.6v-32h21.2v6.2H8v6.5h12.1v6.2H8v13.1C8,57.6,1,57.6,1,57.6z"/>
		<path class="st6" d="M27.6,31c-1.4,0-2.4-0.3-3-0.9s-0.9-1.4-0.9-2.4v-1c0-1,0.3-1.8,0.9-2.4c0.6-0.6,1.6-0.9,3-0.9s2.4,0.3,3,0.9
			c0.6,0.6,0.9,1.4,0.9,2.4v1c0,1-0.3,1.8-0.9,2.4C30,30.6,29,31,27.6,31z M24.2,33.5H31v24.1h-6.8V33.5z"/>
		<path class="st6" d="M34.1,57.6V33.5h6.8v4.1h0.3c0.4-1.3,1.2-2.3,2.2-3.3c1.1-0.9,2.6-1.4,4.4-1.4c2.5,0,4.3,0.8,5.6,2.5
			c1.3,1.7,1.9,4,1.9,7.1v15.1h-6.8V43.1c0-1.6-0.2-2.7-0.7-3.5c-0.5-0.7-1.4-1.1-2.6-1.1c-0.6,0-1.1,0.1-1.6,0.2
			c-0.5,0.1-1,0.4-1.4,0.7c-0.4,0.3-0.7,0.7-1,1.1c-0.2,0.4-0.4,1-0.4,1.5v15.6L34.1,57.6L34.1,57.6z"/>
		<path class="st6" d="M71.5,58.2c-2.1,0-4-0.3-5.8-1.1c-1.7-0.7-3.2-1.8-4.4-3.1c-1.2-1.4-2.2-3.1-2.8-5.2c-0.7-2.1-1-4.5-1-7.2
			s0.3-5.1,1-7.2c0.7-2.1,1.6-3.8,2.8-5.2c1.2-1.4,2.7-2.4,4.4-3.1c1.7-0.7,3.7-1.1,5.8-1.1s4,0.3,5.8,1.1c1.7,0.7,3.2,1.8,4.4,3.1
			c1.2,1.4,2.2,3.1,2.8,5.2c0.7,2.1,1,4.5,1,7.2s-0.3,5.1-1,7.2c-0.7,2.1-1.6,3.8-2.8,5.2c-1.2,1.4-2.7,2.4-4.4,3.1
			C75.5,57.8,73.6,58.2,71.5,58.2z M71.5,52c2.1,0,3.8-0.7,4.9-2.1s1.8-3.3,1.8-5.9v-4.8c0-2.6-0.6-4.5-1.8-5.9
			c-1.2-1.4-2.8-2.1-4.9-2.1c-2.1,0-3.8,0.7-4.9,2.1c-1.2,1.4-1.8,3.3-1.8,5.9V44c0,2.6,0.6,4.5,1.8,5.9C67.7,51.3,69.4,52,71.5,52z
			"/>
		<path class="st6" d="M87.8,33.5h6.8v4h0.2c0.3-1.3,1.1-2.4,2.3-3.3c1.2-0.9,2.6-1.3,4.2-1.3c3.1,0,5.4,1.1,6.9,3.2
			s2.3,5.3,2.3,9.4s-0.8,7.2-2.3,9.4c-1.6,2.2-3.9,3.2-6.9,3.2c-0.8,0-1.5-0.1-2.2-0.3c-0.7-0.2-1.3-0.6-1.9-1
			c-0.6-0.4-1-0.9-1.4-1.5c-0.4-0.6-0.7-1.2-0.9-1.8h-0.2v13.2h-6.8L87.8,33.5L87.8,33.5z M99,52.7c1.3,0,2.3-0.5,3.2-1.4
			c0.8-0.9,1.3-2.1,1.3-3.6v-4.2c0-1.5-0.4-2.7-1.3-3.6c-0.8-0.9-1.9-1.4-3.2-1.4s-2.3,0.3-3.2,0.9c-0.8,0.6-1.3,1.5-1.3,2.6v7.1
			c0,1.1,0.4,2,1.3,2.6C96.7,52.3,97.7,52.7,99,52.7L99,52.7z"/>
		<path class="st6" d="M121.5,58.2c-2.3,0-4.3-0.4-5.9-1.1c-1.6-0.7-3-1.8-4.3-3.2l4-4c0.9,0.9,1.8,1.7,2.8,2.2
			c1,0.6,2.2,0.8,3.5,0.8c1.3,0,2.3-0.2,2.8-0.6c0.5-0.4,0.8-1,0.8-1.7c0-1.1-0.8-1.8-2.4-2l-2.6-0.3c-5.4-0.7-8.1-3.1-8.1-7.4
			c0-1.2,0.2-2.2,0.7-3.2c0.4-1,1.1-1.8,1.9-2.5c0.8-0.7,1.8-1.2,2.9-1.6c1.1-0.4,2.4-0.6,3.9-0.6c1.3,0,2.4,0.1,3.3,0.3
			c1,0.2,1.8,0.4,2.6,0.7c0.7,0.3,1.4,0.7,2.1,1.2c0.6,0.5,1.2,1,1.9,1.6l-3.9,4c-0.8-0.8-1.6-1.4-2.6-1.8c-1-0.4-1.9-0.7-3-0.7
			c-1.2,0-2,0.2-2.5,0.6c-0.5,0.4-0.7,0.9-0.7,1.5c0,0.6,0.2,1.1,0.5,1.5c0.3,0.3,1,0.6,2,0.8l2.7,0.4c5.3,0.7,7.9,3.1,7.9,7.2
			c0,1.2-0.2,2.2-0.7,3.2c-0.5,1-1.2,1.8-2.1,2.5c-0.9,0.7-2,1.3-3.3,1.7S123.1,58.2,121.5,58.2L121.5,58.2z"/>
	</g>
</g>
</svg>
