<?xml version="1.0" encoding="utf-8"?>
<!-- Generator: Adobe Illustrator 25.2.0, SVG Export Plug-In . SVG Version: 6.00 Build 0)  -->
<svg version="1.1" id="Layer_1" xmlns="http://www.w3.org/2000/svg" xmlns:xlink="http://www.w3.org/1999/xlink" x="0px" y="0px"
	 viewBox="0 0 138.9 122.3" style="enable-background:new 0 0 138.9 122.3;" xml:space="preserve">
<style type="text/css">
	.st0{fill:#1A997D;}
	.st1{fill:#2B404F;}
	.st2{fill:#2E404F;}
	.st3{fill:#4D5966;}
</style>
<path class="st0" d="M16.1,87.1c0,3.9-6.1,3.9-6.1,0C10,83.1,16.1,83.1,16.1,87.1"/>
<path class="st0" d="M41.3,62.1c0,3.9-6.1,3.9-6.1,0C35.2,58.2,41.3,58.2,41.3,62.1"/>
<path class="st0" d="M41.3,112c0,3.9-6.1,3.9-6.1,0C35.2,108.1,41.3,108,41.3,112"/>
<path class="st1" d="M66,62.1c0,3.9-6.1,3.9-6.1,0C59.9,58.2,66,58.2,66,62.1"/>
<path class="st0" d="M66.2,87.1c0,3.9-6.1,3.9-6.1,0C60.1,83.1,66.2,83.1,66.2,87.1"/>
<path class="st2" d="M16.3,112c0,3.9-6.1,3.9-6.1,0C10.2,108.1,16.3,108,16.3,112"/>
<path class="st2" d="M41.3,87c0,3.9-6.1,3.9-6.1,0C35.2,83.1,41.3,83.1,41.3,87"/>
<polygon class="st0" points="101.4,41.6 71,23.9 101.5,6.4 132,24 "/>
<polygon class="st3" points="101.3,76.8 101.4,41.6 132,24 131.9,59.2 "/>
<polygon class="st2" points="101.5,6.4 101.4,41.6 131.9,59.2 132,24 "/>
</svg>
