<?xml version="1.0" encoding="utf-8"?>
<!-- Generator: Adobe Illustrator 25.3.1, SVG Export Plug-In . SVG Version: 6.00 Build 0)  -->
<svg version="1.1" id="Layer_1" xmlns="http://www.w3.org/2000/svg" xmlns:xlink="http://www.w3.org/1999/xlink" x="0px" y="0px"
	 viewBox="0 0 1200 596.1" style="enable-background:new 0 0 1200 596.1;" xml:space="preserve">
<style type="text/css">
	.st0{fill:none;}
	.st1{fill:#1E2124;}
	.st2{fill:#FF661C;}
</style>
<g>
	<rect x="1.9" y="3.5" class="st0" width="1198.4" height="590.5"/>
	<g id="Cloudability">
		<path class="st1" d="M166.3,452.5c1.5,0,3,0.6,4.1,1.8l11.1,12c-6,7.5-13.8,13.5-22.6,17.4c-8.9,4-19.7,6-32.2,6
			c-10.4,0.2-20.6-1.8-30.2-5.7c-8.7-3.6-16.5-9.1-22.9-16c-6.5-7-11.4-15.3-14.5-24.3c-3.5-10-5.2-20.5-5.1-31
			c-0.1-10.6,1.7-21.2,5.4-31.1c3.4-9.1,8.6-17.3,15.3-24.3c6.7-6.9,14.7-12.3,23.5-15.9c9.6-3.9,19.9-5.8,30.2-5.7
			c11,0,20.7,1.8,29.3,5.4c8.1,3.3,15.5,8.1,21.8,14.2l-9.4,13c-0.6,0.9-1.3,1.6-2.1,2.2c-1.1,0.7-2.3,1-3.6,0.9
			c-1.1,0-2.2-0.3-3.2-0.9c-1.1-0.6-2.3-1.3-3.6-2.2s-2.9-1.8-4.6-2.9c-1.9-1.1-4-2.1-6.1-2.9c-2.6-1-5.3-1.7-8-2.2
			c-3.5-0.6-7-0.9-10.5-0.9c-6.4-0.1-12.7,1.1-18.5,3.6c-5.5,2.4-10.5,5.9-14.4,10.4c-4.2,4.9-7.4,10.6-9.3,16.7
			c-2.3,7.3-3.5,14.8-3.3,22.5c-0.1,7.7,1.1,15.4,3.6,22.6c2.1,6.1,5.4,11.8,9.7,16.7c4,4.5,9,8,14.5,10.4
			c5.7,2.4,11.7,3.6,17.9,3.6c3.5,0,6.9-0.2,10.4-0.6c2.9-0.4,5.8-1.1,8.6-2c2.6-0.9,5.1-2.1,7.4-3.5c2.5-1.5,4.8-3.3,6.9-5.3
			c0.7-0.6,1.4-1.1,2.2-1.5C164.6,452.7,165.4,452.5,166.3,452.5z"/>
		<path class="st1" d="M220.7,333.1v155H195v-155H220.7z"/>
		<path class="st1" d="M292.4,379.4c7.4-0.1,14.7,1.2,21.6,3.9c6.3,2.4,12,6.2,16.7,11c4.8,4.9,8.4,10.9,10.7,17.3
			c5,14.9,5,30.9,0,45.8c-2.3,6.5-5.9,12.4-10.7,17.4c-4.7,4.8-10.4,8.6-16.7,11c-6.9,2.7-14.2,4-21.6,3.9
			c-7.4,0.1-14.8-1.2-21.8-3.9c-6.3-2.4-12-6.2-16.7-11c-4.8-5-8.4-10.9-10.7-17.4c-5.1-14.8-5.1-30.9,0-45.8
			c2.3-6.5,6-12.4,10.7-17.3c4.7-4.8,10.4-8.6,16.7-11C277.5,380.6,284.9,379.3,292.4,379.4z M292.4,469.8c8.9,0,15.5-3,19.8-9
			c4.3-6,6.4-14.8,6.4-26.3c0-11.5-2.1-20.3-6.4-26.4c-4.3-6.1-10.9-9.1-19.8-9.1c-9,0-15.7,3-20.1,9.1c-4.3,6.1-6.5,14.9-6.5,26.3
			s2.2,20.2,6.5,26.2C276.7,466.8,283.4,469.8,292.4,469.8z"/>
		<path class="st1" d="M455.7,381.1v107h-15.8c-3.4,0-5.6-1.6-6.5-4.7l-1.8-8.5c-4.2,4.3-9.1,8-14.5,10.8
			c-5.8,2.9-12.2,4.3-18.7,4.1c-5.3,0.1-10.6-0.9-15.5-3c-4.4-1.9-8.2-4.8-11.3-8.4c-3.2-3.8-5.5-8.2-6.9-12.9
			c-1.6-5.3-2.4-10.9-2.4-16.4v-68h25.8v68c0,6.5,1.5,11.6,4.5,15.2s7.6,5.4,13.6,5.4c4.4,0,8.6-1,12.5-3c4.1-2.1,7.8-4.9,11.1-8.2
			V381L455.7,381.1z"/>
		<path class="st1" d="M572.9,333.1v155h-15.8c-3.4,0-5.6-1.6-6.5-4.7l-2.2-10.3c-4.2,4.9-9.2,8.9-14.9,12c-6,3.2-12.7,4.7-19.5,4.6
			c-11.3,0.2-22-5.1-28.6-14.2c-3.8-5.2-6.5-11-8.1-17.1c-2-7.6-3-15.5-2.9-23.4c-0.1-7.5,1-14.9,3.2-22.1c2-6.4,5.1-12.5,9.3-17.7
			c3.9-4.9,8.9-8.9,14.5-11.7c5.9-2.9,12.4-4.3,19-4.2c5.3-0.1,10.5,0.8,15.3,2.8c4.2,1.8,8.1,4.4,11.4,7.6v-56.4H572.9z
			 M547.1,408.4c-2.5-3.2-5.8-5.8-9.5-7.5c-3.5-1.5-7.3-2.2-11.1-2.2c-3.6-0.1-7.2,0.7-10.5,2.2c-3.2,1.5-5.9,3.8-8,6.6
			c-2.4,3.4-4.2,7.2-5.1,11.3c-1.3,5.3-1.9,10.7-1.9,16.1c-0.1,5.3,0.4,10.7,1.5,15.9c0.8,3.8,2.2,7.4,4.3,10.6
			c1.7,2.6,4.1,4.6,6.9,5.9c2.9,1.2,6,1.9,9.1,1.8c4.8,0.1,9.5-1,13.7-3.3c4.1-2.5,7.7-5.7,10.6-9.5L547.1,408.4z"/>
		<path class="st1" d="M594.2,396c12.3-11.3,27.1-16.9,44.4-16.9c5.7-0.1,11.5,1,16.8,3.1c4.8,1.9,9,4.8,12.6,8.6
			c3.5,3.8,6.1,8.2,7.8,13.1c1.8,5.4,2.7,11,2.7,16.7v67.6h-11.7c-1.9,0.1-3.9-0.3-5.6-1.1c-1.3-0.7-2.4-2.2-3.1-4.4l-2.3-7.7
			c-2.5,2.3-5.2,4.4-7.9,6.4c-2.5,1.8-5.2,3.4-8,4.6c-2.9,1.3-5.9,2.2-8.9,2.9c-3.5,0.7-7,1-10.5,1c-4.2,0-8.5-0.6-12.5-1.8
			c-3.6-1.1-7-3-9.9-5.5c-2.8-2.5-5-5.6-6.5-9.1c-1.6-4-2.4-8.3-2.3-12.6c0-2.7,0.5-5.5,1.4-8.1c1-2.8,2.5-5.4,4.4-7.7
			c2.3-2.7,5-5,8-6.9c3.7-2.4,7.8-4.3,12-5.6c5.4-1.8,11-3.1,16.6-3.9c7.2-1.1,14.4-1.7,21.7-1.8v-6.3c0-7.2-1.5-12.5-4.6-15.9
			c-3.1-3.4-7.5-5.2-13.2-5.2c-3.5-0.1-7,0.4-10.4,1.5c-2.5,0.9-4.9,2-7.2,3.3c-2.1,1.2-4,2.3-5.7,3.3c-1.7,1-3.7,1.5-5.7,1.5
			c-1.6,0.1-3.3-0.4-4.6-1.4c-1.2-0.9-2.2-2-3-3.3L594.2,396z M653.2,442.4c-6.3,0.2-12.6,0.9-18.8,1.9c-4.2,0.7-8.3,1.9-12.2,3.6
			c-2.6,1.1-4.9,2.9-6.6,5.1c-1.3,1.9-2,4.1-2,6.4c0,4.5,1.3,7.8,4,9.7c2.7,1.9,6.2,2.9,10.6,2.9c4.7,0.1,9.4-0.9,13.7-2.9
			c4.3-2.2,8.1-5.2,11.3-8.7L653.2,442.4z"/>
		<path class="st1" d="M727,394.2c4.1-4.4,9-8,14.3-10.8c5.6-2.8,11.8-4.1,18-4c5.8-0.1,11.5,1.2,16.7,3.6c5,2.5,9.4,6.1,12.7,10.5
			c3.7,5,6.5,10.6,8.1,16.5c2,7.1,2.9,14.4,2.8,21.8c0.1,8-1,16-3.2,23.7c-1.9,6.6-5,12.8-9.2,18.2c-8,10.2-20.3,16.1-33.2,15.9
			c-3.1,0-6.1-0.3-9.1-1c-2.6-0.6-5.1-1.5-7.5-2.8c-2.3-1.2-4.4-2.6-6.3-4.3c-2-1.8-3.8-3.7-5.5-5.7l-1.2,7.2
			c-0.2,1.5-1,2.9-2.1,3.9c-1.2,0.8-2.7,1.2-4.1,1.1h-17v-155H727V394.2z M727,460.4c2.5,3.2,5.8,5.8,9.5,7.5
			c3.4,1.5,7.2,2.2,10.9,2.2c3.7,0.1,7.3-0.7,10.7-2.1c3.2-1.5,6-3.8,8.1-6.7c2.4-3.5,4.2-7.4,5.1-11.6c1.3-5.5,1.9-11.2,1.8-16.8
			c0-11.8-1.9-20.3-5.8-25.5c-3.9-5.2-9.5-7.9-16.8-7.9c-4.5-0.1-9,1.1-12.9,3.4c-4,2.6-7.6,5.8-10.5,9.5V460.4z"/>
		<path class="st1" d="M847.7,349.9c0,2.2-0.4,4.3-1.4,6.2c-0.9,1.9-2.1,3.6-3.6,5.1c-1.5,1.5-3.3,2.7-5.3,3.5
			c-2,0.9-4.2,1.3-6.5,1.3c-2.2,0-4.3-0.4-6.3-1.3c-3.9-1.7-7-4.7-8.7-8.6c-0.9-2-1.3-4.1-1.3-6.2c0-2.2,0.4-4.4,1.3-6.5
			c1.6-3.9,4.7-7,8.7-8.7c2-0.9,4.1-1.3,6.3-1.3c2.2,0,4.4,0.4,6.5,1.3c2,0.8,3.7,2,5.3,3.5c1.5,1.5,2.7,3.3,3.6,5.2
			C847.2,345.5,847.7,347.7,847.7,349.9z M844.1,381.1v107h-25.9v-107H844.1z"/>
		<path class="st1" d="M894.4,333.1v155h-25.8v-155H894.4z"/>
		<path class="st1" d="M948.2,349.9c0,2.2-0.4,4.3-1.3,6.2c-1.8,3.9-4.9,6.9-8.9,8.6c-2,0.9-4.2,1.3-6.5,1.3c-2.2,0-4.3-0.4-6.3-1.3
			c-1.9-0.8-3.7-2-5.2-3.5c-1.5-1.5-2.7-3.2-3.5-5.1c-0.9-2-1.3-4.1-1.3-6.2c0-2.2,0.4-4.4,1.3-6.5c1.6-3.9,4.7-7.1,8.7-8.7
			c2-0.9,4.1-1.3,6.3-1.3c2.2,0,4.4,0.4,6.5,1.3c2,0.8,3.7,2,5.3,3.5c1.5,1.5,2.7,3.3,3.6,5.2C947.7,345.5,948.2,347.7,948.2,349.9z
			 M944.6,381.1v107h-25.9v-107H944.6z"/>
		<path class="st1" d="M1003.4,489.8c-9.3,0-16.5-2.6-21.4-7.9c-5-5.3-7.4-12.5-7.5-21.7v-59.8h-11c-1.3,0-2.6-0.5-3.5-1.4
			c-1-1.1-1.6-2.6-1.5-4.1v-10.2l17.2-2.8l5.4-29.2c0.3-1.3,1-2.4,2-3.2c1.1-0.8,2.4-1.2,3.8-1.1h13.3V382h28.6v18.4h-28.6v58
			c0,3.3,0.8,5.9,2.5,7.8c1.7,1.9,4.2,2.9,6.7,2.8c1.4,0,2.7-0.2,4-0.6c1-0.3,1.9-0.7,2.8-1.2c0.8-0.4,1.5-0.8,2.1-1.2
			c0.6-0.4,1.2-0.6,1.9-0.6c0.7,0,1.3,0.2,1.9,0.6c0.6,0.5,1.1,1.1,1.6,1.7l7.7,12.5c-3.8,3.2-8.2,5.6-12.9,7.1
			C1013.6,489,1008.5,489.8,1003.4,489.8z"/>
		<path class="st1" d="M1146.1,381.1l-58.3,136.4c-0.6,1.6-1.7,3-3,4.1c-1.2,0.9-3.1,1.4-5.6,1.4H1060l20-43l-43.3-99h22.6
			c1.7-0.1,3.4,0.4,4.8,1.5c1.1,0.9,2,2,2.6,3.3l22.7,55.5c0.8,1.8,1.4,3.7,1.9,5.6c0.5,1.9,1,3.8,1.5,5.7c0.6-2,1.2-3.9,1.9-5.8
			s1.3-3.8,2.1-5.7l21.5-55.4c0.6-1.4,1.5-2.6,2.8-3.4c1.3-0.9,2.8-1.4,4.3-1.4L1146.1,381.1z"/>
	</g>
	<g id="Apptio_Logo_Black_Horizontal_">
		<path class="st2" d="M137.5,127.3c0.1-0.6,0.1-1.2,0.1-1.7l6.6,0.2c0-0.5,0-1.1,0-1.6s0-1.1,0-1.6l-6.6,0.2c0-0.6,0-1.2-0.1-1.7
			l-6.6,0.5c-0.1-1.7-0.4-3.4-0.8-5.1l6.4-1.6c-0.5-1.9-1.1-3.7-1.8-5.5l6.1-2.5c-0.6-1.5-1.3-2.9-2.1-4.4l-5.8,3.2
			c0.4,0.7,0.8,1.4,1.1,2.2l-5.9,2.8c-0.9-2-2-4-3.4-5.8l5.1-4c0.4,0.6,0.5,0.7,0.9,1.3l5.4-3.8c-1.2-1.8-2.6-3.4-4.1-5l-4.8,4.5
			c0.5,0.5,0.4,0.6,0.9,1.1l-5,4.2c-1-1.2-2-2.2-3.2-3.2l4.3-5l1.1,0.9l4.6-4.9c-2-1.8-4.1-3.5-6.4-4.9l-3.6,5.5
			c-1.7-1.2-3.5-2.2-5.4-2.9l-2.5,6.1l-1.8-0.7l2.3-6.2c-0.9-0.3-1.7-0.6-2.6-0.8l1.8-6.3c-1.6-0.4-3.1-0.8-4.7-1.1l-1.1,6.5
			c-0.6-0.1-1.2-0.2-1.8-0.3l-0.8,6.5c-0.3,0-1.6-0.1-1.9-0.1l0.6-6.6c-0.8-0.1-0.7-0.1-1.5-0.1l0.2-6.6h-1.4
			c-24.9-0.4-45.4,19.5-45.8,44.5s19.5,45.4,44.5,45.8c0.4,0,0.9,0,1.3,0h1.1l-0.2-6.6c0.7,0,1.6-0.1,2.3-0.1l0.8,6.6l3.6-0.5
			l-1.4-6.5l-2.6,0.4l-0.6-6.6c-1,0.1-2,0.1-3,0.1v-6.6c-14,0.3-25.6-10.8-25.9-24.9c-0.3-14,10.8-25.6,24.9-25.9c0.3,0,0.7,0,1,0
			c3.9,0,7.8,0.9,11.3,2.7l2.9-5.9c0.4,0.2,1.8,1,2.3,1.3l-3.1,5.8c4.3,2.7,7.7,6.6,9.8,11.3l6-2.6c0.2,0.4,0.9,2.3,1,2.8l-6.1,2.5
			c2.2,7.1,1.2,14.7-2.7,21l5.6,3.5c-0.8,1.3-1.6,2.5-2.6,3.6l5,4.2c-0.4,0.5-0.9,1.1-1.4,1.6l4.9,4.5c1.9-2,3.5-4.1,5-6.4l-5.5-3.5
			c1.1-1.7,2.1-3.5,2.9-5.3l-6-2.9c0.1-0.3,0.7-1.7,0.9-2l6.2,2.2c0.2-0.7,0.4-1.3,0.6-2l6.3,1.9c0.5-1.5,0.8-3.1,1.1-4.7L137,131
			c0.2-0.6,0.3-1.1,0.4-1.7l-6.6-0.7c0-0.3,0.1-1.5,0.1-1.8L137.5,127.3z"/>
		<path class="st2" d="M124.2,153.3l-4.3-4.9c-1.1,1-2.2,1.8-3.5,2.6l-3.5-5.6c-0.3,0.2-2.8,1.6-2.8,1.6l3.2,5.8l2.5-1.3l3.4,5.6
			c1.4-0.9,2.7-1.8,4-2.9l4.1,5.1c0.8-0.7,1.7-1.4,2.4-2.1l-4.5-4.9C124.9,152.7,124.6,153,124.2,153.3z"/>
		<path class="st2" d="M110.1,161.1c1.7-0.5,3.3-1.1,4.9-1.9l2.7,6c1.5-0.7,2.9-1.4,4.3-2.2l-3.4-5.7l-2.1,1.2l-3.2-5.8
			c-1.6,0.8-3.3,1.5-5.1,2L110.1,161.1z"/>
		<path class="st1" d="M170.3,137.6h-9.2l16.7-26.8h10.5l16.7,26.8h-9.9l-2.5-4h-19.8L170.3,137.6z M182.8,117.6l-6,9.7h12
			L182.8,117.6z"/>
		<path class="st1" d="M208.3,110.9h23.4c7.2,0,12.3,1.7,12.3,10.2c0,8.2-5.2,10.1-12.4,10.1h-14.5v6.4h-8.9V110.9z M231,125
			c3.3,0,4.1-0.9,4.1-3.7s-0.9-3.8-4.2-3.8h-13.8v7.5H231z"/>
		<path class="st1" d="M248.6,110.9H272c7.2,0,12.3,1.7,12.3,10.2c0,8.2-5.2,10.1-12.4,10.1h-14.5v6.4h-8.9V110.9z M271.3,125
			c3.3,0,4.1-0.9,4.1-3.7s-0.9-3.8-4.2-3.8h-13.8v7.5H271.3z"/>
		<path class="st1" d="M302,117.6h-15v-6.7h38.9v6.7h-15v20H302V117.6z"/>
		<path class="st1" d="M331,110.9h9v26.7h-9V110.9z"/>
		<path class="st1" d="M345,124.2c0-11.7,6.7-14.1,21.9-14.1s22,2.4,22,14.1s-6.9,14-22,14S345,135.9,345,124.2z M379.3,124.2
			c0-7-2.9-7.3-12.4-7.3s-12.2,0.3-12.2,7.2c0,6.9,2.7,7.5,12.3,7.5S379.3,131.1,379.3,124.2L379.3,124.2z"/>
		<path class="st1" d="M394.5,110.9c0,1.4-1.1,2.6-2.5,2.6c-1.4,0-2.6-1.1-2.6-2.5c0-1.4,1.1-2.6,2.5-2.6c0,0,0.1,0,0.1,0
			C393.3,108.4,394.4,109.5,394.5,110.9C394.5,110.9,394.5,110.9,394.5,110.9z M390,110.9c0,1.1,0.8,2,1.8,2c0,0,0.1,0,0.1,0
			c1.1,0,2-0.9,2-2s-0.9-2-2-2c-1.1,0-1.9,0.8-1.9,1.9C390,110.8,390,110.9,390,110.9z M391.5,112.2H391v-2.5c0.3,0,0.6-0.1,1-0.1
			c0.3,0,0.6,0,0.9,0.2c0.2,0.1,0.2,0.3,0.2,0.5c0,0.3-0.2,0.5-0.5,0.6l0,0c0.3,0.1,0.4,0.3,0.5,0.6c0,0.2,0.1,0.4,0.2,0.6h-0.6
			c-0.1-0.2-0.2-0.4-0.2-0.6c0-0.3-0.2-0.4-0.5-0.4h-0.3L391.5,112.2z M391.5,110.8h0.3c0.3,0,0.6-0.1,0.6-0.4s-0.2-0.4-0.5-0.4
			c-0.1,0-0.2,0-0.3,0L391.5,110.8z"/>
	</g>
</g>
</svg>
