<svg width="114" height="25" fill="none" xmlns="http://www.w3.org/2000/svg"><g clip-path="url(#clip0)"><path d="M22.974 8.186L16.708 1.88a7.023 7.023 0 00-2.59-1.572C11.98-.41 9.858.154 8.135 1.88L1.868 8.186a7.081 7.081 0 00-1.562 2.606c-.713 2.153-.153 4.289 1.562 6.023l6.266 6.306a7.113 7.113 0 002.589 1.58 5.663 5.663 0 001.808.308c1.503 0 2.946-.64 4.177-1.88l6.266-6.305a7.08 7.08 0 001.562-2.606c.713-2.162.153-4.298-1.562-6.032zm-10.07-4.477c.706.213 1.232.7 1.274.735l1.851 1.862-3.608 3.631-3.608-3.63 1.859-1.872c.5-.496 1.197-1.034 2.233-.726zm-9.219 8.305c.212-.71.696-1.24.73-1.282l1.85-1.863 3.609 3.632-3.608 3.63-1.86-1.87c-.492-.504-1.027-1.214-.721-2.247zm8.252 9.279c-.705-.214-1.231-.701-1.273-.735l-1.851-1.863 3.608-3.631 3.608 3.631-1.86 1.871c-.5.496-1.205 1.034-2.232.727zm9.22-8.305c-.212.709-.696 1.239-.73 1.281l-1.851 1.863-3.608-3.631 3.608-3.632 1.86 1.872c.492.504 1.026 1.204.72 2.247z" fill="#4FACDF"/><path d="M36.48 21.377h3.235v-9.03c0-2.786-1.68-4.845-4.55-4.845-1.401 0-2.895.623-3.677 1.768V2.58h-3.234v18.797h3.234v-7.134c0-1.666.824-3.75 2.768-3.75 1.707 0 2.224.965 2.224 2.52v8.364zm13.058-5.34c0 1.991-1.41 3.076-3.413 3.076-1.002 0-1.902-.64-1.902-1.674 0-1.086.95-1.675 1.927-1.76l3.388-.257v.615zm2.69 5.545c.773 0 1.054-.128 1.588-.358v-2.376s-.203.052-.407.052c-.535 0-.747-.231-.747-.855v-4.981c0-.906-.051-1.863-.382-2.709-.773-2.016-2.717-2.734-5-2.734-2.98 0-5.366 1.342-5.544 4.366h3.107c.076-1.239.95-1.914 2.436-1.914 1.826 0 2.259.855 2.259 2.12v.828l-3.923.282c-2.538.18-4.516 1.65-4.516 4.204 0 2.196 1.638 4.212 4.822 4.212 1.902 0 3.438-.931 4.05-2.016.102 1.008.874 1.88 2.258 1.88zm10.078-10.765c.17 0 .34.017.518.034V7.809c-.136-.008-.28-.034-.416-.034-1.562 0-3.158.64-3.77 2.196l-.28-2.016h-2.716v13.422h3.234V14.61c-.008-2.161 1.172-3.793 3.43-3.793zm10.128 10.56h3.21v-8.954c0-2.785-1.664-4.802-4.517-4.802-1.537 0-3.133.641-3.922 2.068l-.23-1.726h-2.69v13.423h3.208v-5.477c0-1.136-.025-2.529.433-3.588.433-.983 1.18-1.7 2.31-1.7 1.689 0 2.207.956 2.207 2.528v8.228h-.009zm13.728-8.057H80.39c.026-.88.23-1.495.697-2.093.458-.624 1.256-1.034 2.232-1.034.926 0 1.588.308 2.03.778.509.572.789 1.35.814 2.35zm3.21 1.453c.05-1.675-.179-3.204-1.155-4.674-1.104-1.683-2.895-2.478-4.873-2.478-1.817 0-3.26.675-4.262 1.7-1.282 1.316-1.927 3.23-1.927 5.366 0 2.196.721 4.076 2.054 5.366 1.053 1.008 2.386 1.649 4.211 1.649 1.69 0 3.362-.538 4.491-1.888.518-.615 1.053-1.675 1.13-2.478h-3.082a2.395 2.395 0 01-.646 1.136c-.458.462-1.027.65-1.952.65-.875 0-1.511-.385-1.978-.83-.646-.623-1.002-1.597-.977-2.63h8.931c.009-.274.034-.89.034-.89zm4.304-3.076c0-.7.458-1.188 1.027-1.418.484-.206.925-.206 1.384-.206.67 0 1.358.231 1.74.616.306.333.535.752.535 1.264h3.056c0-.982-.458-1.99-1.18-2.76-.976-1.059-2.59-1.572-4.185-1.572-1.664 0-3.082.487-4.05 1.342-.798.7-1.358 1.649-1.358 3.024 0 1.7 1.23 3.204 3.056 3.589 1.18.256 2.513.333 3.693.512.824.129 1.333.65 1.333 1.419 0 1.47-1.638 1.709-2.717 1.709-.925 0-1.51-.18-2.029-.598-.33-.274-.585-.735-.679-1.222H90.28c.102 1.119.696 2.093 1.392 2.768 1.104 1.06 2.615 1.546 4.313 1.546 1.817 0 3.49-.46 4.567-1.546.697-.692 1.155-1.649 1.155-2.94 0-2.118-1.537-3.46-3.642-3.793-1.308-.205-1.639-.23-2.844-.384-.722-.111-1.545-.393-1.545-1.35zm16.988.256h3.056c0-.982-.459-1.99-1.18-2.76-.976-1.059-2.589-1.572-4.177-1.572-1.664 0-3.073.487-4.05 1.342-.798.7-1.358 1.649-1.358 3.024 0 1.7 1.231 3.204 3.056 3.589 1.18.256 2.513.333 3.693.512.824.129 1.333.65 1.333 1.419 0 1.47-1.638 1.709-2.717 1.709-.925 0-1.511-.18-2.029-.598-.331-.274-.585-.735-.67-1.222h-3.023c.102 1.119.697 2.093 1.393 2.768 1.103 1.06 2.615 1.546 4.313 1.546 1.825 0 3.489-.46 4.567-1.546.696-.692 1.155-1.649 1.155-2.94 0-2.118-1.537-3.46-3.643-3.793-1.307-.205-1.638-.23-2.844-.384-.713-.103-1.536-.385-1.536-1.342 0-.7.458-1.187 1.027-1.418.484-.205.925-.205 1.384-.205.662 0 1.358.23 1.74.615.28.325.51.744.51 1.256z" fill="#231e20"/></g><defs><clipPath id="clip0"><path fill="#231e20" d="M0 0h114v25H0z"/></clipPath></defs></svg>