<svg xmlns="http://www.w3.org/2000/svg" viewBox="0 0 38.883 12">
  <defs>
    <style>
      .a {
        fill: #051c2c;
      }
    </style>
  </defs>
  <title>mck</title>
  <path class="a" d="M4.125,0H5.309V.223H5.086c-.039,0-.107.045-.205.134s-.147.159-.147.205v3.4c0,.047.049.115.147.205s.166.135.205.135h.223v.222H3.562V4.3h.223c.039,0,.106-.045.2-.135s.141-.158.141-.205V.668L2.484,4.605.844.6V3.961c0,.047.047.115.14.205s.161.135.2.135h.222v.222H0V4.3H.223c.047,0,.117-.045.211-.135s.14-.158.14-.205V.562C.574.516.527.447.434.357S.27.223.223.223H0V0H1.312l1.36,3.387h.035ZM6.938,4.066a1.068,1.068,0,0,0,.574-.128,1.128,1.128,0,0,0,.351-.387h.188a1.691,1.691,0,0,1-.463.761,1.234,1.234,0,0,1-.861.282,1.191,1.191,0,0,1-.973-.446,1.632,1.632,0,0,1-.363-1.066A1.56,1.56,0,0,1,5.8,1.945a1.323,1.323,0,0,1,.984-.422,1.485,1.485,0,0,1,.586.106,1.543,1.543,0,0,1,.457.3L7.4,2.6l-.176.011a1.188,1.188,0,0,0-.035-.6.436.436,0,0,0-.469-.264.724.724,0,0,0-.645.316,1.484,1.484,0,0,0-.211.833,1.249,1.249,0,0,0,.287.832A.984.984,0,0,0,6.938,4.066Zm2.906.457H8.074V4.3H8.3c.047,0,.117-.045.211-.135s.14-.158.14-.205V.562c0-.046-.046-.115-.14-.205S8.344.223,8.3.223H8.074V0h1.77V.223H9.621c-.047,0-.117.045-.211.134s-.14.159-.14.205V2.414L10.887.609c.031-.039,0-.113-.082-.222s-.149-.164-.188-.164H10.4V0h1.64V.223h-.223A.844.844,0,0,0,11.52.4c-.157.121-.25.2-.282.229l-1.1,1.183,1.582,2.1a1.312,1.312,0,0,0,.263.234.671.671,0,0,0,.276.153h.328a.363.363,0,0,0,.2-.117c.086-.079.129-.145.129-.2V2.133c0-.047-.043-.11-.129-.188a.363.363,0,0,0-.2-.117H12.41V1.605h1.043V3.984c0,.055.045.121.135.2a.4.4,0,0,0,.193.117h.364c.039,0,.1-.039.187-.117s.129-.145.129-.2V2.133c0-.047-.043-.11-.129-.188s-.148-.117-.187-.117h-.188V1.605h.926L15,2.2a5.017,5.017,0,0,1,.51-.469,1,1,0,0,1,.638-.2.8.8,0,0,1,.581.235.813.813,0,0,1,.24.609V3.984c0,.055.043.121.129.2s.148.117.187.117h.188v.222H15.938V4.3H16.1a.366.366,0,0,0,.2-.117c.086-.079.129-.145.129-.2V2.414a.545.545,0,0,0-.118-.363.43.43,0,0,0-.351-.141,1.1,1.1,0,0,0-.639.229Q15,2.367,15,2.52V3.984c0,.055.043.121.129.2a.363.363,0,0,0,.2.117h.164v.222H11.3L9.727,2.262l-.457.492V3.961c0,.047.046.115.14.205s.164.135.211.135h.223Zm1.57,5.1L11.4,9.609c.149.125.3.25.452.375s.314.246.486.364h.269v.234h-.492a1.542,1.542,0,0,1-.586-.105,1.888,1.888,0,0,1-.539-.364,1.746,1.746,0,0,1-.627.405,2.425,2.425,0,0,1-.849.134,1.518,1.518,0,0,1-1-.369,1.2,1.2,0,0,1-.446-.967v0a1.574,1.574,0,0,1,.2-.785A1.691,1.691,0,0,1,8.8,7.957a2.11,2.11,0,0,1-.264-.434,1.255,1.255,0,0,1-.1-.515.949.949,0,0,1,.292-.744A1.148,1.148,0,0,1,9.527,6a1.432,1.432,0,0,1,.493.07.953.953,0,0,0,.328.071.553.553,0,0,0,.129-.012.142.142,0,0,0,.082-.07h.2V7.125h-.2a.967.967,0,0,0-.3-.574.95.95,0,0,0-.744-.34.893.893,0,0,0-.575.17.576.576,0,0,0-.211.474.732.732,0,0,0,.176.481,1.15,1.15,0,0,0,.469.328q.433.47.937.943t.961.885a1.476,1.476,0,0,0,.182-.433,2.209,2.209,0,0,0,.053-.5.637.637,0,0,0-.194-.487.728.728,0,0,0-.521-.181V7.664H12.4v.211h-.175c-.039,0-.116.066-.229.2a.587.587,0,0,0-.17.293v.012a2.4,2.4,0,0,1-.117.662A2.068,2.068,0,0,1,11.414,9.621Zm-1.535.68a1.7,1.7,0,0,0,.545-.082A1.728,1.728,0,0,0,10.863,10l-.035-.023q-.5-.446-.984-.914t-.938-.985a1.424,1.424,0,0,0-.269.4,1.392,1.392,0,0,0-.094.562,1.169,1.169,0,0,0,.428.873A1.327,1.327,0,0,0,9.879,10.3ZM13.125.891h-.012A.371.371,0,0,1,12.85.785a.339.339,0,0,1-.112-.258V.516A.349.349,0,0,1,12.85.24a.431.431,0,0,1,.55,0,.349.349,0,0,1,.112.276H13.5c.008,0,.012,0,.012.011A.339.339,0,0,1,13.4.785a.358.358,0,0,1-.252.106h-.023ZM16.1,10.277a1.555,1.555,0,0,0,.914-.234,1.8,1.8,0,0,0,.55-.68H17.8a2,2,0,0,1-.692.955,1.856,1.856,0,0,1-1.136.346,1.933,1.933,0,0,1-1.559-.7,2.511,2.511,0,0,1-.586-1.67,2.561,2.561,0,0,1,.539-1.641,1.8,1.8,0,0,1,1.488-.679,1.738,1.738,0,0,1,.622.1,1.433,1.433,0,0,0,.527.1.366.366,0,0,0,.164-.03.443.443,0,0,0,.117-.087h.164V7.652h-.2a1.68,1.68,0,0,0-.363-.879,1.158,1.158,0,0,0-1.008-.527,1.238,1.238,0,0,0-.926.346,1.733,1.733,0,0,0-.4,1.107V7.676q-.012.129-.018.258c0,.086-.006.175-.006.269,0,.109,0,.221.012.334s.016.217.023.311a1.657,1.657,0,0,0,.457,1.013A1.421,1.421,0,0,0,16.1,10.277Zm3.7-6.574a.831.831,0,0,1-.264.656.973.973,0,0,1-.674.235,1.115,1.115,0,0,1-.469-.088.871.871,0,0,0-.375-.088.209.209,0,0,0-.128.029l-.094.076H17.66V3.492h.176a.949.949,0,0,0,.275.528.938.938,0,0,0,.756.328.807.807,0,0,0,.422-.094.33.33,0,0,0,.152-.3.386.386,0,0,0-.181-.357,3.1,3.1,0,0,0-.369-.194c-.11-.046-.209-.089-.3-.128s-.194-.082-.311-.129a1.54,1.54,0,0,1-.445-.311.67.67,0,0,1-.176-.486.758.758,0,0,1,.235-.6,1.113,1.113,0,0,1,1.048-.129.736.736,0,0,0,.323.077.243.243,0,0,0,.1-.018.128.128,0,0,0,.065-.065h.152v.9h-.176a.852.852,0,0,0-.24-.469.8.8,0,0,0-.65-.293.572.572,0,0,0-.381.106.338.338,0,0,0-.123.269.324.324,0,0,0,.129.281,2.269,2.269,0,0,0,.351.2c.11.046.213.089.311.128l.322.129a1.583,1.583,0,0,1,.457.293A.7.7,0,0,1,19.805,3.7Zm.767,4.289a1.466,1.466,0,0,1,.44,1.125,1.482,1.482,0,0,1-.44,1.131,1.432,1.432,0,0,1-1.013.416,1.447,1.447,0,0,1-1.026-.416,1.482,1.482,0,0,1-.439-1.131,1.453,1.453,0,0,1,1.465-1.535A1.443,1.443,0,0,1,20.572,7.992ZM20.426,9.6v.023c.008-.086.013-.172.017-.258s.006-.172.006-.258,0-.169-.006-.251-.009-.159-.017-.229a.971.971,0,0,0-.252-.574.82.82,0,0,0-.615-.211.8.8,0,0,0-.6.211.958.958,0,0,0-.252.562V8.6a1.726,1.726,0,0,0-.029.246c0,.086-.006.172-.006.257s0,.17.006.252a1.431,1.431,0,0,0,.029.229,1.006,1.006,0,0,0,.252.562.779.779,0,0,0,.6.223.8.8,0,0,0,.621-.217A1,1,0,0,0,20.426,9.6Zm.961-5a1.213,1.213,0,0,1-.967-.451,1.611,1.611,0,0,1-.381-1.073,1.619,1.619,0,0,1,.387-1.1,1.187,1.187,0,0,1,.961-.434.991.991,0,0,1,.767.3,1.116,1.116,0,0,1,.3.721l.012.211L20.52,2.93A1.247,1.247,0,0,0,20.8,3.7a.918.918,0,0,0,.773.369,1.1,1.1,0,0,0,.58-.128,1.036,1.036,0,0,0,.346-.376h.176a1.584,1.584,0,0,1-.446.756A1.209,1.209,0,0,1,21.387,4.594Zm-.012-2.836a.734.734,0,0,0-.662.31,1.243,1.243,0,0,0-.217.651L21.961,2.6a1.237,1.237,0,0,0-.065-.581Q21.8,1.759,21.375,1.758Zm3.539,8.6c.047,0,.111-.041.193-.123s.123-.146.123-.193v-1.6a.526.526,0,0,0-.111-.346.436.436,0,0,0-.357-.135.959.959,0,0,0-.569.211q-.287.212-.287.352v1.523c0,.047.041.111.123.193s.143.123.182.123h.176v.223h-1.5v-.223h.164c.047,0,.111-.041.193-.123s.123-.146.123-.193v-1.6a.527.527,0,0,0-.117-.358.44.44,0,0,0-.352-.135.947.947,0,0,0-.58.223q-.287.222-.287.375v1.5c0,.047.041.111.123.193s.147.123.194.123h.164v.223h-1.5v-.223h.176c.039,0,.1-.041.181-.123s.123-.146.123-.193V8.191c0-.046-.041-.109-.123-.187s-.142-.117-.181-.117h-.176V7.664h.9l.117.563q.258-.27.469-.452a.89.89,0,0,1,.6-.181.862.862,0,0,1,.515.158.661.661,0,0,1,.27.463c.179-.172.344-.317.492-.434a.919.919,0,0,1,.586-.176.815.815,0,0,1,.574.217.8.8,0,0,1,.235.616v1.6c0,.047.041.111.123.193s.142.123.181.123h.176v.223h-1.5v-.223Zm-1.957-8.2a.8.8,0,0,0-.182-.2c-.1-.086-.166-.129-.2-.129h-.129V1.605h1.582v.223h-.187c-.039,0-.09.039-.152.117a.345.345,0,0,0-.094.2l.7,1.441.645-1.43a.291.291,0,0,0-.088-.211q-.1-.117-.159-.117H24.5V1.605h1.184v.223h-.129c-.039,0-.1.041-.182.123a.738.738,0,0,0-.158.205l-1,2.121L23.355,5.93,23.1,5.8l.89-1.606Zm5.309,5.426a.992.992,0,0,1,.843.41,1.766,1.766,0,0,1,.3,1.078,1.8,1.8,0,0,1-.34,1.125,1.045,1.045,0,0,1-.867.446,1.124,1.124,0,0,1-.615-.147,1.211,1.211,0,0,1-.393-.439v1.406c0,.055.043.121.129.2s.149.117.188.117H27.7V12H26.156v-.223h.188a.341.341,0,0,0,.193-.117.315.315,0,0,0,.123-.2V8.191c0-.046-.041-.109-.123-.187a.341.341,0,0,0-.193-.117h-.188V7.652h.949l.094.61a1.445,1.445,0,0,1,.451-.516A1.107,1.107,0,0,1,28.266,7.582Zm.586,1.969v.011l.023-.234a2.292,2.292,0,0,0,.012-.234,1.7,1.7,0,0,0-.012-.205c-.008-.067-.016-.131-.023-.194a1,1,0,0,0-.235-.556.648.648,0,0,0-.5-.2.783.783,0,0,0-.586.228,1.4,1.4,0,0,0-.328.568v.762a.8.8,0,0,0,.246.586.815.815,0,0,0,.6.246h.012a.7.7,0,0,0,.562-.217A1.053,1.053,0,0,0,28.852,9.551Zm6.621.492c0,.047.043.111.129.193s.148.123.187.123h.176v.223H34.43v-.223H34.6c.04,0,.1-.041.188-.123s.129-.146.129-.193V8.461a.571.571,0,0,0-.111-.357.408.408,0,0,0-.346-.147,1.087,1.087,0,0,0-.639.234q-.323.236-.322.375v1.477c0,.055.043.121.129.2a.363.363,0,0,0,.2.117H34v.223H31.512l-.082-.609a3.492,3.492,0,0,1-.41.451.8.8,0,0,1-.563.217.722.722,0,0,1-.527-.223.775.775,0,0,1-.223-.574.659.659,0,0,1,.322-.627,2.379,2.379,0,0,1,.627-.252l.762-.153.012-.351a.7.7,0,0,0-.164-.486.733.733,0,0,0-.563-.182.537.537,0,0,0-.51.234.668.668,0,0,0,.03.61h-.211l-.4-.586a1.639,1.639,0,0,1,1.219-.469,1.378,1.378,0,0,1,.809.229.758.758,0,0,1,.328.662v1.57c0,.047.043.109.129.187s.148.118.187.118h.352a.36.36,0,0,0,.2-.118c.086-.078.129-.14.129-.187V8.191c0-.046-.043-.109-.129-.187a.363.363,0,0,0-.2-.117h-.176V7.652h.926l.117.61a5.452,5.452,0,0,1,.5-.469.991.991,0,0,1,.644-.2.8.8,0,0,1,.58.234.812.812,0,0,1,.241.61ZM31.43,9.012l-.7.176a.65.65,0,0,0-.387.216.6.6,0,0,0-.106.358v.011a.452.452,0,0,0,.129.323.421.421,0,0,0,.317.134H30.7a.661.661,0,0,0,.422-.175,1.317,1.317,0,0,0,.3-.34Zm7.453-1.348v.223h-.141c-.031,0-.088.041-.17.123a1.49,1.49,0,0,0-.17.193l-.984,2.133-.879,1.641-.246-.129.879-1.606L36.141,8.215a.822.822,0,0,0-.182-.2c-.1-.086-.162-.129-.193-.129h-.141V7.664h1.582v.223h-.176c-.039,0-.092.039-.158.117a.34.34,0,0,0-.1.2l.7,1.442L38.121,8.2a.27.27,0,0,0-.088-.2c-.066-.078-.119-.117-.158-.117h-.187V7.664Z"/>
</svg>
