<svg viewBox="0 0 2592 468.72" xmlns="http://www.w3.org/2000/svg"><switch><g><path d="M174.62.63C78.37.63.23 78.76.23 175.01c0 96.39 78.14 174.39 174.39 174.39 96.39 0 174.39-78 174.39-174.39 0-96.25-78-174.38-174.39-174.38zm0 232.6c-32.08 0-58.08-26.14-58.08-58.22s26-58.08 58.08-58.08 58.22 26 58.22 58.08c0 32.09-26.14 58.22-58.22 58.22zM58.32 349.4c-32.08 0-58.08 26-58.08 58.22 0 32.08 26 58.08 58.08 58.08 32.22 0 58.22-26 58.22-58.08 0-32.22-26-58.22-58.22-58.22z" fill="#5c54ff"/><path d="M2026.3 101.03c-80.07 0-144.52 64.44-144.52 144.52 0 80.21 64.44 144.65 144.52 144.65 80.21 0 144.65-64.44 144.65-144.65 0-80.08-64.44-144.52-144.65-144.52zm0 243.39c-53.93 0-94.59-44.53-94.59-98.88 0-54.21 40.66-98.74 94.59-98.74 54.35 0 95.28 44.53 95.28 98.74 0 54.35-40.93 98.88-95.28 98.88zm508.4-73.43l-36.09-5.67c-20.74-3.87-27.38-12.86-27.38-22.27 0-11.34 12.03-20.74 34.71-20.74 22.13 0 39.97 8.71 41.76 28.21l43.56-.28c-4.43-52.69-52.27-64.31-85.33-64.31-48.13 0-81.32 23.37-81.32 62.23 0 34.99 27.93 50.2 57.25 55.59l42.04 6.91c15.07 2.77 23.23 10.23 23.23 20.47 0 13-15.77 21.16-38.58 21.16-26.41 0-43.56-9.96-47.57-32.78l-43.29-.42c4.56 53.24 45.36 71.64 89.61 71.64 48.54 0 84.91-22.54 84.91-63.75.02-37.6-28.05-50.6-57.51-55.99zM612.3 108.27H508.72v277.61h49.1v-83.09h47.28c70.39 0 117-39.04 117-99.47 0-57.53-43.83-95.05-109.8-95.05zm-1.8 151.08h-52.68V151.71h52.68c37.62 0 62.92 20.91 62.92 51.33.01 33.33-25.3 56.31-62.92 56.31zm1244.7-71.89c-15.11-1.38-45.32-2.9-67.99 17.43v-13.52h-49.1v194.52h49.1V271.28c0-13.83 6.15-26.48 17.07-33.4 10.37-5.12 22.19-6.84 35.05-6.84h15.86V186.3v1.16zm-239.6-.69c-61.68 0-102.61 43.7-102.61 101.37 0 56.98 40.93 101.74 102.61 101.74 43.98 0 79.66-22.88 90.58-56.88h-50.2c-6.91 9.44-20.47 17.87-39.14 17.87-32.78 0-50.62-17.87-56.29-42.42h148.25c.97-9.44.97-15.76.97-22.67-.27-57.94-40.65-99.01-94.17-99.01zm-55.59 82.03c5.39-24.55 22.82-44.53 52.97-44.53 28.21 0 45.36 19.98 49.23 44.53h-102.2zm743.49-82.03c-23.23 0-44.16 6.64-59.27 18.12v-13.52h-47.21v277.61h47.21v-98c15.11 11.62 36.04 17.98 59.27 17.98 53.8 0 97.08-44.81 97.08-100.82.01-56.43-43.28-101.37-97.08-101.37zm-4.5 161.52c-73.65 0-73.65-120.59 0-120.59 33.99 0 57.11 28.07 57.11 60.43.01 31.68-23.12 60.16-57.11 60.16zM969.79 186.77c-58.77 0-102.89 43.01-102.89 101.37 0 58.77 44.12 102.61 102.89 102.61 58.36 0 102.34-43.84 102.34-102.61-.01-58.36-43.98-101.37-102.34-101.37zm0 160.97c-33.47 0-56.01-26.69-56.01-59.6 0-32.77 22.54-58.36 56.01-58.36 33.05 0 55.59 25.58 55.59 58.36 0 32.91-22.54 59.6-55.59 59.6zM795.78 204.89v-13.52h-49.1v194.52h49.1V272.52c0-42.87 39.66-40.24 67.99-40.24v-44.81c-9.45-1.39-37.78-2.91-67.99 17.42zm412.02 66.1l-35.82-5.67c-21.02-3.87-27.38-12.86-27.38-22.27 0-11.34 11.76-20.74 34.57-20.74 21.99 0 40.24 8.71 41.76 28.21l43.7-.28c-4.56-52.69-52.14-64.31-85.46-64.31-48.13 0-81.18 23.37-81.18 62.23 0 34.99 27.66 50.2 57.11 55.59l42.04 6.91c15.35 2.77 23.23 10.23 23.23 20.47 0 13-15.9 21.16-38.58 21.16-26.14 0-43.29-9.96-47.43-32.78l-43.29-.42c4.43 53.24 45.36 71.64 89.34 71.64 48.68 0 85.05-22.54 85.05-63.75 0-37.6-28.21-50.6-57.66-55.99zm192-84.22c-23.37 0-43.09 6.64-58.2 18.12v-13.52h-47.21v277.61h47.21v-98c15.11 11.62 34.83 17.98 58.2 17.98 53.66 0 96.94-44.81 96.94-100.82 0-56.43-43.29-101.37-96.94-101.37zm-9.1 161.52c-71.76 0-71.76-120.59 0-120.59 33.99 0 57.11 28.07 57.11 60.43 0 31.68-23.12 60.16-57.11 60.16z" fill="#05004d"/></g></switch></svg>