<svg id="Layer_1" data-name="Layer 1" xmlns="http://www.w3.org/2000/svg" viewBox="0 0 132 29.3134">
  <g>
    <g id="logoMark">
      <path id="logoMark_PathItem_" data-name="logoMark &lt;PathItem&gt;" d="M36,24A12,12,0,0,0,24,12V24Z" style="fill: #1e87ff"/>
      <path id="logoMark_PathItem_2" data-name="logoMark &lt;PathItem&gt;" d="M12,0a12,12,0,0,0,0,24V12H24A12,12,0,0,0,12,0" style="fill: #1e87ff"/>
    </g>
    <path id="fullLogo" d="M46.9482,5.3454V9.6009h4.2555V12H46.9482v7.1974a2.109,2.109,0,0,0,2.2276,2.3989h2.0279v2.3991H48.9474a4.3959,4.3959,0,0,1-4.77-4.7125V12H41.7788V9.6009h2.3991V5.3454Z" style="fill: #464b50"/>
    <path id="fullLogo-2" data-name="fullLogo" d="M65.5694,19.3116c-.514,2.97-3.113,4.9122-6.6545,4.9122-4.4553,0-7.2257-3.5128-7.2257-7.5113,0-4.0271,2.5134-7.34,6.94-7.34a6.4842,6.4842,0,0,1,6.8258,6.8259c0,.3715-.0285.8283-.0569,1.0853H54.4025c.2284,2.7133,1.9992,4.57,4.5124,4.57,2.1136,0,3.4843-.9137,3.8844-2.5417ZM54.488,15.256h8.1684A3.7556,3.7556,0,0,0,58.6294,11.6c-2.2565,0-3.7129,1.2566-4.1414,3.6557" style="fill: #464b50"/>
    <path id="fullLogo-3" data-name="fullLogo" d="M73.8232,12c-2.6275,0-3.4845,2.3419-3.4845,5.4835v6.5119h-2.77V9.6009h2.77v2.7705a3.6027,3.6027,0,0,1,3.8273-2.77h1.7422V12Z" style="fill: #464b50"/>
    <path id="fullLogo-4" data-name="fullLogo" d="M77.4787,9.601h2.77v2.542a4.73,4.73,0,0,1,4.6268-2.77c3.2559,0,5.3694,2.342,5.3694,5.7691v8.8539h-2.77V15.6844c0-2.2848-1.3422-3.827-3.37-3.827-2.2562,0-3.8558,1.8278-3.8558,4.3408v7.7973h-2.77Z" style="fill: #464b50"/>
    <path id="fullLogo-5" data-name="fullLogo" d="M92.3873,16.7982c0-4.284,2.4847-7.4258,6.883-7.4258a5.7132,5.7132,0,0,1,4.57,2.1421V9.601h2.77V23.9954h-2.77V22.0533a5.2768,5.2768,0,0,1-4.5413,2.1705c-4.4269,0-6.9116-3.1415-6.9116-7.4256m11.6527,0c0-2.9988-1.7422-4.9981-4.4269-4.9981-2.6563,0-4.3984,1.9993-4.3984,4.9981s1.7421,4.9981,4.3984,4.9981c2.6847,0,4.4269-1.9992,4.4269-4.9981" style="fill: #464b50"/>
    <path id="fullLogo-6" data-name="fullLogo" d="M115.8064,12c-2.6274,0-3.4843,2.3419-3.4843,5.4835v6.5119h-2.77V9.6009h2.77v2.7705a3.6025,3.6025,0,0,1,3.8272-2.77h1.742V12Z" style="fill: #464b50"/>
    <path id="fullLogo-7" data-name="fullLogo" d="M126.7451,23.9955l-.7426,2.0848c-.857,2.3419-1.8852,3.2331-4.1984,3.2331H120V27h1.6041c.714,0,1.3709.1656,1.8849-1.348l.5428-1.5424L118.72,9.6009h2.856l3.77,10.91,3.7988-10.91H132Z" style="fill: #464b50"/>
  </g>
</svg>
