<svg id="b129f18e-082f-444e-920b-0589669be761" data-name="Layer 1" xmlns="http://www.w3.org/2000/svg" viewBox="0 0 200 56"><g id="a8535b25-b175-443b-a473-2a3c8fa4afeb" data-name="Group 309"><g id="bbe8e719-53f2-4b49-bf35-01163a9a724b" data-name="LOGO - Main - Full color"><path id="b28bbd76-77b4-4451-84e9-722324c44cb0" data-name="Path 75" d="M48.32,9.09,32.93.24A1.42,1.42,0,0,0,31,.76a1.48,1.48,0,0,0-.19.71V16.73L17.51,9.09l0,0,0,0,0,0h0L17.3,9l0,0H16.4l0,0h0l0,0-.05,0,0,0,0,0,0,0L.71,17.93a1.41,1.41,0,0,0-.52,1.93,1.44,1.44,0,0,0,.52.52L14,28,.82,35.56l-.11.06A1.42,1.42,0,0,0,0,36.84V54.53A1.42,1.42,0,0,0,1.42,56a1.44,1.44,0,0,0,.7-.19L17.42,47l.11-.06a.9.9,0,0,0,.2-.14l15-8.59.23-.11a1.38,1.38,0,0,0,.7-1.22V20l14.7-8.44a1.41,1.41,0,0,0,.52-1.93,1.3,1.3,0,0,0-.52-.52M2.82,52.1V39.28L14,45.69Zm12.54-8.88L4.25,36.84l11.11-6.38Zm0-17.65L4.24,19.16,15.4,12.75Zm2.82-12.82,11.15,6.4L18.22,25.56Zm0,30.48V30.46l11.11,6.39ZM30.8,34.41,19.65,28,30.8,21.6Zm2.83-17.69V3.9l11.15,6.42Z" fill="#00b6d7"/><g id="a2d929ef-3258-4efd-b73a-b86ee5641ef9" data-name="Group 60"><path id="fd13badc-ad10-46a7-af7b-8b71996a26ed" data-name="Path 76" d="M51.77,47.7l3.47-7.56-7-16.33h4.52l4.56,11.87h.07l4-11.87h4.25L55.85,47.74Z" fill="#858688"/><path id="a5f1318f-91a7-4630-a5fd-b5764352d1c6" data-name="Path 77" d="M65.73,31.9a8.85,8.85,0,0,1,.7-3.52,8.17,8.17,0,0,1,4.71-4.44,10.21,10.21,0,0,1,6.94,0,8.11,8.11,0,0,1,4.71,4.44,8.52,8.52,0,0,1,.7,3.52,8.61,8.61,0,0,1-.7,3.54,8.48,8.48,0,0,1-1.88,2.74A8.83,8.83,0,0,1,78.08,40a9.66,9.66,0,0,1-6.94,0,8.79,8.79,0,0,1-2.82-1.79,8.35,8.35,0,0,1-1.89-2.74,9,9,0,0,1-.7-3.54m4.15,0a6.73,6.73,0,0,0,.29,1.9A5.17,5.17,0,0,0,71,35.5a4.44,4.44,0,0,0,1.46,1.23,5,5,0,0,0,4.22,0,4.44,4.44,0,0,0,1.46-1.23,5.17,5.17,0,0,0,.87-1.7,6.34,6.34,0,0,0,0-3.79,5.28,5.28,0,0,0-.87-1.68,4.39,4.39,0,0,0-1.46-1.21,5.09,5.09,0,0,0-4.22,0A4.27,4.27,0,0,0,71,28.33,5.27,5.27,0,0,0,70.17,30a6.71,6.71,0,0,0-.29,1.89" fill="#858688"/><path id="afa35fb0-6d44-448d-b6a3-45a94a35c4e2" data-name="Path 78" d="M85.09,27.07V23.81H88V19.08h4v4.73h4.09v3.26H92v7.59a3.75,3.75,0,0,0,.39,1.8c.26.48.84.71,1.75.71a5.35,5.35,0,0,0,.89-.08,3.63,3.63,0,0,0,.85-.26L96,40a6.41,6.41,0,0,1-1.29.32,8.54,8.54,0,0,1-1.43.12A6.47,6.47,0,0,1,90.6,40,4,4,0,0,1,89,38.75a4.57,4.57,0,0,1-.81-1.83,10.42,10.42,0,0,1-.23-2.23V27.07Z" fill="#858688"/><path id="a03f0030-be1c-41b5-b455-9966bf6ed4ec" data-name="Path 79" d="M109.82,38.06h-.1a4.55,4.55,0,0,1-2,1.79,6.7,6.7,0,0,1-3.1.7,8.87,8.87,0,0,1-2.06-.26,6,6,0,0,1-2-.85,4.86,4.86,0,0,1-1.5-1.56,4.49,4.49,0,0,1-.6-2.4,4.06,4.06,0,0,1,1-2.93,6.69,6.69,0,0,1,2.67-1.66,14.88,14.88,0,0,1,3.62-.77c1.33-.12,2.62-.19,3.9-.18v-.41a2.55,2.55,0,0,0-1.1-2.27,4.75,4.75,0,0,0-2.64-.73,5.9,5.9,0,0,0-2.48.55,6.74,6.74,0,0,0-2,1.32l-2.11-2.48A9.18,9.18,0,0,1,102.66,24a11,11,0,0,1,3.69-.64,9,9,0,0,1,3.59.61,5.59,5.59,0,0,1,3.37,3.81,9.63,9.63,0,0,1,.32,2.45v9.93h-3.81Zm-.07-5.37h-.92c-.65,0-1.35,0-2.07.08a8.6,8.6,0,0,0-2,.38,4.26,4.26,0,0,0-1.53.81,1.82,1.82,0,0,0-.61,1.45,1.74,1.74,0,0,0,.25,1,2.09,2.09,0,0,0,.66.63,3.4,3.4,0,0,0,.92.34,5.89,5.89,0,0,0,1,.1,4.27,4.27,0,0,0,3.19-1.13,4.19,4.19,0,0,0,1.09-3.06Z" fill="#858688"/><path id="b897f336-8fff-4c86-bc8d-f9fe24850131" data-name="Path 80" d="M127.48,28a4.14,4.14,0,0,0-1.55-1.61,4.39,4.39,0,0,0-2.37-.63,5.56,5.56,0,0,0-1.22.13,3.25,3.25,0,0,0-1.09.44,2.53,2.53,0,0,0-.77.79,2.19,2.19,0,0,0-.28,1.12,1.93,1.93,0,0,0,.91,1.72A8.79,8.79,0,0,0,124,31a9.58,9.58,0,0,1,4.17,1.68,3.69,3.69,0,0,1,1.35,3,4.44,4.44,0,0,1-1.9,3.83,5.7,5.7,0,0,1-1.92.85,9.32,9.32,0,0,1-2.17.25,8.59,8.59,0,0,1-3.49-.75,6.43,6.43,0,0,1-2.79-2.34l1.83-1.36a5.24,5.24,0,0,0,4.42,2.48,6.87,6.87,0,0,0,1.43-.14,3.16,3.16,0,0,0,1.19-.47,2.53,2.53,0,0,0,.82-.87,2.59,2.59,0,0,0,.31-1.31A2,2,0,0,0,126,33.89a16.1,16.1,0,0,0-3.49-1.17c-.47-.12-1-.26-1.51-.43a4.92,4.92,0,0,1-1.48-.75,4.06,4.06,0,0,1-1.13-1.24,3.69,3.69,0,0,1-.44-1.87,4,4,0,0,1,1.76-3.52,5.59,5.59,0,0,1,1.82-.84,8.23,8.23,0,0,1,2.1-.27,7.44,7.44,0,0,1,3.24.75,5.15,5.15,0,0,1,2.34,2.11Z" fill="#858688"/><path id="bb4b7a25-3cac-4c13-a8a2-3363c97acfa5" data-name="Path 81" d="M144.89,27.86a4.39,4.39,0,0,0-1.68-1.52,5.05,5.05,0,0,0-2.4-.6,6.23,6.23,0,0,0-2.52.5,5.52,5.52,0,0,0-1.92,1.36,6,6,0,0,0-1.23,2,7.8,7.8,0,0,0,0,5,6.11,6.11,0,0,0,1.21,2,5.39,5.39,0,0,0,1.91,1.36,6.18,6.18,0,0,0,2.51.5,5.09,5.09,0,0,0,4.32-2.08l1.74,1.29a7.51,7.51,0,0,1-2.5,2,7.8,7.8,0,0,1-3.55.75,9.36,9.36,0,0,1-3.51-.63,7.79,7.79,0,0,1-2.67-1.75,8,8,0,0,1-1.72-2.65,9.46,9.46,0,0,1,0-6.67,8,8,0,0,1,1.72-2.65,7.81,7.81,0,0,1,2.67-1.76,9.56,9.56,0,0,1,3.51-.63,8.42,8.42,0,0,1,3.24.7,6.45,6.45,0,0,1,2.67,2.06Z" fill="#858688"/><path id="a7c81752-3749-4cd1-99d4-c9f9fb0c205e" data-name="Path 82" d="M160.47,29.83a4,4,0,0,0-1.09-3.07,4.5,4.5,0,0,0-3.17-1,6.69,6.69,0,0,0-2.65.51,6.11,6.11,0,0,0-2.07,1.36l-1.3-1.53a7.7,7.7,0,0,1,2.6-1.64,9.94,9.94,0,0,1,3.66-.64,7.57,7.57,0,0,1,2.41.36,5.52,5.52,0,0,1,2,1.07,4.81,4.81,0,0,1,1.32,1.8,6.16,6.16,0,0,1,.48,2.55v7c0,.61,0,1.25.07,1.91a13.2,13.2,0,0,0,.2,1.66h-2.07c-.07-.38-.13-.8-.17-1.26a11.67,11.67,0,0,1-.07-1.32h-.07a6.79,6.79,0,0,1-2.46,2.3,7.85,7.85,0,0,1-5.21.44,5.44,5.44,0,0,1-1.77-.84,4.78,4.78,0,0,1-1.33-1.5,4.41,4.41,0,0,1-.52-2.25,4.3,4.3,0,0,1,.93-2.92,5.64,5.64,0,0,1,2.5-1.6,14.15,14.15,0,0,1,3.59-.68c1.35-.11,2.75-.16,4.2-.16Zm-.69,2.35c-.95,0-1.91,0-2.87.12a12.32,12.32,0,0,0-2.62.47,4.93,4.93,0,0,0-1.92,1,2.32,2.32,0,0,0-.75,1.8,2.94,2.94,0,0,0,.32,1.43,2.7,2.7,0,0,0,.87.94,3.8,3.8,0,0,0,1.21.51,6,6,0,0,0,1.34.15,5.27,5.27,0,0,0,2.18-.43,4.67,4.67,0,0,0,1.6-1.15,5.13,5.13,0,0,0,1-1.69,5.93,5.93,0,0,0,.35-2V32.18Z" fill="#858688"/><rect id="bb36f5c2-8ea1-4370-a78d-a220a8a593b1" data-name="Rectangle 81" x="167.3" y="14.42" width="2.31" height="25.72" fill="#858688"/><path id="fb4fc3b6-2541-4196-b86e-900986c26682" data-name="Path 83" d="M189.62,31.7v.51a3.77,3.77,0,0,1,0,.58H176.39a6.37,6.37,0,0,0,.47,2.24,5.74,5.74,0,0,0,3.07,3.08,6.06,6.06,0,0,0,5.39-.37,6.22,6.22,0,0,0,2-1.93L189,37.18a8.28,8.28,0,0,1-6.83,3.36,8.41,8.41,0,0,1-3.29-.63,7.51,7.51,0,0,1-2.6-1.75,8.35,8.35,0,0,1-1.72-2.65,8.83,8.83,0,0,1-.62-3.33,8.68,8.68,0,0,1,.61-3.34,7.86,7.86,0,0,1,7.41-5,8.11,8.11,0,0,1,3.3.63,6.59,6.59,0,0,1,2.38,1.7,7.41,7.41,0,0,1,1.45,2.49,9.44,9.44,0,0,1,.49,3.07M187.27,31a5.71,5.71,0,0,0-1.45-3.73A4.87,4.87,0,0,0,182,25.74a5.22,5.22,0,0,0-2.14.43,5.36,5.36,0,0,0-1.74,1.16A5.61,5.61,0,0,0,176.93,29a5.52,5.52,0,0,0-.51,2Z" fill="#858688"/><path id="bbfe8c5c-d166-4536-aa14-ebc347df1190" data-name="Path 84" d="M194.84,21h-1.2v3.22h-.77V21h-1.22v-.69h3.19ZM200,24.18h-.78V21.27h0l-1.13,2.91h-.52l-1.13-2.91h0v2.91h-.77V20.27h1.12L197.82,23l1.07-2.77H200Z" fill="#858688"/></g></g></g></svg>