<?xml version="1.0" encoding="utf-8"?>
<!-- Generator: Adobe Illustrator 25.2.0, SVG Export Plug-In . SVG Version: 6.00 Build 0)  -->
<svg version="1.1" id="Layer_1" xmlns="http://www.w3.org/2000/svg" xmlns:xlink="http://www.w3.org/1999/xlink" x="0px" y="0px"
	 viewBox="0 0 164.9 52.3" style="enable-background:new 0 0 164.9 52.3;" xml:space="preserve">
<style type="text/css">
	.st0{fill:#FFFFFF;}
</style>
<polygon class="st0" points="21.1,46.6 5.3,37.8 5.3,19.6 21.1,28.4 "/>
<polygon class="st0" points="26.5,46.6 42.2,37.8 42.2,19.6 26.5,28.4 "/>
<polygon class="st0" points="23.8,5.7 8,15.1 23.8,23.9 39.5,15.1 "/>
<g>
	<path class="st0" d="M55.1,22.9V7.5h9.2v1.6h-7.3v5.1h6.7v1.6h-6.7v7H55.1z"/>
	<path class="st0" d="M67.8,8.9c-0.4,0-0.7-0.1-0.8-0.3c-0.2-0.2-0.3-0.4-0.3-0.7V7.6c0-0.3,0.1-0.5,0.3-0.7
		c0.2-0.2,0.4-0.3,0.8-0.3s0.7,0.1,0.8,0.3c0.2,0.2,0.3,0.4,0.3,0.7v0.3c0,0.3-0.1,0.5-0.3,0.7C68.4,8.8,68.2,8.9,67.8,8.9z
		 M66.9,11.5h1.8v11.4h-1.8V11.5z"/>
	<path class="st0" d="M72,22.9V11.5h1.8v1.8h0.1c0.3-0.6,0.7-1.1,1.2-1.5s1.2-0.6,2-0.6c1.2,0,2.1,0.4,2.8,1.1s1,1.8,1,3.2v7.3h-1.8
		v-7c0-2-0.9-3.1-2.6-3.1c-0.4,0-0.7,0-1,0.1c-0.3,0.1-0.6,0.2-0.9,0.4c-0.3,0.2-0.5,0.4-0.6,0.7c-0.2,0.3-0.2,0.6-0.2,1v7.9H72z"/>
	<path class="st0" d="M90.3,23.1c-1,0-1.9-0.2-2.7-0.5c-0.8-0.3-1.5-0.9-2-1.5c-0.6-0.7-1-1.5-1.3-2.5c-0.3-1-0.5-2.1-0.5-3.4
		c0-1.3,0.2-2.4,0.5-3.4c0.3-1,0.7-1.8,1.3-2.5c0.6-0.7,1.2-1.2,2-1.5c0.8-0.3,1.7-0.5,2.7-0.5c1,0,1.9,0.2,2.7,0.5
		c0.8,0.3,1.5,0.9,2.1,1.5c0.6,0.7,1,1.5,1.3,2.5c0.3,1,0.5,2.1,0.5,3.4c0,1.3-0.2,2.4-0.5,3.4c-0.3,1-0.7,1.8-1.3,2.5
		c-0.6,0.7-1.3,1.2-2.1,1.5C92.1,23,91.2,23.1,90.3,23.1z M90.3,21.5c0.7,0,1.3-0.1,1.8-0.4c0.6-0.2,1-0.6,1.4-1
		c0.4-0.4,0.7-1,0.9-1.6c0.2-0.6,0.3-1.3,0.3-2.1v-2.6c0-0.8-0.1-1.5-0.3-2.1c-0.2-0.6-0.5-1.1-0.9-1.6c-0.4-0.4-0.9-0.8-1.4-1
		c-0.6-0.2-1.2-0.4-1.8-0.4S89,9,88.4,9.2c-0.6,0.2-1,0.6-1.4,1s-0.7,1-0.9,1.6c-0.2,0.6-0.3,1.3-0.3,2.1v2.6c0,0.8,0.1,1.5,0.3,2.1
		c0.2,0.6,0.5,1.1,0.9,1.6c0.4,0.4,0.9,0.8,1.4,1C89,21.4,89.6,21.5,90.3,21.5z"/>
	<path class="st0" d="M99.8,11.5h1.8v1.8h0.1c0.3-0.7,0.7-1.2,1.3-1.6s1.2-0.5,2-0.5c0.7,0,1.3,0.1,1.9,0.4c0.6,0.3,1.1,0.7,1.5,1.2
		c0.4,0.5,0.7,1.1,0.9,1.9c0.2,0.7,0.3,1.6,0.3,2.5c0,0.9-0.1,1.7-0.3,2.5s-0.5,1.4-0.9,1.9s-0.9,0.9-1.5,1.2
		c-0.6,0.3-1.2,0.4-1.9,0.4c-1.5,0-2.6-0.7-3.3-2.1h-0.1v6.2h-1.8V11.5z M104.5,21.6c1,0,1.8-0.3,2.4-0.9c0.6-0.6,0.9-1.4,0.9-2.5
		v-1.9c0-1-0.3-1.8-0.9-2.5c-0.6-0.6-1.4-0.9-2.4-0.9c-0.4,0-0.8,0.1-1.1,0.2c-0.4,0.1-0.7,0.3-0.9,0.5c-0.3,0.2-0.5,0.4-0.6,0.7
		c-0.2,0.3-0.2,0.6-0.2,0.9v4.2c0,0.4,0.1,0.7,0.2,1c0.2,0.3,0.4,0.5,0.6,0.7c0.3,0.2,0.6,0.4,0.9,0.5S104.1,21.6,104.5,21.6z"/>
	<path class="st0" d="M115.7,23.1c-1.1,0-1.9-0.2-2.7-0.6c-0.7-0.4-1.3-0.9-1.8-1.6l1.3-1c0.4,0.6,0.9,1,1.5,1.3
		c0.5,0.3,1.2,0.5,1.9,0.5c0.7,0,1.3-0.2,1.7-0.5s0.6-0.8,0.6-1.4c0-0.4-0.1-0.8-0.4-1.1c-0.3-0.3-0.8-0.5-1.6-0.6l-0.9-0.1
		c-0.5-0.1-1-0.2-1.5-0.3s-0.8-0.4-1.2-0.6c-0.3-0.3-0.6-0.6-0.8-1c-0.2-0.4-0.3-0.8-0.3-1.4c0-0.6,0.1-1,0.3-1.5
		c0.2-0.4,0.5-0.8,0.8-1c0.4-0.3,0.8-0.5,1.3-0.6c0.5-0.1,1-0.2,1.6-0.2c0.9,0,1.7,0.2,2.3,0.5c0.6,0.3,1.2,0.8,1.6,1.3l-1.2,1.1
		c-0.2-0.4-0.6-0.7-1.1-1s-1.1-0.4-1.8-0.4s-1.3,0.2-1.7,0.5s-0.6,0.7-0.6,1.3c0,0.6,0.2,1,0.6,1.2s0.9,0.4,1.6,0.5l0.9,0.1
		c1.3,0.2,2.2,0.6,2.7,1.1c0.5,0.5,0.8,1.2,0.8,2.1c0,1.1-0.4,2-1.1,2.6C118.1,22.8,117,23.1,115.7,23.1z"/>
</g>
<g>
	<path class="st0" d="M55.1,45.9V30.5h9.2v1.6h-7.3v5.1h6.7v1.6h-6.7v7H55.1z"/>
	<path class="st0" d="M71.2,46.1c-0.8,0-1.5-0.1-2.1-0.4c-0.6-0.3-1.2-0.7-1.6-1.2c-0.4-0.5-0.8-1.1-1-1.9c-0.2-0.7-0.4-1.5-0.4-2.5
		c0-0.9,0.1-1.7,0.4-2.4c0.2-0.7,0.6-1.4,1-1.9c0.4-0.5,1-0.9,1.6-1.2c0.6-0.3,1.3-0.4,2.1-0.4c0.8,0,1.5,0.1,2.1,0.4
		c0.6,0.3,1.2,0.7,1.6,1.2c0.5,0.5,0.8,1.1,1.1,1.9c0.2,0.7,0.4,1.5,0.4,2.4c0,0.9-0.1,1.7-0.4,2.5c-0.2,0.7-0.6,1.3-1.1,1.9
		c-0.5,0.5-1,0.9-1.6,1.2C72.6,46,71.9,46.1,71.2,46.1z M71.2,44.6c1,0,1.7-0.3,2.3-0.9c0.6-0.6,0.9-1.5,0.9-2.7v-1.6
		c0-1.2-0.3-2.1-0.9-2.7c-0.6-0.6-1.4-0.9-2.3-0.9c-1,0-1.7,0.3-2.3,0.9c-0.6,0.6-0.9,1.5-0.9,2.7V41c0,1.2,0.3,2.1,0.9,2.7
		C69.4,44.3,70.2,44.6,71.2,44.6z"/>
	<path class="st0" d="M86,44L86,44c-0.2,0.3-0.3,0.5-0.5,0.8c-0.2,0.3-0.4,0.5-0.6,0.7c-0.2,0.2-0.6,0.4-0.9,0.5s-0.8,0.2-1.2,0.2
		c-1.2,0-2.1-0.4-2.8-1.1c-0.7-0.8-1-1.8-1-3.2v-7.3h1.8v7c0,2,0.9,3.1,2.6,3.1c0.4,0,0.7,0,1-0.1s0.6-0.2,0.9-0.4
		c0.3-0.2,0.5-0.4,0.6-0.7c0.2-0.3,0.2-0.6,0.2-1v-7.9h1.8v11.4H86V44z"/>
	<path class="st0" d="M91.1,45.9V34.5h1.8v1.8h0.1c0.3-0.6,0.7-1.1,1.2-1.5s1.2-0.6,2-0.6c1.2,0,2.1,0.4,2.8,1.1s1,1.8,1,3.2v7.3
		h-1.8v-7c0-2-0.9-3.1-2.6-3.1c-0.4,0-0.7,0-1,0.1c-0.3,0.1-0.6,0.2-0.9,0.4c-0.3,0.2-0.5,0.4-0.6,0.7c-0.2,0.3-0.2,0.6-0.2,1v7.9
		H91.1z"/>
	<path class="st0" d="M110.6,44L110.6,44c-0.8,1.4-1.9,2.1-3.4,2.1c-0.7,0-1.3-0.1-1.9-0.4c-0.6-0.3-1.1-0.7-1.5-1.2
		s-0.7-1.1-0.9-1.9c-0.2-0.7-0.3-1.6-0.3-2.5c0-0.9,0.1-1.7,0.3-2.5c0.2-0.7,0.5-1.4,0.9-1.9c0.4-0.5,0.9-0.9,1.5-1.2
		c0.6-0.3,1.2-0.4,1.9-0.4c0.8,0,1.5,0.2,2,0.5s1,0.9,1.3,1.6h0.1v-6.8h1.8v16.3h-1.8V44z M107.7,44.6c0.4,0,0.8-0.1,1.1-0.2
		s0.7-0.3,0.9-0.5c0.3-0.2,0.5-0.4,0.6-0.7c0.2-0.3,0.2-0.6,0.2-1V38c0-0.3-0.1-0.6-0.2-0.9c-0.2-0.3-0.4-0.5-0.6-0.7
		c-0.3-0.2-0.6-0.3-0.9-0.5c-0.4-0.1-0.7-0.2-1.1-0.2c-1,0-1.8,0.3-2.4,0.9c-0.6,0.6-0.9,1.4-0.9,2.5v1.9c0,1,0.3,1.8,0.9,2.5
		C105.9,44.3,106.7,44.6,107.7,44.6z"/>
	<path class="st0" d="M124.1,45.9c-0.7,0-1.1-0.2-1.4-0.5c-0.3-0.4-0.5-0.8-0.5-1.3h-0.1c-0.2,0.7-0.7,1.2-1.2,1.6
		c-0.6,0.4-1.3,0.5-2,0.5c-1.2,0-2.1-0.3-2.8-0.9c-0.7-0.6-1-1.5-1-2.5c0-1.1,0.4-1.9,1.2-2.5c0.8-0.6,2-0.9,3.7-0.9h2.2v-1.1
		c0-0.8-0.2-1.4-0.7-1.8s-1.1-0.6-2-0.6c-0.7,0-1.3,0.2-1.7,0.5c-0.5,0.3-0.8,0.7-1.2,1.2l-1.1-1c0.3-0.6,0.8-1.1,1.5-1.6
		s1.5-0.6,2.6-0.6c1.4,0,2.4,0.3,3.2,1c0.8,0.7,1.1,1.6,1.1,2.8v6.2h1.3v1.6H124.1z M119.1,44.6c0.4,0,0.8-0.1,1.2-0.2
		c0.4-0.1,0.7-0.2,0.9-0.4c0.3-0.2,0.5-0.4,0.6-0.7c0.1-0.2,0.2-0.5,0.2-0.8v-1.9h-2.3c-1,0-1.7,0.1-2.2,0.4
		c-0.5,0.3-0.7,0.7-0.7,1.3v0.5c0,0.6,0.2,1,0.6,1.3C117.8,44.5,118.4,44.6,119.1,44.6z"/>
	<path class="st0" d="M129.7,45.9c-0.6,0-1.1-0.2-1.4-0.5s-0.5-0.8-0.5-1.4v-7.9h-1.9v-1.6h1.1c0.4,0,0.6-0.1,0.8-0.2
		c0.1-0.2,0.2-0.4,0.2-0.8v-2.1h1.6v3.1h2.5v1.6h-2.5v8.2h2.3v1.6H129.7z"/>
	<path class="st0" d="M135.3,31.9c-0.4,0-0.7-0.1-0.8-0.3c-0.2-0.2-0.3-0.4-0.3-0.7v-0.3c0-0.3,0.1-0.5,0.3-0.7
		c0.2-0.2,0.4-0.3,0.8-0.3s0.7,0.1,0.8,0.3c0.2,0.2,0.3,0.4,0.3,0.7v0.3c0,0.3-0.1,0.5-0.3,0.7C135.9,31.8,135.7,31.9,135.3,31.9z
		 M134.4,34.5h1.8v11.4h-1.8V34.5z"/>
	<path class="st0" d="M143.9,46.1c-0.8,0-1.5-0.1-2.1-0.4c-0.6-0.3-1.2-0.7-1.6-1.2c-0.4-0.5-0.8-1.1-1-1.9
		c-0.2-0.7-0.4-1.5-0.4-2.5c0-0.9,0.1-1.7,0.4-2.4c0.2-0.7,0.6-1.4,1-1.9c0.4-0.5,1-0.9,1.6-1.2c0.6-0.3,1.3-0.4,2.1-0.4
		c0.8,0,1.5,0.1,2.1,0.4c0.6,0.3,1.2,0.7,1.6,1.2c0.5,0.5,0.8,1.1,1.1,1.9c0.2,0.7,0.4,1.5,0.4,2.4c0,0.9-0.1,1.7-0.4,2.5
		c-0.2,0.7-0.6,1.3-1.1,1.9c-0.5,0.5-1,0.9-1.6,1.2C145.4,46,144.7,46.1,143.9,46.1z M143.9,44.6c1,0,1.7-0.3,2.3-0.9
		c0.6-0.6,0.9-1.5,0.9-2.7v-1.6c0-1.2-0.3-2.1-0.9-2.7c-0.6-0.6-1.4-0.9-2.3-0.9c-1,0-1.7,0.3-2.3,0.9c-0.6,0.6-0.9,1.5-0.9,2.7V41
		c0,1.2,0.3,2.1,0.9,2.7C142.2,44.3,143,44.6,143.9,44.6z"/>
	<path class="st0" d="M151.8,45.9V34.5h1.8v1.8h0.1c0.3-0.6,0.7-1.1,1.2-1.5s1.2-0.6,2-0.6c1.2,0,2.1,0.4,2.8,1.1s1,1.8,1,3.2v7.3
		h-1.8v-7c0-2-0.9-3.1-2.6-3.1c-0.4,0-0.7,0-1,0.1c-0.3,0.1-0.6,0.2-0.9,0.4c-0.3,0.2-0.5,0.4-0.6,0.7c-0.2,0.3-0.2,0.6-0.2,1v7.9
		H151.8z"/>
</g>
</svg>
