<?xml version="1.0" encoding="utf-8"?>
<!-- Generator: Adobe Illustrator 25.0.1, SVG Export Plug-In . SVG Version: 6.00 Build 0)  -->
<svg version="1.1" id="Layer_1" xmlns="http://www.w3.org/2000/svg" xmlns:xlink="http://www.w3.org/1999/xlink" x="0px" y="0px"
	 viewBox="0 0 319.5 46.8" style="enable-background:new 0 0 319.5 46.8;" xml:space="preserve">
<style type="text/css">
	.st0{fill:#FFFFFF;}
</style>
<g>
	<polygon class="st0" points="18.2,23 2.8,14.1 2.8,31.8 18.3,40.7 	"/>
	<polygon class="st0" points="19.6,20.7 35.2,11.7 19.6,2.6 4,11.6 	"/>
	<polygon class="st0" points="20.9,23 21,40.7 36.4,31.8 36.4,14.1 	"/>
</g>
<path class="st0" d="M49.1,9.7h15.7v3.5h-12v7.3H63v3.3H52.8v10.5h-3.7V9.7z"/>
<path class="st0" d="M67.6,16.8h3.5v17.5h-3.5V16.8z"/>
<path class="st0" d="M74.8,16.8h3.5v1.9h0.1c1.2-1.4,2.7-2.1,4.6-2.1c1.5,0,2.8,0.5,4,1.5s1.8,2.6,1.9,4.6v11.7h-3.5V23.9
	c0-1.2-0.3-2.2-1-2.8c-0.6-0.7-1.5-1-2.5-1s-1.8,0.3-2.5,1c-0.7,0.6-1,1.6-1,2.8v10.4h-3.5L74.8,16.8L74.8,16.8z"/>
<path class="st0" d="M91.7,22c0-2.9,0.1-4.8,0.3-5.7c0.2-1,0.5-1.8,0.8-2.3c0.6-1.1,1.6-2.2,2.9-3c1.3-0.9,2.9-1.4,4.8-1.4
	c2,0,3.6,0.5,4.9,1.4s2.2,1.9,2.8,3c0.4,0.6,0.7,1.4,0.9,2.3c0.1,1,0.2,2.9,0.2,5.7s-0.1,4.7-0.2,5.7c-0.2,1-0.4,1.8-0.9,2.4
	c-0.6,1.1-1.5,2.1-2.8,3c-1.3,0.9-2.9,1.4-4.9,1.4c-1.9,0-3.6-0.5-4.8-1.4c-1.3-0.9-2.3-1.9-2.9-3c-0.2-0.4-0.3-0.7-0.5-1.1
	c-0.1-0.3-0.2-0.8-0.3-1.3C91.8,26.7,91.7,24.8,91.7,22z M95.5,22c0,2.4,0.1,4.1,0.3,4.9c0.2,0.9,0.5,1.5,1,2.1
	c0.4,0.5,0.9,0.9,1.6,1.2c0.6,0.4,1.4,0.6,2.3,0.6s1.7-0.2,2.3-0.6c0.6-0.3,1.1-0.7,1.5-1.2c0.5-0.5,0.8-1.2,1-2.1s0.3-2.5,0.3-4.9
	s-0.1-4.1-0.3-4.9c-0.2-0.8-0.5-1.5-1-2c-0.4-0.5-0.9-0.9-1.5-1.3c-0.7-0.3-1.4-0.5-2.3-0.5s-1.6,0.2-2.3,0.5
	c-0.6,0.3-1.2,0.8-1.6,1.3c-0.5,0.5-0.8,1.2-1,2C95.6,18,95.5,19.6,95.5,22z"/>
<path class="st0" d="M112.3,16.8h3.5v1.8c1.2-1.3,2.7-2,4.5-2c2.2,0.1,3.7,0.8,4.7,2.3c0.5,0.6,0.8,1.3,1,2.2s0.3,2.4,0.3,4.5
	s-0.1,3.6-0.3,4.5c-0.2,0.9-0.5,1.6-1,2.2c-0.5,0.7-1.1,1.2-1.9,1.6s-1.7,0.6-2.8,0.7c-0.9,0-1.7-0.2-2.4-0.6
	c-0.8-0.4-1.5-0.9-2.1-1.5v9h-3.5C112.3,41.5,112.3,16.8,112.3,16.8z M119.3,31c0.8,0,1.5-0.2,2-0.5s0.8-0.7,1-1.2s0.4-1.1,0.5-1.8
	c0-0.6,0-1.3,0-1.9c0-0.7,0-1.4,0-2c-0.1-0.7-0.2-1.2-0.5-1.8c-0.2-0.5-0.5-0.9-1-1.2s-1.1-0.4-2-0.4c-0.8,0-1.4,0.2-1.9,0.5
	s-0.8,0.8-1.1,1.3c-0.2,0.5-0.4,1.1-0.4,1.7c-0.1,0.7-0.1,1.3-0.1,2c0,0.6,0,1.2,0.1,1.9c0.1,0.7,0.2,1.2,0.4,1.8
	c0.2,0.5,0.6,1,1.1,1.3C117.9,30.8,118.5,31,119.3,31z"/>
<path class="st0" d="M135.6,31.2c1,0,1.8-0.2,2.5-0.6c0.6-0.4,1-0.9,1-1.7c0-0.6-0.2-1.1-0.6-1.3c-0.4-0.3-0.9-0.4-1.6-0.4l-3.1-0.3
	c-1.5-0.1-2.7-0.6-3.6-1.5c-0.9-0.8-1.4-2-1.5-3.5c0-1.8,0.7-3.2,1.9-4.1s2.8-1.4,4.6-1.4c0.8,0,1.5,0.1,2.2,0.2
	c0.6,0.1,1.2,0.3,1.8,0.5c1.1,0.4,2,1,2.9,1.8l-2.2,2.6c-0.7-0.5-1.4-0.9-2.1-1.2c-0.7-0.3-1.6-0.4-2.6-0.4c-1.1,0-1.9,0.2-2.3,0.6
	c-0.5,0.4-0.7,0.9-0.7,1.5c0,0.4,0.2,0.7,0.5,1c0.3,0.3,0.9,0.5,1.8,0.6l2.9,0.2c1.8,0.1,3.1,0.7,4,1.7c0.8,0.9,1.1,2.1,1.1,3.6
	c0,1.7-0.7,3-2.1,3.9c-1.4,0.9-3.1,1.4-5.2,1.5c-2.9,0-5.4-1-7.7-3.1L130,29C131.5,30.5,133.3,31.2,135.6,31.2z"/>
<g>
	<path class="st0" d="M152.6,10.1h16.6v3.7h-12.6v7.6h10.8v3.4h-10.8v11h-3.9V10.1z"/>
	<path class="st0" d="M169.4,26.7c0-1.8,0.3-3.4,0.5-4.5c0.3-1.1,0.8-1.8,1.6-2.6c0.5-0.5,1.3-1.1,2.1-1.6c0.8-0.5,2.1-0.8,3.4-0.8
		c1.6,0,2.6,0.3,3.4,0.8c0.8,0.5,1.6,1.1,2.1,1.6c0.8,0.8,1.3,1.6,1.6,2.6c0.3,1.1,0.5,2.6,0.5,4.5c0,1.8-0.3,3.4-0.5,4.5
		c-0.3,1.1-0.8,1.8-1.6,2.6c-0.3,0.3-0.5,0.5-0.8,0.8s-0.8,0.5-1.3,0.8c-0.8,0.5-2.1,0.8-3.4,0.8s-2.6-0.3-3.4-0.8
		c-0.8-0.5-1.6-1.1-2.1-1.6c-0.8-0.8-1.3-1.6-1.6-2.6S169.4,28.8,169.4,26.7z M180.9,26.7c0-1.3,0-2.4-0.3-2.9
		c0-0.5-0.3-1.1-0.8-1.6c-0.3-0.5-0.8-0.8-1.3-1.1c-0.5-0.3-1.1-0.3-1.8-0.3c-0.5,0-1.3,0-1.8,0.3c-0.5,0.3-1.1,0.5-1.3,1.1
		c-0.3,0.5-0.5,1.1-0.8,1.6c-0.3,0.5-0.3,1.6-0.3,2.9c0,1.3,0,2.1,0.3,2.9c0.3,0.5,0.3,1.1,0.8,1.6c0.3,0.3,0.8,0.8,1.3,1.1
		c0.5,0.3,1.1,0.3,1.8,0.3c0.8,0,1.3,0,1.8-0.3c0.5-0.3,1.1-0.5,1.3-1.1s0.5-1.1,0.8-1.6S180.9,28,180.9,26.7z"/>
	<path class="st0" d="M187.5,17.5h3.7v11c0,1.3,0.3,2.1,1.1,2.9c0.8,0.8,1.6,1.1,2.6,1.1s1.8-0.3,2.6-1.1c0.8-0.8,1.1-1.6,1.1-2.9
		v-11h3.7v18.4h-3.7v-2.1l0,0c-1.3,1.6-2.9,2.1-4.7,2.1c-1.6,0-2.9-0.5-4.2-1.6c-1.3-1.1-2.1-2.6-2.1-4.7
		C187.5,29.6,187.5,17.5,187.5,17.5z"/>
	<path class="st0" d="M205.9,17.5h3.7v1.8l0,0c1.3-1.6,2.9-2.1,4.7-2.1c1.6,0,2.9,0.5,4.2,1.6c1.3,1.1,1.8,2.6,2.1,4.7v12.4H217v-11
		c0-1.3-0.3-2.4-1.1-2.9c-0.8-0.8-1.6-1.1-2.6-1.1s-1.8,0.3-2.6,1.1c-0.8,0.8-1.1,1.6-1.1,2.9v11h-3.7V17.5z"/>
	<path class="st0" d="M234.6,34c-1.3,1.3-2.9,2.1-4.7,2.1c-1.1,0-2.1-0.3-2.9-0.8c-0.8-0.5-1.6-1.1-2.1-1.8
		c-0.5-0.5-0.8-1.3-1.1-2.4c-0.3-1.1-0.3-2.6-0.3-4.7s0-3.7,0.3-4.7c0.3-1.1,0.5-1.8,1.1-2.4c1.1-1.6,2.6-2.4,5-2.4
		c1.1,0,1.8,0.3,2.6,0.5c0.8,0.5,1.6,1.1,2.1,1.6V9.6h3.7v26h-3.7V34z M230.9,21.2c-0.8,0-1.6,0.3-2.1,0.5c-0.5,0.3-0.8,0.8-1.1,1.3
		c-0.3,0.5-0.3,1.1-0.5,1.8c0,0.8,0,1.3,0,2.1s0,1.3,0,2.1s0.3,1.3,0.5,1.8c0.3,0.5,0.5,1.1,1.1,1.3c0.5,0.3,1.1,0.5,2.1,0.5
		c0.8,0,1.6-0.3,2.1-0.5c0.5-0.3,0.8-0.8,1.1-1.3c0.3-0.5,0.5-1.1,0.5-1.8s0-1.3,0-2.1s0-1.3,0-2.1c0-0.5-0.3-1.3-0.5-1.8
		c-0.3-0.5-0.5-1.1-1.1-1.3C232.5,21.2,231.7,21.2,230.9,21.2z"/>
	<path class="st0" d="M251.7,34.3L251.7,34.3c-0.5,0.5-1.1,1.1-1.6,1.3c-0.8,0.3-1.6,0.5-2.9,0.5c-2.1,0-3.7-0.5-4.7-1.6
		c-1.1-1.1-1.8-2.4-1.8-3.9s0.5-2.9,1.6-3.9s2.6-1.6,4.5-1.6h5.3v-1.8c0-1.6-1.3-2.4-3.7-2.4c-1.1,0-1.6,0-2.1,0.3
		c-0.5,0.3-1.1,0.5-1.3,1.1l-2.9-2.1c1.3-1.8,3.4-2.6,6.3-2.6c2.4,0,4.2,0.5,5.5,1.3c1.3,1.1,2.1,2.6,2.1,4.7v12.6h-3.7v-1.8H251.7z
		 M251.7,28.3h-4.5c-2.1,0-3.2,0.8-3.2,2.1c0,0.5,0.3,1.1,0.8,1.6c0.5,0.5,1.3,0.8,2.6,0.8c1.6,0,2.6-0.3,3.4-0.5
		c0.5-0.3,0.8-1.3,0.8-2.6L251.7,28.3L251.7,28.3z"/>
	<path class="st0" d="M259.6,12h3.7v5.5h2.6v2.9h-2.6v10.8c0,1.1,0.5,1.3,1.3,1.3h1.3v3.4H264c-1.3,0-2.4-0.5-3.2-1.3
		s-1.3-1.8-1.3-3.4v-11h-1.8v-2.9h1.8V12z"/>
	<path class="st0" d="M268.8,10.1h3.7v3.7h-3.7V10.1z M268.8,17.5h3.7v18.4h-3.7V17.5z"/>
	<path class="st0" d="M275.9,26.7c0-1.8,0.3-3.4,0.5-4.5c0.3-1.1,0.8-1.8,1.6-2.6c0.5-0.5,1.3-1.1,2.1-1.6c0.8-0.5,2.1-0.8,3.4-0.8
		c1.6,0,2.6,0.3,3.4,0.8c0.8,0.5,1.6,1.1,2.1,1.6c0.8,0.8,1.3,1.6,1.6,2.6c0.3,1.1,0.5,2.6,0.5,4.5c0,1.8-0.3,3.4-0.5,4.5
		c-0.3,1.1-0.8,1.8-1.6,2.6c-0.3,0.3-0.5,0.5-0.8,0.8c-0.3,0.3-0.8,0.5-1.3,0.8c-0.8,0.5-2.1,0.8-3.4,0.8s-2.6-0.3-3.4-0.8
		s-1.6-1.1-2.1-1.6c-0.8-0.8-1.3-1.6-1.6-2.6C275.9,30.1,275.9,28.8,275.9,26.7z M287.4,26.7c0-1.3,0-2.4-0.3-2.9
		c0-0.5-0.3-1.1-0.8-1.6c-0.3-0.5-0.8-0.8-1.3-1.1c-0.5-0.3-1.1-0.3-1.8-0.3c-0.5,0-1.3,0-1.8,0.3c-0.5,0.3-1.1,0.5-1.3,1.1
		c-0.3,0.5-0.5,1.1-0.8,1.6c-0.3,0.5-0.3,1.6-0.3,2.9c0,1.3,0,2.1,0.3,2.9c0.3,0.5,0.3,1.1,0.8,1.6c0.3,0.3,0.8,0.8,1.3,1.1
		c0.5,0.3,1.1,0.3,1.8,0.3s1.3,0,1.8-0.3c0.5-0.3,1.1-0.5,1.3-1.1c0.3-0.5,0.5-1.1,0.8-1.6C287.2,29.1,287.4,28,287.4,26.7z"/>
	<path class="st0" d="M294,17.5h3.7v1.8l0,0c1.3-1.6,2.9-2.1,4.7-2.1c1.6,0,2.9,0.5,4.2,1.6c1.3,1.1,1.8,2.6,2.1,4.7v12.4H305v-11
		c0-1.3-0.3-2.4-1.1-2.9c-0.8-0.8-1.6-1.1-2.6-1.1c-1.1,0-1.8,0.3-2.6,1.1c-0.8,0.8-1.1,1.6-1.1,2.9v11H294V17.5z"/>
</g>
<g>
	<g>
		<polygon class="st0" points="69.1,10.2 71.5,11.5 69.1,12.8 66.8,11.5 		"/>
	</g>
	<g>
		<g>
			<polygon class="st0" points="69.1,11.6 69.1,14.2 66.8,12.9 66.8,10.2 			"/>
		</g>
		<g>
			<polygon class="st0" points="69.1,11.6 69.1,14.2 71.5,12.9 71.5,10.2 			"/>
		</g>
	</g>
	<g>
		<polygon class="st0" points="69.1,8.9 71.5,10.2 69.1,11.6 66.8,10.2 		"/>
	</g>
</g>
</svg>
