<?xml version="1.0" encoding="utf-8"?>
<!-- Generator: Adobe Illustrator 23.0.3, SVG Export Plug-In . SVG Version: 6.00 Build 0)  -->
<svg version="1.1" id="Layer_1" xmlns="http://www.w3.org/2000/svg" xmlns:xlink="http://www.w3.org/1999/xlink" x="0px" y="0px"
	 viewBox="0 0 145.7 46.8" style="enable-background:new 0 0 145.7 46.8;" xml:space="preserve">
<style type="text/css">
	.st0{fill:#45A66A;}
	.st1{fill:#2B3F50;}
</style>
<g>
	<g>
		<polygon class="st0" points="18.2,23 2.8,14.1 2.8,31.8 18.3,40.7 		"/>
		<polygon class="st0" points="19.6,20.7 35.2,11.7 19.6,2.6 4,11.6 		"/>
		<polygon class="st0" points="20.9,23 21,40.7 36.4,31.8 36.4,14.1 		"/>
	</g>
	<g>
		<path class="st1" d="M49.1,2.7h15.7v3.5h-12v7.3h10.2v3.3H52.8v10.5h-3.7V2.7z"/>
		<path class="st1" d="M67.6,9.8h3.5v17.5h-3.5V9.8z"/>
		<path class="st1" d="M74.8,9.8h3.5v1.9h0.1c1.2-1.4,2.7-2.1,4.6-2.1c1.5,0,2.8,0.5,4,1.5c1.2,1,1.8,2.6,1.9,4.6v11.7h-3.5V16.9
			c0-1.2-0.3-2.2-1-2.8c-0.6-0.7-1.5-1-2.5-1c-1,0-1.8,0.3-2.5,1c-0.7,0.6-1,1.6-1,2.8v10.4h-3.5V9.8z"/>
		<path class="st1" d="M91.7,15c0-2.9,0.1-4.8,0.3-5.7c0.2-1,0.5-1.8,0.8-2.3c0.6-1.1,1.6-2.2,2.9-3c1.3-0.9,2.9-1.4,4.8-1.4
			c2,0,3.6,0.5,4.9,1.4c1.3,0.9,2.2,1.9,2.8,3c0.4,0.6,0.7,1.4,0.9,2.3c0.1,1,0.2,2.9,0.2,5.7c0,2.8-0.1,4.7-0.2,5.7
			c-0.2,1-0.4,1.8-0.9,2.4c-0.6,1.1-1.5,2.1-2.8,3c-1.3,0.9-2.9,1.4-4.9,1.4c-1.9,0-3.6-0.5-4.8-1.4c-1.3-0.9-2.3-1.9-2.9-3
			c-0.2-0.4-0.3-0.7-0.5-1.1c-0.1-0.3-0.2-0.8-0.3-1.3C91.8,19.7,91.7,17.8,91.7,15z M95.5,15c0,2.4,0.1,4.1,0.3,4.9
			c0.2,0.9,0.5,1.5,1,2.1c0.4,0.5,0.9,0.9,1.6,1.2c0.6,0.4,1.4,0.6,2.3,0.6c0.9,0,1.7-0.2,2.3-0.6c0.6-0.3,1.1-0.7,1.5-1.2
			c0.5-0.5,0.8-1.2,1-2.1c0.2-0.9,0.3-2.5,0.3-4.9c0-2.4-0.1-4.1-0.3-4.9c-0.2-0.8-0.5-1.5-1-2c-0.4-0.5-0.9-0.9-1.5-1.3
			c-0.7-0.3-1.4-0.5-2.3-0.5c-0.9,0-1.6,0.2-2.3,0.5c-0.6,0.3-1.2,0.8-1.6,1.3c-0.5,0.5-0.8,1.2-1,2C95.6,11,95.5,12.6,95.5,15z"/>
		<path class="st1" d="M112.3,9.8h3.5v1.8c1.2-1.3,2.7-2,4.5-2c2.2,0.1,3.7,0.8,4.7,2.3c0.5,0.6,0.8,1.3,1,2.2
			c0.2,0.9,0.3,2.4,0.3,4.5c0,2.1-0.1,3.6-0.3,4.5c-0.2,0.9-0.5,1.6-1,2.2c-0.5,0.7-1.1,1.2-1.9,1.6c-0.8,0.4-1.7,0.6-2.8,0.7
			c-0.9,0-1.7-0.2-2.4-0.6c-0.8-0.4-1.5-0.9-2.1-1.5v9h-3.5V9.8z M119.3,24c0.8,0,1.5-0.2,2-0.5c0.5-0.3,0.8-0.7,1-1.2
			c0.2-0.5,0.4-1.1,0.5-1.8c0-0.6,0-1.3,0-1.9c0-0.7,0-1.4,0-2c-0.1-0.7-0.2-1.2-0.5-1.8c-0.2-0.5-0.5-0.9-1-1.2
			c-0.5-0.3-1.1-0.4-2-0.4c-0.8,0-1.4,0.2-1.9,0.5c-0.5,0.3-0.8,0.8-1.1,1.3c-0.2,0.5-0.4,1.1-0.4,1.7c-0.1,0.7-0.1,1.3-0.1,2
			c0,0.6,0,1.2,0.1,1.9c0.1,0.7,0.2,1.2,0.4,1.8c0.2,0.5,0.6,1,1.1,1.3C117.9,23.8,118.5,24,119.3,24z"/>
		<path class="st1" d="M135.6,24.2c1,0,1.8-0.2,2.5-0.6c0.6-0.4,1-0.9,1-1.7c0-0.6-0.2-1.1-0.6-1.3c-0.4-0.3-0.9-0.4-1.6-0.4
			l-3.1-0.3c-1.5-0.1-2.7-0.6-3.6-1.5c-0.9-0.8-1.4-2-1.5-3.5c0-1.8,0.7-3.2,1.9-4.1c1.2-0.9,2.8-1.4,4.6-1.4c0.8,0,1.5,0.1,2.2,0.2
			c0.6,0.1,1.2,0.3,1.8,0.5c1.1,0.4,2,1,2.9,1.8l-2.2,2.6c-0.7-0.5-1.4-0.9-2.1-1.2c-0.7-0.3-1.6-0.4-2.6-0.4
			c-1.1,0-1.9,0.2-2.3,0.6c-0.5,0.4-0.7,0.9-0.7,1.5c0,0.4,0.2,0.7,0.5,1c0.3,0.3,0.9,0.5,1.8,0.6l2.9,0.2c1.8,0.1,3.1,0.7,4,1.7
			c0.8,0.9,1.1,2.1,1.1,3.6c0,1.7-0.7,3-2.1,3.9c-1.4,0.9-3.1,1.4-5.2,1.5c-2.9,0-5.4-1-7.7-3.1L130,22
			C131.5,23.5,133.3,24.2,135.6,24.2z"/>
		<g>
			<path class="st1" d="M48.6,33.7h6.3v1.4h-4.8V38h4.1v1.3h-4.1v4.2h-1.5V33.7z"/>
			<path class="st1" d="M55,40c0-0.7,0.1-1.3,0.2-1.7c0.1-0.4,0.3-0.7,0.6-1c0.2-0.2,0.5-0.4,0.8-0.6c0.3-0.2,0.8-0.3,1.3-0.3
				c0.6,0,1,0.1,1.3,0.3c0.3,0.2,0.6,0.4,0.8,0.6c0.3,0.3,0.5,0.6,0.6,1c0.1,0.4,0.2,1,0.2,1.7c0,0.7-0.1,1.3-0.2,1.7
				c-0.1,0.4-0.3,0.7-0.6,1c-0.1,0.1-0.2,0.2-0.3,0.3c-0.1,0.1-0.3,0.2-0.5,0.3c-0.3,0.2-0.8,0.3-1.3,0.3c-0.5,0-1-0.1-1.3-0.3
				c-0.3-0.2-0.6-0.4-0.8-0.6c-0.3-0.3-0.5-0.6-0.6-1C55.1,41.3,55,40.8,55,40z M59.4,40c0-0.5,0-0.9-0.1-1.1c0-0.2-0.1-0.4-0.3-0.6
				c-0.1-0.2-0.3-0.3-0.5-0.4c-0.2-0.1-0.4-0.1-0.7-0.1c-0.2,0-0.5,0-0.7,0.1c-0.2,0.1-0.4,0.2-0.5,0.4c-0.1,0.2-0.2,0.4-0.3,0.6
				c-0.1,0.2-0.1,0.6-0.1,1.1c0,0.5,0,0.8,0.1,1.1c0.1,0.2,0.1,0.4,0.3,0.6c0.1,0.1,0.3,0.3,0.5,0.4c0.2,0.1,0.4,0.1,0.7,0.1
				c0.3,0,0.5,0,0.7-0.1c0.2-0.1,0.4-0.2,0.5-0.4c0.1-0.2,0.2-0.4,0.3-0.6C59.4,40.9,59.4,40.5,59.4,40z"/>
			<path class="st1" d="M61.9,36.5h1.4v4.2c0,0.5,0.1,0.8,0.4,1.1c0.3,0.3,0.6,0.4,1,0.4c0.4,0,0.7-0.1,1-0.4
				c0.3-0.3,0.4-0.6,0.4-1.1v-4.2h1.4v7h-1.4v-0.8h0c-0.5,0.6-1.1,0.8-1.8,0.8c-0.6,0-1.1-0.2-1.6-0.6c-0.5-0.4-0.8-1-0.8-1.8V36.5z
				"/>
			<path class="st1" d="M68.9,36.5h1.4v0.7h0c0.5-0.6,1.1-0.8,1.8-0.8c0.6,0,1.1,0.2,1.6,0.6c0.5,0.4,0.7,1,0.8,1.8v4.7h-1.4v-4.2
				c0-0.5-0.1-0.9-0.4-1.1c-0.3-0.3-0.6-0.4-1-0.4c-0.4,0-0.7,0.1-1,0.4c-0.3,0.3-0.4,0.6-0.4,1.1v4.2h-1.4V36.5z"/>
			<path class="st1" d="M79.8,42.8c-0.5,0.5-1.1,0.8-1.8,0.8c-0.4,0-0.8-0.1-1.1-0.3c-0.3-0.2-0.6-0.4-0.8-0.7
				c-0.2-0.2-0.3-0.5-0.4-0.9c-0.1-0.4-0.1-1-0.1-1.8c0-0.8,0-1.4,0.1-1.8c0.1-0.4,0.2-0.7,0.4-0.9c0.4-0.6,1-0.9,1.9-0.9
				c0.4,0,0.7,0.1,1,0.2c0.3,0.2,0.6,0.4,0.8,0.6v-3.6h1.4v9.9h-1.4V42.8z M78.4,37.9c-0.3,0-0.6,0.1-0.8,0.2
				c-0.2,0.1-0.3,0.3-0.4,0.5c-0.1,0.2-0.1,0.4-0.2,0.7c0,0.3,0,0.5,0,0.8c0,0.3,0,0.5,0,0.8c0,0.3,0.1,0.5,0.2,0.7
				c0.1,0.2,0.2,0.4,0.4,0.5c0.2,0.1,0.4,0.2,0.8,0.2c0.3,0,0.6-0.1,0.8-0.2c0.2-0.1,0.3-0.3,0.4-0.5c0.1-0.2,0.2-0.4,0.2-0.7
				c0-0.3,0-0.5,0-0.8c0-0.3,0-0.5,0-0.8c0-0.2-0.1-0.5-0.2-0.7c-0.1-0.2-0.2-0.4-0.4-0.5C79,37.9,78.7,37.9,78.4,37.9z"/>
			<path class="st1" d="M86.3,42.9L86.3,42.9c-0.2,0.2-0.4,0.4-0.6,0.5c-0.3,0.1-0.6,0.2-1.1,0.2c-0.8,0-1.4-0.2-1.8-0.6
				c-0.4-0.4-0.7-0.9-0.7-1.5c0-0.6,0.2-1.1,0.6-1.5c0.4-0.4,1-0.6,1.7-0.6h2v-0.7c0-0.6-0.5-0.9-1.4-0.9c-0.4,0-0.6,0-0.8,0.1
				c-0.2,0.1-0.4,0.2-0.5,0.4l-1.1-0.8c0.5-0.7,1.3-1,2.4-1c0.9,0,1.6,0.2,2.1,0.5c0.5,0.4,0.8,1,0.8,1.8v4.8h-1.4V42.9z M86.3,40.6
				h-1.7c-0.8,0-1.2,0.3-1.2,0.8c0,0.2,0.1,0.4,0.3,0.6c0.2,0.2,0.5,0.3,1,0.3c0.6,0,1-0.1,1.3-0.2c0.2-0.1,0.3-0.5,0.3-1V40.6z"/>
			<path class="st1" d="M89.3,34.4h1.4v2.1h1v1.1h-1v4.1c0,0.4,0.2,0.5,0.5,0.5h0.5v1.3H91c-0.5,0-0.9-0.2-1.2-0.5
				c-0.3-0.3-0.5-0.7-0.5-1.3v-4.2h-0.7v-1.1h0.7V34.4z"/>
			<path class="st1" d="M92.8,33.7h1.4v1.4h-1.4V33.7z M92.8,36.5h1.4v7h-1.4V36.5z"/>
			<path class="st1" d="M95.5,40c0-0.7,0.1-1.3,0.2-1.7c0.1-0.4,0.3-0.7,0.6-1c0.2-0.2,0.5-0.4,0.8-0.6c0.3-0.2,0.8-0.3,1.3-0.3
				c0.6,0,1,0.1,1.3,0.3c0.3,0.2,0.6,0.4,0.8,0.6c0.3,0.3,0.5,0.6,0.6,1c0.1,0.4,0.2,1,0.2,1.7c0,0.7-0.1,1.3-0.2,1.7
				c-0.1,0.4-0.3,0.7-0.6,1c-0.1,0.1-0.2,0.2-0.3,0.3c-0.1,0.1-0.3,0.2-0.5,0.3c-0.3,0.2-0.8,0.3-1.3,0.3c-0.5,0-1-0.1-1.3-0.3
				c-0.3-0.2-0.6-0.4-0.8-0.6c-0.3-0.3-0.5-0.6-0.6-1C95.5,41.3,95.5,40.8,95.5,40z M99.9,40c0-0.5,0-0.9-0.1-1.1
				c0-0.2-0.1-0.4-0.3-0.6c-0.1-0.2-0.3-0.3-0.5-0.4c-0.2-0.1-0.4-0.1-0.7-0.1c-0.2,0-0.5,0-0.7,0.1c-0.2,0.1-0.4,0.2-0.5,0.4
				c-0.1,0.2-0.2,0.4-0.3,0.6c-0.1,0.2-0.1,0.6-0.1,1.1c0,0.5,0,0.8,0.1,1.1c0.1,0.2,0.1,0.4,0.3,0.6c0.1,0.1,0.3,0.3,0.5,0.4
				c0.2,0.1,0.4,0.1,0.7,0.1c0.3,0,0.5,0,0.7-0.1c0.2-0.1,0.4-0.2,0.5-0.4c0.1-0.2,0.2-0.4,0.3-0.6C99.8,40.9,99.9,40.5,99.9,40z"/>
			<path class="st1" d="M102.4,36.5h1.4v0.7h0c0.5-0.6,1.1-0.8,1.8-0.8c0.6,0,1.1,0.2,1.6,0.6c0.5,0.4,0.7,1,0.8,1.8v4.7h-1.4v-4.2
				c0-0.5-0.1-0.9-0.4-1.1c-0.3-0.3-0.6-0.4-1-0.4s-0.7,0.1-1,0.4c-0.3,0.3-0.4,0.6-0.4,1.1v4.2h-1.4V36.5z"/>
		</g>
		<g>
			<g>
				<polygon class="st1" points="69.1,3.2 71.5,4.5 69.1,5.8 66.8,4.5 				"/>
			</g>
			<g>
				<g>
					<polygon class="st1" points="69.1,4.6 69.1,7.2 66.8,5.9 66.8,3.2 					"/>
				</g>
				<g>
					<polygon class="st1" points="69.1,4.6 69.1,7.2 71.5,5.9 71.5,3.2 					"/>
				</g>
			</g>
			<g>
				<polygon class="st1" points="69.1,1.9 71.5,3.2 69.1,4.6 66.8,3.2 				"/>
			</g>
		</g>
	</g>
</g>
</svg>
