<?xml version="1.0" encoding="utf-8"?>
<!-- Generator: Adobe Illustrator 25.2.0, SVG Export Plug-In . SVG Version: 6.00 Build 0)  -->
<svg version="1.1" id="Layer_1" xmlns="http://www.w3.org/2000/svg" xmlns:xlink="http://www.w3.org/1999/xlink" x="0px" y="0px"
	 viewBox="0 0 834.1 129.5" style="enable-background:new 0 0 834.1 129.5;" xml:space="preserve">
<style type="text/css">
	.st0{fill:#293F50;}
	.st1{fill:#43A368;}
	.st2{fill:#45A66A;}
</style>
<path class="st0" d="M141.1,29.3h43v9.6h-32.8v19.8h28v9h-28v28.8h-10.2V29.3z"/>
<path class="st0" d="M191.8,48.6h9.6v47.9h-9.6V48.6z"/>
<path class="st0" d="M211.3,48.6h9.6v5.1h0.2c3-3.7,7.7-5.8,12.5-5.7c4,0,7.9,1.5,10.9,4.2c3.3,2.8,5,7,5.1,12.5v31.8H240V68
	c0-3.4-0.9-5.9-2.7-7.7c-1.8-1.8-4.2-2.8-6.8-2.7c-2.5-0.1-5,0.9-6.8,2.7c-1.8,1.8-2.7,4.3-2.7,7.7v28.5h-9.6V48.6z"/>
<path class="st0" d="M257.6,62.9c0-7.8,0.2-13,0.7-15.7c0.4-2.3,1.1-4.4,2.3-6.4c1.9-3.4,4.6-6.2,7.8-8.3c3.5-2.5,8-3.7,13.2-3.8
	c5.4,0.1,9.8,1.3,13.4,3.8c3.2,2.1,5.9,4.9,7.7,8.3c1.3,1.9,2.1,4.1,2.4,6.4c0.5,5.2,0.7,10.5,0.6,15.7c0.1,5.2-0.1,10.4-0.6,15.6
	c-0.3,2.3-1.1,4.5-2.4,6.5c-1.8,3.4-4.4,6.2-7.7,8.2c-3.6,2.5-8,3.8-13.4,3.9c-4.7,0.1-9.3-1.3-13.2-3.9c-3.3-2-6-4.9-7.8-8.2
	c-0.5-1-0.9-2-1.3-2.9c-0.4-1.2-0.7-2.4-0.9-3.6C257.9,75.8,257.6,70.6,257.6,62.9z M267.9,62.9c0,6.6,0.2,11.1,0.7,13.4
	c0.3,2.1,1.2,4.1,2.6,5.7c2.6,3.1,6.4,4.9,10.4,4.9c2.2,0.1,4.4-0.5,6.3-1.5c1.6-0.8,3-1.9,4.1-3.4c1.4-1.6,2.3-3.6,2.7-5.7
	c0.5-2.3,0.7-6.8,0.7-13.4c0-6.6-0.2-11.1-0.7-13.5c-0.4-2.1-1.3-4-2.7-5.6c-1.1-1.4-2.5-2.6-4.1-3.5c-2-0.9-4.1-1.4-6.3-1.4
	c-2.1,0-4.3,0.5-6.2,1.4c-1.6,0.8-3.1,2-4.2,3.5c-1.4,1.6-2.3,3.5-2.6,5.6C268.1,51.8,267.9,56.3,267.9,62.9z"/>
<path class="st0" d="M313.9,48.6h9.6v5c3.1-3.5,7.6-5.6,12.4-5.6c5.9,0.2,10.2,2.2,12.9,6.3c1.4,1.7,2.4,3.8,2.7,6
	c0.6,4.1,0.8,8.2,0.7,12.4c0.1,4.1-0.1,8.1-0.7,12.2c-0.4,2.2-1.3,4.3-2.7,6c-1.4,1.9-3.1,3.4-5.2,4.4c-2.4,1.2-5,1.8-7.7,1.8
	c-2.3,0-4.6-0.5-6.6-1.6c-2.1-1-4.1-2.4-5.8-4.1v24.5h-9.6V48.6z M333,87.4c1.9,0.1,3.8-0.4,5.4-1.3c1.3-0.8,2.2-2,2.8-3.4
	c0.6-1.5,1.1-3.1,1.2-4.8c0.1-1.7,0.1-3.5,0.1-5.3c0-1.9,0-3.8-0.1-5.6c-0.2-1.7-0.6-3.3-1.2-4.8c-0.5-1.4-1.5-2.6-2.8-3.4
	c-1.7-0.8-3.5-1.2-5.4-1.2c-1.8-0.1-3.6,0.4-5.1,1.3c-1.3,0.9-2.3,2.1-2.9,3.5c-0.6,1.5-1,3.1-1.2,4.7c-0.2,1.8-0.3,3.6-0.3,5.4
	c0,1.7,0.1,3.4,0.3,5.1c0.2,1.7,0.5,3.3,1.2,4.8c0.6,1.4,1.6,2.7,2.9,3.5C329.4,87.1,331.2,87.5,333,87.4z"/>
<path class="st0" d="M377.4,88c2.4,0.1,4.7-0.5,6.8-1.6c1.7-0.9,2.7-2.6,2.6-4.5c0.2-1.4-0.4-2.8-1.6-3.6c-1.3-0.8-2.8-1.2-4.3-1.2
	l-8.5-0.7c-3.6-0.2-7.1-1.6-9.8-4.1c-2.6-2.3-3.9-5.5-4-9.6c0.1-4.9,1.8-8.6,5.2-11.1c3.3-2.5,7.5-3.7,12.6-3.7c2,0,4,0.1,6,0.4
	c1.7,0.3,3.3,0.7,4.9,1.3c2.9,1.2,5.6,2.8,7.9,4.8l-6,7c-1.8-1.3-3.8-2.4-5.9-3.3c-2.2-0.8-4.6-1.2-7-1.2c-3,0-5.1,0.5-6.3,1.6
	c-1.2,1-1.9,2.6-1.9,4.2c0,1.1,0.5,2.2,1.4,2.8c0.9,0.9,2.6,1.5,4.9,1.7l7.9,0.6c5,0.4,8.6,1.9,10.8,4.5c2.1,2.8,3.2,6.3,3.1,9.8
	c0.1,4.3-2,8.4-5.7,10.8c-3.7,2.6-8.4,3.9-14.2,4c-7.8,0-14.8-2.9-21.1-8.6l6.7-6.6C366.2,86,371.2,88,377.4,88z"/>
<path class="st0" d="M425.6,29.3h43v9.6h-32.8v19.8h28v9h-28v28.8h-10.2V29.3z"/>
<path class="st0" d="M469.3,72.5c-0.1-3.9,0.3-7.8,1.2-11.6c0.8-2.5,2.1-4.8,4-6.7c1.5-1.8,3.4-3.2,5.5-4.3c2.8-1.3,5.9-2,9-1.9
	c3.2-0.1,6.3,0.6,9.2,1.9c2.1,1.1,3.9,2.5,5.4,4.3c1.9,1.8,3.3,4.1,4.1,6.7c0.9,3.8,1.3,7.7,1.2,11.6c0.1,3.9-0.3,7.8-1.2,11.5
	c-0.8,2.6-2.2,5-4.1,6.9c-0.7,0.8-1.4,1.5-2.3,2.1c-0.9,0.8-2,1.5-3.1,2c-2.8,1.4-6,2.2-9.2,2.1c-3.1,0.1-6.2-0.6-9-2.1
	c-2.1-1-4-2.4-5.5-4.1c-1.8-2-3.2-4.3-4-6.9C469.6,80.3,469.2,76.4,469.3,72.5z M499.2,72.6c0.1-2.5-0.1-5-0.5-7.5
	c-0.3-1.5-0.9-2.8-1.9-4c-0.8-1.1-1.9-2-3.1-2.5c-1.4-0.7-3-1-4.6-1c-1.6,0-3.1,0.3-4.5,1c-1.3,0.6-2.4,1.4-3.2,2.5
	c-0.9,1.2-1.5,2.5-1.8,4c-0.4,2.4-0.6,4.9-0.6,7.4c-0.1,2.4,0.1,4.9,0.6,7.3c0.3,1.5,0.9,2.9,1.8,4.2c0.9,1,2,1.8,3.2,2.4
	c1.4,0.7,3,1,4.5,1c1.6,0,3.2-0.3,4.6-1c1.2-0.6,2.3-1.4,3.1-2.4c1-1.2,1.6-2.6,1.9-4.2C499.1,77.5,499.3,75,499.2,72.6L499.2,72.6z
	"/>
<path class="st0" d="M516.1,48.6h9.6v28.5c-0.2,2.8,0.8,5.5,2.7,7.6c1.8,1.8,4.3,2.8,6.8,2.7c2.5,0.1,5-0.9,6.8-2.7
	c1.9-2.1,2.8-4.8,2.7-7.6V48.6h9.6v47.9h-9.6v-5.1h-0.2c-3,3.7-7.6,5.8-12.4,5.7c-4-0.1-7.8-1.6-10.8-4.3c-3.5-2.8-5.2-6.9-5.3-12.3
	V48.6z"/>
<path class="st0" d="M564.3,48.6h9.6v5.1h0.2c3-3.7,7.7-5.8,12.5-5.7c4,0,7.9,1.5,10.9,4.2c3.3,2.8,5,7,5.1,12.5v31.8H593V68
	c0-3.4-0.9-5.9-2.7-7.7c-1.8-1.8-4.2-2.8-6.8-2.7c-2.5-0.1-5,0.9-6.8,2.7c-1.8,1.8-2.7,4.3-2.7,7.7v28.5h-9.6V48.6z"/>
<path class="st0" d="M638.4,91.5c-3.1,3.6-7.7,5.6-12.4,5.6c-2.6,0-5.1-0.6-7.4-1.8c-2.1-1.1-3.9-2.6-5.4-4.4
	c-1.4-1.8-2.3-3.9-2.6-6.1c-0.6-4-0.9-8.1-0.8-12.2c-0.1-4.1,0.1-8.2,0.8-12.3c0.3-2.2,1.2-4.3,2.6-6c2.7-4,7-6.1,12.8-6.3
	c2.4,0,4.7,0.5,6.8,1.5c2,1.1,3.9,2.5,5.6,4.2V29.3h9.6v67.3h-9.6V91.5z M628.9,57.7c-1.8-0.1-3.6,0.3-5.2,1.2
	c-1.3,0.8-2.3,2-2.9,3.4c-0.6,1.5-1,3.1-1.2,4.7c-0.2,1.9-0.3,3.7-0.3,5.6c0,1.8,0.1,3.5,0.3,5.3c0.2,1.7,0.5,3.3,1.2,4.9
	c0.6,1.4,1.6,2.6,2.9,3.4c1.6,1,3.4,1.4,5.2,1.3c1.9,0.1,3.8-0.4,5.4-1.4c1.3-0.8,2.2-2.1,2.7-3.5c0.6-1.5,1.1-3.2,1.2-4.8
	c0.1-1.8,0.1-3.5,0.1-5.2c0-1.8,0-3.6-0.1-5.3c-0.2-1.6-0.6-3.2-1.2-4.7c-0.5-1.4-1.4-2.7-2.7-3.5C632.7,58,630.8,57.6,628.9,57.7z"
	/>
<path class="st0" d="M682.8,92.3h-0.2c-0.9,1.7-2.4,2.9-4.2,3.6c-2.4,0.9-5.1,1.3-7.7,1.2c-5.4-0.1-9.5-1.5-12.4-4.2
	c-3-2.6-4.7-6.4-4.6-10.4c-0.1-3.7,1.3-7.4,4-10c2.6-2.7,6.5-4.1,11.6-4.2h13.3v-5c0.1-4.2-3.2-6.3-9.8-6.1
	c-1.9-0.1-3.8,0.2-5.7,0.7c-1.4,0.6-2.6,1.6-3.4,3l-7.6-5.8c3.7-4.8,9.1-7.1,16.2-7c6-0.1,10.8,1.1,14.4,3.4
	c3.6,2.4,5.4,6.5,5.5,12.4v32.7h-9.6V92.3z M682.8,76.2h-11.5c-5.6,0.1-8.4,2-8.3,5.8c0,1.7,0.8,3.2,2.2,4.2
	c1.4,1.3,3.7,1.9,6.9,1.9c4,0.1,6.9-0.4,8.5-1.4c1.5-1,2.3-3.3,2.3-6.9V76.2z"/>
<path class="st0" d="M703.4,34.1h9.6v14.6h7V56h-7v27.9c-0.1,2.4,1.1,3.6,3.4,3.6h3.6v9.1h-5c-3.1,0.1-6.1-1-8.3-3.1
	c-2.2-2-3.3-4.9-3.3-8.7V56h-4.8v-7.3h4.8V34.1z"/>
<path class="st0" d="M727.3,29.3h9.6v9.6h-9.6V29.3z M727.3,48.6h9.6v47.9h-9.6V48.6z"/>
<path class="st0" d="M745.2,72.5c-0.1-3.9,0.3-7.8,1.2-11.6c0.8-2.5,2.1-4.8,4-6.7c1.5-1.8,3.4-3.2,5.5-4.3c2.8-1.3,5.9-2,9-1.9
	c3.2-0.1,6.3,0.6,9.2,1.9c2.1,1.1,3.9,2.5,5.4,4.3c1.9,1.8,3.3,4.1,4.1,6.7c0.9,3.8,1.3,7.7,1.2,11.6c0.1,3.9-0.3,7.8-1.2,11.5
	c-0.8,2.6-2.2,5-4.1,6.9c-0.7,0.8-1.4,1.5-2.3,2.1c-0.9,0.8-2,1.5-3.1,2c-2.8,1.4-6,2.2-9.2,2.1c-3.1,0.1-6.2-0.6-9-2.1
	c-2.1-1-4-2.4-5.5-4.1c-1.8-2-3.2-4.3-4-6.9C745.5,80.3,745.1,76.4,745.2,72.5z M775.1,72.6c0.1-2.5-0.1-5-0.5-7.5
	c-0.3-1.5-0.9-2.8-1.9-4c-0.8-1.1-1.9-2-3.1-2.5c-1.4-0.7-3-1-4.6-1c-1.6,0-3.1,0.3-4.5,1c-1.3,0.6-2.4,1.4-3.2,2.5
	c-0.9,1.2-1.5,2.5-1.8,4c-0.4,2.4-0.6,4.9-0.6,7.4c-0.1,2.4,0.1,4.9,0.6,7.3c0.3,1.5,0.9,2.9,1.8,4.2c0.9,1,2,1.8,3.2,2.4
	c1.4,0.7,3,1,4.5,1c1.6,0,3.2-0.3,4.6-1c1.2-0.6,2.3-1.4,3.1-2.4c1-1.2,1.6-2.6,1.9-4.2C775,77.5,775.1,75,775.1,72.6L775.1,72.6z"
	/>
<path class="st0" d="M792.8,48.6h9.6v5.1h0.2c3-3.7,7.7-5.8,12.5-5.7c4,0,7.9,1.5,10.9,4.2c3.3,2.8,5,7,5.1,12.5v31.8h-9.6V68
	c0-3.4-0.9-5.9-2.7-7.7c-1.8-1.8-4.2-2.8-6.8-2.7c-2.5-0.1-5,0.9-6.8,2.7c-1.8,1.8-2.7,4.3-2.7,7.7v28.5h-9.6L792.8,48.6z"/>
<polygon class="st1" points="195.9,30.5 202.3,34.1 195.9,37.8 189.5,34.1 "/>
<polygon class="st0" points="195.9,34.3 195.9,41.5 189.5,37.9 189.5,30.7 "/>
<polygon class="st0" points="195.9,34.3 195.9,41.5 202.3,37.9 202.3,30.7 "/>
<polygon class="st0" points="195.9,27 202.3,30.7 195.9,34.3 189.5,30.7 "/>
<g>
	<polygon class="st2" points="54.5,68.2 4.6,39.3 4.6,96.7 54.9,125.6 	"/>
	<polygon class="st2" points="59.1,60.7 109.6,31.6 59.1,2.1 8.5,31.2 	"/>
	<polygon class="st2" points="63.3,68.2 63.6,125.6 113.5,96.7 113.5,39.3 	"/>
</g>
</svg>
